G04 #@! TF.FileFunction,Soldermask,Bot*
%FSLAX46Y46*%
G04 Gerber Fmt 4.6, Leading zero omitted, Abs format (unit mm)*
G04 Created by KiCad (PCBNEW 4.0.7-e2-6376~58~ubuntu17.04.1) date Mon Nov 13 09:49:53 2017*
%MOMM*%
%LPD*%
G01*
G04 APERTURE LIST*
%ADD10C,0.100000*%
%ADD11R,1.300000X0.850000*%
%ADD12R,0.750000X1.160000*%
%ADD13O,3.600000X2.600000*%
%ADD14O,2.600000X3.600000*%
%ADD15C,4.100000*%
%ADD16R,1.827200X2.132000*%
%ADD17O,1.827200X2.132000*%
%ADD18C,1.100000*%
%ADD19R,1.900860X3.600120*%
%ADD20R,3.600120X1.900860*%
%ADD21O,2.100000X3.100000*%
%ADD22C,1.601140*%
%ADD23C,3.099740*%
%ADD24R,3.100000X4.100000*%
%ADD25R,1.400000X1.400000*%
G04 APERTURE END LIST*
D10*
D11*
X138973600Y-96774000D03*
X137073600Y-96774000D03*
D12*
X139862600Y-100541000D03*
X138912600Y-100541000D03*
X137962600Y-100541000D03*
X137962600Y-98341000D03*
X139862600Y-98341000D03*
X138912600Y-98341000D03*
D13*
X176396000Y-92159600D03*
X176396000Y-99559600D03*
X168996000Y-99159600D03*
D14*
X171196000Y-95859600D03*
D13*
X168996000Y-92559600D03*
D15*
X175296000Y-95859600D03*
D16*
X172500000Y-87500000D03*
D17*
X175040000Y-87500000D03*
X177580000Y-87500000D03*
D16*
X172500000Y-122500000D03*
D17*
X175040000Y-122500000D03*
X177580000Y-122500000D03*
D18*
X167750000Y-123000000D03*
X166500000Y-123000000D03*
X164000000Y-123000000D03*
X165250000Y-123000000D03*
D16*
X132500000Y-122500000D03*
D17*
X135040000Y-122500000D03*
X137580000Y-122500000D03*
X140120000Y-122500000D03*
D16*
X132500000Y-87500000D03*
D17*
X135040000Y-87500000D03*
X137580000Y-87500000D03*
X140120000Y-87500000D03*
D19*
X174244000Y-108879640D03*
X174244000Y-113878360D03*
D20*
X155488640Y-97078800D03*
X160487360Y-97078800D03*
D19*
X165100000Y-114848640D03*
X165100000Y-119847360D03*
D21*
X146989800Y-122504200D03*
X149946400Y-122500000D03*
X155946400Y-122500000D03*
X152933400Y-122504200D03*
X147000000Y-87500000D03*
X150000000Y-87500000D03*
X156000000Y-87500000D03*
X153000000Y-87500000D03*
D20*
X148554440Y-100990400D03*
X153553160Y-100990400D03*
D22*
X143359720Y-102997860D03*
X143359720Y-100457860D03*
X143359720Y-98425860D03*
X143359720Y-95885860D03*
D23*
X140692720Y-106045860D03*
X140692720Y-92329860D03*
D20*
X171973240Y-102997000D03*
X176971960Y-102997000D03*
D24*
X160020000Y-87376000D03*
X160020000Y-122682000D03*
D25*
X153038000Y-95250000D03*
X150238000Y-95250000D03*
X162436000Y-118110000D03*
X159636000Y-118110000D03*
X161541000Y-103886000D03*
X164341000Y-103886000D03*
M02*
