G04 #@! TF.FileFunction,Legend,Bot*
%FSLAX46Y46*%
G04 Gerber Fmt 4.6, Leading zero omitted, Abs format (unit mm)*
G04 Created by KiCad (PCBNEW 4.0.7-e2-6376~58~ubuntu17.04.1) date Mon Nov 13 09:49:52 2017*
%MOMM*%
%LPD*%
G01*
G04 APERTURE LIST*
%ADD10C,0.100000*%
%ADD11C,0.200000*%
%ADD12C,0.010000*%
%ADD13C,0.150000*%
%ADD14C,0.125000*%
G04 APERTURE END LIST*
D10*
D11*
X142303524Y-110464762D02*
X142160667Y-110512381D01*
X141922571Y-110512381D01*
X141827333Y-110464762D01*
X141779714Y-110417143D01*
X141732095Y-110321905D01*
X141732095Y-110226667D01*
X141779714Y-110131429D01*
X141827333Y-110083810D01*
X141922571Y-110036190D01*
X142113048Y-109988571D01*
X142208286Y-109940952D01*
X142255905Y-109893333D01*
X142303524Y-109798095D01*
X142303524Y-109702857D01*
X142255905Y-109607619D01*
X142208286Y-109560000D01*
X142113048Y-109512381D01*
X141874952Y-109512381D01*
X141732095Y-109560000D01*
X141398762Y-109845714D02*
X141208286Y-110512381D01*
X141017809Y-110036190D01*
X140827333Y-110512381D01*
X140636857Y-109845714D01*
X139827333Y-110512381D02*
X139827333Y-109988571D01*
X139874952Y-109893333D01*
X139970190Y-109845714D01*
X140160667Y-109845714D01*
X140255905Y-109893333D01*
X139827333Y-110464762D02*
X139922571Y-110512381D01*
X140160667Y-110512381D01*
X140255905Y-110464762D01*
X140303524Y-110369524D01*
X140303524Y-110274286D01*
X140255905Y-110179048D01*
X140160667Y-110131429D01*
X139922571Y-110131429D01*
X139827333Y-110083810D01*
X139351143Y-110512381D02*
X139351143Y-109512381D01*
X139255905Y-110131429D02*
X138970190Y-110512381D01*
X138970190Y-109845714D02*
X139351143Y-110226667D01*
X138160666Y-110464762D02*
X138255904Y-110512381D01*
X138446381Y-110512381D01*
X138541619Y-110464762D01*
X138589238Y-110369524D01*
X138589238Y-109988571D01*
X138541619Y-109893333D01*
X138446381Y-109845714D01*
X138255904Y-109845714D01*
X138160666Y-109893333D01*
X138113047Y-109988571D01*
X138113047Y-110083810D01*
X138589238Y-110179048D01*
X137255904Y-109845714D02*
X137255904Y-110512381D01*
X137684476Y-109845714D02*
X137684476Y-110369524D01*
X137636857Y-110464762D01*
X137541619Y-110512381D01*
X137398761Y-110512381D01*
X137303523Y-110464762D01*
X137255904Y-110417143D01*
X136779714Y-109845714D02*
X136779714Y-110845714D01*
X136779714Y-109893333D02*
X136684476Y-109845714D01*
X136493999Y-109845714D01*
X136398761Y-109893333D01*
X136351142Y-109940952D01*
X136303523Y-110036190D01*
X136303523Y-110321905D01*
X136351142Y-110417143D01*
X136398761Y-110464762D01*
X136493999Y-110512381D01*
X136684476Y-110512381D01*
X136779714Y-110464762D01*
X142255905Y-112212381D02*
X142255905Y-111212381D01*
X141874952Y-111212381D01*
X141779714Y-111260000D01*
X141732095Y-111307619D01*
X141684476Y-111402857D01*
X141684476Y-111545714D01*
X141732095Y-111640952D01*
X141779714Y-111688571D01*
X141874952Y-111736190D01*
X142255905Y-111736190D01*
X141113048Y-112212381D02*
X141208286Y-112164762D01*
X141255905Y-112117143D01*
X141303524Y-112021905D01*
X141303524Y-111736190D01*
X141255905Y-111640952D01*
X141208286Y-111593333D01*
X141113048Y-111545714D01*
X140970190Y-111545714D01*
X140874952Y-111593333D01*
X140827333Y-111640952D01*
X140779714Y-111736190D01*
X140779714Y-112021905D01*
X140827333Y-112117143D01*
X140874952Y-112164762D01*
X140970190Y-112212381D01*
X141113048Y-112212381D01*
X140446381Y-111545714D02*
X140255905Y-112212381D01*
X140065428Y-111736190D01*
X139874952Y-112212381D01*
X139684476Y-111545714D01*
X138922571Y-112164762D02*
X139017809Y-112212381D01*
X139208286Y-112212381D01*
X139303524Y-112164762D01*
X139351143Y-112069524D01*
X139351143Y-111688571D01*
X139303524Y-111593333D01*
X139208286Y-111545714D01*
X139017809Y-111545714D01*
X138922571Y-111593333D01*
X138874952Y-111688571D01*
X138874952Y-111783810D01*
X139351143Y-111879048D01*
X138446381Y-112212381D02*
X138446381Y-111545714D01*
X138446381Y-111736190D02*
X138398762Y-111640952D01*
X138351143Y-111593333D01*
X138255905Y-111545714D01*
X138160666Y-111545714D01*
X141684476Y-113912381D02*
X142017810Y-113436190D01*
X142255905Y-113912381D02*
X142255905Y-112912381D01*
X141874952Y-112912381D01*
X141779714Y-112960000D01*
X141732095Y-113007619D01*
X141684476Y-113102857D01*
X141684476Y-113245714D01*
X141732095Y-113340952D01*
X141779714Y-113388571D01*
X141874952Y-113436190D01*
X142255905Y-113436190D01*
X140874952Y-113864762D02*
X140970190Y-113912381D01*
X141160667Y-113912381D01*
X141255905Y-113864762D01*
X141303524Y-113769524D01*
X141303524Y-113388571D01*
X141255905Y-113293333D01*
X141160667Y-113245714D01*
X140970190Y-113245714D01*
X140874952Y-113293333D01*
X140827333Y-113388571D01*
X140827333Y-113483810D01*
X141303524Y-113579048D01*
X140494000Y-113245714D02*
X140255905Y-113912381D01*
X140017809Y-113245714D01*
X139684476Y-113007619D02*
X139636857Y-112960000D01*
X139541619Y-112912381D01*
X139303523Y-112912381D01*
X139208285Y-112960000D01*
X139160666Y-113007619D01*
X139113047Y-113102857D01*
X139113047Y-113198095D01*
X139160666Y-113340952D01*
X139732095Y-113912381D01*
X139113047Y-113912381D01*
X142509905Y-116188381D02*
X142509905Y-115188381D01*
X142176571Y-115902667D01*
X141843238Y-115188381D01*
X141843238Y-116188381D01*
X140938476Y-116188381D02*
X140938476Y-115664571D01*
X140986095Y-115569333D01*
X141081333Y-115521714D01*
X141271810Y-115521714D01*
X141367048Y-115569333D01*
X140938476Y-116140762D02*
X141033714Y-116188381D01*
X141271810Y-116188381D01*
X141367048Y-116140762D01*
X141414667Y-116045524D01*
X141414667Y-115950286D01*
X141367048Y-115855048D01*
X141271810Y-115807429D01*
X141033714Y-115807429D01*
X140938476Y-115759810D01*
X140557524Y-116188381D02*
X140033714Y-115521714D01*
X140557524Y-115521714D02*
X140033714Y-116188381D01*
X138081333Y-116188381D02*
X138128952Y-116188381D01*
X138224190Y-116140762D01*
X138367047Y-115997905D01*
X138605142Y-115712190D01*
X138700381Y-115569333D01*
X138748000Y-115426476D01*
X138748000Y-115331238D01*
X138700381Y-115236000D01*
X138605142Y-115188381D01*
X138557523Y-115188381D01*
X138462285Y-115236000D01*
X138414666Y-115331238D01*
X138414666Y-115378857D01*
X138462285Y-115474095D01*
X138509904Y-115521714D01*
X138795619Y-115712190D01*
X138843238Y-115759810D01*
X138890857Y-115855048D01*
X138890857Y-115997905D01*
X138843238Y-116093143D01*
X138795619Y-116140762D01*
X138700381Y-116188381D01*
X138557523Y-116188381D01*
X138462285Y-116140762D01*
X138414666Y-116093143D01*
X138271809Y-115902667D01*
X138224190Y-115759810D01*
X138224190Y-115664571D01*
X136890857Y-115664571D02*
X136557523Y-115664571D01*
X136414666Y-116188381D02*
X136890857Y-116188381D01*
X136890857Y-115188381D01*
X136414666Y-115188381D01*
X135843238Y-116188381D02*
X135938476Y-116140762D01*
X135986095Y-116045524D01*
X135986095Y-115188381D01*
X135462285Y-116188381D02*
X135462285Y-115521714D01*
X135462285Y-115616952D02*
X135414666Y-115569333D01*
X135319428Y-115521714D01*
X135176570Y-115521714D01*
X135081332Y-115569333D01*
X135033713Y-115664571D01*
X135033713Y-116188381D01*
X135033713Y-115664571D02*
X134986094Y-115569333D01*
X134890856Y-115521714D01*
X134747999Y-115521714D01*
X134652761Y-115569333D01*
X134605142Y-115664571D01*
X134605142Y-116188381D01*
X133700380Y-116188381D02*
X133700380Y-115664571D01*
X133747999Y-115569333D01*
X133843237Y-115521714D01*
X134033714Y-115521714D01*
X134128952Y-115569333D01*
X133700380Y-116140762D02*
X133795618Y-116188381D01*
X134033714Y-116188381D01*
X134128952Y-116140762D01*
X134176571Y-116045524D01*
X134176571Y-115950286D01*
X134128952Y-115855048D01*
X134033714Y-115807429D01*
X133795618Y-115807429D01*
X133700380Y-115759810D01*
X133224190Y-116188381D02*
X133224190Y-115521714D01*
X133224190Y-115712190D02*
X133176571Y-115616952D01*
X133128952Y-115569333D01*
X133033714Y-115521714D01*
X132938475Y-115521714D01*
X142176571Y-117364571D02*
X142509905Y-117364571D01*
X142509905Y-117888381D02*
X142509905Y-116888381D01*
X142033714Y-116888381D01*
X141271809Y-117840762D02*
X141367047Y-117888381D01*
X141557524Y-117888381D01*
X141652762Y-117840762D01*
X141700381Y-117745524D01*
X141700381Y-117364571D01*
X141652762Y-117269333D01*
X141557524Y-117221714D01*
X141367047Y-117221714D01*
X141271809Y-117269333D01*
X141224190Y-117364571D01*
X141224190Y-117459810D01*
X141700381Y-117555048D01*
X140795619Y-117888381D02*
X140795619Y-116888381D01*
X140795619Y-117269333D02*
X140700381Y-117221714D01*
X140509904Y-117221714D01*
X140414666Y-117269333D01*
X140367047Y-117316952D01*
X140319428Y-117412190D01*
X140319428Y-117697905D01*
X140367047Y-117793143D01*
X140414666Y-117840762D01*
X140509904Y-117888381D01*
X140700381Y-117888381D01*
X140795619Y-117840762D01*
X139890857Y-117888381D02*
X139890857Y-117221714D01*
X139890857Y-117412190D02*
X139843238Y-117316952D01*
X139795619Y-117269333D01*
X139700381Y-117221714D01*
X139605142Y-117221714D01*
X138843237Y-117221714D02*
X138843237Y-117888381D01*
X139271809Y-117221714D02*
X139271809Y-117745524D01*
X139224190Y-117840762D01*
X139128952Y-117888381D01*
X138986094Y-117888381D01*
X138890856Y-117840762D01*
X138843237Y-117793143D01*
X137938475Y-117888381D02*
X137938475Y-117364571D01*
X137986094Y-117269333D01*
X138081332Y-117221714D01*
X138271809Y-117221714D01*
X138367047Y-117269333D01*
X137938475Y-117840762D02*
X138033713Y-117888381D01*
X138271809Y-117888381D01*
X138367047Y-117840762D01*
X138414666Y-117745524D01*
X138414666Y-117650286D01*
X138367047Y-117555048D01*
X138271809Y-117507429D01*
X138033713Y-117507429D01*
X137938475Y-117459810D01*
X137462285Y-117888381D02*
X137462285Y-117221714D01*
X137462285Y-117412190D02*
X137414666Y-117316952D01*
X137367047Y-117269333D01*
X137271809Y-117221714D01*
X137176570Y-117221714D01*
X136938475Y-117221714D02*
X136700380Y-117888381D01*
X136462284Y-117221714D02*
X136700380Y-117888381D01*
X136795618Y-118126476D01*
X136843237Y-118174095D01*
X136938475Y-118221714D01*
X135367046Y-116983619D02*
X135319427Y-116936000D01*
X135224189Y-116888381D01*
X134986093Y-116888381D01*
X134890855Y-116936000D01*
X134843236Y-116983619D01*
X134795617Y-117078857D01*
X134795617Y-117174095D01*
X134843236Y-117316952D01*
X135414665Y-117888381D01*
X134795617Y-117888381D01*
X134176570Y-116888381D02*
X134081331Y-116888381D01*
X133986093Y-116936000D01*
X133938474Y-116983619D01*
X133890855Y-117078857D01*
X133843236Y-117269333D01*
X133843236Y-117507429D01*
X133890855Y-117697905D01*
X133938474Y-117793143D01*
X133986093Y-117840762D01*
X134081331Y-117888381D01*
X134176570Y-117888381D01*
X134271808Y-117840762D01*
X134319427Y-117793143D01*
X134367046Y-117697905D01*
X134414665Y-117507429D01*
X134414665Y-117269333D01*
X134367046Y-117078857D01*
X134319427Y-116983619D01*
X134271808Y-116936000D01*
X134176570Y-116888381D01*
X132890855Y-117888381D02*
X133462284Y-117888381D01*
X133176570Y-117888381D02*
X133176570Y-116888381D01*
X133271808Y-117031238D01*
X133367046Y-117126476D01*
X133462284Y-117174095D01*
X132557522Y-116888381D02*
X131890855Y-116888381D01*
X132319427Y-117888381D01*
D12*
G36*
X150445745Y-104208244D02*
X149229193Y-104492420D01*
X148012039Y-104989644D01*
X148000098Y-104995557D01*
X147438298Y-105286486D01*
X147000631Y-105551608D01*
X146613742Y-105844218D01*
X146204275Y-106217612D01*
X145895391Y-106524706D01*
X144965133Y-107612182D01*
X144237315Y-108784277D01*
X143714057Y-110037513D01*
X143672273Y-110169740D01*
X143452588Y-111236805D01*
X143409610Y-112379972D01*
X143532272Y-113559042D01*
X143809510Y-114733820D01*
X144230257Y-115864109D01*
X144783448Y-116909712D01*
X145458016Y-117830435D01*
X145910702Y-118300893D01*
X146716064Y-118939377D01*
X147668473Y-119511516D01*
X148695857Y-119978711D01*
X149580165Y-120266030D01*
X150075534Y-120361084D01*
X150705798Y-120433843D01*
X151394431Y-120480145D01*
X152064905Y-120495829D01*
X152640696Y-120476733D01*
X152908000Y-120446992D01*
X154290005Y-120128269D01*
X155538022Y-119636110D01*
X156649632Y-118971604D01*
X157254211Y-118486983D01*
X157951019Y-117756717D01*
X158593427Y-116875397D01*
X159136335Y-115912643D01*
X159515204Y-114996914D01*
X159651060Y-114578034D01*
X159745080Y-114231435D01*
X159804778Y-113898881D01*
X159837668Y-113522136D01*
X159851261Y-113042964D01*
X159852930Y-112453221D01*
X159687933Y-112453221D01*
X159657518Y-113223067D01*
X159591254Y-113947209D01*
X159491259Y-114563158D01*
X159392543Y-114924584D01*
X158866441Y-116134320D01*
X158207280Y-117178236D01*
X157398565Y-118078123D01*
X156423799Y-118855769D01*
X156408263Y-118866320D01*
X155937301Y-119171065D01*
X155464775Y-119452618D01*
X155061759Y-119669626D01*
X154895826Y-119746341D01*
X154396640Y-119919439D01*
X153769563Y-120088634D01*
X153106894Y-120232714D01*
X152500933Y-120330464D01*
X152245391Y-120355515D01*
X151637170Y-120358412D01*
X150920663Y-120305270D01*
X150197960Y-120207318D01*
X149571152Y-120075789D01*
X149484522Y-120051782D01*
X148665126Y-119756032D01*
X147822259Y-119348742D01*
X147006431Y-118862290D01*
X146268152Y-118329050D01*
X145657933Y-117781400D01*
X145312432Y-117377582D01*
X144601310Y-116236630D01*
X144074471Y-115031122D01*
X143736555Y-113787413D01*
X143592198Y-112531858D01*
X143646041Y-111290813D01*
X143902721Y-110090632D01*
X143985560Y-109838435D01*
X144520491Y-108637380D01*
X145237316Y-107544503D01*
X146115417Y-106580486D01*
X147134175Y-105766008D01*
X148272971Y-105121749D01*
X148972173Y-104837101D01*
X149442655Y-104682412D01*
X149860220Y-104578227D01*
X150299753Y-104512048D01*
X150836143Y-104471377D01*
X151276138Y-104452558D01*
X151886197Y-104436389D01*
X152347967Y-104443100D01*
X152733480Y-104480008D01*
X153114765Y-104554428D01*
X153563854Y-104673676D01*
X153624906Y-104691111D01*
X154723971Y-105079838D01*
X155789613Y-105594823D01*
X156755718Y-106200486D01*
X157421021Y-106734133D01*
X157953098Y-107315417D01*
X158468850Y-108055471D01*
X158933665Y-108892955D01*
X159312927Y-109766527D01*
X159542870Y-110494337D01*
X159632729Y-111026368D01*
X159680377Y-111700159D01*
X159687933Y-112453221D01*
X159852930Y-112453221D01*
X159853072Y-112403130D01*
X159853017Y-112378435D01*
X159847231Y-111713222D01*
X159829033Y-111212604D01*
X159791887Y-110820385D01*
X159729258Y-110480369D01*
X159634611Y-110136360D01*
X159568323Y-109930466D01*
X159042239Y-108672118D01*
X158347689Y-107555688D01*
X157487787Y-106584808D01*
X156465649Y-105763110D01*
X155518205Y-105208013D01*
X154197923Y-104637000D01*
X152919496Y-104280234D01*
X151672308Y-104137416D01*
X150445745Y-104208244D01*
X150445745Y-104208244D01*
G37*
X150445745Y-104208244D02*
X149229193Y-104492420D01*
X148012039Y-104989644D01*
X148000098Y-104995557D01*
X147438298Y-105286486D01*
X147000631Y-105551608D01*
X146613742Y-105844218D01*
X146204275Y-106217612D01*
X145895391Y-106524706D01*
X144965133Y-107612182D01*
X144237315Y-108784277D01*
X143714057Y-110037513D01*
X143672273Y-110169740D01*
X143452588Y-111236805D01*
X143409610Y-112379972D01*
X143532272Y-113559042D01*
X143809510Y-114733820D01*
X144230257Y-115864109D01*
X144783448Y-116909712D01*
X145458016Y-117830435D01*
X145910702Y-118300893D01*
X146716064Y-118939377D01*
X147668473Y-119511516D01*
X148695857Y-119978711D01*
X149580165Y-120266030D01*
X150075534Y-120361084D01*
X150705798Y-120433843D01*
X151394431Y-120480145D01*
X152064905Y-120495829D01*
X152640696Y-120476733D01*
X152908000Y-120446992D01*
X154290005Y-120128269D01*
X155538022Y-119636110D01*
X156649632Y-118971604D01*
X157254211Y-118486983D01*
X157951019Y-117756717D01*
X158593427Y-116875397D01*
X159136335Y-115912643D01*
X159515204Y-114996914D01*
X159651060Y-114578034D01*
X159745080Y-114231435D01*
X159804778Y-113898881D01*
X159837668Y-113522136D01*
X159851261Y-113042964D01*
X159852930Y-112453221D01*
X159687933Y-112453221D01*
X159657518Y-113223067D01*
X159591254Y-113947209D01*
X159491259Y-114563158D01*
X159392543Y-114924584D01*
X158866441Y-116134320D01*
X158207280Y-117178236D01*
X157398565Y-118078123D01*
X156423799Y-118855769D01*
X156408263Y-118866320D01*
X155937301Y-119171065D01*
X155464775Y-119452618D01*
X155061759Y-119669626D01*
X154895826Y-119746341D01*
X154396640Y-119919439D01*
X153769563Y-120088634D01*
X153106894Y-120232714D01*
X152500933Y-120330464D01*
X152245391Y-120355515D01*
X151637170Y-120358412D01*
X150920663Y-120305270D01*
X150197960Y-120207318D01*
X149571152Y-120075789D01*
X149484522Y-120051782D01*
X148665126Y-119756032D01*
X147822259Y-119348742D01*
X147006431Y-118862290D01*
X146268152Y-118329050D01*
X145657933Y-117781400D01*
X145312432Y-117377582D01*
X144601310Y-116236630D01*
X144074471Y-115031122D01*
X143736555Y-113787413D01*
X143592198Y-112531858D01*
X143646041Y-111290813D01*
X143902721Y-110090632D01*
X143985560Y-109838435D01*
X144520491Y-108637380D01*
X145237316Y-107544503D01*
X146115417Y-106580486D01*
X147134175Y-105766008D01*
X148272971Y-105121749D01*
X148972173Y-104837101D01*
X149442655Y-104682412D01*
X149860220Y-104578227D01*
X150299753Y-104512048D01*
X150836143Y-104471377D01*
X151276138Y-104452558D01*
X151886197Y-104436389D01*
X152347967Y-104443100D01*
X152733480Y-104480008D01*
X153114765Y-104554428D01*
X153563854Y-104673676D01*
X153624906Y-104691111D01*
X154723971Y-105079838D01*
X155789613Y-105594823D01*
X156755718Y-106200486D01*
X157421021Y-106734133D01*
X157953098Y-107315417D01*
X158468850Y-108055471D01*
X158933665Y-108892955D01*
X159312927Y-109766527D01*
X159542870Y-110494337D01*
X159632729Y-111026368D01*
X159680377Y-111700159D01*
X159687933Y-112453221D01*
X159852930Y-112453221D01*
X159853072Y-112403130D01*
X159853017Y-112378435D01*
X159847231Y-111713222D01*
X159829033Y-111212604D01*
X159791887Y-110820385D01*
X159729258Y-110480369D01*
X159634611Y-110136360D01*
X159568323Y-109930466D01*
X159042239Y-108672118D01*
X158347689Y-107555688D01*
X157487787Y-106584808D01*
X156465649Y-105763110D01*
X155518205Y-105208013D01*
X154197923Y-104637000D01*
X152919496Y-104280234D01*
X151672308Y-104137416D01*
X150445745Y-104208244D01*
G36*
X150564895Y-104797133D02*
X149812802Y-104882928D01*
X149645388Y-104916333D01*
X148666107Y-105238080D01*
X147699021Y-105749498D01*
X146777522Y-106420408D01*
X145935001Y-107220629D01*
X145204848Y-108119984D01*
X144620454Y-109088291D01*
X144348273Y-109703976D01*
X144075322Y-110688819D01*
X143951066Y-111771095D01*
X143969795Y-112899498D01*
X144125798Y-114022721D01*
X144413366Y-115089459D01*
X144826788Y-116048403D01*
X145105916Y-116511536D01*
X145800549Y-117421125D01*
X146541415Y-118154819D01*
X147382172Y-118757467D01*
X148376481Y-119273920D01*
X148449950Y-119306564D01*
X149248539Y-119620723D01*
X150007628Y-119829857D01*
X150805299Y-119949253D01*
X151719636Y-119994199D01*
X151969304Y-119995602D01*
X152532633Y-119982637D01*
X152992954Y-119934063D01*
X153448253Y-119833203D01*
X153996519Y-119663383D01*
X154073377Y-119637523D01*
X155124629Y-119222296D01*
X156024024Y-118729084D01*
X156836819Y-118120448D01*
X157054505Y-117927243D01*
X157772395Y-117128758D01*
X158371955Y-116179381D01*
X158840744Y-115122048D01*
X159166324Y-113999697D01*
X159336253Y-112855267D01*
X159337464Y-112115281D01*
X159194193Y-112115281D01*
X159181277Y-112490077D01*
X159124507Y-112968187D01*
X159092074Y-113190128D01*
X158794220Y-114538867D01*
X158328281Y-115747824D01*
X157697400Y-116813093D01*
X156904720Y-117730765D01*
X155953385Y-118496934D01*
X154846540Y-119107692D01*
X154093355Y-119403286D01*
X153572652Y-119571986D01*
X153155164Y-119679058D01*
X152755957Y-119737930D01*
X152290096Y-119762028D01*
X151803652Y-119765272D01*
X150588869Y-119762182D01*
X151132686Y-119595266D01*
X151528457Y-119499256D01*
X151805682Y-119503140D01*
X151938534Y-119547741D01*
X152207515Y-119627677D01*
X152515143Y-119662283D01*
X152786567Y-119650906D01*
X152946933Y-119592890D01*
X152963217Y-119556696D01*
X152868655Y-119473874D01*
X152685344Y-119446261D01*
X152459301Y-119385386D01*
X152280508Y-119170492D01*
X152220313Y-119053790D01*
X152107777Y-118738333D01*
X152136244Y-118512384D01*
X152327914Y-118351634D01*
X152704987Y-118231773D01*
X153027708Y-118169664D01*
X154033691Y-117897340D01*
X154926475Y-117437180D01*
X155709534Y-116786703D01*
X156386340Y-115943427D01*
X156583693Y-115627962D01*
X157139536Y-114503827D01*
X157477352Y-113392282D01*
X157535674Y-112861939D01*
X157380608Y-112861939D01*
X157339328Y-113079760D01*
X157229774Y-113441033D01*
X157073379Y-113887376D01*
X156891571Y-114360407D01*
X156705784Y-114801745D01*
X156544444Y-115139773D01*
X155943981Y-116087303D01*
X155234704Y-116844938D01*
X154407615Y-117419810D01*
X153453716Y-117819053D01*
X153018435Y-117934870D01*
X152812744Y-117981666D01*
X152742348Y-117997799D01*
X152709483Y-117932308D01*
X152308921Y-117932308D01*
X152061869Y-118195283D01*
X151906433Y-118395931D01*
X151870170Y-118595937D01*
X151929166Y-118886667D01*
X151993649Y-119153583D01*
X151983533Y-119249748D01*
X151886543Y-119216305D01*
X151839393Y-119187600D01*
X151640404Y-119121920D01*
X151407669Y-119199959D01*
X151332940Y-119243096D01*
X151115461Y-119372316D01*
X151001442Y-119435508D01*
X150999702Y-119436165D01*
X151030058Y-119357009D01*
X151142173Y-119144633D01*
X151220572Y-119004907D01*
X151369595Y-118721344D01*
X151410188Y-118534514D01*
X151351998Y-118354493D01*
X151300527Y-118259472D01*
X151128707Y-117955392D01*
X152308921Y-117932308D01*
X152709483Y-117932308D01*
X152700317Y-117914044D01*
X152687130Y-117745917D01*
X152706651Y-117632430D01*
X152354755Y-117632430D01*
X152300608Y-117679305D01*
X152035138Y-117777605D01*
X151792494Y-117757157D01*
X151695067Y-117680755D01*
X151471069Y-117680755D01*
X151469786Y-117683450D01*
X151337921Y-117723360D01*
X151069407Y-117722205D01*
X150947761Y-117710058D01*
X150665609Y-117684497D01*
X150565990Y-117710074D01*
X150614607Y-117795882D01*
X150616478Y-117797874D01*
X150734787Y-117963806D01*
X150754522Y-118027414D01*
X150661768Y-118055021D01*
X150412281Y-118002734D01*
X150049223Y-117884605D01*
X149615756Y-117714684D01*
X149155042Y-117507022D01*
X149153217Y-117506142D01*
X148404441Y-117040168D01*
X147694008Y-116400352D01*
X147066718Y-115633625D01*
X146577604Y-114808000D01*
X146271940Y-114134339D01*
X146072378Y-113588651D01*
X145983125Y-113186937D01*
X146008387Y-112945200D01*
X146072426Y-112886305D01*
X146187569Y-112930035D01*
X146307278Y-113162476D01*
X146402851Y-113459357D01*
X146812024Y-114508046D01*
X147415311Y-115456835D01*
X147952750Y-116063685D01*
X148733389Y-116743338D01*
X149510463Y-117212056D01*
X150301037Y-117478810D01*
X150769901Y-117544337D01*
X151135629Y-117582267D01*
X151386480Y-117631144D01*
X151471069Y-117680755D01*
X151695067Y-117680755D01*
X151693217Y-117679305D01*
X151741359Y-117605842D01*
X151970919Y-117571647D01*
X152045613Y-117570561D01*
X152300044Y-117585342D01*
X152354755Y-117632430D01*
X152706651Y-117632430D01*
X152714435Y-117587179D01*
X152830599Y-117481571D01*
X153086996Y-117395309D01*
X153294522Y-117346501D01*
X154058444Y-117113358D01*
X154702397Y-116763335D01*
X155280516Y-116260289D01*
X155738642Y-115714583D01*
X155980456Y-115335511D01*
X156231998Y-114844970D01*
X156467846Y-114305130D01*
X156662577Y-113778158D01*
X156718547Y-113580838D01*
X156414800Y-113580838D01*
X156404166Y-113698999D01*
X156226655Y-114470092D01*
X155844825Y-115214314D01*
X155250522Y-115947461D01*
X155234854Y-115963733D01*
X154677985Y-116479786D01*
X154123545Y-116848013D01*
X153498857Y-117106677D01*
X152731248Y-117294039D01*
X152695157Y-117300851D01*
X152314294Y-117350533D01*
X151852403Y-117379726D01*
X151367136Y-117388800D01*
X150916148Y-117378129D01*
X150557090Y-117348085D01*
X150347618Y-117299040D01*
X150327135Y-117285555D01*
X150319839Y-117182410D01*
X150134360Y-117182410D01*
X150032730Y-117221375D01*
X149801437Y-117141837D01*
X149419542Y-116939211D01*
X149241811Y-116835636D01*
X148789048Y-116528004D01*
X148321847Y-116148721D01*
X148029541Y-115869811D01*
X147791992Y-115614551D01*
X147652017Y-115456195D01*
X147635056Y-115423735D01*
X147645782Y-115432437D01*
X147797842Y-115488741D01*
X147979433Y-115373459D01*
X148013234Y-115340592D01*
X148230287Y-115200012D01*
X148401008Y-115187236D01*
X148520599Y-115189824D01*
X148506370Y-115085340D01*
X148477491Y-114936654D01*
X148566147Y-114962891D01*
X148761564Y-115159198D01*
X148819029Y-115226172D01*
X149071495Y-115451890D01*
X149428349Y-115686412D01*
X149638734Y-115796555D01*
X149950315Y-115949232D01*
X150088648Y-116048354D01*
X150082899Y-116128751D01*
X149984678Y-116209667D01*
X149839877Y-116381854D01*
X149827980Y-116511591D01*
X149815610Y-116678489D01*
X149694487Y-116763159D01*
X149556423Y-116709206D01*
X149541196Y-116687750D01*
X149440080Y-116613937D01*
X149380892Y-116674381D01*
X149392489Y-116801818D01*
X149554517Y-116883457D01*
X149797158Y-116890064D01*
X149863169Y-116876322D01*
X150058669Y-116903917D01*
X150127266Y-117029526D01*
X150134360Y-117182410D01*
X150319839Y-117182410D01*
X150318502Y-117163511D01*
X150349849Y-116911476D01*
X150359748Y-116856193D01*
X150464935Y-116555362D01*
X150621482Y-116460609D01*
X150711436Y-116431587D01*
X150707013Y-116427372D01*
X150255122Y-116427372D01*
X150242527Y-116519105D01*
X150128804Y-116623611D01*
X150009894Y-116564774D01*
X149981478Y-116458005D01*
X150070780Y-116365242D01*
X150143664Y-116354087D01*
X150255122Y-116427372D01*
X150707013Y-116427372D01*
X150613888Y-116338631D01*
X150533652Y-116287329D01*
X150393384Y-116186573D01*
X150419753Y-116166876D01*
X150433513Y-116170698D01*
X151162266Y-116306539D01*
X151918495Y-116272845D01*
X152713061Y-116081871D01*
X153235402Y-115897465D01*
X153631948Y-115700197D01*
X153748009Y-115616189D01*
X152884795Y-115616189D01*
X152762800Y-115725325D01*
X152473893Y-115834912D01*
X152428234Y-115849135D01*
X152070021Y-115956826D01*
X151867691Y-116004156D01*
X151766465Y-115997142D01*
X151711567Y-115941798D01*
X151703351Y-115928745D01*
X151760823Y-115843485D01*
X151798537Y-115825209D01*
X151348696Y-115825209D01*
X151333179Y-115936570D01*
X151153565Y-115984671D01*
X150937269Y-115961044D01*
X150676773Y-115898545D01*
X150526745Y-115850266D01*
X150524456Y-115849006D01*
X150494415Y-115726148D01*
X150509010Y-115478721D01*
X150511760Y-115459269D01*
X150554210Y-115226658D01*
X150612387Y-115187879D01*
X150731307Y-115317842D01*
X150741825Y-115331047D01*
X150986752Y-115563056D01*
X151171745Y-115684094D01*
X151348696Y-115825209D01*
X151798537Y-115825209D01*
X151974045Y-115740160D01*
X152089194Y-115701693D01*
X152381102Y-115582858D01*
X152569590Y-115448023D01*
X152594349Y-115409209D01*
X152707060Y-115260790D01*
X152823959Y-115321305D01*
X152884701Y-115470305D01*
X152884795Y-115616189D01*
X153748009Y-115616189D01*
X153994259Y-115437947D01*
X154262382Y-115200806D01*
X153552463Y-115200806D01*
X153508770Y-115312934D01*
X153288603Y-115459754D01*
X153082302Y-115396172D01*
X152967880Y-115222131D01*
X152879932Y-114938707D01*
X152805544Y-114593250D01*
X152802905Y-114577184D01*
X152795576Y-114555883D01*
X152379243Y-114555883D01*
X152345229Y-114934804D01*
X152177953Y-115271741D01*
X151905481Y-115506575D01*
X151604932Y-115581044D01*
X151400384Y-115506795D01*
X151145292Y-115322138D01*
X151077331Y-115258235D01*
X150844194Y-114957891D01*
X150759125Y-114621357D01*
X150754522Y-114479556D01*
X150773413Y-114178647D01*
X150868581Y-114008728D01*
X151097769Y-113880697D01*
X151108325Y-113876213D01*
X150510025Y-113876213D01*
X150485197Y-114270048D01*
X150428264Y-114875812D01*
X150374311Y-115289718D01*
X150305851Y-115539831D01*
X150205398Y-115654212D01*
X150055465Y-115660923D01*
X149838564Y-115588028D01*
X149699710Y-115530570D01*
X149314601Y-115369661D01*
X149786083Y-114460032D01*
X150069494Y-113939115D01*
X150277579Y-113621910D01*
X150375398Y-113540757D01*
X149981478Y-113540757D01*
X149935178Y-113660038D01*
X149812439Y-113924164D01*
X149637499Y-114281391D01*
X149592321Y-114371494D01*
X149391593Y-114757202D01*
X149252057Y-114976214D01*
X149142073Y-115062246D01*
X149030000Y-115049014D01*
X148979458Y-115024531D01*
X148761062Y-114832037D01*
X148692470Y-114726215D01*
X148350572Y-114726215D01*
X148294747Y-114709998D01*
X148226571Y-114652228D01*
X148036124Y-114523563D01*
X147918211Y-114515326D01*
X147935468Y-114627342D01*
X148046052Y-114737067D01*
X148171843Y-114879024D01*
X148120817Y-114963313D01*
X148007638Y-114965915D01*
X147993652Y-114918435D01*
X147927074Y-114844903D01*
X147888040Y-114860237D01*
X147827878Y-115003901D01*
X147844638Y-115087624D01*
X147837869Y-115227280D01*
X147784598Y-115249740D01*
X147684798Y-115157517D01*
X147662348Y-115032336D01*
X147609695Y-114874478D01*
X147493877Y-114879581D01*
X147385067Y-114961672D01*
X147451846Y-115105840D01*
X147466268Y-115124593D01*
X147552175Y-115245242D01*
X147484688Y-115208644D01*
X147426061Y-115163510D01*
X147291659Y-114980201D01*
X147123143Y-114637731D01*
X146943559Y-114190283D01*
X146775956Y-113692040D01*
X146722911Y-113510392D01*
X146698921Y-113357842D01*
X146773399Y-113285162D01*
X146996666Y-113263112D01*
X147150507Y-113261913D01*
X147473496Y-113280745D01*
X147643685Y-113355572D01*
X147722901Y-113499594D01*
X147819661Y-113724360D01*
X147989255Y-114052350D01*
X148129591Y-114300246D01*
X148297321Y-114596171D01*
X148350572Y-114726215D01*
X148692470Y-114726215D01*
X148631571Y-114632262D01*
X148576303Y-114457465D01*
X148614363Y-114298668D01*
X148772825Y-114092540D01*
X148935543Y-113921250D01*
X149295820Y-113612341D01*
X149602729Y-113487507D01*
X149672586Y-113482783D01*
X149895523Y-113500730D01*
X149981478Y-113540757D01*
X150375398Y-113540757D01*
X150416352Y-113506781D01*
X150491829Y-113592093D01*
X150510025Y-113876213D01*
X151108325Y-113876213D01*
X151159641Y-113854417D01*
X151587532Y-113756970D01*
X151941421Y-113864216D01*
X152244122Y-114183272D01*
X152251932Y-114195093D01*
X152379243Y-114555883D01*
X152795576Y-114555883D01*
X152684077Y-114231863D01*
X152484615Y-113941966D01*
X152475425Y-113933131D01*
X152139346Y-113731362D01*
X151716047Y-113625097D01*
X151303701Y-113630851D01*
X151091883Y-113700411D01*
X150914994Y-113776726D01*
X150872003Y-113715026D01*
X150884139Y-113630386D01*
X150932012Y-113528295D01*
X151057479Y-113465277D01*
X151305611Y-113430794D01*
X151721477Y-113414306D01*
X151816159Y-113412462D01*
X152709272Y-113396568D01*
X153174450Y-114275914D01*
X153399577Y-114719730D01*
X153521357Y-115014922D01*
X153552463Y-115200806D01*
X154262382Y-115200806D01*
X154265107Y-115198396D01*
X154826936Y-114581623D01*
X154939805Y-114401784D01*
X154352665Y-114401784D01*
X154329887Y-114631347D01*
X154179342Y-114867160D01*
X153970048Y-115015181D01*
X153892436Y-115028870D01*
X153780657Y-114936543D01*
X153608360Y-114691221D01*
X153407713Y-114340388D01*
X153350081Y-114228218D01*
X152948622Y-113427566D01*
X153258127Y-113390101D01*
X153488041Y-113405275D01*
X153703984Y-113539535D01*
X153927092Y-113776623D01*
X154151574Y-114065195D01*
X154313142Y-114316151D01*
X154352665Y-114401784D01*
X154939805Y-114401784D01*
X155233089Y-113934483D01*
X155411061Y-113580040D01*
X155447901Y-113525246D01*
X154949228Y-113525246D01*
X154920531Y-113753785D01*
X154836723Y-113931782D01*
X154725451Y-114096902D01*
X154605293Y-114119739D01*
X154421670Y-113992330D01*
X154266869Y-113848643D01*
X154067847Y-113636847D01*
X153962265Y-113483315D01*
X153957130Y-113462122D01*
X154055874Y-113408574D01*
X154305696Y-113376460D01*
X154454087Y-113372348D01*
X149109240Y-113372348D01*
X148811486Y-113762724D01*
X148570358Y-114028139D01*
X148384961Y-114092969D01*
X148223709Y-113959502D01*
X148138430Y-113811532D01*
X148053466Y-113574869D01*
X148114155Y-113439836D01*
X148347675Y-113381296D01*
X148613181Y-113372348D01*
X149109240Y-113372348D01*
X154454087Y-113372348D01*
X154799434Y-113406415D01*
X154949228Y-113525246D01*
X155447901Y-113525246D01*
X155544166Y-113382069D01*
X155683212Y-113297970D01*
X155879007Y-113285144D01*
X156000174Y-113291334D01*
X156281654Y-113318851D01*
X156400510Y-113395823D01*
X156414800Y-113580838D01*
X156718547Y-113580838D01*
X156790771Y-113326222D01*
X156828435Y-113049534D01*
X156904813Y-112888190D01*
X157104522Y-112847783D01*
X157312357Y-112852646D01*
X157380608Y-112861939D01*
X157535674Y-112861939D01*
X157594449Y-112327482D01*
X157360063Y-112327482D01*
X157325391Y-112488870D01*
X157167926Y-112594954D01*
X157009809Y-112513506D01*
X157001820Y-112501383D01*
X157022383Y-112359525D01*
X157095906Y-112275151D01*
X157263774Y-112225607D01*
X157360063Y-112327482D01*
X157594449Y-112327482D01*
X157597541Y-112299375D01*
X157590299Y-112219644D01*
X156578063Y-112219644D01*
X156552918Y-112499579D01*
X156545414Y-112542209D01*
X156479611Y-112794676D01*
X156360261Y-112904391D01*
X156111130Y-112930297D01*
X156043101Y-112930609D01*
X155770914Y-112919205D01*
X155622731Y-112890812D01*
X155613652Y-112880588D01*
X155665706Y-112705852D01*
X155786064Y-112451674D01*
X155921021Y-112222725D01*
X155997926Y-112131648D01*
X155995927Y-112070352D01*
X155855613Y-112048822D01*
X155685122Y-112085937D01*
X155668869Y-112157566D01*
X155682669Y-112341601D01*
X155659585Y-112393458D01*
X155546049Y-112418326D01*
X155384533Y-112257064D01*
X155211012Y-112074838D01*
X155123905Y-112071304D01*
X155136451Y-112216759D01*
X155261891Y-112481501D01*
X155274866Y-112503116D01*
X155411676Y-112745310D01*
X155431818Y-112868102D01*
X155340179Y-112936499D01*
X155308426Y-112949548D01*
X155150187Y-112969289D01*
X154801972Y-112986492D01*
X154294660Y-113001082D01*
X153659130Y-113012980D01*
X152926261Y-113022110D01*
X152126934Y-113028396D01*
X151292026Y-113031760D01*
X150452418Y-113032124D01*
X149638989Y-113029414D01*
X148882618Y-113023551D01*
X148214185Y-113014458D01*
X147664569Y-113002059D01*
X147264649Y-112986277D01*
X147064962Y-112970075D01*
X146547185Y-112899105D01*
X146576569Y-112446257D01*
X146213348Y-112446257D01*
X146186058Y-112598729D01*
X146156075Y-112633114D01*
X146018412Y-112655448D01*
X145906793Y-112543517D01*
X145895391Y-112482352D01*
X145984937Y-112390127D01*
X146061043Y-112378435D01*
X146213348Y-112446257D01*
X146576569Y-112446257D01*
X146580201Y-112390292D01*
X146608458Y-112080773D01*
X146672552Y-111934271D01*
X146821321Y-111893317D01*
X146999739Y-111896587D01*
X147192208Y-111900258D01*
X147579834Y-111904415D01*
X148136908Y-111908892D01*
X148837718Y-111913525D01*
X149656554Y-111918150D01*
X150567706Y-111922602D01*
X151545461Y-111926716D01*
X151937645Y-111928188D01*
X153046865Y-111934695D01*
X154033302Y-111945487D01*
X154880660Y-111960137D01*
X155572640Y-111978218D01*
X156092942Y-111999301D01*
X156425270Y-112022960D01*
X156553323Y-112048767D01*
X156553654Y-112049244D01*
X156578063Y-112219644D01*
X157590299Y-112219644D01*
X157551321Y-111790555D01*
X157378976Y-111790555D01*
X157289666Y-111911596D01*
X157096577Y-111987453D01*
X156926922Y-111975646D01*
X156878371Y-111858740D01*
X156863139Y-111795219D01*
X152278704Y-111795219D01*
X152162565Y-111799205D01*
X152044662Y-111666106D01*
X151993666Y-111486307D01*
X151981053Y-111301150D01*
X152036477Y-111317033D01*
X152131710Y-111433238D01*
X152275311Y-111664518D01*
X152278704Y-111795219D01*
X156863139Y-111795219D01*
X156811409Y-111579498D01*
X156788873Y-111459251D01*
X156606721Y-111459251D01*
X156506546Y-111598940D01*
X156226398Y-111672765D01*
X155905507Y-111677878D01*
X155701401Y-111636070D01*
X155558236Y-111501540D01*
X155551066Y-111486497D01*
X154944241Y-111486497D01*
X154807393Y-111473014D01*
X154485647Y-111362035D01*
X154064380Y-111189264D01*
X153697588Y-111025190D01*
X153373017Y-110867670D01*
X153126062Y-110736113D01*
X152992119Y-110649926D01*
X153006585Y-110628518D01*
X153073652Y-110646024D01*
X153353148Y-110743219D01*
X153722534Y-110885478D01*
X154121536Y-111047752D01*
X154489877Y-111204993D01*
X154767283Y-111332150D01*
X154890304Y-111400976D01*
X154944241Y-111486497D01*
X155551066Y-111486497D01*
X155423679Y-111219247D01*
X155392485Y-111138336D01*
X155320620Y-110942181D01*
X154949567Y-110942181D01*
X154918040Y-111012073D01*
X154906688Y-111023950D01*
X154772436Y-111026639D01*
X154485436Y-110963163D01*
X154099214Y-110846314D01*
X153952586Y-110795915D01*
X153461975Y-110636132D01*
X153132686Y-110565674D01*
X152927274Y-110577561D01*
X152883391Y-110596596D01*
X152817305Y-110664053D01*
X152869264Y-110750048D01*
X153065779Y-110875317D01*
X153433357Y-111060593D01*
X153544500Y-111113693D01*
X154045788Y-111362098D01*
X154348991Y-111539050D01*
X154462497Y-111651525D01*
X154394698Y-111706500D01*
X154267343Y-111714777D01*
X154051940Y-111657863D01*
X153720378Y-111508731D01*
X153339970Y-111298133D01*
X153294522Y-111270367D01*
X152576695Y-110827006D01*
X153060246Y-111271416D01*
X153317067Y-111519296D01*
X153418286Y-111656476D01*
X153380242Y-111710894D01*
X153320165Y-111715827D01*
X153117574Y-111636879D01*
X152862140Y-111437097D01*
X152746979Y-111317708D01*
X152514781Y-111080183D01*
X152371314Y-110980754D01*
X152340160Y-111021025D01*
X152444900Y-111202601D01*
X152519931Y-111302256D01*
X152699255Y-111556673D01*
X152728415Y-111684974D01*
X152638156Y-111715827D01*
X152516275Y-111629926D01*
X152360009Y-111420917D01*
X152346735Y-111398871D01*
X152157274Y-111189131D01*
X151960982Y-111120540D01*
X151816758Y-111188895D01*
X151783499Y-111389990D01*
X151793440Y-111438369D01*
X151810476Y-111664120D01*
X151774032Y-111765203D01*
X151709780Y-111729293D01*
X151661528Y-111531697D01*
X151658612Y-111505511D01*
X151609756Y-111268221D01*
X151539109Y-111163877D01*
X151535882Y-111163653D01*
X151487935Y-111255652D01*
X151500536Y-111439740D01*
X151498367Y-111656809D01*
X151422669Y-111715827D01*
X151334797Y-111621002D01*
X151326969Y-111418513D01*
X151372368Y-111283556D01*
X151193639Y-111283556D01*
X151142291Y-111505928D01*
X151129228Y-111541142D01*
X151022860Y-111683858D01*
X150907185Y-111711147D01*
X150864956Y-111626499D01*
X150925246Y-111477414D01*
X151027096Y-111322803D01*
X151150636Y-111212670D01*
X151193639Y-111283556D01*
X151372368Y-111283556D01*
X151401837Y-111195957D01*
X151602331Y-111066386D01*
X151748435Y-111022582D01*
X151777745Y-111011202D01*
X150988707Y-111011202D01*
X150968386Y-111113911D01*
X150846590Y-111335633D01*
X150663290Y-111578105D01*
X150486295Y-111708597D01*
X150448276Y-111715827D01*
X150356203Y-111685663D01*
X150416666Y-111569847D01*
X150514402Y-111460231D01*
X150710609Y-111225239D01*
X150740450Y-111126486D01*
X150615265Y-111169049D01*
X150346392Y-111358000D01*
X150324499Y-111375242D01*
X150069255Y-111549719D01*
X149827328Y-111672707D01*
X149641121Y-111732255D01*
X149553039Y-111716407D01*
X149605485Y-111613211D01*
X149654118Y-111564222D01*
X149844182Y-111416174D01*
X150104617Y-111248608D01*
X150383285Y-111089673D01*
X150628046Y-110967518D01*
X150786761Y-110910291D01*
X150812010Y-110939109D01*
X150782225Y-111043761D01*
X150894599Y-111023095D01*
X150988707Y-111011202D01*
X151777745Y-111011202D01*
X152174573Y-110857128D01*
X150374374Y-110857128D01*
X150333735Y-110949311D01*
X150147171Y-111103972D01*
X149868272Y-111288841D01*
X149550627Y-111471647D01*
X149247826Y-111620117D01*
X149013457Y-111701981D01*
X148959956Y-111708886D01*
X148739451Y-111696782D01*
X148656261Y-111661252D01*
X148748256Y-111586788D01*
X148986287Y-111454436D01*
X149313417Y-111290843D01*
X149672714Y-111122658D01*
X150007242Y-110976526D01*
X150260066Y-110879095D01*
X150374253Y-110857011D01*
X150374374Y-110857128D01*
X152174573Y-110857128D01*
X152181237Y-110854541D01*
X152428527Y-110601580D01*
X152502348Y-110300534D01*
X152291238Y-110300534D01*
X152205570Y-110509919D01*
X151996913Y-110658748D01*
X151575003Y-110813238D01*
X151204016Y-110775197D01*
X151083825Y-110720843D01*
X150951262Y-110597898D01*
X150940224Y-110549744D01*
X150754522Y-110549744D01*
X150680093Y-110745618D01*
X150469680Y-110777426D01*
X150316783Y-110725880D01*
X150088849Y-110725880D01*
X150025102Y-110770376D01*
X149804093Y-110885064D01*
X149469172Y-111047731D01*
X149361569Y-111098529D01*
X148979261Y-111288610D01*
X148677593Y-111458403D01*
X148511525Y-111576491D01*
X148499182Y-111591519D01*
X148356425Y-111681406D01*
X148140220Y-111713353D01*
X147950061Y-111684489D01*
X147883217Y-111609277D01*
X147968790Y-111475265D01*
X148076478Y-111399607D01*
X148253357Y-111325215D01*
X148565718Y-111210684D01*
X148954523Y-111075779D01*
X149360732Y-110940266D01*
X149725307Y-110823912D01*
X149989208Y-110746481D01*
X150088849Y-110725880D01*
X150316783Y-110725880D01*
X150292133Y-110717570D01*
X150103889Y-110670237D01*
X149848899Y-110690796D01*
X149473321Y-110786856D01*
X149207119Y-110870930D01*
X148710039Y-111029461D01*
X148386031Y-111118946D01*
X148200391Y-111145254D01*
X148118416Y-111114256D01*
X148104087Y-111057474D01*
X148140637Y-110995341D01*
X148269700Y-110928037D01*
X148520392Y-110846442D01*
X148921830Y-110741433D01*
X149503130Y-110603886D01*
X149684635Y-110562282D01*
X150176197Y-110455579D01*
X150491589Y-110405396D01*
X150668041Y-110411297D01*
X150742783Y-110472844D01*
X150754522Y-110549744D01*
X150940224Y-110549744D01*
X150900629Y-110377016D01*
X150903972Y-110157463D01*
X150557827Y-110157463D01*
X150443696Y-110236387D01*
X150110917Y-110343137D01*
X149559378Y-110478597D01*
X149538699Y-110483283D01*
X148977867Y-110607666D01*
X148601661Y-110681108D01*
X148379900Y-110704051D01*
X148282401Y-110676936D01*
X148278981Y-110600207D01*
X148324956Y-110501044D01*
X148421796Y-110382336D01*
X148590165Y-110311639D01*
X148883483Y-110274918D01*
X149239929Y-110260673D01*
X150036695Y-110241172D01*
X149263652Y-110169740D01*
X148490608Y-110098307D01*
X149589435Y-110078806D01*
X150130585Y-110079557D01*
X150453419Y-110105482D01*
X150557827Y-110157463D01*
X150903972Y-110157463D01*
X150904769Y-110105131D01*
X150944130Y-109866682D01*
X150588869Y-109866682D01*
X150581279Y-109929388D01*
X150365171Y-109924278D01*
X150257565Y-109909251D01*
X149840455Y-109863295D01*
X149396655Y-109840227D01*
X149339961Y-109839651D01*
X149041882Y-109816380D01*
X148927058Y-109753534D01*
X148933747Y-109725736D01*
X149073114Y-109677043D01*
X149359609Y-109664845D01*
X149723606Y-109683213D01*
X150095475Y-109726218D01*
X150405589Y-109787929D01*
X150584320Y-109862418D01*
X150588869Y-109866682D01*
X150944130Y-109866682D01*
X150970043Y-109709707D01*
X151063245Y-109581568D01*
X150754522Y-109581568D01*
X150667598Y-109687542D01*
X150506043Y-109680916D01*
X150248606Y-109636055D01*
X149883856Y-109581705D01*
X149709814Y-109558134D01*
X149400081Y-109508416D01*
X149283233Y-109458071D01*
X149331720Y-109392682D01*
X149360740Y-109375459D01*
X149629650Y-109308706D01*
X149798056Y-109321569D01*
X150101526Y-109396013D01*
X150312782Y-109449055D01*
X150427734Y-109463992D01*
X150337467Y-109398096D01*
X150202348Y-109328354D01*
X149966553Y-109204427D01*
X149913451Y-109139744D01*
X150025026Y-109101357D01*
X150073411Y-109092553D01*
X150344192Y-109130451D01*
X150596592Y-109290131D01*
X150743806Y-109509268D01*
X150754522Y-109581568D01*
X151063245Y-109581568D01*
X151131036Y-109488366D01*
X151421800Y-109403104D01*
X151538058Y-109398387D01*
X151868789Y-109498716D01*
X152165232Y-109808976D01*
X152245657Y-109938324D01*
X152276491Y-110040402D01*
X152179628Y-110004949D01*
X152082549Y-109962249D01*
X152151129Y-110052812D01*
X152162565Y-110065190D01*
X152291238Y-110300534D01*
X152502348Y-110300534D01*
X152519464Y-110230738D01*
X152521478Y-110148699D01*
X152537156Y-109885785D01*
X152619974Y-109723835D01*
X152823612Y-109594386D01*
X153027590Y-109503206D01*
X153360890Y-109363069D01*
X153539789Y-109301438D01*
X153612146Y-109308088D01*
X153625822Y-109372791D01*
X153625826Y-109375378D01*
X153534766Y-109475064D01*
X153322130Y-109585260D01*
X153172632Y-109652299D01*
X153189974Y-109677212D01*
X153395080Y-109665240D01*
X153570608Y-109647480D01*
X153900105Y-109626142D01*
X154030414Y-109655735D01*
X154012348Y-109707359D01*
X153846898Y-109780419D01*
X153539874Y-109841478D01*
X153294522Y-109866898D01*
X153020507Y-109887635D01*
X152924084Y-109903633D01*
X153017368Y-109918429D01*
X153312477Y-109935561D01*
X153570608Y-109947502D01*
X154454087Y-109986992D01*
X153736261Y-110054526D01*
X153018435Y-110122061D01*
X153821537Y-110215628D01*
X154222488Y-110275806D01*
X154532102Y-110347368D01*
X154689342Y-110415855D01*
X154694663Y-110422496D01*
X154649735Y-110486132D01*
X154399337Y-110483670D01*
X154278082Y-110469011D01*
X153705405Y-110393210D01*
X153345182Y-110353390D01*
X153191774Y-110350625D01*
X153239541Y-110385986D01*
X153482845Y-110460545D01*
X153832295Y-110553756D01*
X154358564Y-110693643D01*
X154700051Y-110796192D01*
X154886978Y-110874629D01*
X154949567Y-110942181D01*
X155320620Y-110942181D01*
X155280856Y-110833647D01*
X155249916Y-110693871D01*
X155300852Y-110677857D01*
X155404325Y-110728091D01*
X155694742Y-110791029D01*
X155916334Y-110667840D01*
X156030202Y-110391228D01*
X156034018Y-110198662D01*
X155977338Y-109924367D01*
X155881685Y-109764821D01*
X155863116Y-109755271D01*
X155776362Y-109788362D01*
X155783526Y-109994141D01*
X155793754Y-110048730D01*
X155811054Y-110312723D01*
X155710192Y-110443326D01*
X155677571Y-110457769D01*
X155485934Y-110481161D01*
X155400631Y-110410887D01*
X155476732Y-110296956D01*
X155490597Y-110287974D01*
X155572245Y-110181955D01*
X155515008Y-110121809D01*
X155319907Y-110100909D01*
X155187039Y-110242047D01*
X155171913Y-110333711D01*
X155103413Y-110330424D01*
X154920747Y-110191193D01*
X154658167Y-109943648D01*
X154547528Y-109830045D01*
X154103936Y-109418136D01*
X153832889Y-109215050D01*
X153147611Y-109215050D01*
X153107739Y-109267213D01*
X152908000Y-109374739D01*
X152581799Y-109495289D01*
X152381545Y-109495544D01*
X152332985Y-109386884D01*
X152461865Y-109180689D01*
X152463899Y-109178436D01*
X152676255Y-109011267D01*
X152842290Y-108957413D01*
X152921876Y-108994545D01*
X152826080Y-109116138D01*
X152742348Y-109188562D01*
X152579811Y-109333860D01*
X152587854Y-109368558D01*
X152687130Y-109339229D01*
X153003067Y-109238358D01*
X153147611Y-109215050D01*
X153832889Y-109215050D01*
X153628003Y-109061537D01*
X153371130Y-108911419D01*
X152460707Y-108911419D01*
X152355826Y-109065392D01*
X152141981Y-109254155D01*
X152017830Y-109242753D01*
X152014350Y-109224774D01*
X151044225Y-109224774D01*
X151028085Y-109290345D01*
X150911768Y-109357915D01*
X150819006Y-109275934D01*
X150822091Y-109128243D01*
X150808200Y-108951547D01*
X150763315Y-108905174D01*
X150692308Y-108914099D01*
X150712384Y-109004439D01*
X150707035Y-109147222D01*
X150595131Y-109164656D01*
X150470804Y-109053045D01*
X150485988Y-108908427D01*
X150631701Y-108776766D01*
X150778245Y-108735778D01*
X150897133Y-108824515D01*
X151001999Y-109023484D01*
X151044225Y-109224774D01*
X152014350Y-109224774D01*
X151976583Y-109029700D01*
X151977066Y-108982566D01*
X151979117Y-108954957D01*
X151858869Y-108954957D01*
X151780780Y-109139527D01*
X151638000Y-109175827D01*
X151473207Y-109120896D01*
X151424499Y-108919908D01*
X151424892Y-108872131D01*
X151426778Y-108844522D01*
X151196261Y-108844522D01*
X151155854Y-108935422D01*
X151122637Y-108918145D01*
X151109421Y-108787085D01*
X151122637Y-108770899D01*
X151188291Y-108786058D01*
X151196261Y-108844522D01*
X151426778Y-108844522D01*
X151438314Y-108675695D01*
X151477471Y-108682633D01*
X151527565Y-108789305D01*
X151602506Y-108908636D01*
X151630238Y-108872131D01*
X151689893Y-108740663D01*
X151791738Y-108765518D01*
X151857059Y-108918182D01*
X151858869Y-108954957D01*
X151979117Y-108954957D01*
X151991297Y-108791004D01*
X152030031Y-108803413D01*
X152068451Y-108892409D01*
X152159703Y-109025822D01*
X152232858Y-108975235D01*
X152383678Y-108854004D01*
X152434677Y-108844522D01*
X152460707Y-108911419D01*
X153371130Y-108911419D01*
X153307533Y-108874253D01*
X152978658Y-108727189D01*
X152678280Y-108636813D01*
X152332923Y-108589772D01*
X151869107Y-108572714D01*
X151640396Y-108571305D01*
X151109152Y-108578623D01*
X150722390Y-108611762D01*
X150404058Y-108684347D01*
X150078106Y-108810000D01*
X149929256Y-108877846D01*
X149548191Y-109068544D01*
X149221426Y-109254009D01*
X149045778Y-109374246D01*
X148895943Y-109497306D01*
X148894967Y-109478782D01*
X149032290Y-109313870D01*
X149158560Y-109134714D01*
X149125577Y-109067173D01*
X149087507Y-109063701D01*
X148992950Y-109042926D01*
X149093191Y-108960294D01*
X149095085Y-108959095D01*
X149266139Y-108917124D01*
X149318869Y-108954957D01*
X149449180Y-108996592D01*
X149516203Y-108969503D01*
X149531274Y-108866099D01*
X149399199Y-108740605D01*
X149098000Y-108740605D01*
X149013767Y-108841548D01*
X148987565Y-108844522D01*
X148890646Y-108754632D01*
X148877130Y-108672352D01*
X148930668Y-108558046D01*
X148987565Y-108568435D01*
X149093787Y-108709621D01*
X149098000Y-108740605D01*
X149399199Y-108740605D01*
X149347512Y-108691494D01*
X149194548Y-108585449D01*
X148922060Y-108422823D01*
X148732102Y-108338735D01*
X148684365Y-108337867D01*
X148673017Y-108466445D01*
X148698495Y-108743440D01*
X148737182Y-108999889D01*
X148790293Y-109355201D01*
X148782446Y-109574373D01*
X148695573Y-109737929D01*
X148534138Y-109904850D01*
X148325344Y-110160028D01*
X148096746Y-110521423D01*
X147885390Y-110918995D01*
X147728319Y-111282700D01*
X147662579Y-111542496D01*
X147662348Y-111553193D01*
X147581290Y-111670010D01*
X147320095Y-111713342D01*
X147248217Y-111714135D01*
X146931696Y-111701098D01*
X146739336Y-111642496D01*
X146663113Y-111504425D01*
X146695000Y-111252980D01*
X146826973Y-110854255D01*
X146961517Y-110502886D01*
X147177078Y-109980814D01*
X147375707Y-109595245D01*
X147605390Y-109271567D01*
X147914115Y-108935170D01*
X148067543Y-108783206D01*
X148747835Y-108215984D01*
X149499823Y-107753945D01*
X150260908Y-107431275D01*
X150773990Y-107305286D01*
X151584725Y-107274771D01*
X152461557Y-107409530D01*
X153352822Y-107687982D01*
X154206857Y-108088545D01*
X154971998Y-108589637D01*
X155596580Y-109169674D01*
X155778798Y-109396006D01*
X156001442Y-109758946D01*
X156224597Y-110219984D01*
X156419221Y-110706742D01*
X156556271Y-111146844D01*
X156606721Y-111459251D01*
X156788873Y-111459251D01*
X156739195Y-111194187D01*
X156727350Y-111122228D01*
X156483229Y-110240986D01*
X156058100Y-109397835D01*
X155492128Y-108669533D01*
X155275466Y-108494904D01*
X154930516Y-108270020D01*
X154510834Y-108023978D01*
X154069976Y-107785873D01*
X153661499Y-107584799D01*
X153338957Y-107449852D01*
X153171611Y-107408870D01*
X153159742Y-107352154D01*
X153271776Y-107236310D01*
X149989535Y-107236310D01*
X149875861Y-107323699D01*
X149598514Y-107459055D01*
X149426862Y-107537315D01*
X148670947Y-107953600D01*
X147986281Y-108469568D01*
X147434741Y-109035727D01*
X147263606Y-109267638D01*
X146965249Y-109786729D01*
X146679665Y-110406612D01*
X146442651Y-111039601D01*
X146290005Y-111598013D01*
X146272309Y-111695777D01*
X146190324Y-111973528D01*
X146074752Y-112138227D01*
X145964924Y-112164168D01*
X145900169Y-112025646D01*
X145895391Y-111942132D01*
X145946414Y-111482441D01*
X146086209Y-110901579D01*
X146294863Y-110270651D01*
X146507157Y-109757539D01*
X147043890Y-108845225D01*
X147748620Y-108070168D01*
X148602485Y-107452293D01*
X148784739Y-107351829D01*
X149184953Y-107148668D01*
X149448200Y-107041688D01*
X149629054Y-107017083D01*
X149782084Y-107061046D01*
X149832849Y-107086676D01*
X149966282Y-107167198D01*
X149989535Y-107236310D01*
X153271776Y-107236310D01*
X153294847Y-107212455D01*
X153334637Y-107180149D01*
X153625409Y-106951428D01*
X154150183Y-107207758D01*
X154521784Y-107442440D01*
X154976732Y-107808462D01*
X155467668Y-108259116D01*
X155947232Y-108747698D01*
X156368065Y-109227504D01*
X156682809Y-109651826D01*
X156761692Y-109783218D01*
X156936380Y-110162964D01*
X157109753Y-110639685D01*
X157257226Y-111133430D01*
X157354212Y-111564245D01*
X157378976Y-111790555D01*
X157551321Y-111790555D01*
X157500506Y-111231154D01*
X157186646Y-110193666D01*
X156656362Y-109192957D01*
X156108536Y-108460370D01*
X155751130Y-108003602D01*
X155558294Y-107651592D01*
X155523609Y-107369294D01*
X155640651Y-107121662D01*
X155828803Y-106933672D01*
X156033470Y-106750396D01*
X156084461Y-106636167D01*
X155998591Y-106519618D01*
X155939238Y-106464999D01*
X155776963Y-106357140D01*
X155724087Y-106402313D01*
X155652378Y-106608757D01*
X155479874Y-106860049D01*
X155270511Y-107079230D01*
X155088222Y-107189340D01*
X155068319Y-107191674D01*
X154984151Y-107226536D01*
X155074426Y-107342065D01*
X155144304Y-107402637D01*
X155351950Y-107596366D01*
X155391250Y-107676749D01*
X155284678Y-107641664D01*
X155054711Y-107488988D01*
X154964597Y-107419605D01*
X154653167Y-107191774D01*
X154366148Y-107011957D01*
X154274380Y-106965471D01*
X154097884Y-106884418D01*
X154120750Y-106873006D01*
X154260826Y-106898459D01*
X154457935Y-106888806D01*
X154465652Y-106868668D01*
X153073652Y-106868668D01*
X153040548Y-107029230D01*
X152898262Y-107052927D01*
X152778280Y-107027376D01*
X152582615Y-106991870D01*
X152564130Y-107044063D01*
X152613593Y-107110709D01*
X152674651Y-107218687D01*
X152567534Y-107232093D01*
X152467226Y-107215214D01*
X152259409Y-107142271D01*
X152190174Y-107064691D01*
X152230596Y-107025632D01*
X151796742Y-107025632D01*
X151707780Y-107059081D01*
X151424449Y-107065565D01*
X151417130Y-107065489D01*
X151127483Y-107058129D01*
X151036914Y-107036152D01*
X151123641Y-106986881D01*
X151219709Y-106950596D01*
X151569303Y-106903064D01*
X151716665Y-106955957D01*
X151796742Y-107025632D01*
X152230596Y-107025632D01*
X152279809Y-106978080D01*
X152355826Y-106967131D01*
X152504376Y-106905569D01*
X152477385Y-106745383D01*
X152365848Y-106606408D01*
X152272502Y-106400706D01*
X152304626Y-106298022D01*
X152320692Y-106278119D01*
X152142276Y-106278119D01*
X152033724Y-106295804D01*
X151890489Y-106275500D01*
X151888779Y-106237801D01*
X152036584Y-106211438D01*
X152100445Y-106229083D01*
X152142276Y-106278119D01*
X152320692Y-106278119D01*
X152385679Y-106197615D01*
X152452992Y-106235560D01*
X152538001Y-106442957D01*
X152581127Y-106571585D01*
X152697834Y-106814575D01*
X152825249Y-106939726D01*
X152915295Y-106910221D01*
X152896260Y-106810707D01*
X152896353Y-106663323D01*
X152951402Y-106635827D01*
X153048941Y-106728718D01*
X153073652Y-106868668D01*
X154465652Y-106868668D01*
X154509304Y-106754762D01*
X154421518Y-106594722D01*
X154316043Y-106571840D01*
X154152500Y-106527485D01*
X154122782Y-106470174D01*
X154215254Y-106398565D01*
X154388134Y-106394173D01*
X154666863Y-106343977D01*
X154818245Y-106121519D01*
X154838917Y-105956412D01*
X154750185Y-105811693D01*
X154542872Y-105675453D01*
X154309032Y-105592276D01*
X154140719Y-105606745D01*
X154132171Y-105614119D01*
X154068591Y-105759886D01*
X154191946Y-105834668D01*
X154303870Y-105833872D01*
X154513843Y-105871826D01*
X154592055Y-105954294D01*
X154565562Y-106053125D01*
X154365460Y-106071304D01*
X154287074Y-106064729D01*
X153962032Y-106099679D01*
X153772577Y-106255632D01*
X153752837Y-106492858D01*
X153810735Y-106619283D01*
X153877366Y-106745318D01*
X153828321Y-106773180D01*
X153623726Y-106711574D01*
X153533843Y-106679730D01*
X153218472Y-106583126D01*
X152965474Y-106532223D01*
X152935608Y-106530239D01*
X152765525Y-106466842D01*
X152747969Y-106340019D01*
X152864201Y-106225814D01*
X153018435Y-106194087D01*
X153244877Y-106146914D01*
X153272189Y-106028752D01*
X153094995Y-105874640D01*
X153069587Y-105860608D01*
X152841513Y-105801474D01*
X152564111Y-105881499D01*
X152497031Y-105913644D01*
X152211549Y-106013343D01*
X152046892Y-105984544D01*
X151991106Y-105826957D01*
X152093721Y-105708629D01*
X152293872Y-105695390D01*
X152309902Y-105700081D01*
X152479213Y-105691894D01*
X152520258Y-105563601D01*
X152426083Y-105379668D01*
X152352245Y-105307637D01*
X152195292Y-105228574D01*
X151975658Y-105244621D01*
X151741537Y-105312885D01*
X151422810Y-105395243D01*
X151234968Y-105375858D01*
X151170857Y-105329380D01*
X150973385Y-105228480D01*
X150714078Y-105205858D01*
X150459338Y-105248368D01*
X150275564Y-105342860D01*
X150229158Y-105476188D01*
X150245858Y-105512536D01*
X150394041Y-105573342D01*
X150638700Y-105516808D01*
X150994445Y-105464687D01*
X151188433Y-105527290D01*
X151477656Y-105589054D01*
X151630740Y-105535364D01*
X151899331Y-105443126D01*
X152044870Y-105428044D01*
X152157461Y-105446948D01*
X152072308Y-105503451D01*
X151996913Y-105534920D01*
X151828114Y-105651246D01*
X151757685Y-105865198D01*
X151748435Y-106073576D01*
X151773905Y-106368825D01*
X151837228Y-106558716D01*
X151858869Y-106580609D01*
X151965264Y-106731777D01*
X151969304Y-106765480D01*
X151892144Y-106796034D01*
X151703771Y-106708032D01*
X151693217Y-106701199D01*
X151477074Y-106584352D01*
X151307124Y-106603251D01*
X151141043Y-106701199D01*
X150946480Y-106818014D01*
X150880417Y-106808765D01*
X150934117Y-106648376D01*
X151043734Y-106421826D01*
X151082538Y-106316778D01*
X150927749Y-106316778D01*
X150894989Y-106427786D01*
X150765633Y-106490488D01*
X150580464Y-106591107D01*
X150533652Y-106681837D01*
X150442993Y-106894253D01*
X150240569Y-107051312D01*
X150125043Y-107077566D01*
X149997941Y-106988702D01*
X149981478Y-106911913D01*
X150044556Y-106765004D01*
X150098430Y-106746261D01*
X150164386Y-106813918D01*
X150147130Y-106856696D01*
X150154694Y-106958513D01*
X150193726Y-106967131D01*
X150314130Y-106874000D01*
X150380895Y-106657146D01*
X150378650Y-106410373D01*
X150311592Y-106247871D01*
X150242383Y-106111002D01*
X150292743Y-106083653D01*
X150454571Y-106164935D01*
X150483088Y-106201616D01*
X150634132Y-106275034D01*
X150706938Y-106261657D01*
X150882356Y-106273480D01*
X150927749Y-106316778D01*
X151082538Y-106316778D01*
X151155825Y-106118387D01*
X151131545Y-105871853D01*
X151101319Y-105797468D01*
X150965129Y-105598572D01*
X150845237Y-105531479D01*
X150766430Y-105563953D01*
X150842869Y-105664000D01*
X150957916Y-105854497D01*
X150899225Y-105981295D01*
X150709312Y-106025615D01*
X150430693Y-105968679D01*
X150292058Y-105907283D01*
X150050075Y-105799302D01*
X149903302Y-105806425D01*
X149782971Y-105903526D01*
X149684225Y-106033709D01*
X149751592Y-106120462D01*
X149907134Y-106186816D01*
X150130410Y-106329318D01*
X150197671Y-106489696D01*
X150103152Y-106608710D01*
X149950833Y-106635827D01*
X149652977Y-106698359D01*
X149481485Y-106783128D01*
X149209268Y-106938244D01*
X149048974Y-107008751D01*
X148903685Y-107050581D01*
X148927622Y-106983052D01*
X149006955Y-106889057D01*
X149119820Y-106672977D01*
X149103843Y-106488557D01*
X148973521Y-106414957D01*
X148899066Y-106503176D01*
X148899898Y-106604214D01*
X148837915Y-106782607D01*
X148722973Y-106836285D01*
X148575516Y-106832339D01*
X148591667Y-106694555D01*
X148599859Y-106674636D01*
X148680060Y-106328515D01*
X148630172Y-106050838D01*
X148477519Y-105885031D01*
X148249424Y-105874519D01*
X148131695Y-105930601D01*
X147967163Y-106109383D01*
X147960979Y-106291022D01*
X148079929Y-106388499D01*
X148188718Y-106357590D01*
X148190364Y-106301071D01*
X148247871Y-106149980D01*
X148314094Y-106110281D01*
X148415464Y-106115896D01*
X148399597Y-106275762D01*
X148387236Y-106317346D01*
X148295817Y-106699088D01*
X148319879Y-106930264D01*
X148468367Y-107053787D01*
X148545826Y-107078146D01*
X148713641Y-107128206D01*
X148724058Y-107183512D01*
X148561186Y-107284199D01*
X148438600Y-107348984D01*
X148169667Y-107525239D01*
X147817592Y-107802517D01*
X147453867Y-108124132D01*
X147417078Y-108158960D01*
X147122870Y-108427670D01*
X146900368Y-108608197D01*
X146786402Y-108671478D01*
X146778869Y-108662550D01*
X146848857Y-108499930D01*
X146911391Y-108424870D01*
X146986695Y-108315716D01*
X146904874Y-108292348D01*
X146820924Y-108225158D01*
X146838628Y-108174566D01*
X146819580Y-108026214D01*
X146707102Y-107901991D01*
X146569877Y-107785239D01*
X146610373Y-107747625D01*
X146696043Y-107743687D01*
X146859906Y-107786702D01*
X146889304Y-107837729D01*
X146977957Y-107952598D01*
X147175572Y-107993401D01*
X147379629Y-107949787D01*
X147450940Y-107894426D01*
X147510711Y-107774172D01*
X147380209Y-107740355D01*
X147358052Y-107740174D01*
X147114133Y-107698382D01*
X146792830Y-107595158D01*
X146725202Y-107568053D01*
X146457574Y-107469641D01*
X146290556Y-107433350D01*
X146270690Y-107438499D01*
X146286172Y-107554624D01*
X146367895Y-107817548D01*
X146494988Y-108162023D01*
X146761853Y-108842981D01*
X146377435Y-109632873D01*
X145964911Y-110634056D01*
X145742421Y-111578804D01*
X145705862Y-112516007D01*
X145851127Y-113494556D01*
X146005468Y-114063017D01*
X146265065Y-114701562D01*
X146651242Y-115400211D01*
X147115775Y-116084056D01*
X147610438Y-116678194D01*
X147828907Y-116895307D01*
X148346120Y-117290018D01*
X149000751Y-117670047D01*
X149710962Y-117994051D01*
X150394917Y-118220689D01*
X150504550Y-118246977D01*
X150845442Y-118344064D01*
X151087181Y-118451764D01*
X151160716Y-118519009D01*
X151148347Y-118761047D01*
X150982405Y-119015751D01*
X150713918Y-119212592D01*
X150635530Y-119244923D01*
X150409011Y-119358936D01*
X150310997Y-119475069D01*
X150369097Y-119548931D01*
X150441623Y-119556696D01*
X150526678Y-119591097D01*
X150515539Y-119611621D01*
X150354832Y-119638959D01*
X150041440Y-119595799D01*
X149626782Y-119496048D01*
X149162277Y-119353616D01*
X148699345Y-119182411D01*
X148345366Y-119024590D01*
X147224908Y-118353929D01*
X146262922Y-117531986D01*
X145467025Y-116567980D01*
X144844831Y-115471128D01*
X144405367Y-114255827D01*
X144275378Y-113566401D01*
X144208844Y-112699401D01*
X144200915Y-112323218D01*
X144205915Y-111709993D01*
X144238828Y-111232028D01*
X144311005Y-110804338D01*
X144433802Y-110341934D01*
X144490101Y-110158520D01*
X144933577Y-109065271D01*
X145553756Y-108068364D01*
X146367411Y-107143066D01*
X146813654Y-106732609D01*
X147816840Y-105985571D01*
X148861905Y-105451966D01*
X149967736Y-105125614D01*
X151153217Y-105000337D01*
X152024522Y-105027659D01*
X153329964Y-105212000D01*
X154500051Y-105550315D01*
X155571146Y-106057664D01*
X156579610Y-106749106D01*
X156966913Y-107074682D01*
X157460033Y-107614470D01*
X157935174Y-108328613D01*
X158369269Y-109170657D01*
X158739253Y-110094146D01*
X159022060Y-111052626D01*
X159087678Y-111345976D01*
X159163059Y-111761385D01*
X159194193Y-112115281D01*
X159337464Y-112115281D01*
X159338093Y-111731696D01*
X159159404Y-110671921D01*
X159157993Y-110666696D01*
X158834453Y-109692580D01*
X158410395Y-108753738D01*
X157915773Y-107906101D01*
X157380539Y-107205602D01*
X157206584Y-107022646D01*
X156547850Y-106464448D01*
X155749581Y-105932071D01*
X154892088Y-105472552D01*
X154055685Y-105132927D01*
X153893120Y-105082088D01*
X153170275Y-104922764D01*
X152322226Y-104820118D01*
X151427568Y-104777219D01*
X150564895Y-104797133D01*
X150564895Y-104797133D01*
G37*
X150564895Y-104797133D02*
X149812802Y-104882928D01*
X149645388Y-104916333D01*
X148666107Y-105238080D01*
X147699021Y-105749498D01*
X146777522Y-106420408D01*
X145935001Y-107220629D01*
X145204848Y-108119984D01*
X144620454Y-109088291D01*
X144348273Y-109703976D01*
X144075322Y-110688819D01*
X143951066Y-111771095D01*
X143969795Y-112899498D01*
X144125798Y-114022721D01*
X144413366Y-115089459D01*
X144826788Y-116048403D01*
X145105916Y-116511536D01*
X145800549Y-117421125D01*
X146541415Y-118154819D01*
X147382172Y-118757467D01*
X148376481Y-119273920D01*
X148449950Y-119306564D01*
X149248539Y-119620723D01*
X150007628Y-119829857D01*
X150805299Y-119949253D01*
X151719636Y-119994199D01*
X151969304Y-119995602D01*
X152532633Y-119982637D01*
X152992954Y-119934063D01*
X153448253Y-119833203D01*
X153996519Y-119663383D01*
X154073377Y-119637523D01*
X155124629Y-119222296D01*
X156024024Y-118729084D01*
X156836819Y-118120448D01*
X157054505Y-117927243D01*
X157772395Y-117128758D01*
X158371955Y-116179381D01*
X158840744Y-115122048D01*
X159166324Y-113999697D01*
X159336253Y-112855267D01*
X159337464Y-112115281D01*
X159194193Y-112115281D01*
X159181277Y-112490077D01*
X159124507Y-112968187D01*
X159092074Y-113190128D01*
X158794220Y-114538867D01*
X158328281Y-115747824D01*
X157697400Y-116813093D01*
X156904720Y-117730765D01*
X155953385Y-118496934D01*
X154846540Y-119107692D01*
X154093355Y-119403286D01*
X153572652Y-119571986D01*
X153155164Y-119679058D01*
X152755957Y-119737930D01*
X152290096Y-119762028D01*
X151803652Y-119765272D01*
X150588869Y-119762182D01*
X151132686Y-119595266D01*
X151528457Y-119499256D01*
X151805682Y-119503140D01*
X151938534Y-119547741D01*
X152207515Y-119627677D01*
X152515143Y-119662283D01*
X152786567Y-119650906D01*
X152946933Y-119592890D01*
X152963217Y-119556696D01*
X152868655Y-119473874D01*
X152685344Y-119446261D01*
X152459301Y-119385386D01*
X152280508Y-119170492D01*
X152220313Y-119053790D01*
X152107777Y-118738333D01*
X152136244Y-118512384D01*
X152327914Y-118351634D01*
X152704987Y-118231773D01*
X153027708Y-118169664D01*
X154033691Y-117897340D01*
X154926475Y-117437180D01*
X155709534Y-116786703D01*
X156386340Y-115943427D01*
X156583693Y-115627962D01*
X157139536Y-114503827D01*
X157477352Y-113392282D01*
X157535674Y-112861939D01*
X157380608Y-112861939D01*
X157339328Y-113079760D01*
X157229774Y-113441033D01*
X157073379Y-113887376D01*
X156891571Y-114360407D01*
X156705784Y-114801745D01*
X156544444Y-115139773D01*
X155943981Y-116087303D01*
X155234704Y-116844938D01*
X154407615Y-117419810D01*
X153453716Y-117819053D01*
X153018435Y-117934870D01*
X152812744Y-117981666D01*
X152742348Y-117997799D01*
X152709483Y-117932308D01*
X152308921Y-117932308D01*
X152061869Y-118195283D01*
X151906433Y-118395931D01*
X151870170Y-118595937D01*
X151929166Y-118886667D01*
X151993649Y-119153583D01*
X151983533Y-119249748D01*
X151886543Y-119216305D01*
X151839393Y-119187600D01*
X151640404Y-119121920D01*
X151407669Y-119199959D01*
X151332940Y-119243096D01*
X151115461Y-119372316D01*
X151001442Y-119435508D01*
X150999702Y-119436165D01*
X151030058Y-119357009D01*
X151142173Y-119144633D01*
X151220572Y-119004907D01*
X151369595Y-118721344D01*
X151410188Y-118534514D01*
X151351998Y-118354493D01*
X151300527Y-118259472D01*
X151128707Y-117955392D01*
X152308921Y-117932308D01*
X152709483Y-117932308D01*
X152700317Y-117914044D01*
X152687130Y-117745917D01*
X152706651Y-117632430D01*
X152354755Y-117632430D01*
X152300608Y-117679305D01*
X152035138Y-117777605D01*
X151792494Y-117757157D01*
X151695067Y-117680755D01*
X151471069Y-117680755D01*
X151469786Y-117683450D01*
X151337921Y-117723360D01*
X151069407Y-117722205D01*
X150947761Y-117710058D01*
X150665609Y-117684497D01*
X150565990Y-117710074D01*
X150614607Y-117795882D01*
X150616478Y-117797874D01*
X150734787Y-117963806D01*
X150754522Y-118027414D01*
X150661768Y-118055021D01*
X150412281Y-118002734D01*
X150049223Y-117884605D01*
X149615756Y-117714684D01*
X149155042Y-117507022D01*
X149153217Y-117506142D01*
X148404441Y-117040168D01*
X147694008Y-116400352D01*
X147066718Y-115633625D01*
X146577604Y-114808000D01*
X146271940Y-114134339D01*
X146072378Y-113588651D01*
X145983125Y-113186937D01*
X146008387Y-112945200D01*
X146072426Y-112886305D01*
X146187569Y-112930035D01*
X146307278Y-113162476D01*
X146402851Y-113459357D01*
X146812024Y-114508046D01*
X147415311Y-115456835D01*
X147952750Y-116063685D01*
X148733389Y-116743338D01*
X149510463Y-117212056D01*
X150301037Y-117478810D01*
X150769901Y-117544337D01*
X151135629Y-117582267D01*
X151386480Y-117631144D01*
X151471069Y-117680755D01*
X151695067Y-117680755D01*
X151693217Y-117679305D01*
X151741359Y-117605842D01*
X151970919Y-117571647D01*
X152045613Y-117570561D01*
X152300044Y-117585342D01*
X152354755Y-117632430D01*
X152706651Y-117632430D01*
X152714435Y-117587179D01*
X152830599Y-117481571D01*
X153086996Y-117395309D01*
X153294522Y-117346501D01*
X154058444Y-117113358D01*
X154702397Y-116763335D01*
X155280516Y-116260289D01*
X155738642Y-115714583D01*
X155980456Y-115335511D01*
X156231998Y-114844970D01*
X156467846Y-114305130D01*
X156662577Y-113778158D01*
X156718547Y-113580838D01*
X156414800Y-113580838D01*
X156404166Y-113698999D01*
X156226655Y-114470092D01*
X155844825Y-115214314D01*
X155250522Y-115947461D01*
X155234854Y-115963733D01*
X154677985Y-116479786D01*
X154123545Y-116848013D01*
X153498857Y-117106677D01*
X152731248Y-117294039D01*
X152695157Y-117300851D01*
X152314294Y-117350533D01*
X151852403Y-117379726D01*
X151367136Y-117388800D01*
X150916148Y-117378129D01*
X150557090Y-117348085D01*
X150347618Y-117299040D01*
X150327135Y-117285555D01*
X150319839Y-117182410D01*
X150134360Y-117182410D01*
X150032730Y-117221375D01*
X149801437Y-117141837D01*
X149419542Y-116939211D01*
X149241811Y-116835636D01*
X148789048Y-116528004D01*
X148321847Y-116148721D01*
X148029541Y-115869811D01*
X147791992Y-115614551D01*
X147652017Y-115456195D01*
X147635056Y-115423735D01*
X147645782Y-115432437D01*
X147797842Y-115488741D01*
X147979433Y-115373459D01*
X148013234Y-115340592D01*
X148230287Y-115200012D01*
X148401008Y-115187236D01*
X148520599Y-115189824D01*
X148506370Y-115085340D01*
X148477491Y-114936654D01*
X148566147Y-114962891D01*
X148761564Y-115159198D01*
X148819029Y-115226172D01*
X149071495Y-115451890D01*
X149428349Y-115686412D01*
X149638734Y-115796555D01*
X149950315Y-115949232D01*
X150088648Y-116048354D01*
X150082899Y-116128751D01*
X149984678Y-116209667D01*
X149839877Y-116381854D01*
X149827980Y-116511591D01*
X149815610Y-116678489D01*
X149694487Y-116763159D01*
X149556423Y-116709206D01*
X149541196Y-116687750D01*
X149440080Y-116613937D01*
X149380892Y-116674381D01*
X149392489Y-116801818D01*
X149554517Y-116883457D01*
X149797158Y-116890064D01*
X149863169Y-116876322D01*
X150058669Y-116903917D01*
X150127266Y-117029526D01*
X150134360Y-117182410D01*
X150319839Y-117182410D01*
X150318502Y-117163511D01*
X150349849Y-116911476D01*
X150359748Y-116856193D01*
X150464935Y-116555362D01*
X150621482Y-116460609D01*
X150711436Y-116431587D01*
X150707013Y-116427372D01*
X150255122Y-116427372D01*
X150242527Y-116519105D01*
X150128804Y-116623611D01*
X150009894Y-116564774D01*
X149981478Y-116458005D01*
X150070780Y-116365242D01*
X150143664Y-116354087D01*
X150255122Y-116427372D01*
X150707013Y-116427372D01*
X150613888Y-116338631D01*
X150533652Y-116287329D01*
X150393384Y-116186573D01*
X150419753Y-116166876D01*
X150433513Y-116170698D01*
X151162266Y-116306539D01*
X151918495Y-116272845D01*
X152713061Y-116081871D01*
X153235402Y-115897465D01*
X153631948Y-115700197D01*
X153748009Y-115616189D01*
X152884795Y-115616189D01*
X152762800Y-115725325D01*
X152473893Y-115834912D01*
X152428234Y-115849135D01*
X152070021Y-115956826D01*
X151867691Y-116004156D01*
X151766465Y-115997142D01*
X151711567Y-115941798D01*
X151703351Y-115928745D01*
X151760823Y-115843485D01*
X151798537Y-115825209D01*
X151348696Y-115825209D01*
X151333179Y-115936570D01*
X151153565Y-115984671D01*
X150937269Y-115961044D01*
X150676773Y-115898545D01*
X150526745Y-115850266D01*
X150524456Y-115849006D01*
X150494415Y-115726148D01*
X150509010Y-115478721D01*
X150511760Y-115459269D01*
X150554210Y-115226658D01*
X150612387Y-115187879D01*
X150731307Y-115317842D01*
X150741825Y-115331047D01*
X150986752Y-115563056D01*
X151171745Y-115684094D01*
X151348696Y-115825209D01*
X151798537Y-115825209D01*
X151974045Y-115740160D01*
X152089194Y-115701693D01*
X152381102Y-115582858D01*
X152569590Y-115448023D01*
X152594349Y-115409209D01*
X152707060Y-115260790D01*
X152823959Y-115321305D01*
X152884701Y-115470305D01*
X152884795Y-115616189D01*
X153748009Y-115616189D01*
X153994259Y-115437947D01*
X154262382Y-115200806D01*
X153552463Y-115200806D01*
X153508770Y-115312934D01*
X153288603Y-115459754D01*
X153082302Y-115396172D01*
X152967880Y-115222131D01*
X152879932Y-114938707D01*
X152805544Y-114593250D01*
X152802905Y-114577184D01*
X152795576Y-114555883D01*
X152379243Y-114555883D01*
X152345229Y-114934804D01*
X152177953Y-115271741D01*
X151905481Y-115506575D01*
X151604932Y-115581044D01*
X151400384Y-115506795D01*
X151145292Y-115322138D01*
X151077331Y-115258235D01*
X150844194Y-114957891D01*
X150759125Y-114621357D01*
X150754522Y-114479556D01*
X150773413Y-114178647D01*
X150868581Y-114008728D01*
X151097769Y-113880697D01*
X151108325Y-113876213D01*
X150510025Y-113876213D01*
X150485197Y-114270048D01*
X150428264Y-114875812D01*
X150374311Y-115289718D01*
X150305851Y-115539831D01*
X150205398Y-115654212D01*
X150055465Y-115660923D01*
X149838564Y-115588028D01*
X149699710Y-115530570D01*
X149314601Y-115369661D01*
X149786083Y-114460032D01*
X150069494Y-113939115D01*
X150277579Y-113621910D01*
X150375398Y-113540757D01*
X149981478Y-113540757D01*
X149935178Y-113660038D01*
X149812439Y-113924164D01*
X149637499Y-114281391D01*
X149592321Y-114371494D01*
X149391593Y-114757202D01*
X149252057Y-114976214D01*
X149142073Y-115062246D01*
X149030000Y-115049014D01*
X148979458Y-115024531D01*
X148761062Y-114832037D01*
X148692470Y-114726215D01*
X148350572Y-114726215D01*
X148294747Y-114709998D01*
X148226571Y-114652228D01*
X148036124Y-114523563D01*
X147918211Y-114515326D01*
X147935468Y-114627342D01*
X148046052Y-114737067D01*
X148171843Y-114879024D01*
X148120817Y-114963313D01*
X148007638Y-114965915D01*
X147993652Y-114918435D01*
X147927074Y-114844903D01*
X147888040Y-114860237D01*
X147827878Y-115003901D01*
X147844638Y-115087624D01*
X147837869Y-115227280D01*
X147784598Y-115249740D01*
X147684798Y-115157517D01*
X147662348Y-115032336D01*
X147609695Y-114874478D01*
X147493877Y-114879581D01*
X147385067Y-114961672D01*
X147451846Y-115105840D01*
X147466268Y-115124593D01*
X147552175Y-115245242D01*
X147484688Y-115208644D01*
X147426061Y-115163510D01*
X147291659Y-114980201D01*
X147123143Y-114637731D01*
X146943559Y-114190283D01*
X146775956Y-113692040D01*
X146722911Y-113510392D01*
X146698921Y-113357842D01*
X146773399Y-113285162D01*
X146996666Y-113263112D01*
X147150507Y-113261913D01*
X147473496Y-113280745D01*
X147643685Y-113355572D01*
X147722901Y-113499594D01*
X147819661Y-113724360D01*
X147989255Y-114052350D01*
X148129591Y-114300246D01*
X148297321Y-114596171D01*
X148350572Y-114726215D01*
X148692470Y-114726215D01*
X148631571Y-114632262D01*
X148576303Y-114457465D01*
X148614363Y-114298668D01*
X148772825Y-114092540D01*
X148935543Y-113921250D01*
X149295820Y-113612341D01*
X149602729Y-113487507D01*
X149672586Y-113482783D01*
X149895523Y-113500730D01*
X149981478Y-113540757D01*
X150375398Y-113540757D01*
X150416352Y-113506781D01*
X150491829Y-113592093D01*
X150510025Y-113876213D01*
X151108325Y-113876213D01*
X151159641Y-113854417D01*
X151587532Y-113756970D01*
X151941421Y-113864216D01*
X152244122Y-114183272D01*
X152251932Y-114195093D01*
X152379243Y-114555883D01*
X152795576Y-114555883D01*
X152684077Y-114231863D01*
X152484615Y-113941966D01*
X152475425Y-113933131D01*
X152139346Y-113731362D01*
X151716047Y-113625097D01*
X151303701Y-113630851D01*
X151091883Y-113700411D01*
X150914994Y-113776726D01*
X150872003Y-113715026D01*
X150884139Y-113630386D01*
X150932012Y-113528295D01*
X151057479Y-113465277D01*
X151305611Y-113430794D01*
X151721477Y-113414306D01*
X151816159Y-113412462D01*
X152709272Y-113396568D01*
X153174450Y-114275914D01*
X153399577Y-114719730D01*
X153521357Y-115014922D01*
X153552463Y-115200806D01*
X154262382Y-115200806D01*
X154265107Y-115198396D01*
X154826936Y-114581623D01*
X154939805Y-114401784D01*
X154352665Y-114401784D01*
X154329887Y-114631347D01*
X154179342Y-114867160D01*
X153970048Y-115015181D01*
X153892436Y-115028870D01*
X153780657Y-114936543D01*
X153608360Y-114691221D01*
X153407713Y-114340388D01*
X153350081Y-114228218D01*
X152948622Y-113427566D01*
X153258127Y-113390101D01*
X153488041Y-113405275D01*
X153703984Y-113539535D01*
X153927092Y-113776623D01*
X154151574Y-114065195D01*
X154313142Y-114316151D01*
X154352665Y-114401784D01*
X154939805Y-114401784D01*
X155233089Y-113934483D01*
X155411061Y-113580040D01*
X155447901Y-113525246D01*
X154949228Y-113525246D01*
X154920531Y-113753785D01*
X154836723Y-113931782D01*
X154725451Y-114096902D01*
X154605293Y-114119739D01*
X154421670Y-113992330D01*
X154266869Y-113848643D01*
X154067847Y-113636847D01*
X153962265Y-113483315D01*
X153957130Y-113462122D01*
X154055874Y-113408574D01*
X154305696Y-113376460D01*
X154454087Y-113372348D01*
X149109240Y-113372348D01*
X148811486Y-113762724D01*
X148570358Y-114028139D01*
X148384961Y-114092969D01*
X148223709Y-113959502D01*
X148138430Y-113811532D01*
X148053466Y-113574869D01*
X148114155Y-113439836D01*
X148347675Y-113381296D01*
X148613181Y-113372348D01*
X149109240Y-113372348D01*
X154454087Y-113372348D01*
X154799434Y-113406415D01*
X154949228Y-113525246D01*
X155447901Y-113525246D01*
X155544166Y-113382069D01*
X155683212Y-113297970D01*
X155879007Y-113285144D01*
X156000174Y-113291334D01*
X156281654Y-113318851D01*
X156400510Y-113395823D01*
X156414800Y-113580838D01*
X156718547Y-113580838D01*
X156790771Y-113326222D01*
X156828435Y-113049534D01*
X156904813Y-112888190D01*
X157104522Y-112847783D01*
X157312357Y-112852646D01*
X157380608Y-112861939D01*
X157535674Y-112861939D01*
X157594449Y-112327482D01*
X157360063Y-112327482D01*
X157325391Y-112488870D01*
X157167926Y-112594954D01*
X157009809Y-112513506D01*
X157001820Y-112501383D01*
X157022383Y-112359525D01*
X157095906Y-112275151D01*
X157263774Y-112225607D01*
X157360063Y-112327482D01*
X157594449Y-112327482D01*
X157597541Y-112299375D01*
X157590299Y-112219644D01*
X156578063Y-112219644D01*
X156552918Y-112499579D01*
X156545414Y-112542209D01*
X156479611Y-112794676D01*
X156360261Y-112904391D01*
X156111130Y-112930297D01*
X156043101Y-112930609D01*
X155770914Y-112919205D01*
X155622731Y-112890812D01*
X155613652Y-112880588D01*
X155665706Y-112705852D01*
X155786064Y-112451674D01*
X155921021Y-112222725D01*
X155997926Y-112131648D01*
X155995927Y-112070352D01*
X155855613Y-112048822D01*
X155685122Y-112085937D01*
X155668869Y-112157566D01*
X155682669Y-112341601D01*
X155659585Y-112393458D01*
X155546049Y-112418326D01*
X155384533Y-112257064D01*
X155211012Y-112074838D01*
X155123905Y-112071304D01*
X155136451Y-112216759D01*
X155261891Y-112481501D01*
X155274866Y-112503116D01*
X155411676Y-112745310D01*
X155431818Y-112868102D01*
X155340179Y-112936499D01*
X155308426Y-112949548D01*
X155150187Y-112969289D01*
X154801972Y-112986492D01*
X154294660Y-113001082D01*
X153659130Y-113012980D01*
X152926261Y-113022110D01*
X152126934Y-113028396D01*
X151292026Y-113031760D01*
X150452418Y-113032124D01*
X149638989Y-113029414D01*
X148882618Y-113023551D01*
X148214185Y-113014458D01*
X147664569Y-113002059D01*
X147264649Y-112986277D01*
X147064962Y-112970075D01*
X146547185Y-112899105D01*
X146576569Y-112446257D01*
X146213348Y-112446257D01*
X146186058Y-112598729D01*
X146156075Y-112633114D01*
X146018412Y-112655448D01*
X145906793Y-112543517D01*
X145895391Y-112482352D01*
X145984937Y-112390127D01*
X146061043Y-112378435D01*
X146213348Y-112446257D01*
X146576569Y-112446257D01*
X146580201Y-112390292D01*
X146608458Y-112080773D01*
X146672552Y-111934271D01*
X146821321Y-111893317D01*
X146999739Y-111896587D01*
X147192208Y-111900258D01*
X147579834Y-111904415D01*
X148136908Y-111908892D01*
X148837718Y-111913525D01*
X149656554Y-111918150D01*
X150567706Y-111922602D01*
X151545461Y-111926716D01*
X151937645Y-111928188D01*
X153046865Y-111934695D01*
X154033302Y-111945487D01*
X154880660Y-111960137D01*
X155572640Y-111978218D01*
X156092942Y-111999301D01*
X156425270Y-112022960D01*
X156553323Y-112048767D01*
X156553654Y-112049244D01*
X156578063Y-112219644D01*
X157590299Y-112219644D01*
X157551321Y-111790555D01*
X157378976Y-111790555D01*
X157289666Y-111911596D01*
X157096577Y-111987453D01*
X156926922Y-111975646D01*
X156878371Y-111858740D01*
X156863139Y-111795219D01*
X152278704Y-111795219D01*
X152162565Y-111799205D01*
X152044662Y-111666106D01*
X151993666Y-111486307D01*
X151981053Y-111301150D01*
X152036477Y-111317033D01*
X152131710Y-111433238D01*
X152275311Y-111664518D01*
X152278704Y-111795219D01*
X156863139Y-111795219D01*
X156811409Y-111579498D01*
X156788873Y-111459251D01*
X156606721Y-111459251D01*
X156506546Y-111598940D01*
X156226398Y-111672765D01*
X155905507Y-111677878D01*
X155701401Y-111636070D01*
X155558236Y-111501540D01*
X155551066Y-111486497D01*
X154944241Y-111486497D01*
X154807393Y-111473014D01*
X154485647Y-111362035D01*
X154064380Y-111189264D01*
X153697588Y-111025190D01*
X153373017Y-110867670D01*
X153126062Y-110736113D01*
X152992119Y-110649926D01*
X153006585Y-110628518D01*
X153073652Y-110646024D01*
X153353148Y-110743219D01*
X153722534Y-110885478D01*
X154121536Y-111047752D01*
X154489877Y-111204993D01*
X154767283Y-111332150D01*
X154890304Y-111400976D01*
X154944241Y-111486497D01*
X155551066Y-111486497D01*
X155423679Y-111219247D01*
X155392485Y-111138336D01*
X155320620Y-110942181D01*
X154949567Y-110942181D01*
X154918040Y-111012073D01*
X154906688Y-111023950D01*
X154772436Y-111026639D01*
X154485436Y-110963163D01*
X154099214Y-110846314D01*
X153952586Y-110795915D01*
X153461975Y-110636132D01*
X153132686Y-110565674D01*
X152927274Y-110577561D01*
X152883391Y-110596596D01*
X152817305Y-110664053D01*
X152869264Y-110750048D01*
X153065779Y-110875317D01*
X153433357Y-111060593D01*
X153544500Y-111113693D01*
X154045788Y-111362098D01*
X154348991Y-111539050D01*
X154462497Y-111651525D01*
X154394698Y-111706500D01*
X154267343Y-111714777D01*
X154051940Y-111657863D01*
X153720378Y-111508731D01*
X153339970Y-111298133D01*
X153294522Y-111270367D01*
X152576695Y-110827006D01*
X153060246Y-111271416D01*
X153317067Y-111519296D01*
X153418286Y-111656476D01*
X153380242Y-111710894D01*
X153320165Y-111715827D01*
X153117574Y-111636879D01*
X152862140Y-111437097D01*
X152746979Y-111317708D01*
X152514781Y-111080183D01*
X152371314Y-110980754D01*
X152340160Y-111021025D01*
X152444900Y-111202601D01*
X152519931Y-111302256D01*
X152699255Y-111556673D01*
X152728415Y-111684974D01*
X152638156Y-111715827D01*
X152516275Y-111629926D01*
X152360009Y-111420917D01*
X152346735Y-111398871D01*
X152157274Y-111189131D01*
X151960982Y-111120540D01*
X151816758Y-111188895D01*
X151783499Y-111389990D01*
X151793440Y-111438369D01*
X151810476Y-111664120D01*
X151774032Y-111765203D01*
X151709780Y-111729293D01*
X151661528Y-111531697D01*
X151658612Y-111505511D01*
X151609756Y-111268221D01*
X151539109Y-111163877D01*
X151535882Y-111163653D01*
X151487935Y-111255652D01*
X151500536Y-111439740D01*
X151498367Y-111656809D01*
X151422669Y-111715827D01*
X151334797Y-111621002D01*
X151326969Y-111418513D01*
X151372368Y-111283556D01*
X151193639Y-111283556D01*
X151142291Y-111505928D01*
X151129228Y-111541142D01*
X151022860Y-111683858D01*
X150907185Y-111711147D01*
X150864956Y-111626499D01*
X150925246Y-111477414D01*
X151027096Y-111322803D01*
X151150636Y-111212670D01*
X151193639Y-111283556D01*
X151372368Y-111283556D01*
X151401837Y-111195957D01*
X151602331Y-111066386D01*
X151748435Y-111022582D01*
X151777745Y-111011202D01*
X150988707Y-111011202D01*
X150968386Y-111113911D01*
X150846590Y-111335633D01*
X150663290Y-111578105D01*
X150486295Y-111708597D01*
X150448276Y-111715827D01*
X150356203Y-111685663D01*
X150416666Y-111569847D01*
X150514402Y-111460231D01*
X150710609Y-111225239D01*
X150740450Y-111126486D01*
X150615265Y-111169049D01*
X150346392Y-111358000D01*
X150324499Y-111375242D01*
X150069255Y-111549719D01*
X149827328Y-111672707D01*
X149641121Y-111732255D01*
X149553039Y-111716407D01*
X149605485Y-111613211D01*
X149654118Y-111564222D01*
X149844182Y-111416174D01*
X150104617Y-111248608D01*
X150383285Y-111089673D01*
X150628046Y-110967518D01*
X150786761Y-110910291D01*
X150812010Y-110939109D01*
X150782225Y-111043761D01*
X150894599Y-111023095D01*
X150988707Y-111011202D01*
X151777745Y-111011202D01*
X152174573Y-110857128D01*
X150374374Y-110857128D01*
X150333735Y-110949311D01*
X150147171Y-111103972D01*
X149868272Y-111288841D01*
X149550627Y-111471647D01*
X149247826Y-111620117D01*
X149013457Y-111701981D01*
X148959956Y-111708886D01*
X148739451Y-111696782D01*
X148656261Y-111661252D01*
X148748256Y-111586788D01*
X148986287Y-111454436D01*
X149313417Y-111290843D01*
X149672714Y-111122658D01*
X150007242Y-110976526D01*
X150260066Y-110879095D01*
X150374253Y-110857011D01*
X150374374Y-110857128D01*
X152174573Y-110857128D01*
X152181237Y-110854541D01*
X152428527Y-110601580D01*
X152502348Y-110300534D01*
X152291238Y-110300534D01*
X152205570Y-110509919D01*
X151996913Y-110658748D01*
X151575003Y-110813238D01*
X151204016Y-110775197D01*
X151083825Y-110720843D01*
X150951262Y-110597898D01*
X150940224Y-110549744D01*
X150754522Y-110549744D01*
X150680093Y-110745618D01*
X150469680Y-110777426D01*
X150316783Y-110725880D01*
X150088849Y-110725880D01*
X150025102Y-110770376D01*
X149804093Y-110885064D01*
X149469172Y-111047731D01*
X149361569Y-111098529D01*
X148979261Y-111288610D01*
X148677593Y-111458403D01*
X148511525Y-111576491D01*
X148499182Y-111591519D01*
X148356425Y-111681406D01*
X148140220Y-111713353D01*
X147950061Y-111684489D01*
X147883217Y-111609277D01*
X147968790Y-111475265D01*
X148076478Y-111399607D01*
X148253357Y-111325215D01*
X148565718Y-111210684D01*
X148954523Y-111075779D01*
X149360732Y-110940266D01*
X149725307Y-110823912D01*
X149989208Y-110746481D01*
X150088849Y-110725880D01*
X150316783Y-110725880D01*
X150292133Y-110717570D01*
X150103889Y-110670237D01*
X149848899Y-110690796D01*
X149473321Y-110786856D01*
X149207119Y-110870930D01*
X148710039Y-111029461D01*
X148386031Y-111118946D01*
X148200391Y-111145254D01*
X148118416Y-111114256D01*
X148104087Y-111057474D01*
X148140637Y-110995341D01*
X148269700Y-110928037D01*
X148520392Y-110846442D01*
X148921830Y-110741433D01*
X149503130Y-110603886D01*
X149684635Y-110562282D01*
X150176197Y-110455579D01*
X150491589Y-110405396D01*
X150668041Y-110411297D01*
X150742783Y-110472844D01*
X150754522Y-110549744D01*
X150940224Y-110549744D01*
X150900629Y-110377016D01*
X150903972Y-110157463D01*
X150557827Y-110157463D01*
X150443696Y-110236387D01*
X150110917Y-110343137D01*
X149559378Y-110478597D01*
X149538699Y-110483283D01*
X148977867Y-110607666D01*
X148601661Y-110681108D01*
X148379900Y-110704051D01*
X148282401Y-110676936D01*
X148278981Y-110600207D01*
X148324956Y-110501044D01*
X148421796Y-110382336D01*
X148590165Y-110311639D01*
X148883483Y-110274918D01*
X149239929Y-110260673D01*
X150036695Y-110241172D01*
X149263652Y-110169740D01*
X148490608Y-110098307D01*
X149589435Y-110078806D01*
X150130585Y-110079557D01*
X150453419Y-110105482D01*
X150557827Y-110157463D01*
X150903972Y-110157463D01*
X150904769Y-110105131D01*
X150944130Y-109866682D01*
X150588869Y-109866682D01*
X150581279Y-109929388D01*
X150365171Y-109924278D01*
X150257565Y-109909251D01*
X149840455Y-109863295D01*
X149396655Y-109840227D01*
X149339961Y-109839651D01*
X149041882Y-109816380D01*
X148927058Y-109753534D01*
X148933747Y-109725736D01*
X149073114Y-109677043D01*
X149359609Y-109664845D01*
X149723606Y-109683213D01*
X150095475Y-109726218D01*
X150405589Y-109787929D01*
X150584320Y-109862418D01*
X150588869Y-109866682D01*
X150944130Y-109866682D01*
X150970043Y-109709707D01*
X151063245Y-109581568D01*
X150754522Y-109581568D01*
X150667598Y-109687542D01*
X150506043Y-109680916D01*
X150248606Y-109636055D01*
X149883856Y-109581705D01*
X149709814Y-109558134D01*
X149400081Y-109508416D01*
X149283233Y-109458071D01*
X149331720Y-109392682D01*
X149360740Y-109375459D01*
X149629650Y-109308706D01*
X149798056Y-109321569D01*
X150101526Y-109396013D01*
X150312782Y-109449055D01*
X150427734Y-109463992D01*
X150337467Y-109398096D01*
X150202348Y-109328354D01*
X149966553Y-109204427D01*
X149913451Y-109139744D01*
X150025026Y-109101357D01*
X150073411Y-109092553D01*
X150344192Y-109130451D01*
X150596592Y-109290131D01*
X150743806Y-109509268D01*
X150754522Y-109581568D01*
X151063245Y-109581568D01*
X151131036Y-109488366D01*
X151421800Y-109403104D01*
X151538058Y-109398387D01*
X151868789Y-109498716D01*
X152165232Y-109808976D01*
X152245657Y-109938324D01*
X152276491Y-110040402D01*
X152179628Y-110004949D01*
X152082549Y-109962249D01*
X152151129Y-110052812D01*
X152162565Y-110065190D01*
X152291238Y-110300534D01*
X152502348Y-110300534D01*
X152519464Y-110230738D01*
X152521478Y-110148699D01*
X152537156Y-109885785D01*
X152619974Y-109723835D01*
X152823612Y-109594386D01*
X153027590Y-109503206D01*
X153360890Y-109363069D01*
X153539789Y-109301438D01*
X153612146Y-109308088D01*
X153625822Y-109372791D01*
X153625826Y-109375378D01*
X153534766Y-109475064D01*
X153322130Y-109585260D01*
X153172632Y-109652299D01*
X153189974Y-109677212D01*
X153395080Y-109665240D01*
X153570608Y-109647480D01*
X153900105Y-109626142D01*
X154030414Y-109655735D01*
X154012348Y-109707359D01*
X153846898Y-109780419D01*
X153539874Y-109841478D01*
X153294522Y-109866898D01*
X153020507Y-109887635D01*
X152924084Y-109903633D01*
X153017368Y-109918429D01*
X153312477Y-109935561D01*
X153570608Y-109947502D01*
X154454087Y-109986992D01*
X153736261Y-110054526D01*
X153018435Y-110122061D01*
X153821537Y-110215628D01*
X154222488Y-110275806D01*
X154532102Y-110347368D01*
X154689342Y-110415855D01*
X154694663Y-110422496D01*
X154649735Y-110486132D01*
X154399337Y-110483670D01*
X154278082Y-110469011D01*
X153705405Y-110393210D01*
X153345182Y-110353390D01*
X153191774Y-110350625D01*
X153239541Y-110385986D01*
X153482845Y-110460545D01*
X153832295Y-110553756D01*
X154358564Y-110693643D01*
X154700051Y-110796192D01*
X154886978Y-110874629D01*
X154949567Y-110942181D01*
X155320620Y-110942181D01*
X155280856Y-110833647D01*
X155249916Y-110693871D01*
X155300852Y-110677857D01*
X155404325Y-110728091D01*
X155694742Y-110791029D01*
X155916334Y-110667840D01*
X156030202Y-110391228D01*
X156034018Y-110198662D01*
X155977338Y-109924367D01*
X155881685Y-109764821D01*
X155863116Y-109755271D01*
X155776362Y-109788362D01*
X155783526Y-109994141D01*
X155793754Y-110048730D01*
X155811054Y-110312723D01*
X155710192Y-110443326D01*
X155677571Y-110457769D01*
X155485934Y-110481161D01*
X155400631Y-110410887D01*
X155476732Y-110296956D01*
X155490597Y-110287974D01*
X155572245Y-110181955D01*
X155515008Y-110121809D01*
X155319907Y-110100909D01*
X155187039Y-110242047D01*
X155171913Y-110333711D01*
X155103413Y-110330424D01*
X154920747Y-110191193D01*
X154658167Y-109943648D01*
X154547528Y-109830045D01*
X154103936Y-109418136D01*
X153832889Y-109215050D01*
X153147611Y-109215050D01*
X153107739Y-109267213D01*
X152908000Y-109374739D01*
X152581799Y-109495289D01*
X152381545Y-109495544D01*
X152332985Y-109386884D01*
X152461865Y-109180689D01*
X152463899Y-109178436D01*
X152676255Y-109011267D01*
X152842290Y-108957413D01*
X152921876Y-108994545D01*
X152826080Y-109116138D01*
X152742348Y-109188562D01*
X152579811Y-109333860D01*
X152587854Y-109368558D01*
X152687130Y-109339229D01*
X153003067Y-109238358D01*
X153147611Y-109215050D01*
X153832889Y-109215050D01*
X153628003Y-109061537D01*
X153371130Y-108911419D01*
X152460707Y-108911419D01*
X152355826Y-109065392D01*
X152141981Y-109254155D01*
X152017830Y-109242753D01*
X152014350Y-109224774D01*
X151044225Y-109224774D01*
X151028085Y-109290345D01*
X150911768Y-109357915D01*
X150819006Y-109275934D01*
X150822091Y-109128243D01*
X150808200Y-108951547D01*
X150763315Y-108905174D01*
X150692308Y-108914099D01*
X150712384Y-109004439D01*
X150707035Y-109147222D01*
X150595131Y-109164656D01*
X150470804Y-109053045D01*
X150485988Y-108908427D01*
X150631701Y-108776766D01*
X150778245Y-108735778D01*
X150897133Y-108824515D01*
X151001999Y-109023484D01*
X151044225Y-109224774D01*
X152014350Y-109224774D01*
X151976583Y-109029700D01*
X151977066Y-108982566D01*
X151979117Y-108954957D01*
X151858869Y-108954957D01*
X151780780Y-109139527D01*
X151638000Y-109175827D01*
X151473207Y-109120896D01*
X151424499Y-108919908D01*
X151424892Y-108872131D01*
X151426778Y-108844522D01*
X151196261Y-108844522D01*
X151155854Y-108935422D01*
X151122637Y-108918145D01*
X151109421Y-108787085D01*
X151122637Y-108770899D01*
X151188291Y-108786058D01*
X151196261Y-108844522D01*
X151426778Y-108844522D01*
X151438314Y-108675695D01*
X151477471Y-108682633D01*
X151527565Y-108789305D01*
X151602506Y-108908636D01*
X151630238Y-108872131D01*
X151689893Y-108740663D01*
X151791738Y-108765518D01*
X151857059Y-108918182D01*
X151858869Y-108954957D01*
X151979117Y-108954957D01*
X151991297Y-108791004D01*
X152030031Y-108803413D01*
X152068451Y-108892409D01*
X152159703Y-109025822D01*
X152232858Y-108975235D01*
X152383678Y-108854004D01*
X152434677Y-108844522D01*
X152460707Y-108911419D01*
X153371130Y-108911419D01*
X153307533Y-108874253D01*
X152978658Y-108727189D01*
X152678280Y-108636813D01*
X152332923Y-108589772D01*
X151869107Y-108572714D01*
X151640396Y-108571305D01*
X151109152Y-108578623D01*
X150722390Y-108611762D01*
X150404058Y-108684347D01*
X150078106Y-108810000D01*
X149929256Y-108877846D01*
X149548191Y-109068544D01*
X149221426Y-109254009D01*
X149045778Y-109374246D01*
X148895943Y-109497306D01*
X148894967Y-109478782D01*
X149032290Y-109313870D01*
X149158560Y-109134714D01*
X149125577Y-109067173D01*
X149087507Y-109063701D01*
X148992950Y-109042926D01*
X149093191Y-108960294D01*
X149095085Y-108959095D01*
X149266139Y-108917124D01*
X149318869Y-108954957D01*
X149449180Y-108996592D01*
X149516203Y-108969503D01*
X149531274Y-108866099D01*
X149399199Y-108740605D01*
X149098000Y-108740605D01*
X149013767Y-108841548D01*
X148987565Y-108844522D01*
X148890646Y-108754632D01*
X148877130Y-108672352D01*
X148930668Y-108558046D01*
X148987565Y-108568435D01*
X149093787Y-108709621D01*
X149098000Y-108740605D01*
X149399199Y-108740605D01*
X149347512Y-108691494D01*
X149194548Y-108585449D01*
X148922060Y-108422823D01*
X148732102Y-108338735D01*
X148684365Y-108337867D01*
X148673017Y-108466445D01*
X148698495Y-108743440D01*
X148737182Y-108999889D01*
X148790293Y-109355201D01*
X148782446Y-109574373D01*
X148695573Y-109737929D01*
X148534138Y-109904850D01*
X148325344Y-110160028D01*
X148096746Y-110521423D01*
X147885390Y-110918995D01*
X147728319Y-111282700D01*
X147662579Y-111542496D01*
X147662348Y-111553193D01*
X147581290Y-111670010D01*
X147320095Y-111713342D01*
X147248217Y-111714135D01*
X146931696Y-111701098D01*
X146739336Y-111642496D01*
X146663113Y-111504425D01*
X146695000Y-111252980D01*
X146826973Y-110854255D01*
X146961517Y-110502886D01*
X147177078Y-109980814D01*
X147375707Y-109595245D01*
X147605390Y-109271567D01*
X147914115Y-108935170D01*
X148067543Y-108783206D01*
X148747835Y-108215984D01*
X149499823Y-107753945D01*
X150260908Y-107431275D01*
X150773990Y-107305286D01*
X151584725Y-107274771D01*
X152461557Y-107409530D01*
X153352822Y-107687982D01*
X154206857Y-108088545D01*
X154971998Y-108589637D01*
X155596580Y-109169674D01*
X155778798Y-109396006D01*
X156001442Y-109758946D01*
X156224597Y-110219984D01*
X156419221Y-110706742D01*
X156556271Y-111146844D01*
X156606721Y-111459251D01*
X156788873Y-111459251D01*
X156739195Y-111194187D01*
X156727350Y-111122228D01*
X156483229Y-110240986D01*
X156058100Y-109397835D01*
X155492128Y-108669533D01*
X155275466Y-108494904D01*
X154930516Y-108270020D01*
X154510834Y-108023978D01*
X154069976Y-107785873D01*
X153661499Y-107584799D01*
X153338957Y-107449852D01*
X153171611Y-107408870D01*
X153159742Y-107352154D01*
X153271776Y-107236310D01*
X149989535Y-107236310D01*
X149875861Y-107323699D01*
X149598514Y-107459055D01*
X149426862Y-107537315D01*
X148670947Y-107953600D01*
X147986281Y-108469568D01*
X147434741Y-109035727D01*
X147263606Y-109267638D01*
X146965249Y-109786729D01*
X146679665Y-110406612D01*
X146442651Y-111039601D01*
X146290005Y-111598013D01*
X146272309Y-111695777D01*
X146190324Y-111973528D01*
X146074752Y-112138227D01*
X145964924Y-112164168D01*
X145900169Y-112025646D01*
X145895391Y-111942132D01*
X145946414Y-111482441D01*
X146086209Y-110901579D01*
X146294863Y-110270651D01*
X146507157Y-109757539D01*
X147043890Y-108845225D01*
X147748620Y-108070168D01*
X148602485Y-107452293D01*
X148784739Y-107351829D01*
X149184953Y-107148668D01*
X149448200Y-107041688D01*
X149629054Y-107017083D01*
X149782084Y-107061046D01*
X149832849Y-107086676D01*
X149966282Y-107167198D01*
X149989535Y-107236310D01*
X153271776Y-107236310D01*
X153294847Y-107212455D01*
X153334637Y-107180149D01*
X153625409Y-106951428D01*
X154150183Y-107207758D01*
X154521784Y-107442440D01*
X154976732Y-107808462D01*
X155467668Y-108259116D01*
X155947232Y-108747698D01*
X156368065Y-109227504D01*
X156682809Y-109651826D01*
X156761692Y-109783218D01*
X156936380Y-110162964D01*
X157109753Y-110639685D01*
X157257226Y-111133430D01*
X157354212Y-111564245D01*
X157378976Y-111790555D01*
X157551321Y-111790555D01*
X157500506Y-111231154D01*
X157186646Y-110193666D01*
X156656362Y-109192957D01*
X156108536Y-108460370D01*
X155751130Y-108003602D01*
X155558294Y-107651592D01*
X155523609Y-107369294D01*
X155640651Y-107121662D01*
X155828803Y-106933672D01*
X156033470Y-106750396D01*
X156084461Y-106636167D01*
X155998591Y-106519618D01*
X155939238Y-106464999D01*
X155776963Y-106357140D01*
X155724087Y-106402313D01*
X155652378Y-106608757D01*
X155479874Y-106860049D01*
X155270511Y-107079230D01*
X155088222Y-107189340D01*
X155068319Y-107191674D01*
X154984151Y-107226536D01*
X155074426Y-107342065D01*
X155144304Y-107402637D01*
X155351950Y-107596366D01*
X155391250Y-107676749D01*
X155284678Y-107641664D01*
X155054711Y-107488988D01*
X154964597Y-107419605D01*
X154653167Y-107191774D01*
X154366148Y-107011957D01*
X154274380Y-106965471D01*
X154097884Y-106884418D01*
X154120750Y-106873006D01*
X154260826Y-106898459D01*
X154457935Y-106888806D01*
X154465652Y-106868668D01*
X153073652Y-106868668D01*
X153040548Y-107029230D01*
X152898262Y-107052927D01*
X152778280Y-107027376D01*
X152582615Y-106991870D01*
X152564130Y-107044063D01*
X152613593Y-107110709D01*
X152674651Y-107218687D01*
X152567534Y-107232093D01*
X152467226Y-107215214D01*
X152259409Y-107142271D01*
X152190174Y-107064691D01*
X152230596Y-107025632D01*
X151796742Y-107025632D01*
X151707780Y-107059081D01*
X151424449Y-107065565D01*
X151417130Y-107065489D01*
X151127483Y-107058129D01*
X151036914Y-107036152D01*
X151123641Y-106986881D01*
X151219709Y-106950596D01*
X151569303Y-106903064D01*
X151716665Y-106955957D01*
X151796742Y-107025632D01*
X152230596Y-107025632D01*
X152279809Y-106978080D01*
X152355826Y-106967131D01*
X152504376Y-106905569D01*
X152477385Y-106745383D01*
X152365848Y-106606408D01*
X152272502Y-106400706D01*
X152304626Y-106298022D01*
X152320692Y-106278119D01*
X152142276Y-106278119D01*
X152033724Y-106295804D01*
X151890489Y-106275500D01*
X151888779Y-106237801D01*
X152036584Y-106211438D01*
X152100445Y-106229083D01*
X152142276Y-106278119D01*
X152320692Y-106278119D01*
X152385679Y-106197615D01*
X152452992Y-106235560D01*
X152538001Y-106442957D01*
X152581127Y-106571585D01*
X152697834Y-106814575D01*
X152825249Y-106939726D01*
X152915295Y-106910221D01*
X152896260Y-106810707D01*
X152896353Y-106663323D01*
X152951402Y-106635827D01*
X153048941Y-106728718D01*
X153073652Y-106868668D01*
X154465652Y-106868668D01*
X154509304Y-106754762D01*
X154421518Y-106594722D01*
X154316043Y-106571840D01*
X154152500Y-106527485D01*
X154122782Y-106470174D01*
X154215254Y-106398565D01*
X154388134Y-106394173D01*
X154666863Y-106343977D01*
X154818245Y-106121519D01*
X154838917Y-105956412D01*
X154750185Y-105811693D01*
X154542872Y-105675453D01*
X154309032Y-105592276D01*
X154140719Y-105606745D01*
X154132171Y-105614119D01*
X154068591Y-105759886D01*
X154191946Y-105834668D01*
X154303870Y-105833872D01*
X154513843Y-105871826D01*
X154592055Y-105954294D01*
X154565562Y-106053125D01*
X154365460Y-106071304D01*
X154287074Y-106064729D01*
X153962032Y-106099679D01*
X153772577Y-106255632D01*
X153752837Y-106492858D01*
X153810735Y-106619283D01*
X153877366Y-106745318D01*
X153828321Y-106773180D01*
X153623726Y-106711574D01*
X153533843Y-106679730D01*
X153218472Y-106583126D01*
X152965474Y-106532223D01*
X152935608Y-106530239D01*
X152765525Y-106466842D01*
X152747969Y-106340019D01*
X152864201Y-106225814D01*
X153018435Y-106194087D01*
X153244877Y-106146914D01*
X153272189Y-106028752D01*
X153094995Y-105874640D01*
X153069587Y-105860608D01*
X152841513Y-105801474D01*
X152564111Y-105881499D01*
X152497031Y-105913644D01*
X152211549Y-106013343D01*
X152046892Y-105984544D01*
X151991106Y-105826957D01*
X152093721Y-105708629D01*
X152293872Y-105695390D01*
X152309902Y-105700081D01*
X152479213Y-105691894D01*
X152520258Y-105563601D01*
X152426083Y-105379668D01*
X152352245Y-105307637D01*
X152195292Y-105228574D01*
X151975658Y-105244621D01*
X151741537Y-105312885D01*
X151422810Y-105395243D01*
X151234968Y-105375858D01*
X151170857Y-105329380D01*
X150973385Y-105228480D01*
X150714078Y-105205858D01*
X150459338Y-105248368D01*
X150275564Y-105342860D01*
X150229158Y-105476188D01*
X150245858Y-105512536D01*
X150394041Y-105573342D01*
X150638700Y-105516808D01*
X150994445Y-105464687D01*
X151188433Y-105527290D01*
X151477656Y-105589054D01*
X151630740Y-105535364D01*
X151899331Y-105443126D01*
X152044870Y-105428044D01*
X152157461Y-105446948D01*
X152072308Y-105503451D01*
X151996913Y-105534920D01*
X151828114Y-105651246D01*
X151757685Y-105865198D01*
X151748435Y-106073576D01*
X151773905Y-106368825D01*
X151837228Y-106558716D01*
X151858869Y-106580609D01*
X151965264Y-106731777D01*
X151969304Y-106765480D01*
X151892144Y-106796034D01*
X151703771Y-106708032D01*
X151693217Y-106701199D01*
X151477074Y-106584352D01*
X151307124Y-106603251D01*
X151141043Y-106701199D01*
X150946480Y-106818014D01*
X150880417Y-106808765D01*
X150934117Y-106648376D01*
X151043734Y-106421826D01*
X151082538Y-106316778D01*
X150927749Y-106316778D01*
X150894989Y-106427786D01*
X150765633Y-106490488D01*
X150580464Y-106591107D01*
X150533652Y-106681837D01*
X150442993Y-106894253D01*
X150240569Y-107051312D01*
X150125043Y-107077566D01*
X149997941Y-106988702D01*
X149981478Y-106911913D01*
X150044556Y-106765004D01*
X150098430Y-106746261D01*
X150164386Y-106813918D01*
X150147130Y-106856696D01*
X150154694Y-106958513D01*
X150193726Y-106967131D01*
X150314130Y-106874000D01*
X150380895Y-106657146D01*
X150378650Y-106410373D01*
X150311592Y-106247871D01*
X150242383Y-106111002D01*
X150292743Y-106083653D01*
X150454571Y-106164935D01*
X150483088Y-106201616D01*
X150634132Y-106275034D01*
X150706938Y-106261657D01*
X150882356Y-106273480D01*
X150927749Y-106316778D01*
X151082538Y-106316778D01*
X151155825Y-106118387D01*
X151131545Y-105871853D01*
X151101319Y-105797468D01*
X150965129Y-105598572D01*
X150845237Y-105531479D01*
X150766430Y-105563953D01*
X150842869Y-105664000D01*
X150957916Y-105854497D01*
X150899225Y-105981295D01*
X150709312Y-106025615D01*
X150430693Y-105968679D01*
X150292058Y-105907283D01*
X150050075Y-105799302D01*
X149903302Y-105806425D01*
X149782971Y-105903526D01*
X149684225Y-106033709D01*
X149751592Y-106120462D01*
X149907134Y-106186816D01*
X150130410Y-106329318D01*
X150197671Y-106489696D01*
X150103152Y-106608710D01*
X149950833Y-106635827D01*
X149652977Y-106698359D01*
X149481485Y-106783128D01*
X149209268Y-106938244D01*
X149048974Y-107008751D01*
X148903685Y-107050581D01*
X148927622Y-106983052D01*
X149006955Y-106889057D01*
X149119820Y-106672977D01*
X149103843Y-106488557D01*
X148973521Y-106414957D01*
X148899066Y-106503176D01*
X148899898Y-106604214D01*
X148837915Y-106782607D01*
X148722973Y-106836285D01*
X148575516Y-106832339D01*
X148591667Y-106694555D01*
X148599859Y-106674636D01*
X148680060Y-106328515D01*
X148630172Y-106050838D01*
X148477519Y-105885031D01*
X148249424Y-105874519D01*
X148131695Y-105930601D01*
X147967163Y-106109383D01*
X147960979Y-106291022D01*
X148079929Y-106388499D01*
X148188718Y-106357590D01*
X148190364Y-106301071D01*
X148247871Y-106149980D01*
X148314094Y-106110281D01*
X148415464Y-106115896D01*
X148399597Y-106275762D01*
X148387236Y-106317346D01*
X148295817Y-106699088D01*
X148319879Y-106930264D01*
X148468367Y-107053787D01*
X148545826Y-107078146D01*
X148713641Y-107128206D01*
X148724058Y-107183512D01*
X148561186Y-107284199D01*
X148438600Y-107348984D01*
X148169667Y-107525239D01*
X147817592Y-107802517D01*
X147453867Y-108124132D01*
X147417078Y-108158960D01*
X147122870Y-108427670D01*
X146900368Y-108608197D01*
X146786402Y-108671478D01*
X146778869Y-108662550D01*
X146848857Y-108499930D01*
X146911391Y-108424870D01*
X146986695Y-108315716D01*
X146904874Y-108292348D01*
X146820924Y-108225158D01*
X146838628Y-108174566D01*
X146819580Y-108026214D01*
X146707102Y-107901991D01*
X146569877Y-107785239D01*
X146610373Y-107747625D01*
X146696043Y-107743687D01*
X146859906Y-107786702D01*
X146889304Y-107837729D01*
X146977957Y-107952598D01*
X147175572Y-107993401D01*
X147379629Y-107949787D01*
X147450940Y-107894426D01*
X147510711Y-107774172D01*
X147380209Y-107740355D01*
X147358052Y-107740174D01*
X147114133Y-107698382D01*
X146792830Y-107595158D01*
X146725202Y-107568053D01*
X146457574Y-107469641D01*
X146290556Y-107433350D01*
X146270690Y-107438499D01*
X146286172Y-107554624D01*
X146367895Y-107817548D01*
X146494988Y-108162023D01*
X146761853Y-108842981D01*
X146377435Y-109632873D01*
X145964911Y-110634056D01*
X145742421Y-111578804D01*
X145705862Y-112516007D01*
X145851127Y-113494556D01*
X146005468Y-114063017D01*
X146265065Y-114701562D01*
X146651242Y-115400211D01*
X147115775Y-116084056D01*
X147610438Y-116678194D01*
X147828907Y-116895307D01*
X148346120Y-117290018D01*
X149000751Y-117670047D01*
X149710962Y-117994051D01*
X150394917Y-118220689D01*
X150504550Y-118246977D01*
X150845442Y-118344064D01*
X151087181Y-118451764D01*
X151160716Y-118519009D01*
X151148347Y-118761047D01*
X150982405Y-119015751D01*
X150713918Y-119212592D01*
X150635530Y-119244923D01*
X150409011Y-119358936D01*
X150310997Y-119475069D01*
X150369097Y-119548931D01*
X150441623Y-119556696D01*
X150526678Y-119591097D01*
X150515539Y-119611621D01*
X150354832Y-119638959D01*
X150041440Y-119595799D01*
X149626782Y-119496048D01*
X149162277Y-119353616D01*
X148699345Y-119182411D01*
X148345366Y-119024590D01*
X147224908Y-118353929D01*
X146262922Y-117531986D01*
X145467025Y-116567980D01*
X144844831Y-115471128D01*
X144405367Y-114255827D01*
X144275378Y-113566401D01*
X144208844Y-112699401D01*
X144200915Y-112323218D01*
X144205915Y-111709993D01*
X144238828Y-111232028D01*
X144311005Y-110804338D01*
X144433802Y-110341934D01*
X144490101Y-110158520D01*
X144933577Y-109065271D01*
X145553756Y-108068364D01*
X146367411Y-107143066D01*
X146813654Y-106732609D01*
X147816840Y-105985571D01*
X148861905Y-105451966D01*
X149967736Y-105125614D01*
X151153217Y-105000337D01*
X152024522Y-105027659D01*
X153329964Y-105212000D01*
X154500051Y-105550315D01*
X155571146Y-106057664D01*
X156579610Y-106749106D01*
X156966913Y-107074682D01*
X157460033Y-107614470D01*
X157935174Y-108328613D01*
X158369269Y-109170657D01*
X158739253Y-110094146D01*
X159022060Y-111052626D01*
X159087678Y-111345976D01*
X159163059Y-111761385D01*
X159194193Y-112115281D01*
X159337464Y-112115281D01*
X159338093Y-111731696D01*
X159159404Y-110671921D01*
X159157993Y-110666696D01*
X158834453Y-109692580D01*
X158410395Y-108753738D01*
X157915773Y-107906101D01*
X157380539Y-107205602D01*
X157206584Y-107022646D01*
X156547850Y-106464448D01*
X155749581Y-105932071D01*
X154892088Y-105472552D01*
X154055685Y-105132927D01*
X153893120Y-105082088D01*
X153170275Y-104922764D01*
X152322226Y-104820118D01*
X151427568Y-104777219D01*
X150564895Y-104797133D01*
G36*
X153466050Y-118268743D02*
X153344363Y-118400928D01*
X153307812Y-118599790D01*
X153341274Y-118931352D01*
X153433627Y-119283401D01*
X153569102Y-119448131D01*
X153733521Y-119410061D01*
X153758679Y-119387031D01*
X153763870Y-119255114D01*
X153703459Y-119000318D01*
X153676569Y-118917683D01*
X153595978Y-118597245D01*
X153630671Y-118398456D01*
X153658983Y-118357814D01*
X153768973Y-118287509D01*
X153908155Y-118366066D01*
X154044229Y-118512063D01*
X154214180Y-118782501D01*
X154253900Y-119013571D01*
X154252198Y-119020728D01*
X154243023Y-119193925D01*
X154361050Y-119197320D01*
X154509304Y-119113266D01*
X154607213Y-118992858D01*
X154552322Y-118921696D01*
X154422576Y-118773287D01*
X154266156Y-118518809D01*
X154245790Y-118479957D01*
X154025429Y-118198111D01*
X153761292Y-118132391D01*
X153466050Y-118268743D01*
X153466050Y-118268743D01*
G37*
X153466050Y-118268743D02*
X153344363Y-118400928D01*
X153307812Y-118599790D01*
X153341274Y-118931352D01*
X153433627Y-119283401D01*
X153569102Y-119448131D01*
X153733521Y-119410061D01*
X153758679Y-119387031D01*
X153763870Y-119255114D01*
X153703459Y-119000318D01*
X153676569Y-118917683D01*
X153595978Y-118597245D01*
X153630671Y-118398456D01*
X153658983Y-118357814D01*
X153768973Y-118287509D01*
X153908155Y-118366066D01*
X154044229Y-118512063D01*
X154214180Y-118782501D01*
X154253900Y-119013571D01*
X154252198Y-119020728D01*
X154243023Y-119193925D01*
X154361050Y-119197320D01*
X154509304Y-119113266D01*
X154607213Y-118992858D01*
X154552322Y-118921696D01*
X154422576Y-118773287D01*
X154266156Y-118518809D01*
X154245790Y-118479957D01*
X154025429Y-118198111D01*
X153761292Y-118132391D01*
X153466050Y-118268743D01*
G36*
X148893652Y-117969452D02*
X148892225Y-118191386D01*
X148819962Y-118459875D01*
X148709517Y-118686698D01*
X148593545Y-118783637D01*
X148592269Y-118783653D01*
X148450899Y-118836842D01*
X148435391Y-118877336D01*
X148528355Y-118972153D01*
X148751749Y-119089535D01*
X149022330Y-119196134D01*
X149256853Y-119258601D01*
X149367250Y-119250634D01*
X149426636Y-119101766D01*
X149295512Y-119013271D01*
X149199232Y-119004522D01*
X149031786Y-118952469D01*
X149019775Y-118866479D01*
X149143439Y-118756759D01*
X149196926Y-118756809D01*
X149275808Y-118694300D01*
X149253976Y-118508331D01*
X149259985Y-118289030D01*
X149390670Y-118224540D01*
X149596413Y-118334001D01*
X149628087Y-118364000D01*
X149735708Y-118431196D01*
X149760608Y-118320755D01*
X149666522Y-118163248D01*
X149494781Y-118078269D01*
X149208963Y-117996868D01*
X149048526Y-117942314D01*
X148909869Y-117927762D01*
X148893652Y-117969452D01*
X148893652Y-117969452D01*
G37*
X148893652Y-117969452D02*
X148892225Y-118191386D01*
X148819962Y-118459875D01*
X148709517Y-118686698D01*
X148593545Y-118783637D01*
X148592269Y-118783653D01*
X148450899Y-118836842D01*
X148435391Y-118877336D01*
X148528355Y-118972153D01*
X148751749Y-119089535D01*
X149022330Y-119196134D01*
X149256853Y-119258601D01*
X149367250Y-119250634D01*
X149426636Y-119101766D01*
X149295512Y-119013271D01*
X149199232Y-119004522D01*
X149031786Y-118952469D01*
X149019775Y-118866479D01*
X149143439Y-118756759D01*
X149196926Y-118756809D01*
X149275808Y-118694300D01*
X149253976Y-118508331D01*
X149259985Y-118289030D01*
X149390670Y-118224540D01*
X149596413Y-118334001D01*
X149628087Y-118364000D01*
X149735708Y-118431196D01*
X149760608Y-118320755D01*
X149666522Y-118163248D01*
X149494781Y-118078269D01*
X149208963Y-117996868D01*
X149048526Y-117942314D01*
X148909869Y-117927762D01*
X148893652Y-117969452D01*
G36*
X155021095Y-117542367D02*
X154964998Y-117575988D01*
X154592432Y-117803100D01*
X154825618Y-118020346D01*
X155027148Y-118281860D01*
X155127331Y-118510622D01*
X155209516Y-118721051D01*
X155335645Y-118762248D01*
X155547577Y-118635590D01*
X155676853Y-118528711D01*
X155868043Y-118339250D01*
X155881062Y-118286696D01*
X155613652Y-118286696D01*
X155554020Y-118433659D01*
X155503217Y-118452348D01*
X155405242Y-118362901D01*
X155392782Y-118286696D01*
X155452414Y-118139733D01*
X155503217Y-118121044D01*
X155601193Y-118210491D01*
X155613652Y-118286696D01*
X155881062Y-118286696D01*
X155905977Y-118186129D01*
X155831499Y-118004146D01*
X155769526Y-117883113D01*
X155479176Y-117883113D01*
X155446558Y-117992835D01*
X155331826Y-117993547D01*
X155138147Y-117887631D01*
X155085520Y-117806801D01*
X155118138Y-117697079D01*
X155232869Y-117696367D01*
X155426548Y-117802282D01*
X155479176Y-117883113D01*
X155769526Y-117883113D01*
X155697129Y-117741724D01*
X155616206Y-117575443D01*
X155493943Y-117415752D01*
X155311562Y-117404714D01*
X155021095Y-117542367D01*
X155021095Y-117542367D01*
G37*
X155021095Y-117542367D02*
X154964998Y-117575988D01*
X154592432Y-117803100D01*
X154825618Y-118020346D01*
X155027148Y-118281860D01*
X155127331Y-118510622D01*
X155209516Y-118721051D01*
X155335645Y-118762248D01*
X155547577Y-118635590D01*
X155676853Y-118528711D01*
X155868043Y-118339250D01*
X155881062Y-118286696D01*
X155613652Y-118286696D01*
X155554020Y-118433659D01*
X155503217Y-118452348D01*
X155405242Y-118362901D01*
X155392782Y-118286696D01*
X155452414Y-118139733D01*
X155503217Y-118121044D01*
X155601193Y-118210491D01*
X155613652Y-118286696D01*
X155881062Y-118286696D01*
X155905977Y-118186129D01*
X155831499Y-118004146D01*
X155769526Y-117883113D01*
X155479176Y-117883113D01*
X155446558Y-117992835D01*
X155331826Y-117993547D01*
X155138147Y-117887631D01*
X155085520Y-117806801D01*
X155118138Y-117697079D01*
X155232869Y-117696367D01*
X155426548Y-117802282D01*
X155479176Y-117883113D01*
X155769526Y-117883113D01*
X155697129Y-117741724D01*
X155616206Y-117575443D01*
X155493943Y-117415752D01*
X155311562Y-117404714D01*
X155021095Y-117542367D01*
G36*
X147389774Y-117139095D02*
X147385016Y-117275137D01*
X147358389Y-117649476D01*
X147304950Y-117983000D01*
X147282171Y-118249133D01*
X147374700Y-118336692D01*
X147589432Y-118246813D01*
X147828000Y-118069250D01*
X148079141Y-117891641D01*
X148278730Y-117797843D01*
X148306551Y-117793711D01*
X148434105Y-117748537D01*
X148406646Y-117657218D01*
X147772782Y-117657218D01*
X147712403Y-117790094D01*
X147587556Y-117925352D01*
X147482679Y-117974825D01*
X147473850Y-117969357D01*
X147475343Y-117849657D01*
X147505911Y-117750328D01*
X147612490Y-117603815D01*
X147728394Y-117571628D01*
X147772782Y-117657218D01*
X148406646Y-117657218D01*
X148406246Y-117655888D01*
X148267439Y-117562265D01*
X148062149Y-117514169D01*
X148038750Y-117513653D01*
X147796132Y-117472821D01*
X147717325Y-117331602D01*
X147716728Y-117312155D01*
X147634387Y-117092722D01*
X147551076Y-117018423D01*
X147435777Y-116997918D01*
X147389774Y-117139095D01*
X147389774Y-117139095D01*
G37*
X147389774Y-117139095D02*
X147385016Y-117275137D01*
X147358389Y-117649476D01*
X147304950Y-117983000D01*
X147282171Y-118249133D01*
X147374700Y-118336692D01*
X147589432Y-118246813D01*
X147828000Y-118069250D01*
X148079141Y-117891641D01*
X148278730Y-117797843D01*
X148306551Y-117793711D01*
X148434105Y-117748537D01*
X148406646Y-117657218D01*
X147772782Y-117657218D01*
X147712403Y-117790094D01*
X147587556Y-117925352D01*
X147482679Y-117974825D01*
X147473850Y-117969357D01*
X147475343Y-117849657D01*
X147505911Y-117750328D01*
X147612490Y-117603815D01*
X147728394Y-117571628D01*
X147772782Y-117657218D01*
X148406646Y-117657218D01*
X148406246Y-117655888D01*
X148267439Y-117562265D01*
X148062149Y-117514169D01*
X148038750Y-117513653D01*
X147796132Y-117472821D01*
X147717325Y-117331602D01*
X147716728Y-117312155D01*
X147634387Y-117092722D01*
X147551076Y-117018423D01*
X147435777Y-116997918D01*
X147389774Y-117139095D01*
G36*
X156154498Y-116573796D02*
X155944956Y-116795827D01*
X155797566Y-117013353D01*
X155777353Y-117105915D01*
X155881133Y-117126842D01*
X155925166Y-117127131D01*
X156101102Y-117052661D01*
X156125947Y-116938101D01*
X156197579Y-116758616D01*
X156285410Y-116712689D01*
X156402984Y-116733769D01*
X156424258Y-116899810D01*
X156410770Y-117013165D01*
X156425655Y-117319297D01*
X156536890Y-117566945D01*
X156708059Y-117678572D01*
X156723634Y-117679305D01*
X156864861Y-117609375D01*
X156986199Y-117505764D01*
X157146968Y-117272852D01*
X157097318Y-117105534D01*
X157061859Y-117079673D01*
X156962260Y-117119995D01*
X156903640Y-117249919D01*
X156823462Y-117423974D01*
X156743681Y-117415371D01*
X156687548Y-117261138D01*
X156678312Y-116998303D01*
X156687835Y-116906240D01*
X156714416Y-116624315D01*
X156671207Y-116497979D01*
X156526829Y-116465314D01*
X156463974Y-116464522D01*
X156154498Y-116573796D01*
X156154498Y-116573796D01*
G37*
X156154498Y-116573796D02*
X155944956Y-116795827D01*
X155797566Y-117013353D01*
X155777353Y-117105915D01*
X155881133Y-117126842D01*
X155925166Y-117127131D01*
X156101102Y-117052661D01*
X156125947Y-116938101D01*
X156197579Y-116758616D01*
X156285410Y-116712689D01*
X156402984Y-116733769D01*
X156424258Y-116899810D01*
X156410770Y-117013165D01*
X156425655Y-117319297D01*
X156536890Y-117566945D01*
X156708059Y-117678572D01*
X156723634Y-117679305D01*
X156864861Y-117609375D01*
X156986199Y-117505764D01*
X157146968Y-117272852D01*
X157097318Y-117105534D01*
X157061859Y-117079673D01*
X156962260Y-117119995D01*
X156903640Y-117249919D01*
X156823462Y-117423974D01*
X156743681Y-117415371D01*
X156687548Y-117261138D01*
X156678312Y-116998303D01*
X156687835Y-116906240D01*
X156714416Y-116624315D01*
X156671207Y-116497979D01*
X156526829Y-116465314D01*
X156463974Y-116464522D01*
X156154498Y-116573796D01*
G36*
X146767532Y-116458300D02*
X146626516Y-116582223D01*
X146382187Y-116783133D01*
X146186180Y-116896492D01*
X146143869Y-116905750D01*
X146016977Y-116969195D01*
X146055020Y-117118614D01*
X146152752Y-117222024D01*
X146290274Y-117262893D01*
X146472578Y-117153073D01*
X146615152Y-117014677D01*
X146846918Y-116806913D01*
X147037730Y-116692878D01*
X147075618Y-116685392D01*
X147209200Y-116623778D01*
X147167140Y-116467763D01*
X147095863Y-116383951D01*
X146965247Y-116344365D01*
X146767532Y-116458300D01*
X146767532Y-116458300D01*
G37*
X146767532Y-116458300D02*
X146626516Y-116582223D01*
X146382187Y-116783133D01*
X146186180Y-116896492D01*
X146143869Y-116905750D01*
X146016977Y-116969195D01*
X146055020Y-117118614D01*
X146152752Y-117222024D01*
X146290274Y-117262893D01*
X146472578Y-117153073D01*
X146615152Y-117014677D01*
X146846918Y-116806913D01*
X147037730Y-116692878D01*
X147075618Y-116685392D01*
X147209200Y-116623778D01*
X147167140Y-116467763D01*
X147095863Y-116383951D01*
X146965247Y-116344365D01*
X146767532Y-116458300D01*
G36*
X146007517Y-114769898D02*
X145918533Y-114893568D01*
X145692375Y-115071990D01*
X145506197Y-115190250D01*
X145207136Y-115402386D01*
X145092076Y-115567326D01*
X145163079Y-115664193D01*
X145422207Y-115672108D01*
X145459096Y-115667123D01*
X145667605Y-115647078D01*
X145710627Y-115711336D01*
X145618556Y-115913785D01*
X145608834Y-115932595D01*
X145516741Y-116144285D01*
X145545659Y-116222470D01*
X145718544Y-116172707D01*
X146005782Y-116028673D01*
X146270252Y-115909736D01*
X146450610Y-115868078D01*
X146475130Y-115874167D01*
X146543046Y-115843346D01*
X146553411Y-115704122D01*
X146501318Y-115562595D01*
X146490125Y-115549980D01*
X146361033Y-115555562D01*
X146144961Y-115663796D01*
X146142368Y-115665490D01*
X145952046Y-115783704D01*
X145913642Y-115766633D01*
X145993259Y-115604525D01*
X146064761Y-115429740D01*
X145985255Y-115365972D01*
X145816451Y-115356816D01*
X145616990Y-115344168D01*
X145616184Y-115296622D01*
X145708838Y-115237140D01*
X145944611Y-115167720D01*
X146067751Y-115181815D01*
X146204215Y-115167508D01*
X146225004Y-115108230D01*
X146187802Y-114951148D01*
X146109467Y-114799989D01*
X146034747Y-114724366D01*
X146007517Y-114769898D01*
X146007517Y-114769898D01*
G37*
X146007517Y-114769898D02*
X145918533Y-114893568D01*
X145692375Y-115071990D01*
X145506197Y-115190250D01*
X145207136Y-115402386D01*
X145092076Y-115567326D01*
X145163079Y-115664193D01*
X145422207Y-115672108D01*
X145459096Y-115667123D01*
X145667605Y-115647078D01*
X145710627Y-115711336D01*
X145618556Y-115913785D01*
X145608834Y-115932595D01*
X145516741Y-116144285D01*
X145545659Y-116222470D01*
X145718544Y-116172707D01*
X146005782Y-116028673D01*
X146270252Y-115909736D01*
X146450610Y-115868078D01*
X146475130Y-115874167D01*
X146543046Y-115843346D01*
X146553411Y-115704122D01*
X146501318Y-115562595D01*
X146490125Y-115549980D01*
X146361033Y-115555562D01*
X146144961Y-115663796D01*
X146142368Y-115665490D01*
X145952046Y-115783704D01*
X145913642Y-115766633D01*
X145993259Y-115604525D01*
X146064761Y-115429740D01*
X145985255Y-115365972D01*
X145816451Y-115356816D01*
X145616990Y-115344168D01*
X145616184Y-115296622D01*
X145708838Y-115237140D01*
X145944611Y-115167720D01*
X146067751Y-115181815D01*
X146204215Y-115167508D01*
X146225004Y-115108230D01*
X146187802Y-114951148D01*
X146109467Y-114799989D01*
X146034747Y-114724366D01*
X146007517Y-114769898D01*
G36*
X157241062Y-114846004D02*
X157177255Y-114931425D01*
X157062906Y-115152959D01*
X157081159Y-115228675D01*
X157152108Y-115199238D01*
X157283123Y-115200707D01*
X157342445Y-115346781D01*
X157313934Y-115515861D01*
X157180452Y-115664571D01*
X157011276Y-115674599D01*
X156916288Y-115568518D01*
X156850327Y-115564927D01*
X156747552Y-115726022D01*
X156743801Y-115734170D01*
X156658040Y-115932515D01*
X156637541Y-116001504D01*
X156751900Y-115984694D01*
X157024909Y-115962009D01*
X157353000Y-115941017D01*
X157710629Y-115905520D01*
X157960073Y-115851757D01*
X158043217Y-115797599D01*
X157980808Y-115658028D01*
X157931005Y-115581044D01*
X157656695Y-115581044D01*
X157631660Y-115675587D01*
X157552778Y-115691479D01*
X157401680Y-115633821D01*
X157380608Y-115581044D01*
X157459871Y-115473770D01*
X157484526Y-115470609D01*
X157634092Y-115550884D01*
X157656695Y-115581044D01*
X157931005Y-115581044D01*
X157820256Y-115409853D01*
X157674212Y-115209967D01*
X157459374Y-114940412D01*
X157329280Y-114827101D01*
X157241062Y-114846004D01*
X157241062Y-114846004D01*
G37*
X157241062Y-114846004D02*
X157177255Y-114931425D01*
X157062906Y-115152959D01*
X157081159Y-115228675D01*
X157152108Y-115199238D01*
X157283123Y-115200707D01*
X157342445Y-115346781D01*
X157313934Y-115515861D01*
X157180452Y-115664571D01*
X157011276Y-115674599D01*
X156916288Y-115568518D01*
X156850327Y-115564927D01*
X156747552Y-115726022D01*
X156743801Y-115734170D01*
X156658040Y-115932515D01*
X156637541Y-116001504D01*
X156751900Y-115984694D01*
X157024909Y-115962009D01*
X157353000Y-115941017D01*
X157710629Y-115905520D01*
X157960073Y-115851757D01*
X158043217Y-115797599D01*
X157980808Y-115658028D01*
X157931005Y-115581044D01*
X157656695Y-115581044D01*
X157631660Y-115675587D01*
X157552778Y-115691479D01*
X157401680Y-115633821D01*
X157380608Y-115581044D01*
X157459871Y-115473770D01*
X157484526Y-115470609D01*
X157634092Y-115550884D01*
X157656695Y-115581044D01*
X157931005Y-115581044D01*
X157820256Y-115409853D01*
X157674212Y-115209967D01*
X157459374Y-114940412D01*
X157329280Y-114827101D01*
X157241062Y-114846004D01*
G36*
X157801509Y-113314277D02*
X157666820Y-113498023D01*
X157559722Y-113769503D01*
X157464992Y-114070252D01*
X157450112Y-114208354D01*
X157513897Y-114226629D01*
X157547395Y-114215455D01*
X157747758Y-114211092D01*
X158048225Y-114276311D01*
X158139001Y-114305875D01*
X158462091Y-114392776D01*
X158651045Y-114367287D01*
X158693120Y-114334793D01*
X158812605Y-114140012D01*
X158785001Y-113996596D01*
X158626594Y-113970556D01*
X158604783Y-113976759D01*
X158334682Y-114002255D01*
X158107826Y-113972229D01*
X157881178Y-113834131D01*
X157827590Y-113624986D01*
X157958741Y-113419637D01*
X158015608Y-113381194D01*
X158138250Y-113295140D01*
X158059527Y-113267789D01*
X157970772Y-113265272D01*
X157801509Y-113314277D01*
X157801509Y-113314277D01*
G37*
X157801509Y-113314277D02*
X157666820Y-113498023D01*
X157559722Y-113769503D01*
X157464992Y-114070252D01*
X157450112Y-114208354D01*
X157513897Y-114226629D01*
X157547395Y-114215455D01*
X157747758Y-114211092D01*
X158048225Y-114276311D01*
X158139001Y-114305875D01*
X158462091Y-114392776D01*
X158651045Y-114367287D01*
X158693120Y-114334793D01*
X158812605Y-114140012D01*
X158785001Y-113996596D01*
X158626594Y-113970556D01*
X158604783Y-113976759D01*
X158334682Y-114002255D01*
X158107826Y-113972229D01*
X157881178Y-113834131D01*
X157827590Y-113624986D01*
X157958741Y-113419637D01*
X158015608Y-113381194D01*
X158138250Y-113295140D01*
X158059527Y-113267789D01*
X157970772Y-113265272D01*
X157801509Y-113314277D01*
G36*
X145416561Y-113467740D02*
X145202280Y-113561544D01*
X144885454Y-113617432D01*
X144822132Y-113621296D01*
X144392062Y-113638446D01*
X144503933Y-114057571D01*
X144621715Y-114356297D01*
X144779586Y-114471971D01*
X144830974Y-114476696D01*
X144976643Y-114461550D01*
X144953109Y-114378535D01*
X144863377Y-114274739D01*
X144702671Y-114055806D01*
X144723931Y-113945457D01*
X144846261Y-113924522D01*
X144993224Y-113984154D01*
X145011913Y-114034957D01*
X145095951Y-114142183D01*
X145122348Y-114145392D01*
X145222286Y-114056824D01*
X145232782Y-113991555D01*
X145310701Y-113832604D01*
X145474450Y-113758682D01*
X145619024Y-113814531D01*
X145625553Y-113824199D01*
X145651070Y-114015314D01*
X145629015Y-114104691D01*
X145627992Y-114229812D01*
X145682729Y-114234685D01*
X145790518Y-114139943D01*
X145793239Y-114115022D01*
X145785113Y-113944837D01*
X145783265Y-113841696D01*
X145725135Y-113578406D01*
X145681247Y-113489884D01*
X145564559Y-113389884D01*
X145416561Y-113467740D01*
X145416561Y-113467740D01*
G37*
X145416561Y-113467740D02*
X145202280Y-113561544D01*
X144885454Y-113617432D01*
X144822132Y-113621296D01*
X144392062Y-113638446D01*
X144503933Y-114057571D01*
X144621715Y-114356297D01*
X144779586Y-114471971D01*
X144830974Y-114476696D01*
X144976643Y-114461550D01*
X144953109Y-114378535D01*
X144863377Y-114274739D01*
X144702671Y-114055806D01*
X144723931Y-113945457D01*
X144846261Y-113924522D01*
X144993224Y-113984154D01*
X145011913Y-114034957D01*
X145095951Y-114142183D01*
X145122348Y-114145392D01*
X145222286Y-114056824D01*
X145232782Y-113991555D01*
X145310701Y-113832604D01*
X145474450Y-113758682D01*
X145619024Y-113814531D01*
X145625553Y-113824199D01*
X145651070Y-114015314D01*
X145629015Y-114104691D01*
X145627992Y-114229812D01*
X145682729Y-114234685D01*
X145790518Y-114139943D01*
X145793239Y-114115022D01*
X145785113Y-113944837D01*
X145783265Y-113841696D01*
X145725135Y-113578406D01*
X145681247Y-113489884D01*
X145564559Y-113389884D01*
X145416561Y-113467740D01*
G36*
X144352921Y-111768808D02*
X144300793Y-111913735D01*
X144315262Y-112184467D01*
X144385750Y-112499863D01*
X144479179Y-112737348D01*
X144665417Y-112889602D01*
X144948001Y-112923404D01*
X145237412Y-112839616D01*
X145381319Y-112728653D01*
X145518102Y-112468366D01*
X145525836Y-112423981D01*
X145348449Y-112423981D01*
X145323171Y-112545609D01*
X145149956Y-112624534D01*
X144849195Y-112635131D01*
X144633448Y-112546776D01*
X144570174Y-112420772D01*
X144672674Y-112304579D01*
X144956695Y-112268000D01*
X145217455Y-112315145D01*
X145348449Y-112423981D01*
X145525836Y-112423981D01*
X145564155Y-112204087D01*
X145553341Y-112014109D01*
X145482954Y-111923747D01*
X145296242Y-111903778D01*
X145011981Y-111919746D01*
X144636406Y-111921395D01*
X144468951Y-111860330D01*
X144459739Y-111830402D01*
X144393927Y-111753298D01*
X144352921Y-111768808D01*
X144352921Y-111768808D01*
G37*
X144352921Y-111768808D02*
X144300793Y-111913735D01*
X144315262Y-112184467D01*
X144385750Y-112499863D01*
X144479179Y-112737348D01*
X144665417Y-112889602D01*
X144948001Y-112923404D01*
X145237412Y-112839616D01*
X145381319Y-112728653D01*
X145518102Y-112468366D01*
X145525836Y-112423981D01*
X145348449Y-112423981D01*
X145323171Y-112545609D01*
X145149956Y-112624534D01*
X144849195Y-112635131D01*
X144633448Y-112546776D01*
X144570174Y-112420772D01*
X144672674Y-112304579D01*
X144956695Y-112268000D01*
X145217455Y-112315145D01*
X145348449Y-112423981D01*
X145525836Y-112423981D01*
X145564155Y-112204087D01*
X145553341Y-112014109D01*
X145482954Y-111923747D01*
X145296242Y-111903778D01*
X145011981Y-111919746D01*
X144636406Y-111921395D01*
X144468951Y-111860330D01*
X144459739Y-111830402D01*
X144393927Y-111753298D01*
X144352921Y-111768808D01*
G36*
X157732535Y-112161587D02*
X157711913Y-112378435D01*
X157753630Y-112628734D01*
X157856741Y-112711073D01*
X157988000Y-112599305D01*
X158148543Y-112515223D01*
X158421065Y-112492362D01*
X158706035Y-112528324D01*
X158903922Y-112620709D01*
X158904609Y-112621392D01*
X158997228Y-112668413D01*
X159033974Y-112537367D01*
X159037130Y-112415351D01*
X159027022Y-112206263D01*
X158956501Y-112121545D01*
X158765277Y-112128916D01*
X158567782Y-112164065D01*
X158241616Y-112197736D01*
X158024199Y-112168637D01*
X157993522Y-112149236D01*
X157825345Y-112051916D01*
X157732535Y-112161587D01*
X157732535Y-112161587D01*
G37*
X157732535Y-112161587D02*
X157711913Y-112378435D01*
X157753630Y-112628734D01*
X157856741Y-112711073D01*
X157988000Y-112599305D01*
X158148543Y-112515223D01*
X158421065Y-112492362D01*
X158706035Y-112528324D01*
X158903922Y-112620709D01*
X158904609Y-112621392D01*
X158997228Y-112668413D01*
X159033974Y-112537367D01*
X159037130Y-112415351D01*
X159027022Y-112206263D01*
X158956501Y-112121545D01*
X158765277Y-112128916D01*
X158567782Y-112164065D01*
X158241616Y-112197736D01*
X158024199Y-112168637D01*
X157993522Y-112149236D01*
X157825345Y-112051916D01*
X157732535Y-112161587D01*
G36*
X158289375Y-110297597D02*
X158328729Y-110354806D01*
X158402130Y-110399455D01*
X158558240Y-110559092D01*
X158584235Y-110728735D01*
X158474985Y-110827948D01*
X158429739Y-110832348D01*
X158282776Y-110772717D01*
X158264087Y-110721913D01*
X158180049Y-110614688D01*
X158153652Y-110611479D01*
X158068545Y-110693894D01*
X158070826Y-110742963D01*
X158004960Y-110873056D01*
X157905174Y-110916713D01*
X157755260Y-110873762D01*
X157710409Y-110707910D01*
X157778725Y-110494706D01*
X157849956Y-110401977D01*
X157919543Y-110298855D01*
X157803770Y-110294528D01*
X157767130Y-110301193D01*
X157630322Y-110361227D01*
X157574413Y-110511771D01*
X157577556Y-110814908D01*
X157578926Y-110836013D01*
X157621018Y-111159099D01*
X157688200Y-111388857D01*
X157716970Y-111433753D01*
X157810032Y-111468084D01*
X157822348Y-111411800D01*
X157918402Y-111302880D01*
X158150764Y-111199586D01*
X158435733Y-111127026D01*
X158689608Y-111110309D01*
X158770534Y-111127358D01*
X158886123Y-111117611D01*
X158881954Y-111037905D01*
X158823519Y-110820368D01*
X158768163Y-110583870D01*
X158660391Y-110348823D01*
X158455244Y-110283533D01*
X158289375Y-110297597D01*
X158289375Y-110297597D01*
G37*
X158289375Y-110297597D02*
X158328729Y-110354806D01*
X158402130Y-110399455D01*
X158558240Y-110559092D01*
X158584235Y-110728735D01*
X158474985Y-110827948D01*
X158429739Y-110832348D01*
X158282776Y-110772717D01*
X158264087Y-110721913D01*
X158180049Y-110614688D01*
X158153652Y-110611479D01*
X158068545Y-110693894D01*
X158070826Y-110742963D01*
X158004960Y-110873056D01*
X157905174Y-110916713D01*
X157755260Y-110873762D01*
X157710409Y-110707910D01*
X157778725Y-110494706D01*
X157849956Y-110401977D01*
X157919543Y-110298855D01*
X157803770Y-110294528D01*
X157767130Y-110301193D01*
X157630322Y-110361227D01*
X157574413Y-110511771D01*
X157577556Y-110814908D01*
X157578926Y-110836013D01*
X157621018Y-111159099D01*
X157688200Y-111388857D01*
X157716970Y-111433753D01*
X157810032Y-111468084D01*
X157822348Y-111411800D01*
X157918402Y-111302880D01*
X158150764Y-111199586D01*
X158435733Y-111127026D01*
X158689608Y-111110309D01*
X158770534Y-111127358D01*
X158886123Y-111117611D01*
X158881954Y-111037905D01*
X158823519Y-110820368D01*
X158768163Y-110583870D01*
X158660391Y-110348823D01*
X158455244Y-110283533D01*
X158289375Y-110297597D01*
G36*
X145746206Y-110156073D02*
X145551025Y-110245285D01*
X145233084Y-110325633D01*
X145083597Y-110350258D01*
X144782108Y-110406075D01*
X144597451Y-110468193D01*
X144570174Y-110496174D01*
X144644782Y-110596685D01*
X144832644Y-110790966D01*
X145079812Y-111028467D01*
X145332341Y-111258638D01*
X145536285Y-111430930D01*
X145636069Y-111494957D01*
X145665011Y-111400149D01*
X145674522Y-111218870D01*
X145628108Y-111015107D01*
X145536478Y-110970392D01*
X145437804Y-110907552D01*
X145435273Y-110777131D01*
X145468466Y-110670582D01*
X145343217Y-110670582D01*
X145305040Y-110780519D01*
X145154844Y-110738860D01*
X145122348Y-110721913D01*
X144948887Y-110609433D01*
X144901478Y-110552376D01*
X144994376Y-110510602D01*
X145122348Y-110501044D01*
X145303693Y-110571879D01*
X145343217Y-110670582D01*
X145468466Y-110670582D01*
X145500357Y-110568213D01*
X145589790Y-110436240D01*
X145660573Y-110429498D01*
X145676213Y-110506566D01*
X145695294Y-110607652D01*
X145775158Y-110516101D01*
X145784956Y-110501044D01*
X145884866Y-110284304D01*
X145887271Y-110138620D01*
X145798552Y-110120803D01*
X145746206Y-110156073D01*
X145746206Y-110156073D01*
G37*
X145746206Y-110156073D02*
X145551025Y-110245285D01*
X145233084Y-110325633D01*
X145083597Y-110350258D01*
X144782108Y-110406075D01*
X144597451Y-110468193D01*
X144570174Y-110496174D01*
X144644782Y-110596685D01*
X144832644Y-110790966D01*
X145079812Y-111028467D01*
X145332341Y-111258638D01*
X145536285Y-111430930D01*
X145636069Y-111494957D01*
X145665011Y-111400149D01*
X145674522Y-111218870D01*
X145628108Y-111015107D01*
X145536478Y-110970392D01*
X145437804Y-110907552D01*
X145435273Y-110777131D01*
X145468466Y-110670582D01*
X145343217Y-110670582D01*
X145305040Y-110780519D01*
X145154844Y-110738860D01*
X145122348Y-110721913D01*
X144948887Y-110609433D01*
X144901478Y-110552376D01*
X144994376Y-110510602D01*
X145122348Y-110501044D01*
X145303693Y-110571879D01*
X145343217Y-110670582D01*
X145468466Y-110670582D01*
X145500357Y-110568213D01*
X145589790Y-110436240D01*
X145660573Y-110429498D01*
X145676213Y-110506566D01*
X145695294Y-110607652D01*
X145775158Y-110516101D01*
X145784956Y-110501044D01*
X145884866Y-110284304D01*
X145887271Y-110138620D01*
X145798552Y-110120803D01*
X145746206Y-110156073D01*
G36*
X157546849Y-108291249D02*
X157372630Y-108500715D01*
X157101465Y-108721047D01*
X157042768Y-108759296D01*
X156662782Y-108995468D01*
X157139113Y-109093527D01*
X157426043Y-109165297D01*
X157530739Y-109238744D01*
X157490224Y-109342170D01*
X157480333Y-109354384D01*
X157300016Y-109464839D01*
X157197263Y-109460405D01*
X157073943Y-109477026D01*
X157063747Y-109625490D01*
X157168027Y-109847139D01*
X157187693Y-109875044D01*
X157299054Y-109994691D01*
X157379382Y-109933129D01*
X157436171Y-109813325D01*
X157619605Y-109603809D01*
X157906628Y-109456276D01*
X158165115Y-109343490D01*
X158205000Y-109225355D01*
X158028311Y-109106836D01*
X157725861Y-109013484D01*
X157444140Y-108929822D01*
X157349154Y-108850402D01*
X157397134Y-108761696D01*
X157624866Y-108639451D01*
X157731632Y-108623653D01*
X157860084Y-108596344D01*
X157854744Y-108473473D01*
X157799496Y-108341513D01*
X157701780Y-108149456D01*
X157632681Y-108146825D01*
X157546849Y-108291249D01*
X157546849Y-108291249D01*
G37*
X157546849Y-108291249D02*
X157372630Y-108500715D01*
X157101465Y-108721047D01*
X157042768Y-108759296D01*
X156662782Y-108995468D01*
X157139113Y-109093527D01*
X157426043Y-109165297D01*
X157530739Y-109238744D01*
X157490224Y-109342170D01*
X157480333Y-109354384D01*
X157300016Y-109464839D01*
X157197263Y-109460405D01*
X157073943Y-109477026D01*
X157063747Y-109625490D01*
X157168027Y-109847139D01*
X157187693Y-109875044D01*
X157299054Y-109994691D01*
X157379382Y-109933129D01*
X157436171Y-109813325D01*
X157619605Y-109603809D01*
X157906628Y-109456276D01*
X158165115Y-109343490D01*
X158205000Y-109225355D01*
X158028311Y-109106836D01*
X157725861Y-109013484D01*
X157444140Y-108929822D01*
X157349154Y-108850402D01*
X157397134Y-108761696D01*
X157624866Y-108639451D01*
X157731632Y-108623653D01*
X157860084Y-108596344D01*
X157854744Y-108473473D01*
X157799496Y-108341513D01*
X157701780Y-108149456D01*
X157632681Y-108146825D01*
X157546849Y-108291249D01*
G36*
X145395102Y-108695534D02*
X145159935Y-108871863D01*
X145040037Y-109093665D01*
X145050271Y-109226931D01*
X145163383Y-109384428D01*
X145263717Y-109343176D01*
X145296768Y-109148218D01*
X145371022Y-108939362D01*
X145572647Y-108861362D01*
X145841408Y-108928511D01*
X145947040Y-108993909D01*
X146090434Y-109139687D01*
X146082257Y-109316197D01*
X146031432Y-109439816D01*
X145971572Y-109659923D01*
X146030973Y-109727891D01*
X146176878Y-109613833D01*
X146195979Y-109589957D01*
X146357052Y-109334760D01*
X146357292Y-109133176D01*
X146217175Y-108912720D01*
X145914522Y-108671263D01*
X145683622Y-108623653D01*
X145395102Y-108695534D01*
X145395102Y-108695534D01*
G37*
X145395102Y-108695534D02*
X145159935Y-108871863D01*
X145040037Y-109093665D01*
X145050271Y-109226931D01*
X145163383Y-109384428D01*
X145263717Y-109343176D01*
X145296768Y-109148218D01*
X145371022Y-108939362D01*
X145572647Y-108861362D01*
X145841408Y-108928511D01*
X145947040Y-108993909D01*
X146090434Y-109139687D01*
X146082257Y-109316197D01*
X146031432Y-109439816D01*
X145971572Y-109659923D01*
X146030973Y-109727891D01*
X146176878Y-109613833D01*
X146195979Y-109589957D01*
X146357052Y-109334760D01*
X146357292Y-109133176D01*
X146217175Y-108912720D01*
X145914522Y-108671263D01*
X145683622Y-108623653D01*
X145395102Y-108695534D01*
G36*
X156624825Y-107262050D02*
X156646278Y-107373644D01*
X156779735Y-107408870D01*
X156895367Y-107460533D01*
X156886260Y-107515085D01*
X156738179Y-107565470D01*
X156570235Y-107526106D01*
X156266625Y-107493559D01*
X156051129Y-107614872D01*
X155949955Y-107831889D01*
X155989306Y-108086454D01*
X156195391Y-108320411D01*
X156208385Y-108329117D01*
X156418894Y-108432487D01*
X156539690Y-108433847D01*
X156615260Y-108261340D01*
X156521921Y-108149391D01*
X156386695Y-108149915D01*
X156208148Y-108143805D01*
X156165826Y-108014692D01*
X156205203Y-107889160D01*
X156361849Y-107860658D01*
X156545509Y-107883324D01*
X156901331Y-107880349D01*
X157097823Y-107743575D01*
X157117784Y-107490446D01*
X157068900Y-107352559D01*
X156913750Y-107155227D01*
X156776577Y-107146775D01*
X156624825Y-107262050D01*
X156624825Y-107262050D01*
G37*
X156624825Y-107262050D02*
X156646278Y-107373644D01*
X156779735Y-107408870D01*
X156895367Y-107460533D01*
X156886260Y-107515085D01*
X156738179Y-107565470D01*
X156570235Y-107526106D01*
X156266625Y-107493559D01*
X156051129Y-107614872D01*
X155949955Y-107831889D01*
X155989306Y-108086454D01*
X156195391Y-108320411D01*
X156208385Y-108329117D01*
X156418894Y-108432487D01*
X156539690Y-108433847D01*
X156615260Y-108261340D01*
X156521921Y-108149391D01*
X156386695Y-108149915D01*
X156208148Y-108143805D01*
X156165826Y-108014692D01*
X156205203Y-107889160D01*
X156361849Y-107860658D01*
X156545509Y-107883324D01*
X156901331Y-107880349D01*
X157097823Y-107743575D01*
X157117784Y-107490446D01*
X157068900Y-107352559D01*
X156913750Y-107155227D01*
X156776577Y-107146775D01*
X156624825Y-107262050D01*
G36*
X147451101Y-106795532D02*
X147337251Y-106965643D01*
X147392305Y-107153511D01*
X147500876Y-107229541D01*
X147680699Y-107203141D01*
X147736409Y-107123498D01*
X147734918Y-106923579D01*
X147617136Y-106788426D01*
X147451101Y-106795532D01*
X147451101Y-106795532D01*
G37*
X147451101Y-106795532D02*
X147337251Y-106965643D01*
X147392305Y-107153511D01*
X147500876Y-107229541D01*
X147680699Y-107203141D01*
X147736409Y-107123498D01*
X147734918Y-106923579D01*
X147617136Y-106788426D01*
X147451101Y-106795532D01*
G36*
X151723362Y-116548561D02*
X151726466Y-116806644D01*
X151741010Y-117040983D01*
X151668462Y-117116366D01*
X151569296Y-117107306D01*
X151403425Y-116985925D01*
X151366266Y-116765185D01*
X151328858Y-116538840D01*
X151180361Y-116467033D01*
X151145397Y-116466213D01*
X151010089Y-116494649D01*
X151048252Y-116549398D01*
X151151763Y-116709242D01*
X151213905Y-116961838D01*
X151286317Y-117212207D01*
X151464606Y-117314949D01*
X151531698Y-117325462D01*
X151772928Y-117322516D01*
X151890611Y-117279447D01*
X151959688Y-117108446D01*
X151971448Y-116856544D01*
X151933457Y-116614628D01*
X151853280Y-116473583D01*
X151822778Y-116464522D01*
X151723362Y-116548561D01*
X151723362Y-116548561D01*
G37*
X151723362Y-116548561D02*
X151726466Y-116806644D01*
X151741010Y-117040983D01*
X151668462Y-117116366D01*
X151569296Y-117107306D01*
X151403425Y-116985925D01*
X151366266Y-116765185D01*
X151328858Y-116538840D01*
X151180361Y-116467033D01*
X151145397Y-116466213D01*
X151010089Y-116494649D01*
X151048252Y-116549398D01*
X151151763Y-116709242D01*
X151213905Y-116961838D01*
X151286317Y-117212207D01*
X151464606Y-117314949D01*
X151531698Y-117325462D01*
X151772928Y-117322516D01*
X151890611Y-117279447D01*
X151959688Y-117108446D01*
X151971448Y-116856544D01*
X151933457Y-116614628D01*
X151853280Y-116473583D01*
X151822778Y-116464522D01*
X151723362Y-116548561D01*
G36*
X152841372Y-116211895D02*
X152615681Y-116322857D01*
X152521482Y-116460935D01*
X152521478Y-116461789D01*
X152585650Y-116567482D01*
X152699154Y-116542752D01*
X152745860Y-116436913D01*
X152801368Y-116406136D01*
X152916800Y-116519740D01*
X153028308Y-116763711D01*
X153034062Y-116933870D01*
X153012761Y-117071646D01*
X153090014Y-117102943D01*
X153322650Y-117050905D01*
X153450293Y-116993665D01*
X153427399Y-116880208D01*
X153350259Y-116763056D01*
X153209459Y-116502251D01*
X153201724Y-116337897D01*
X153325830Y-116307314D01*
X153364808Y-116319934D01*
X153496366Y-116328013D01*
X153491394Y-116233642D01*
X153360829Y-116148092D01*
X153116955Y-116147242D01*
X152841372Y-116211895D01*
X152841372Y-116211895D01*
G37*
X152841372Y-116211895D02*
X152615681Y-116322857D01*
X152521482Y-116460935D01*
X152521478Y-116461789D01*
X152585650Y-116567482D01*
X152699154Y-116542752D01*
X152745860Y-116436913D01*
X152801368Y-116406136D01*
X152916800Y-116519740D01*
X153028308Y-116763711D01*
X153034062Y-116933870D01*
X153012761Y-117071646D01*
X153090014Y-117102943D01*
X153322650Y-117050905D01*
X153450293Y-116993665D01*
X153427399Y-116880208D01*
X153350259Y-116763056D01*
X153209459Y-116502251D01*
X153201724Y-116337897D01*
X153325830Y-116307314D01*
X153364808Y-116319934D01*
X153496366Y-116328013D01*
X153491394Y-116233642D01*
X153360829Y-116148092D01*
X153116955Y-116147242D01*
X152841372Y-116211895D01*
G36*
X154100436Y-115680859D02*
X154096080Y-115938342D01*
X154101542Y-116188247D01*
X154115495Y-116520911D01*
X154129188Y-116741542D01*
X154136869Y-116795638D01*
X154205379Y-116723273D01*
X154257769Y-116657783D01*
X154387348Y-116434890D01*
X154437874Y-116315021D01*
X154561657Y-116171867D01*
X154662430Y-116168347D01*
X154866476Y-116152457D01*
X154934554Y-116105533D01*
X154947176Y-116029301D01*
X154509304Y-116029301D01*
X154425071Y-116130243D01*
X154398869Y-116133218D01*
X154301950Y-116043328D01*
X154288435Y-115961048D01*
X154341972Y-115846742D01*
X154398869Y-115857131D01*
X154505092Y-115998317D01*
X154509304Y-116029301D01*
X154947176Y-116029301D01*
X154952158Y-115999212D01*
X154786785Y-115871760D01*
X154604647Y-115782858D01*
X154325797Y-115661355D01*
X154146337Y-115589444D01*
X154117091Y-115581044D01*
X154100436Y-115680859D01*
X154100436Y-115680859D01*
G37*
X154100436Y-115680859D02*
X154096080Y-115938342D01*
X154101542Y-116188247D01*
X154115495Y-116520911D01*
X154129188Y-116741542D01*
X154136869Y-116795638D01*
X154205379Y-116723273D01*
X154257769Y-116657783D01*
X154387348Y-116434890D01*
X154437874Y-116315021D01*
X154561657Y-116171867D01*
X154662430Y-116168347D01*
X154866476Y-116152457D01*
X154934554Y-116105533D01*
X154947176Y-116029301D01*
X154509304Y-116029301D01*
X154425071Y-116130243D01*
X154398869Y-116133218D01*
X154301950Y-116043328D01*
X154288435Y-115961048D01*
X154341972Y-115846742D01*
X154398869Y-115857131D01*
X154505092Y-115998317D01*
X154509304Y-116029301D01*
X154947176Y-116029301D01*
X154952158Y-115999212D01*
X154786785Y-115871760D01*
X154604647Y-115782858D01*
X154325797Y-115661355D01*
X154146337Y-115589444D01*
X154117091Y-115581044D01*
X154100436Y-115680859D01*
G36*
X155186723Y-114412325D02*
X155134241Y-114552185D01*
X155146726Y-114762420D01*
X155164967Y-114965558D01*
X155077139Y-115007173D01*
X154966264Y-114978483D01*
X154783442Y-114957421D01*
X154730174Y-115003702D01*
X154825171Y-115123531D01*
X155116165Y-115298195D01*
X155437154Y-115454247D01*
X155485637Y-115393490D01*
X155471970Y-115179360D01*
X155463954Y-115136247D01*
X155423298Y-114898442D01*
X155454222Y-114845112D01*
X155581749Y-114944824D01*
X155601880Y-114962999D01*
X155788544Y-115074953D01*
X155880723Y-115043458D01*
X155842268Y-114921423D01*
X155659600Y-114763711D01*
X155615600Y-114736367D01*
X155392933Y-114580842D01*
X155284409Y-114457942D01*
X155282348Y-114446368D01*
X155215373Y-114398915D01*
X155186723Y-114412325D01*
X155186723Y-114412325D01*
G37*
X155186723Y-114412325D02*
X155134241Y-114552185D01*
X155146726Y-114762420D01*
X155164967Y-114965558D01*
X155077139Y-115007173D01*
X154966264Y-114978483D01*
X154783442Y-114957421D01*
X154730174Y-115003702D01*
X154825171Y-115123531D01*
X155116165Y-115298195D01*
X155437154Y-115454247D01*
X155485637Y-115393490D01*
X155471970Y-115179360D01*
X155463954Y-115136247D01*
X155423298Y-114898442D01*
X155454222Y-114845112D01*
X155581749Y-114944824D01*
X155601880Y-114962999D01*
X155788544Y-115074953D01*
X155880723Y-115043458D01*
X155842268Y-114921423D01*
X155659600Y-114763711D01*
X155615600Y-114736367D01*
X155392933Y-114580842D01*
X155284409Y-114457942D01*
X155282348Y-114446368D01*
X155215373Y-114398915D01*
X155186723Y-114412325D01*
G36*
X148661272Y-115770363D02*
X148389634Y-115894351D01*
X148298060Y-115996520D01*
X148343104Y-116099867D01*
X148479302Y-116187888D01*
X148545826Y-116133218D01*
X148652062Y-116115786D01*
X148795045Y-116214718D01*
X148895696Y-116358318D01*
X148896456Y-116451126D01*
X148939169Y-116538816D01*
X148958528Y-116546872D01*
X149021899Y-116468906D01*
X149069729Y-116234040D01*
X149081970Y-116087313D01*
X149085310Y-116022783D01*
X148987565Y-116022783D01*
X148903527Y-116130009D01*
X148877130Y-116133218D01*
X148769905Y-116049180D01*
X148766695Y-116022783D01*
X148850734Y-115915557D01*
X148877130Y-115912348D01*
X148984356Y-115996386D01*
X148987565Y-116022783D01*
X149085310Y-116022783D01*
X149107449Y-115595100D01*
X148661272Y-115770363D01*
X148661272Y-115770363D01*
G37*
X148661272Y-115770363D02*
X148389634Y-115894351D01*
X148298060Y-115996520D01*
X148343104Y-116099867D01*
X148479302Y-116187888D01*
X148545826Y-116133218D01*
X148652062Y-116115786D01*
X148795045Y-116214718D01*
X148895696Y-116358318D01*
X148896456Y-116451126D01*
X148939169Y-116538816D01*
X148958528Y-116546872D01*
X149021899Y-116468906D01*
X149069729Y-116234040D01*
X149081970Y-116087313D01*
X149085310Y-116022783D01*
X148987565Y-116022783D01*
X148903527Y-116130009D01*
X148877130Y-116133218D01*
X148769905Y-116049180D01*
X148766695Y-116022783D01*
X148850734Y-115915557D01*
X148877130Y-115912348D01*
X148984356Y-115996386D01*
X148987565Y-116022783D01*
X149085310Y-116022783D01*
X149107449Y-115595100D01*
X148661272Y-115770363D01*
G36*
X154049336Y-112083700D02*
X153957130Y-112169381D01*
X154035846Y-112247286D01*
X154104377Y-112235127D01*
X154216103Y-112269193D01*
X154251623Y-112498468D01*
X154251623Y-112499399D01*
X154225618Y-112752872D01*
X154132700Y-112804289D01*
X153965413Y-112682131D01*
X153858719Y-112603814D01*
X153866666Y-112701796D01*
X153869036Y-112709740D01*
X154008451Y-112835912D01*
X154288254Y-112907112D01*
X154300388Y-112908225D01*
X154681789Y-112941057D01*
X154639165Y-112494094D01*
X154596477Y-112207717D01*
X154508353Y-112079689D01*
X154324161Y-112047552D01*
X154276835Y-112047131D01*
X154049336Y-112083700D01*
X154049336Y-112083700D01*
G37*
X154049336Y-112083700D02*
X153957130Y-112169381D01*
X154035846Y-112247286D01*
X154104377Y-112235127D01*
X154216103Y-112269193D01*
X154251623Y-112498468D01*
X154251623Y-112499399D01*
X154225618Y-112752872D01*
X154132700Y-112804289D01*
X153965413Y-112682131D01*
X153858719Y-112603814D01*
X153866666Y-112701796D01*
X153869036Y-112709740D01*
X154008451Y-112835912D01*
X154288254Y-112907112D01*
X154300388Y-112908225D01*
X154681789Y-112941057D01*
X154639165Y-112494094D01*
X154596477Y-112207717D01*
X154508353Y-112079689D01*
X154324161Y-112047552D01*
X154276835Y-112047131D01*
X154049336Y-112083700D01*
G36*
X153046043Y-112067743D02*
X152791327Y-112123398D01*
X152689596Y-112259363D01*
X152675156Y-112378435D01*
X152654723Y-112671929D01*
X152611460Y-112783663D01*
X152520712Y-112752741D01*
X152466261Y-112709740D01*
X152330896Y-112633413D01*
X152300608Y-112699683D01*
X152390246Y-112850860D01*
X152600038Y-112908698D01*
X152841301Y-112851764D01*
X152867411Y-112836667D01*
X153034179Y-112772422D01*
X153073652Y-112819239D01*
X153163085Y-112918039D01*
X153239304Y-112930609D01*
X153353661Y-112858808D01*
X153401505Y-112619895D01*
X153404956Y-112481873D01*
X153398913Y-112314015D01*
X153064933Y-112314015D01*
X153044629Y-112457250D01*
X153006931Y-112458961D01*
X152980568Y-112311156D01*
X152998212Y-112247294D01*
X153047249Y-112205463D01*
X153064933Y-112314015D01*
X153398913Y-112314015D01*
X153394710Y-112197275D01*
X153330348Y-112075324D01*
X153161439Y-112057829D01*
X153046043Y-112067743D01*
X153046043Y-112067743D01*
G37*
X153046043Y-112067743D02*
X152791327Y-112123398D01*
X152689596Y-112259363D01*
X152675156Y-112378435D01*
X152654723Y-112671929D01*
X152611460Y-112783663D01*
X152520712Y-112752741D01*
X152466261Y-112709740D01*
X152330896Y-112633413D01*
X152300608Y-112699683D01*
X152390246Y-112850860D01*
X152600038Y-112908698D01*
X152841301Y-112851764D01*
X152867411Y-112836667D01*
X153034179Y-112772422D01*
X153073652Y-112819239D01*
X153163085Y-112918039D01*
X153239304Y-112930609D01*
X153353661Y-112858808D01*
X153401505Y-112619895D01*
X153404956Y-112481873D01*
X153398913Y-112314015D01*
X153064933Y-112314015D01*
X153044629Y-112457250D01*
X153006931Y-112458961D01*
X152980568Y-112311156D01*
X152998212Y-112247294D01*
X153047249Y-112205463D01*
X153064933Y-112314015D01*
X153398913Y-112314015D01*
X153394710Y-112197275D01*
X153330348Y-112075324D01*
X153161439Y-112057829D01*
X153046043Y-112067743D01*
G36*
X151548716Y-112084175D02*
X151484853Y-112233899D01*
X151472348Y-112488870D01*
X151490870Y-112777872D01*
X151565732Y-112905599D01*
X151693217Y-112930609D01*
X151837718Y-112893565D01*
X151901582Y-112743841D01*
X151914087Y-112488870D01*
X151895565Y-112199868D01*
X151820703Y-112072141D01*
X151693217Y-112047131D01*
X151548716Y-112084175D01*
X151548716Y-112084175D01*
G37*
X151548716Y-112084175D02*
X151484853Y-112233899D01*
X151472348Y-112488870D01*
X151490870Y-112777872D01*
X151565732Y-112905599D01*
X151693217Y-112930609D01*
X151837718Y-112893565D01*
X151901582Y-112743841D01*
X151914087Y-112488870D01*
X151895565Y-112199868D01*
X151820703Y-112072141D01*
X151693217Y-112047131D01*
X151548716Y-112084175D01*
G36*
X150257023Y-112070857D02*
X150103171Y-112130128D01*
X150091913Y-112154100D01*
X150173872Y-112212286D01*
X150271658Y-112192094D01*
X150386482Y-112180910D01*
X150421540Y-112301762D01*
X150404268Y-112526864D01*
X150393691Y-112802601D01*
X150460134Y-112917406D01*
X150533652Y-112930609D01*
X150648434Y-112881173D01*
X150677306Y-112698545D01*
X150663036Y-112526864D01*
X150647195Y-112265799D01*
X150696294Y-112174201D01*
X150795646Y-112192094D01*
X150946268Y-112201118D01*
X150975391Y-112154100D01*
X150877410Y-112087113D01*
X150632644Y-112049857D01*
X150533652Y-112047131D01*
X150257023Y-112070857D01*
X150257023Y-112070857D01*
G37*
X150257023Y-112070857D02*
X150103171Y-112130128D01*
X150091913Y-112154100D01*
X150173872Y-112212286D01*
X150271658Y-112192094D01*
X150386482Y-112180910D01*
X150421540Y-112301762D01*
X150404268Y-112526864D01*
X150393691Y-112802601D01*
X150460134Y-112917406D01*
X150533652Y-112930609D01*
X150648434Y-112881173D01*
X150677306Y-112698545D01*
X150663036Y-112526864D01*
X150647195Y-112265799D01*
X150696294Y-112174201D01*
X150795646Y-112192094D01*
X150946268Y-112201118D01*
X150975391Y-112154100D01*
X150877410Y-112087113D01*
X150632644Y-112049857D01*
X150533652Y-112047131D01*
X150257023Y-112070857D01*
G36*
X149124805Y-112134887D02*
X148968590Y-112356915D01*
X148890400Y-112488870D01*
X148642128Y-112930609D01*
X148876582Y-112930609D01*
X149033681Y-112889185D01*
X149042782Y-112820174D01*
X149076596Y-112733252D01*
X149201917Y-112709740D01*
X149384879Y-112754796D01*
X149429304Y-112820174D01*
X149518907Y-112917784D01*
X149597201Y-112930609D01*
X149685823Y-112900092D01*
X149673237Y-112777367D01*
X149553361Y-112515670D01*
X149539739Y-112488870D01*
X149507873Y-112433653D01*
X149318869Y-112433653D01*
X149261075Y-112580643D01*
X149211901Y-112599305D01*
X149151138Y-112518355D01*
X149168498Y-112433653D01*
X149246883Y-112288346D01*
X149275467Y-112268000D01*
X149314072Y-112358180D01*
X149318869Y-112433653D01*
X149507873Y-112433653D01*
X149386373Y-112223127D01*
X149261122Y-112065670D01*
X149226526Y-112047131D01*
X149124805Y-112134887D01*
X149124805Y-112134887D01*
G37*
X149124805Y-112134887D02*
X148968590Y-112356915D01*
X148890400Y-112488870D01*
X148642128Y-112930609D01*
X148876582Y-112930609D01*
X149033681Y-112889185D01*
X149042782Y-112820174D01*
X149076596Y-112733252D01*
X149201917Y-112709740D01*
X149384879Y-112754796D01*
X149429304Y-112820174D01*
X149518907Y-112917784D01*
X149597201Y-112930609D01*
X149685823Y-112900092D01*
X149673237Y-112777367D01*
X149553361Y-112515670D01*
X149539739Y-112488870D01*
X149507873Y-112433653D01*
X149318869Y-112433653D01*
X149261075Y-112580643D01*
X149211901Y-112599305D01*
X149151138Y-112518355D01*
X149168498Y-112433653D01*
X149246883Y-112288346D01*
X149275467Y-112268000D01*
X149314072Y-112358180D01*
X149318869Y-112433653D01*
X149507873Y-112433653D01*
X149386373Y-112223127D01*
X149261122Y-112065670D01*
X149226526Y-112047131D01*
X149124805Y-112134887D01*
G36*
X147730875Y-112083756D02*
X147662348Y-112154100D01*
X147743297Y-112214863D01*
X147828000Y-112197502D01*
X147971942Y-112183818D01*
X147973041Y-112274619D01*
X147842021Y-112415642D01*
X147775868Y-112461314D01*
X147620216Y-112637490D01*
X147654936Y-112806584D01*
X147854396Y-112915404D01*
X148002001Y-112930609D01*
X148220186Y-112904689D01*
X148264644Y-112804696D01*
X148246006Y-112742932D01*
X148170504Y-112637543D01*
X148129834Y-112687715D01*
X148019084Y-112795938D01*
X147862626Y-112813318D01*
X147773620Y-112730515D01*
X147772782Y-112717181D01*
X147863927Y-112605029D01*
X147993652Y-112544087D01*
X148183161Y-112407499D01*
X148213804Y-112225656D01*
X148094788Y-112081442D01*
X147938435Y-112047131D01*
X147730875Y-112083756D01*
X147730875Y-112083756D01*
G37*
X147730875Y-112083756D02*
X147662348Y-112154100D01*
X147743297Y-112214863D01*
X147828000Y-112197502D01*
X147971942Y-112183818D01*
X147973041Y-112274619D01*
X147842021Y-112415642D01*
X147775868Y-112461314D01*
X147620216Y-112637490D01*
X147654936Y-112806584D01*
X147854396Y-112915404D01*
X148002001Y-112930609D01*
X148220186Y-112904689D01*
X148264644Y-112804696D01*
X148246006Y-112742932D01*
X148170504Y-112637543D01*
X148129834Y-112687715D01*
X148019084Y-112795938D01*
X147862626Y-112813318D01*
X147773620Y-112730515D01*
X147772782Y-112717181D01*
X147863927Y-112605029D01*
X147993652Y-112544087D01*
X148183161Y-112407499D01*
X148213804Y-112225656D01*
X148094788Y-112081442D01*
X147938435Y-112047131D01*
X147730875Y-112083756D01*
G36*
X147499239Y-109569335D02*
X147457002Y-109633746D01*
X147352694Y-109849538D01*
X147338464Y-109980324D01*
X147407633Y-109979332D01*
X147493183Y-109887151D01*
X147614141Y-109741539D01*
X147653914Y-109772388D01*
X147658835Y-109877859D01*
X147720358Y-110026500D01*
X147828000Y-110019369D01*
X147970471Y-110036337D01*
X147993652Y-110117988D01*
X147904671Y-110259852D01*
X147821482Y-110280174D01*
X147707176Y-110333712D01*
X147717565Y-110390609D01*
X147836271Y-110491791D01*
X147987523Y-110419693D01*
X148180178Y-110192573D01*
X148408240Y-109884102D01*
X147995601Y-109658078D01*
X147732868Y-109522677D01*
X147590966Y-109494160D01*
X147499239Y-109569335D01*
X147499239Y-109569335D01*
G37*
X147499239Y-109569335D02*
X147457002Y-109633746D01*
X147352694Y-109849538D01*
X147338464Y-109980324D01*
X147407633Y-109979332D01*
X147493183Y-109887151D01*
X147614141Y-109741539D01*
X147653914Y-109772388D01*
X147658835Y-109877859D01*
X147720358Y-110026500D01*
X147828000Y-110019369D01*
X147970471Y-110036337D01*
X147993652Y-110117988D01*
X147904671Y-110259852D01*
X147821482Y-110280174D01*
X147707176Y-110333712D01*
X147717565Y-110390609D01*
X147836271Y-110491791D01*
X147987523Y-110419693D01*
X148180178Y-110192573D01*
X148408240Y-109884102D01*
X147995601Y-109658078D01*
X147732868Y-109522677D01*
X147590966Y-109494160D01*
X147499239Y-109569335D01*
G36*
X154500664Y-108718182D02*
X154430868Y-108844522D01*
X154331660Y-109035249D01*
X154212808Y-109036431D01*
X154147104Y-108927348D01*
X154055041Y-108847267D01*
X154013824Y-108867368D01*
X153965192Y-109028444D01*
X154064983Y-109194852D01*
X154258785Y-109284505D01*
X154291486Y-109286261D01*
X154449636Y-109323750D01*
X154461820Y-109384183D01*
X154480129Y-109527963D01*
X154541603Y-109598545D01*
X154674804Y-109629432D01*
X154832721Y-109484356D01*
X154899300Y-109390506D01*
X155069942Y-109173997D01*
X155203774Y-109067873D01*
X155216638Y-109065709D01*
X155227271Y-108997916D01*
X155165188Y-108911792D01*
X154937490Y-108911792D01*
X154910073Y-109064524D01*
X154877420Y-109102203D01*
X154715780Y-109172549D01*
X154623442Y-109057607D01*
X154619739Y-109010174D01*
X154708138Y-108863763D01*
X154785391Y-108844522D01*
X154937490Y-108911792D01*
X155165188Y-108911792D01*
X155116695Y-108844522D01*
X154889134Y-108676507D01*
X154702719Y-108623653D01*
X154500664Y-108718182D01*
X154500664Y-108718182D01*
G37*
X154500664Y-108718182D02*
X154430868Y-108844522D01*
X154331660Y-109035249D01*
X154212808Y-109036431D01*
X154147104Y-108927348D01*
X154055041Y-108847267D01*
X154013824Y-108867368D01*
X153965192Y-109028444D01*
X154064983Y-109194852D01*
X154258785Y-109284505D01*
X154291486Y-109286261D01*
X154449636Y-109323750D01*
X154461820Y-109384183D01*
X154480129Y-109527963D01*
X154541603Y-109598545D01*
X154674804Y-109629432D01*
X154832721Y-109484356D01*
X154899300Y-109390506D01*
X155069942Y-109173997D01*
X155203774Y-109067873D01*
X155216638Y-109065709D01*
X155227271Y-108997916D01*
X155165188Y-108911792D01*
X154937490Y-108911792D01*
X154910073Y-109064524D01*
X154877420Y-109102203D01*
X154715780Y-109172549D01*
X154623442Y-109057607D01*
X154619739Y-109010174D01*
X154708138Y-108863763D01*
X154785391Y-108844522D01*
X154937490Y-108911792D01*
X155165188Y-108911792D01*
X155116695Y-108844522D01*
X154889134Y-108676507D01*
X154702719Y-108623653D01*
X154500664Y-108718182D01*
G36*
X153001862Y-107740169D02*
X152791901Y-107878261D01*
X152573501Y-108074234D01*
X152409450Y-108271035D01*
X152362533Y-108411611D01*
X152366641Y-108420282D01*
X152514944Y-108504601D01*
X152589731Y-108513218D01*
X152698919Y-108457985D01*
X152687130Y-108402783D01*
X152690247Y-108305930D01*
X152857712Y-108310892D01*
X153009402Y-108359381D01*
X153161730Y-108496604D01*
X153184087Y-108580250D01*
X153241731Y-108719549D01*
X153284013Y-108734087D01*
X153332015Y-108637036D01*
X153335573Y-108392589D01*
X153322677Y-108264740D01*
X153279589Y-108057957D01*
X153184087Y-108057957D01*
X153128984Y-108252277D01*
X153005839Y-108283010D01*
X152915733Y-108194426D01*
X152937727Y-108053843D01*
X153019651Y-107960035D01*
X153145673Y-107890177D01*
X153183226Y-108005997D01*
X153184087Y-108057957D01*
X153279589Y-108057957D01*
X153258499Y-107956750D01*
X153171398Y-107749587D01*
X153140597Y-107717009D01*
X153001862Y-107740169D01*
X153001862Y-107740169D01*
G37*
X153001862Y-107740169D02*
X152791901Y-107878261D01*
X152573501Y-108074234D01*
X152409450Y-108271035D01*
X152362533Y-108411611D01*
X152366641Y-108420282D01*
X152514944Y-108504601D01*
X152589731Y-108513218D01*
X152698919Y-108457985D01*
X152687130Y-108402783D01*
X152690247Y-108305930D01*
X152857712Y-108310892D01*
X153009402Y-108359381D01*
X153161730Y-108496604D01*
X153184087Y-108580250D01*
X153241731Y-108719549D01*
X153284013Y-108734087D01*
X153332015Y-108637036D01*
X153335573Y-108392589D01*
X153322677Y-108264740D01*
X153279589Y-108057957D01*
X153184087Y-108057957D01*
X153128984Y-108252277D01*
X153005839Y-108283010D01*
X152915733Y-108194426D01*
X152937727Y-108053843D01*
X153019651Y-107960035D01*
X153145673Y-107890177D01*
X153183226Y-108005997D01*
X153184087Y-108057957D01*
X153279589Y-108057957D01*
X153258499Y-107956750D01*
X153171398Y-107749587D01*
X153140597Y-107717009D01*
X153001862Y-107740169D01*
G36*
X149936880Y-107696163D02*
X149824983Y-107767703D01*
X149858444Y-107892052D01*
X149927848Y-107996823D01*
X150055576Y-108252631D01*
X150091913Y-108427355D01*
X150129024Y-108586736D01*
X150274964Y-108593574D01*
X150392749Y-108551467D01*
X150461049Y-108460815D01*
X150379305Y-108270907D01*
X150352998Y-108229734D01*
X150245419Y-107980934D01*
X150241957Y-107796244D01*
X150245288Y-107653887D01*
X150086186Y-107647377D01*
X149936880Y-107696163D01*
X149936880Y-107696163D01*
G37*
X149936880Y-107696163D02*
X149824983Y-107767703D01*
X149858444Y-107892052D01*
X149927848Y-107996823D01*
X150055576Y-108252631D01*
X150091913Y-108427355D01*
X150129024Y-108586736D01*
X150274964Y-108593574D01*
X150392749Y-108551467D01*
X150461049Y-108460815D01*
X150379305Y-108270907D01*
X150352998Y-108229734D01*
X150245419Y-107980934D01*
X150241957Y-107796244D01*
X150245288Y-107653887D01*
X150086186Y-107647377D01*
X149936880Y-107696163D01*
G36*
X151163891Y-107421945D02*
X151017811Y-107479951D01*
X150976254Y-107611059D01*
X150975391Y-107650847D01*
X150986478Y-107818546D01*
X151050809Y-107786072D01*
X151124697Y-107688636D01*
X151237473Y-107559062D01*
X151300485Y-107611021D01*
X151345468Y-107769188D01*
X151376161Y-108051207D01*
X151349999Y-108228355D01*
X151358575Y-108368892D01*
X151508807Y-108402783D01*
X151653371Y-108375343D01*
X151697212Y-108252126D01*
X151668820Y-107997748D01*
X151639558Y-107737155D01*
X151679627Y-107643851D01*
X151786198Y-107662978D01*
X151941356Y-107660168D01*
X151969304Y-107571056D01*
X151900243Y-107463367D01*
X151669021Y-107414730D01*
X151472348Y-107408870D01*
X151163891Y-107421945D01*
X151163891Y-107421945D01*
G37*
X151163891Y-107421945D02*
X151017811Y-107479951D01*
X150976254Y-107611059D01*
X150975391Y-107650847D01*
X150986478Y-107818546D01*
X151050809Y-107786072D01*
X151124697Y-107688636D01*
X151237473Y-107559062D01*
X151300485Y-107611021D01*
X151345468Y-107769188D01*
X151376161Y-108051207D01*
X151349999Y-108228355D01*
X151358575Y-108368892D01*
X151508807Y-108402783D01*
X151653371Y-108375343D01*
X151697212Y-108252126D01*
X151668820Y-107997748D01*
X151639558Y-107737155D01*
X151679627Y-107643851D01*
X151786198Y-107662978D01*
X151941356Y-107660168D01*
X151969304Y-107571056D01*
X151900243Y-107463367D01*
X151669021Y-107414730D01*
X151472348Y-107408870D01*
X151163891Y-107421945D01*
G36*
X151544653Y-109814567D02*
X151380551Y-109901569D01*
X151270258Y-109885578D01*
X151113546Y-109886215D01*
X151085826Y-109964663D01*
X151181320Y-110080377D01*
X151361913Y-110114522D01*
X151577653Y-110063406D01*
X151636309Y-109893653D01*
X151612049Y-109756371D01*
X151544653Y-109814567D01*
X151544653Y-109814567D01*
G37*
X151544653Y-109814567D02*
X151380551Y-109901569D01*
X151270258Y-109885578D01*
X151113546Y-109886215D01*
X151085826Y-109964663D01*
X151181320Y-110080377D01*
X151361913Y-110114522D01*
X151577653Y-110063406D01*
X151636309Y-109893653D01*
X151612049Y-109756371D01*
X151544653Y-109814567D01*
G36*
X151870920Y-109817501D02*
X151858869Y-109893653D01*
X151882497Y-110040996D01*
X151902271Y-110059305D01*
X151973480Y-109972950D01*
X152009240Y-109893653D01*
X152011536Y-109751450D01*
X151965838Y-109728000D01*
X151870920Y-109817501D01*
X151870920Y-109817501D01*
G37*
X151870920Y-109817501D02*
X151858869Y-109893653D01*
X151882497Y-110040996D01*
X151902271Y-110059305D01*
X151973480Y-109972950D01*
X152009240Y-109893653D01*
X152011536Y-109751450D01*
X151965838Y-109728000D01*
X151870920Y-109817501D01*
D13*
X138373600Y-96174000D02*
X137673600Y-96174000D01*
X137673600Y-97374000D02*
X138373600Y-97374000D01*
X140712600Y-99841000D02*
G75*
G03X140712600Y-99841000I-100000J0D01*
G01*
X140362600Y-99191000D02*
X140362600Y-99691000D01*
X137462600Y-99191000D02*
X140362600Y-99191000D01*
X137462600Y-99691000D02*
X137462600Y-99191000D01*
X140362600Y-99691000D02*
X137462600Y-99691000D01*
X174244000Y-111129000D02*
X173794000Y-111679000D01*
X173794000Y-111679000D02*
X174694000Y-111679000D01*
X174694000Y-111679000D02*
X174244000Y-111129000D01*
X173694000Y-111129000D02*
X174794000Y-111129000D01*
X175994060Y-109579860D02*
X175643540Y-109579860D01*
X172493940Y-109579860D02*
X172844460Y-109579860D01*
X175994060Y-113629440D02*
X175643540Y-113629440D01*
X175994060Y-109128560D02*
X175643540Y-109128560D01*
X172493940Y-109128560D02*
X172844460Y-109128560D01*
X172493940Y-113629440D02*
X172844460Y-113629440D01*
X175994060Y-109128560D02*
X175994060Y-113629440D01*
X172493940Y-109128560D02*
X172493940Y-113629440D01*
X157738000Y-97078800D02*
X158288000Y-97528800D01*
X158288000Y-97528800D02*
X158288000Y-96628800D01*
X158288000Y-96628800D02*
X157738000Y-97078800D01*
X157738000Y-97628800D02*
X157738000Y-96528800D01*
X156188860Y-95328740D02*
X156188860Y-95679260D01*
X156188860Y-98828860D02*
X156188860Y-98478340D01*
X160238440Y-95328740D02*
X160238440Y-95679260D01*
X155737560Y-95328740D02*
X155737560Y-95679260D01*
X155737560Y-98828860D02*
X155737560Y-98478340D01*
X160238440Y-98828860D02*
X160238440Y-98478340D01*
X155737560Y-95328740D02*
X160238440Y-95328740D01*
X155737560Y-98828860D02*
X160238440Y-98828860D01*
X165100000Y-117098000D02*
X164650000Y-117648000D01*
X164650000Y-117648000D02*
X165550000Y-117648000D01*
X165550000Y-117648000D02*
X165100000Y-117098000D01*
X164550000Y-117098000D02*
X165650000Y-117098000D01*
X166850060Y-115548860D02*
X166499540Y-115548860D01*
X163349940Y-115548860D02*
X163700460Y-115548860D01*
X166850060Y-119598440D02*
X166499540Y-119598440D01*
X166850060Y-115097560D02*
X166499540Y-115097560D01*
X163349940Y-115097560D02*
X163700460Y-115097560D01*
X163349940Y-119598440D02*
X163700460Y-119598440D01*
X166850060Y-115097560D02*
X166850060Y-119598440D01*
X163349940Y-115097560D02*
X163349940Y-119598440D01*
X150803800Y-100990400D02*
X151353800Y-101440400D01*
X151353800Y-101440400D02*
X151353800Y-100540400D01*
X151353800Y-100540400D02*
X150803800Y-100990400D01*
X150803800Y-101540400D02*
X150803800Y-100440400D01*
X149254660Y-99240340D02*
X149254660Y-99590860D01*
X149254660Y-102740460D02*
X149254660Y-102389940D01*
X153304240Y-99240340D02*
X153304240Y-99590860D01*
X148803360Y-99240340D02*
X148803360Y-99590860D01*
X148803360Y-102740460D02*
X148803360Y-102389940D01*
X153304240Y-102740460D02*
X153304240Y-102389940D01*
X148803360Y-99240340D02*
X153304240Y-99240340D01*
X148803360Y-102740460D02*
X153304240Y-102740460D01*
X174222600Y-102997000D02*
X174772600Y-103447000D01*
X174772600Y-103447000D02*
X174772600Y-102547000D01*
X174772600Y-102547000D02*
X174222600Y-102997000D01*
X174222600Y-103547000D02*
X174222600Y-102447000D01*
X172673460Y-101246940D02*
X172673460Y-101597460D01*
X172673460Y-104747060D02*
X172673460Y-104396540D01*
X176723040Y-101246940D02*
X176723040Y-101597460D01*
X172222160Y-101246940D02*
X172222160Y-101597460D01*
X172222160Y-104747060D02*
X172222160Y-104396540D01*
X176723040Y-104747060D02*
X176723040Y-104396540D01*
X172222160Y-101246940D02*
X176723040Y-101246940D01*
X172222160Y-104747060D02*
X176723040Y-104747060D01*
X161720000Y-85176000D02*
X158320000Y-85176000D01*
X161720000Y-89576000D02*
X161720000Y-85176000D01*
X161720000Y-89576000D02*
X158320000Y-89576000D01*
X158320000Y-85176000D02*
X158320000Y-89576000D01*
X161720000Y-120482000D02*
X158320000Y-120482000D01*
X161720000Y-124882000D02*
X161720000Y-120482000D01*
X161720000Y-124882000D02*
X158320000Y-124882000D01*
X158320000Y-120482000D02*
X158320000Y-124882000D01*
X151320500Y-95250000D02*
X150939500Y-95250000D01*
X152336500Y-95250000D02*
X151955500Y-95250000D01*
X151955500Y-95250000D02*
X151320500Y-94869000D01*
X151320500Y-94869000D02*
X151320500Y-95631000D01*
X151320500Y-95631000D02*
X151955500Y-95250000D01*
X151955500Y-94742000D02*
X151955500Y-95758000D01*
X153438000Y-96150000D02*
X149898000Y-96150000D01*
X153438000Y-94350000D02*
X149898000Y-94350000D01*
X160718500Y-118110000D02*
X160337500Y-118110000D01*
X161734500Y-118110000D02*
X161353500Y-118110000D01*
X161353500Y-118110000D02*
X160718500Y-117729000D01*
X160718500Y-117729000D02*
X160718500Y-118491000D01*
X160718500Y-118491000D02*
X161353500Y-118110000D01*
X161353500Y-117602000D02*
X161353500Y-118618000D01*
X162836000Y-119010000D02*
X159296000Y-119010000D01*
X162836000Y-117210000D02*
X159296000Y-117210000D01*
X163258500Y-103886000D02*
X163639500Y-103886000D01*
X162242500Y-103886000D02*
X162623500Y-103886000D01*
X162623500Y-103886000D02*
X163258500Y-104267000D01*
X163258500Y-104267000D02*
X163258500Y-103505000D01*
X163258500Y-103505000D02*
X162623500Y-103886000D01*
X162623500Y-104394000D02*
X162623500Y-103378000D01*
X161141000Y-102986000D02*
X164681000Y-102986000D01*
X161141000Y-104786000D02*
X164681000Y-104786000D01*
D14*
X138497428Y-95682571D02*
X138521238Y-95706381D01*
X138592666Y-95730190D01*
X138640285Y-95730190D01*
X138711714Y-95706381D01*
X138759333Y-95658762D01*
X138783142Y-95611143D01*
X138806952Y-95515905D01*
X138806952Y-95444476D01*
X138783142Y-95349238D01*
X138759333Y-95301619D01*
X138711714Y-95254000D01*
X138640285Y-95230190D01*
X138592666Y-95230190D01*
X138521238Y-95254000D01*
X138497428Y-95277810D01*
X138306952Y-95277810D02*
X138283142Y-95254000D01*
X138235523Y-95230190D01*
X138116476Y-95230190D01*
X138068857Y-95254000D01*
X138045047Y-95277810D01*
X138021238Y-95325429D01*
X138021238Y-95373048D01*
X138045047Y-95444476D01*
X138330761Y-95730190D01*
X138021238Y-95730190D01*
X137830762Y-95277810D02*
X137806952Y-95254000D01*
X137759333Y-95230190D01*
X137640286Y-95230190D01*
X137592667Y-95254000D01*
X137568857Y-95277810D01*
X137545048Y-95325429D01*
X137545048Y-95373048D01*
X137568857Y-95444476D01*
X137854571Y-95730190D01*
X137545048Y-95730190D01*
D13*
X136778905Y-98766381D02*
X136778905Y-99575905D01*
X136731286Y-99671143D01*
X136683667Y-99718762D01*
X136588429Y-99766381D01*
X136397952Y-99766381D01*
X136302714Y-99718762D01*
X136255095Y-99671143D01*
X136207476Y-99575905D01*
X136207476Y-98766381D01*
X135826524Y-98766381D02*
X135207476Y-98766381D01*
X135540810Y-99147333D01*
X135397952Y-99147333D01*
X135302714Y-99194952D01*
X135255095Y-99242571D01*
X135207476Y-99337810D01*
X135207476Y-99575905D01*
X135255095Y-99671143D01*
X135302714Y-99718762D01*
X135397952Y-99766381D01*
X135683667Y-99766381D01*
X135778905Y-99718762D01*
X135826524Y-99671143D01*
X172111895Y-111856781D02*
X172111895Y-110856781D01*
X171873800Y-110856781D01*
X171730942Y-110904400D01*
X171635704Y-110999638D01*
X171588085Y-111094876D01*
X171540466Y-111285352D01*
X171540466Y-111428210D01*
X171588085Y-111618686D01*
X171635704Y-111713924D01*
X171730942Y-111809162D01*
X171873800Y-111856781D01*
X172111895Y-111856781D01*
X171159514Y-110952019D02*
X171111895Y-110904400D01*
X171016657Y-110856781D01*
X170778561Y-110856781D01*
X170683323Y-110904400D01*
X170635704Y-110952019D01*
X170588085Y-111047257D01*
X170588085Y-111142495D01*
X170635704Y-111285352D01*
X171207133Y-111856781D01*
X170588085Y-111856781D01*
X159202286Y-94940381D02*
X159202286Y-93940381D01*
X158964191Y-93940381D01*
X158821333Y-93988000D01*
X158726095Y-94083238D01*
X158678476Y-94178476D01*
X158630857Y-94368952D01*
X158630857Y-94511810D01*
X158678476Y-94702286D01*
X158726095Y-94797524D01*
X158821333Y-94892762D01*
X158964191Y-94940381D01*
X159202286Y-94940381D01*
X157678476Y-94940381D02*
X158249905Y-94940381D01*
X157964191Y-94940381D02*
X157964191Y-93940381D01*
X158059429Y-94083238D01*
X158154667Y-94178476D01*
X158249905Y-94226095D01*
X157059429Y-93940381D02*
X156964190Y-93940381D01*
X156868952Y-93988000D01*
X156821333Y-94035619D01*
X156773714Y-94130857D01*
X156726095Y-94321333D01*
X156726095Y-94559429D01*
X156773714Y-94749905D01*
X156821333Y-94845143D01*
X156868952Y-94892762D01*
X156964190Y-94940381D01*
X157059429Y-94940381D01*
X157154667Y-94892762D01*
X157202286Y-94845143D01*
X157249905Y-94749905D01*
X157297524Y-94559429D01*
X157297524Y-94321333D01*
X157249905Y-94130857D01*
X157202286Y-94035619D01*
X157154667Y-93988000D01*
X157059429Y-93940381D01*
X166314286Y-112466381D02*
X166314286Y-111466381D01*
X166076191Y-111466381D01*
X165933333Y-111514000D01*
X165838095Y-111609238D01*
X165790476Y-111704476D01*
X165742857Y-111894952D01*
X165742857Y-112037810D01*
X165790476Y-112228286D01*
X165838095Y-112323524D01*
X165933333Y-112418762D01*
X166076191Y-112466381D01*
X166314286Y-112466381D01*
X164790476Y-112466381D02*
X165361905Y-112466381D01*
X165076191Y-112466381D02*
X165076191Y-111466381D01*
X165171429Y-111609238D01*
X165266667Y-111704476D01*
X165361905Y-111752095D01*
X163838095Y-112466381D02*
X164409524Y-112466381D01*
X164123810Y-112466381D02*
X164123810Y-111466381D01*
X164219048Y-111609238D01*
X164314286Y-111704476D01*
X164409524Y-111752095D01*
X151868095Y-99004381D02*
X151868095Y-98004381D01*
X151630000Y-98004381D01*
X151487142Y-98052000D01*
X151391904Y-98147238D01*
X151344285Y-98242476D01*
X151296666Y-98432952D01*
X151296666Y-98575810D01*
X151344285Y-98766286D01*
X151391904Y-98861524D01*
X151487142Y-98956762D01*
X151630000Y-99004381D01*
X151868095Y-99004381D01*
X150439523Y-98337714D02*
X150439523Y-99004381D01*
X150677619Y-97956762D02*
X150915714Y-98671048D01*
X150296666Y-98671048D01*
X175236095Y-106116381D02*
X175236095Y-105116381D01*
X174998000Y-105116381D01*
X174855142Y-105164000D01*
X174759904Y-105259238D01*
X174712285Y-105354476D01*
X174664666Y-105544952D01*
X174664666Y-105687810D01*
X174712285Y-105878286D01*
X174759904Y-105973524D01*
X174855142Y-106068762D01*
X174998000Y-106116381D01*
X175236095Y-106116381D01*
X174188476Y-106116381D02*
X173998000Y-106116381D01*
X173902761Y-106068762D01*
X173855142Y-106021143D01*
X173759904Y-105878286D01*
X173712285Y-105687810D01*
X173712285Y-105306857D01*
X173759904Y-105211619D01*
X173807523Y-105164000D01*
X173902761Y-105116381D01*
X174093238Y-105116381D01*
X174188476Y-105164000D01*
X174236095Y-105211619D01*
X174283714Y-105306857D01*
X174283714Y-105544952D01*
X174236095Y-105640190D01*
X174188476Y-105687810D01*
X174093238Y-105735429D01*
X173902761Y-105735429D01*
X173807523Y-105687810D01*
X173759904Y-105640190D01*
X173712285Y-105544952D01*
X152376095Y-93924381D02*
X152376095Y-92924381D01*
X152138000Y-92924381D01*
X151995142Y-92972000D01*
X151899904Y-93067238D01*
X151852285Y-93162476D01*
X151804666Y-93352952D01*
X151804666Y-93495810D01*
X151852285Y-93686286D01*
X151899904Y-93781524D01*
X151995142Y-93876762D01*
X152138000Y-93924381D01*
X152376095Y-93924381D01*
X151471333Y-92924381D02*
X150804666Y-92924381D01*
X151233238Y-93924381D01*
X161774095Y-116784381D02*
X161774095Y-115784381D01*
X161536000Y-115784381D01*
X161393142Y-115832000D01*
X161297904Y-115927238D01*
X161250285Y-116022476D01*
X161202666Y-116212952D01*
X161202666Y-116355810D01*
X161250285Y-116546286D01*
X161297904Y-116641524D01*
X161393142Y-116736762D01*
X161536000Y-116784381D01*
X161774095Y-116784381D01*
X160631238Y-116212952D02*
X160726476Y-116165333D01*
X160774095Y-116117714D01*
X160821714Y-116022476D01*
X160821714Y-115974857D01*
X160774095Y-115879619D01*
X160726476Y-115832000D01*
X160631238Y-115784381D01*
X160440761Y-115784381D01*
X160345523Y-115832000D01*
X160297904Y-115879619D01*
X160250285Y-115974857D01*
X160250285Y-116022476D01*
X160297904Y-116117714D01*
X160345523Y-116165333D01*
X160440761Y-116212952D01*
X160631238Y-116212952D01*
X160726476Y-116260571D01*
X160774095Y-116308190D01*
X160821714Y-116403429D01*
X160821714Y-116593905D01*
X160774095Y-116689143D01*
X160726476Y-116736762D01*
X160631238Y-116784381D01*
X160440761Y-116784381D01*
X160345523Y-116736762D01*
X160297904Y-116689143D01*
X160250285Y-116593905D01*
X160250285Y-116403429D01*
X160297904Y-116308190D01*
X160345523Y-116260571D01*
X160440761Y-116212952D01*
X163806095Y-102560381D02*
X163806095Y-101560381D01*
X163568000Y-101560381D01*
X163425142Y-101608000D01*
X163329904Y-101703238D01*
X163282285Y-101798476D01*
X163234666Y-101988952D01*
X163234666Y-102131810D01*
X163282285Y-102322286D01*
X163329904Y-102417524D01*
X163425142Y-102512762D01*
X163568000Y-102560381D01*
X163806095Y-102560381D01*
X162377523Y-101560381D02*
X162568000Y-101560381D01*
X162663238Y-101608000D01*
X162710857Y-101655619D01*
X162806095Y-101798476D01*
X162853714Y-101988952D01*
X162853714Y-102369905D01*
X162806095Y-102465143D01*
X162758476Y-102512762D01*
X162663238Y-102560381D01*
X162472761Y-102560381D01*
X162377523Y-102512762D01*
X162329904Y-102465143D01*
X162282285Y-102369905D01*
X162282285Y-102131810D01*
X162329904Y-102036571D01*
X162377523Y-101988952D01*
X162472761Y-101941333D01*
X162663238Y-101941333D01*
X162758476Y-101988952D01*
X162806095Y-102036571D01*
X162853714Y-102131810D01*
M02*
