M48
;DRILL file {KiCad 4.0.2+dfsg1-stable} date tis  3 jan 2017 22:34:53
;FORMAT={-:-/ absolute / metric / decimal}
FMAT,2
METRIC,TZ
T1C0.200
T2C0.400
T3C0.500
T4C0.600
T5C0.700
T6C1.000
T7C1.001
T8C1.016
T9C2.301
T10C2.400
%
G90
G05
M71
T1
X130.404Y-116.891
X131.521Y-114.554
X131.699Y-115.672
X132.182Y-113.106
X132.385Y-111.455
X132.385Y-112.192
X133.858Y-106.045
X133.858Y-107.315
X133.934Y-118.389
X134.214Y-95.834
X134.341Y-120.65
X134.925Y-102.286
X134.925Y-104.394
X135.001Y-92.456
X135.001Y-93.853
X135.001Y-106.045
X135.001Y-107.315
X135.23Y-90.17
X135.799Y-109.474
X135.824Y-118.364
X136.144Y-90.5
X137.668Y-116.078
X137.668Y-116.713
X138.43Y-116.713
X138.913Y-115.646
X139.7Y-115.367
X140.868Y-114.021
X141.387Y-113.03
X141.554Y-117.805
X142.088Y-115.9
X142.164Y-117.881
X143.332Y-91.821
X143.561Y-106.426
X143.688Y-109.068
X143.688Y-109.728
X144.069Y-106.807
X144.399Y-99.441
X144.399Y-102.235
X144.399Y-103.505
X144.399Y-104.775
X144.424Y-91.592
X144.602Y-114.681
X145.212Y-119.964
X146.507Y-116.713
X146.558Y-105.41
X146.558Y-106.045
X146.66Y-117.653
X146.685Y-94.869
X146.71Y-91.592
X146.721Y-111.252
X146.736Y-113.081
X147.015Y-114.732
X147.117Y-116.942
X147.701Y-95.631
X148.336Y-95.631
X148.438Y-119.659
X148.59Y-105.994
X148.641Y-104.546
X149.174Y-95.402
X149.708Y-97.358
X149.885Y-95.148
X150.139Y-117.653
X150.155Y-114.046
X150.19Y-102.692
X150.876Y-104.14
X150.952Y-100.838
X151.359Y-94.005
X151.536Y-91.592
X151.994Y-112.268
X152.019Y-107.772
X152.044Y-115.849
X152.055Y-117.602
X152.07Y-114.071
X152.222Y-96.418
X152.908Y-90.195
X152.908Y-109.601
X153.111Y-92.278
X154.305Y-116.713
X154.381Y-119.99
X154.407Y-103.53
X154.559Y-104.521
X154.686Y-95.504
X154.686Y-111.379
X154.727Y-108.712
X154.727Y-112.268
X154.727Y-114.046
X154.727Y-115.824
X155.321Y-100.33
X155.321Y-101.346
X155.702Y-107.823
X155.702Y-109.601
X155.829Y-95.504
X156.119Y-94.234
X156.616Y-108.763
X156.627Y-106.934
X156.627Y-112.268
X156.845Y-113.157
X156.845Y-114.935
X156.972Y-95.504
X157.226Y-116.586
X157.861Y-118.415
X157.988Y-105.105
X157.988Y-109.474
X157.988Y-110.617
X158.115Y-112.141
X158.496Y-116.84
X159.004Y-106.883
X159.131Y-104.267
X159.258Y-95.25
X159.258Y-95.758
X159.537Y-119.456
X159.789Y-108.016
X159.789Y-112.014
X159.791Y-116.027
X159.807Y-91.542
X160.401Y-95.25
X160.401Y-95.758
X160.655Y-105.41
X160.782Y-118.618
X161.188Y-105.994
X161.417Y-101.549
X161.544Y-103.581
X161.671Y-108.534
X162.128Y-118.313
X162.43Y-102.55
X162.43Y-104.584
X162.56Y-103.581
X162.791Y-112.964
X162.966Y-121.641
X163.195Y-112.039
X163.373Y-93.193
X163.449Y-92.405
X163.576Y-103.835
X163.576Y-116.967
X163.576Y-118.237
X163.576Y-119.507
X163.957Y-105.486
X164.287Y-90.754
X165.405Y-105.156
X165.43Y-102.489
X165.964Y-110.678
X165.989Y-112.674
X166.116Y-117.602
X166.446Y-114.732
X167.513Y-107.569
X168.021Y-114.452
X168.758Y-115.392
X169.164Y-108.585
X170.053Y-112.014
X170.18Y-105.791
X170.409Y-115.443
X170.409Y-118.999
X170.942Y-119.761
X171.348Y-105.08
X171.653Y-114.122
X172.212Y-119.761
X172.339Y-105.791
X172.847Y-114.656
X173.482Y-119.761
X173.609Y-105.791
X174.498Y-101.727
X174.498Y-103.505
X174.752Y-119.761
X174.879Y-114.681
X175.565Y-105.08
X176.276Y-114.681
X176.403Y-108.712
X176.403Y-109.601
X176.784Y-101.473
X178.054Y-101.473
X178.435Y-101.854
X178.435Y-103.251
X178.435Y-104.521
X178.435Y-105.41
X178.562Y-117.094
X178.562Y-118.364
X178.562Y-119.761
T2
X133.071Y-93.904
X133.071Y-96.19
X143.891Y-116.459
X143.891Y-117.348
X143.916Y-113.868
X144.78Y-116.459
X144.78Y-117.348
X145.923Y-114.706
X152.019Y-101.981
X152.019Y-102.87
X152.502Y-104.165
X152.908Y-101.981
X152.908Y-102.87
X164.567Y-107.569
X166.929Y-121.463
X168.25Y-121.463
X174.727Y-106.553
T3
X139.296Y-116.586
X141.196Y-116.586
X147.396Y-96.596
X147.887Y-101.092
X154.127Y-100.965
X155.87Y-102.87
X159.789Y-114.112
X160.503Y-100.98
X162.791Y-111.064
X165.016Y-116.078
X168.351Y-113.487
X168.653Y-101.73
X169.24Y-109.931
X170.475Y-112.801
X171.656Y-102.679
X172.375Y-112.801
X175.278Y-112.014
T4
X134.62Y-98.044
X134.62Y-99.314
X134.62Y-100.584
X138.024Y-110.261
X138.024Y-111.912
X138.024Y-113.563
X149.073Y-109.499
X154.094Y-97.536
X157.963Y-101.117
X157.988Y-89.281
X159.258Y-89.281
X160.503Y-104.546
X160.528Y-89.281
X162.052Y-86.741
X165.608Y-89.281
X166.218Y-95.377
X166.878Y-90.932
X175.743Y-107.848
X175.87Y-120.04
T5
X164.Y-123.
X165.25Y-123.
X166.5Y-123.
X167.75Y-123.
T7
X143.36Y-95.886
X143.36Y-98.426
X143.36Y-100.458
X143.36Y-102.998
T8
X132.5Y-87.5
X132.5Y-122.5
X135.04Y-87.5
X135.04Y-122.5
X137.58Y-87.5
X137.58Y-122.5
X140.12Y-87.5
X140.12Y-122.5
X172.5Y-87.5
X172.5Y-122.5
X175.04Y-87.5
X175.04Y-122.5
X177.58Y-87.5
X177.58Y-122.5
T9
X140.693Y-92.33
X140.693Y-106.046
T10
X175.296Y-95.86
T6
X146.99Y-123.004G85X146.99Y-122.004
G05
X147.Y-87.G85X147.Y-88.
G05
X149.946Y-122.G85X149.946Y-123.
G05
X150.Y-87.G85X150.Y-88.
G05
X152.933Y-122.004G85X152.933Y-123.004
G05
X153.Y-87.G85X153.Y-88.
G05
X155.946Y-122.G85X155.946Y-123.
G05
X156.Y-87.G85X156.Y-88.
G05
X169.496Y-92.56G85X168.496Y-92.56
G05
X169.496Y-99.16G85X168.496Y-99.16
G05
X171.196Y-96.36G85X171.196Y-95.36
G05
X176.896Y-92.16G85X175.896Y-92.16
G05
X176.896Y-99.56G85X175.896Y-99.56
G05
T0
M30
