G04 #@! TF.FileFunction,Soldermask,Top*
%FSLAX46Y46*%
G04 Gerber Fmt 4.6, Leading zero omitted, Abs format (unit mm)*
G04 Created by KiCad (PCBNEW 4.0.2+dfsg1-stable) date tis 27 dec 2016 17:18:50*
%MOMM*%
G01*
G04 APERTURE LIST*
%ADD10C,0.100000*%
%ADD11C,1.501140*%
%ADD12C,2.999740*%
%ADD13R,2.000000X3.000000*%
%ADD14O,2.000000X3.000000*%
%ADD15O,0.750000X0.300000*%
%ADD16O,0.300000X0.750000*%
%ADD17R,0.900000X0.900000*%
%ADD18R,1.060000X0.650000*%
%ADD19R,1.800860X0.800100*%
%ADD20R,0.797560X0.797560*%
%ADD21R,1.200000X0.750000*%
%ADD22R,0.750000X1.200000*%
%ADD23R,1.727200X2.032000*%
%ADD24O,1.727200X2.032000*%
%ADD25C,1.000000*%
%ADD26O,3.500000X2.500000*%
%ADD27O,2.500000X3.500000*%
%ADD28C,4.000000*%
%ADD29R,1.000000X2.700000*%
%ADD30R,2.700000X1.000000*%
G04 APERTURE END LIST*
D10*
D11*
X166875880Y-94106140D03*
X166875880Y-96646140D03*
X166875880Y-98678140D03*
X166875880Y-101218140D03*
D12*
X169542880Y-91058140D03*
X169542880Y-104774140D03*
D13*
X160000000Y-87000000D03*
X160000000Y-123000000D03*
D14*
X153000000Y-87500000D03*
X156000000Y-87500000D03*
X150000000Y-87500000D03*
X147000000Y-87500000D03*
X150000000Y-122500000D03*
X153000000Y-122500000D03*
X147000000Y-122500000D03*
X156000000Y-122500000D03*
D15*
X144448000Y-117410800D03*
X144448000Y-117910800D03*
X144448000Y-118410800D03*
X144448000Y-118910800D03*
D16*
X145173000Y-119635800D03*
X145673000Y-119635800D03*
X146173000Y-119635800D03*
X146673000Y-119635800D03*
D15*
X147398000Y-118910800D03*
X147398000Y-118410800D03*
X147398000Y-117910800D03*
X147398000Y-117410800D03*
D16*
X146673000Y-116685800D03*
X146173000Y-116685800D03*
X145673000Y-116685800D03*
X145173000Y-116685800D03*
D17*
X146373000Y-118610800D03*
X146373000Y-117710800D03*
X145473000Y-118610800D03*
X145473000Y-117710800D03*
D15*
X152957000Y-102120000D03*
X152957000Y-102620000D03*
X152957000Y-103120000D03*
X152957000Y-103620000D03*
D16*
X153682000Y-104345000D03*
X154182000Y-104345000D03*
X154682000Y-104345000D03*
X155182000Y-104345000D03*
D15*
X155907000Y-103620000D03*
X155907000Y-103120000D03*
X155907000Y-102620000D03*
X155907000Y-102120000D03*
D16*
X155182000Y-101395000D03*
X154682000Y-101395000D03*
X154182000Y-101395000D03*
X153682000Y-101395000D03*
D17*
X154882000Y-103320000D03*
X154882000Y-102420000D03*
X153982000Y-103320000D03*
X153982000Y-102420000D03*
D18*
X170197600Y-108981200D03*
X170197600Y-109931200D03*
X170197600Y-110881200D03*
X172397600Y-110881200D03*
X172397600Y-108981200D03*
X172397600Y-109931200D03*
D19*
X159788860Y-114112000D03*
X159788860Y-116012000D03*
X162791140Y-115062000D03*
X148358860Y-96586000D03*
X148358860Y-98486000D03*
X151361140Y-97536000D03*
X134896860Y-96332000D03*
X134896860Y-98232000D03*
X137899140Y-97282000D03*
X162791140Y-112964000D03*
X162791140Y-111064000D03*
X159788860Y-112014000D03*
X151361140Y-95438000D03*
X151361140Y-93538000D03*
X148358860Y-94488000D03*
X137899140Y-95184000D03*
X137899140Y-93284000D03*
X134896860Y-94234000D03*
X159788860Y-108016000D03*
X159788860Y-109916000D03*
X162791140Y-108966000D03*
X148358860Y-90490000D03*
X148358860Y-92390000D03*
X151361140Y-91440000D03*
X134896860Y-90236000D03*
X134896860Y-92136000D03*
X137899140Y-91186000D03*
D20*
X164338000Y-103898700D03*
X164338000Y-105397300D03*
X179000000Y-112749300D03*
X179000000Y-111250700D03*
X131318000Y-113042700D03*
X131318000Y-114541300D03*
D21*
X152080000Y-119380000D03*
X150180000Y-119380000D03*
X159781200Y-93726000D03*
X161681200Y-93726000D03*
X144846000Y-105206800D03*
X146746000Y-105206800D03*
D22*
X170180000Y-115382000D03*
X170180000Y-117282000D03*
D21*
X158206400Y-96723200D03*
X160106400Y-96723200D03*
X142179000Y-90551000D03*
X144079000Y-90551000D03*
X156652000Y-110490000D03*
X154752000Y-110490000D03*
X154244000Y-91948000D03*
X156144000Y-91948000D03*
D22*
X132842000Y-90490000D03*
X132842000Y-92390000D03*
D21*
X154752000Y-114046000D03*
X156652000Y-114046000D03*
X154752000Y-115824000D03*
X156652000Y-115824000D03*
X154752000Y-117602000D03*
X156652000Y-117602000D03*
X167858400Y-87528400D03*
X169758400Y-87528400D03*
D22*
X164338000Y-99502000D03*
X164338000Y-97602000D03*
X162814000Y-99502000D03*
X162814000Y-97602000D03*
X177000000Y-109450000D03*
X177000000Y-107550000D03*
D21*
X160716000Y-106172000D03*
X158816000Y-106172000D03*
X172400000Y-112776000D03*
X170500000Y-112776000D03*
X172247600Y-107391200D03*
X170347600Y-107391200D03*
X150200400Y-102870000D03*
X148300400Y-102870000D03*
X140274000Y-117856000D03*
X142174000Y-117856000D03*
D22*
X131318000Y-116398000D03*
X131318000Y-118298000D03*
X168148000Y-110678000D03*
X168148000Y-108778000D03*
X165963600Y-108778000D03*
X165963600Y-110678000D03*
D21*
X166131200Y-112776000D03*
X168031200Y-112776000D03*
D22*
X179000000Y-109450000D03*
X179000000Y-107550000D03*
X162610800Y-106055200D03*
X162610800Y-104155200D03*
D21*
X135824000Y-113030000D03*
X133924000Y-113030000D03*
X139512000Y-111252000D03*
X141412000Y-111252000D03*
X133924000Y-114808000D03*
X135824000Y-114808000D03*
X141412000Y-113030000D03*
X139512000Y-113030000D03*
X146746000Y-114046000D03*
X144846000Y-114046000D03*
X152080000Y-112268000D03*
X150180000Y-112268000D03*
X133924000Y-116586000D03*
X135824000Y-116586000D03*
X135824000Y-118364000D03*
X133924000Y-118364000D03*
X144846000Y-112268000D03*
X146746000Y-112268000D03*
X150180000Y-110490000D03*
X152080000Y-110490000D03*
X146746000Y-110490000D03*
X144846000Y-110490000D03*
X152080000Y-117602000D03*
X150180000Y-117602000D03*
X152080000Y-115824000D03*
X150180000Y-115824000D03*
X152080000Y-114046000D03*
X150180000Y-114046000D03*
D22*
X131064000Y-90490000D03*
X131064000Y-92390000D03*
D21*
X154244000Y-90170000D03*
X156144000Y-90170000D03*
X156652000Y-112268000D03*
X154752000Y-112268000D03*
D22*
X131826000Y-94554000D03*
X131826000Y-96454000D03*
D21*
X154244000Y-93726000D03*
X156144000Y-93726000D03*
X161859000Y-119888000D03*
X159959000Y-119888000D03*
X144846000Y-108712000D03*
X146746000Y-108712000D03*
X159781200Y-90119200D03*
X161681200Y-90119200D03*
D22*
X169672000Y-121478000D03*
X169672000Y-123378000D03*
D21*
X146746000Y-106934000D03*
X144846000Y-106934000D03*
X161681200Y-91897200D03*
X159781200Y-91897200D03*
X154752000Y-119380000D03*
X156652000Y-119380000D03*
D23*
X132500000Y-87500000D03*
D24*
X135040000Y-87500000D03*
X137580000Y-87500000D03*
X140120000Y-87500000D03*
D23*
X132500000Y-122500000D03*
D24*
X135040000Y-122500000D03*
X137580000Y-122500000D03*
X140120000Y-122500000D03*
D25*
X166750000Y-123000000D03*
X165500000Y-123000000D03*
X163000000Y-123000000D03*
X164250000Y-123000000D03*
D23*
X172500000Y-122500000D03*
D24*
X175040000Y-122500000D03*
X177580000Y-122500000D03*
D23*
X172500000Y-87500000D03*
D24*
X175040000Y-87500000D03*
X177580000Y-87500000D03*
D26*
X133230000Y-107840000D03*
X133230000Y-100440000D03*
X140630000Y-100840000D03*
D27*
X138430000Y-104140000D03*
D26*
X140630000Y-107440000D03*
D28*
X134330000Y-104140000D03*
D29*
X177100000Y-112000000D03*
X174900000Y-112000000D03*
X160866000Y-101193600D03*
X158666000Y-101193600D03*
D30*
X141351000Y-91991000D03*
X141351000Y-94191000D03*
D29*
X156294000Y-97536000D03*
X154094000Y-97536000D03*
X167216000Y-116078000D03*
X165016000Y-116078000D03*
M02*
