G04 #@! TF.FileFunction,Soldermask,Top*
%FSLAX46Y46*%
G04 Gerber Fmt 4.6, Leading zero omitted, Abs format (unit mm)*
G04 Created by KiCad (PCBNEW 4.0.2+dfsg1-stable) date tis  3 jan 2017 10:33:16*
%MOMM*%
G01*
G04 APERTURE LIST*
%ADD10C,0.100000*%
%ADD11R,0.750000X1.200000*%
%ADD12R,1.200000X0.750000*%
%ADD13O,0.750000X0.300000*%
%ADD14O,0.300000X0.750000*%
%ADD15R,0.900000X0.900000*%
%ADD16C,1.501140*%
%ADD17C,2.999740*%
%ADD18R,2.000000X3.000000*%
%ADD19O,2.000000X3.000000*%
%ADD20R,1.060000X0.650000*%
%ADD21R,1.800860X0.800100*%
%ADD22R,0.797560X0.797560*%
%ADD23R,1.727200X2.032000*%
%ADD24O,1.727200X2.032000*%
%ADD25C,1.000000*%
%ADD26O,3.500000X2.500000*%
%ADD27O,2.500000X3.500000*%
%ADD28C,4.000000*%
%ADD29R,1.000000X2.700000*%
G04 APERTURE END LIST*
D10*
D11*
X177393600Y-104963000D03*
X177393600Y-103063000D03*
D12*
X146720600Y-109474000D03*
X144820600Y-109474000D03*
D13*
X142898600Y-116153500D03*
X142898600Y-116653500D03*
X142898600Y-117153500D03*
X142898600Y-117653500D03*
D14*
X143623600Y-118378500D03*
X144123600Y-118378500D03*
X144623600Y-118378500D03*
X145123600Y-118378500D03*
D13*
X145848600Y-117653500D03*
X145848600Y-117153500D03*
X145848600Y-116653500D03*
X145848600Y-116153500D03*
D14*
X145123600Y-115428500D03*
X144623600Y-115428500D03*
X144123600Y-115428500D03*
X143623600Y-115428500D03*
D15*
X144823600Y-117353500D03*
X144823600Y-116453500D03*
X143923600Y-117353500D03*
X143923600Y-116453500D03*
D13*
X153976600Y-103188200D03*
X153976600Y-102688200D03*
X153976600Y-102188200D03*
X153976600Y-101688200D03*
D14*
X153251600Y-100963200D03*
X152751600Y-100963200D03*
X152251600Y-100963200D03*
X151751600Y-100963200D03*
D13*
X151026600Y-101688200D03*
X151026600Y-102188200D03*
X151026600Y-102688200D03*
X151026600Y-103188200D03*
D14*
X151751600Y-103913200D03*
X152251600Y-103913200D03*
X152751600Y-103913200D03*
X153251600Y-103913200D03*
D15*
X152051600Y-101988200D03*
X152051600Y-102888200D03*
X152951600Y-101988200D03*
X152951600Y-102888200D03*
D16*
X143359720Y-102997860D03*
X143359720Y-100457860D03*
X143359720Y-98425860D03*
X143359720Y-95885860D03*
D17*
X140692720Y-106045860D03*
X140692720Y-92329860D03*
D18*
X160000000Y-87000000D03*
X160000000Y-123000000D03*
D19*
X153000000Y-87500000D03*
X156000000Y-87500000D03*
X150000000Y-87500000D03*
X147000000Y-87500000D03*
X152933400Y-122504200D03*
X155946400Y-122500000D03*
X149946400Y-122500000D03*
X146989800Y-122504200D03*
D20*
X170197600Y-108981200D03*
X170197600Y-109931200D03*
X170197600Y-110881200D03*
X172397600Y-110881200D03*
X172397600Y-108981200D03*
X172397600Y-109931200D03*
D21*
X159788860Y-114112000D03*
X159788860Y-116012000D03*
X162791140Y-115062000D03*
X148358860Y-96586000D03*
X148358860Y-98486000D03*
X151361140Y-97536000D03*
X168653460Y-101729500D03*
X168653460Y-103629500D03*
X171655740Y-102679500D03*
X162791140Y-112964000D03*
X162791140Y-111064000D03*
X159788860Y-112014000D03*
X151361140Y-95438000D03*
X151361140Y-93538000D03*
X148358860Y-94488000D03*
X165432740Y-105534500D03*
X165432740Y-103634500D03*
X162430460Y-104584500D03*
X159788860Y-108016000D03*
X159788860Y-109916000D03*
X162791140Y-108966000D03*
X148358860Y-90490000D03*
X148358860Y-92390000D03*
X151361140Y-91440000D03*
X162430460Y-100650000D03*
X162430460Y-102550000D03*
X165432740Y-101600000D03*
D22*
X145643600Y-95872300D03*
X145643600Y-94373700D03*
X179000000Y-112749300D03*
X179000000Y-111250700D03*
X164312600Y-89293700D03*
X164312600Y-90792300D03*
D12*
X152054600Y-117602000D03*
X150154600Y-117602000D03*
X159806600Y-92456000D03*
X161706600Y-92456000D03*
X133898600Y-111252000D03*
X135798600Y-111252000D03*
D11*
X172059600Y-115382000D03*
X172059600Y-117282000D03*
D12*
X158206400Y-96723200D03*
X160106400Y-96723200D03*
X175422600Y-105029000D03*
X173522600Y-105029000D03*
X156626600Y-108712000D03*
X154726600Y-108712000D03*
X154218600Y-92456000D03*
X156118600Y-92456000D03*
D11*
X164312600Y-96840000D03*
X164312600Y-98740000D03*
D12*
X154726600Y-112268000D03*
X156626600Y-112268000D03*
X154726600Y-114046000D03*
X156626600Y-114046000D03*
X154726600Y-115824000D03*
X156626600Y-115824000D03*
X167858400Y-87528400D03*
X169758400Y-87528400D03*
D11*
X145643600Y-103952000D03*
X145643600Y-105852000D03*
X147421600Y-103952000D03*
X147421600Y-105852000D03*
X177469800Y-109408000D03*
X177469800Y-107508000D03*
D12*
X151297600Y-99491800D03*
X153197600Y-99491800D03*
X172374600Y-112801400D03*
X170474600Y-112801400D03*
X172247600Y-107391200D03*
X170347600Y-107391200D03*
X155869600Y-102870000D03*
X157769600Y-102870000D03*
X139296100Y-116586000D03*
X141196100Y-116586000D03*
D11*
X164312600Y-92649000D03*
X164312600Y-94549000D03*
X168148000Y-110678000D03*
X168148000Y-108778000D03*
X165963600Y-108778000D03*
X165963600Y-110678000D03*
D12*
X166131200Y-112776000D03*
X168031200Y-112776000D03*
D11*
X179044600Y-109408000D03*
X179044600Y-107508000D03*
X145643600Y-92644000D03*
X145643600Y-90744000D03*
D12*
X135798600Y-113030000D03*
X133898600Y-113030000D03*
X139486600Y-109474000D03*
X141386600Y-109474000D03*
X133924000Y-114808000D03*
X135824000Y-114808000D03*
X141386600Y-111252000D03*
X139486600Y-111252000D03*
X146720600Y-113030000D03*
X144820600Y-113030000D03*
X152054600Y-110490000D03*
X150154600Y-110490000D03*
X133924000Y-116586000D03*
X135824000Y-116586000D03*
X135824000Y-118364000D03*
X133924000Y-118364000D03*
X144820600Y-111252000D03*
X146720600Y-111252000D03*
X150154600Y-108712000D03*
X152054600Y-108712000D03*
X152054600Y-115824000D03*
X150154600Y-115824000D03*
X152054600Y-114046000D03*
X150154600Y-114046000D03*
X152054600Y-112268000D03*
X150154600Y-112268000D03*
D11*
X162534600Y-96840000D03*
X162534600Y-98740000D03*
D12*
X154218600Y-90678000D03*
X156118600Y-90678000D03*
X156626600Y-110490000D03*
X154726600Y-110490000D03*
D11*
X160502600Y-102880200D03*
X160502600Y-100980200D03*
D12*
X154218600Y-94234000D03*
X156118600Y-94234000D03*
X161452600Y-117602000D03*
X159552600Y-117602000D03*
X161706600Y-94234000D03*
X159806600Y-94234000D03*
D11*
X168757600Y-117282000D03*
X168757600Y-115382000D03*
D12*
X135798600Y-109474000D03*
X133898600Y-109474000D03*
X161706600Y-90678000D03*
X159806600Y-90678000D03*
X156626600Y-117602000D03*
X154726600Y-117602000D03*
D23*
X132500000Y-87500000D03*
D24*
X135040000Y-87500000D03*
X137580000Y-87500000D03*
X140120000Y-87500000D03*
D23*
X132500000Y-122500000D03*
D24*
X135040000Y-122500000D03*
X137580000Y-122500000D03*
X140120000Y-122500000D03*
D25*
X166750000Y-123000000D03*
X165500000Y-123000000D03*
X163000000Y-123000000D03*
X164250000Y-123000000D03*
D23*
X172500000Y-122500000D03*
D24*
X175040000Y-122500000D03*
X177580000Y-122500000D03*
D23*
X172500000Y-87500000D03*
D24*
X175040000Y-87500000D03*
X177580000Y-87500000D03*
D26*
X176396000Y-92159600D03*
X176396000Y-99559600D03*
X168996000Y-99159600D03*
D27*
X171196000Y-95859600D03*
D26*
X168996000Y-92559600D03*
D28*
X175296000Y-95859600D03*
D29*
X177477600Y-112014000D03*
X175277600Y-112014000D03*
X145686600Y-101092000D03*
X147886600Y-101092000D03*
X175572600Y-102616000D03*
X173372600Y-102616000D03*
X156294000Y-97536000D03*
X154094000Y-97536000D03*
X167216000Y-116078000D03*
X165016000Y-116078000D03*
D11*
X170408600Y-115382000D03*
X170408600Y-117282000D03*
D12*
X152054600Y-106934000D03*
X150154600Y-106934000D03*
D11*
X173710600Y-117282000D03*
X173710600Y-115382000D03*
D12*
X156626600Y-106934000D03*
X154726600Y-106934000D03*
X159552600Y-119380000D03*
X161452600Y-119380000D03*
X141386600Y-113030000D03*
X139486600Y-113030000D03*
M02*
