G04 #@! TF.FileFunction,Other,User*
%FSLAX46Y46*%
G04 Gerber Fmt 4.6, Leading zero omitted, Abs format (unit mm)*
G04 Created by KiCad (PCBNEW 4.0.2+dfsg1-stable) date tis  3 jan 2017 10:33:16*
%MOMM*%
G01*
G04 APERTURE LIST*
%ADD10C,0.100000*%
%ADD11C,0.050000*%
G04 APERTURE END LIST*
D10*
D11*
X169972600Y-104997000D02*
X178972600Y-104997000D01*
X178972600Y-104997000D02*
X178972600Y-100997000D01*
X178972600Y-100997000D02*
X169972600Y-100997000D01*
X169972600Y-100997000D02*
X169972600Y-104997000D01*
X146553800Y-102990400D02*
X155553800Y-102990400D01*
X155553800Y-102990400D02*
X155553800Y-98990400D01*
X155553800Y-98990400D02*
X146553800Y-98990400D01*
X146553800Y-98990400D02*
X146553800Y-102990400D01*
X163100000Y-112848000D02*
X163100000Y-121848000D01*
X163100000Y-121848000D02*
X167100000Y-121848000D01*
X167100000Y-121848000D02*
X167100000Y-112848000D01*
X167100000Y-112848000D02*
X163100000Y-112848000D01*
X153488000Y-99078800D02*
X162488000Y-99078800D01*
X162488000Y-99078800D02*
X162488000Y-95078800D01*
X162488000Y-95078800D02*
X153488000Y-95078800D01*
X153488000Y-95078800D02*
X153488000Y-99078800D01*
X158532000Y-119414000D02*
X163032000Y-119414000D01*
X163032000Y-119414000D02*
X163032000Y-117314000D01*
X163032000Y-117314000D02*
X158532000Y-117314000D01*
X158532000Y-119414000D02*
X158532000Y-117314000D01*
X148854600Y-97951000D02*
X153354600Y-97951000D01*
X153354600Y-97951000D02*
X153354600Y-95851000D01*
X153354600Y-95851000D02*
X148854600Y-95851000D01*
X148854600Y-97951000D02*
X148854600Y-95851000D01*
X163711600Y-105755000D02*
X163711600Y-101255000D01*
X163711600Y-101255000D02*
X161611600Y-101255000D01*
X161611600Y-101255000D02*
X161611600Y-105755000D01*
X163711600Y-105755000D02*
X161611600Y-105755000D01*
X173361600Y-110181000D02*
X173361600Y-119181000D01*
X173361600Y-119181000D02*
X177361600Y-119181000D01*
X177361600Y-119181000D02*
X177361600Y-110181000D01*
X177361600Y-110181000D02*
X173361600Y-110181000D01*
X139873600Y-96024000D02*
X136173600Y-96024000D01*
X139873600Y-97524000D02*
X136173600Y-97524000D01*
X139873600Y-96024000D02*
X139873600Y-97524000D01*
X136173600Y-96024000D02*
X136173600Y-97524000D01*
M02*
