G04 #@! TF.FileFunction,Legend,Bot*
%FSLAX46Y46*%
G04 Gerber Fmt 4.6, Leading zero omitted, Abs format (unit mm)*
G04 Created by KiCad (PCBNEW 4.0.2+dfsg1-stable) date tis 27 dec 2016 17:18:50*
%MOMM*%
G01*
G04 APERTURE LIST*
%ADD10C,0.100000*%
%ADD11C,0.200000*%
%ADD12C,0.010000*%
%ADD13C,0.150000*%
%ADD14C,0.037500*%
G04 APERTURE END LIST*
D10*
D11*
X170624476Y-108987758D02*
X170767333Y-108940139D01*
X171005429Y-108940139D01*
X171100667Y-108987758D01*
X171148286Y-109035377D01*
X171195905Y-109130615D01*
X171195905Y-109225853D01*
X171148286Y-109321091D01*
X171100667Y-109368710D01*
X171005429Y-109416330D01*
X170814952Y-109463949D01*
X170719714Y-109511568D01*
X170672095Y-109559187D01*
X170624476Y-109654425D01*
X170624476Y-109749663D01*
X170672095Y-109844901D01*
X170719714Y-109892520D01*
X170814952Y-109940139D01*
X171053048Y-109940139D01*
X171195905Y-109892520D01*
X171529238Y-109606806D02*
X171719714Y-108940139D01*
X171910191Y-109416330D01*
X172100667Y-108940139D01*
X172291143Y-109606806D01*
X173100667Y-108940139D02*
X173100667Y-109463949D01*
X173053048Y-109559187D01*
X172957810Y-109606806D01*
X172767333Y-109606806D01*
X172672095Y-109559187D01*
X173100667Y-108987758D02*
X173005429Y-108940139D01*
X172767333Y-108940139D01*
X172672095Y-108987758D01*
X172624476Y-109082996D01*
X172624476Y-109178234D01*
X172672095Y-109273472D01*
X172767333Y-109321091D01*
X173005429Y-109321091D01*
X173100667Y-109368710D01*
X173576857Y-108940139D02*
X173576857Y-109940139D01*
X173672095Y-109321091D02*
X173957810Y-108940139D01*
X173957810Y-109606806D02*
X173576857Y-109225853D01*
X174767334Y-108987758D02*
X174672096Y-108940139D01*
X174481619Y-108940139D01*
X174386381Y-108987758D01*
X174338762Y-109082996D01*
X174338762Y-109463949D01*
X174386381Y-109559187D01*
X174481619Y-109606806D01*
X174672096Y-109606806D01*
X174767334Y-109559187D01*
X174814953Y-109463949D01*
X174814953Y-109368710D01*
X174338762Y-109273472D01*
X175672096Y-109606806D02*
X175672096Y-108940139D01*
X175243524Y-109606806D02*
X175243524Y-109082996D01*
X175291143Y-108987758D01*
X175386381Y-108940139D01*
X175529239Y-108940139D01*
X175624477Y-108987758D01*
X175672096Y-109035377D01*
X176148286Y-109606806D02*
X176148286Y-108606806D01*
X176148286Y-109559187D02*
X176243524Y-109606806D01*
X176434001Y-109606806D01*
X176529239Y-109559187D01*
X176576858Y-109511568D01*
X176624477Y-109416330D01*
X176624477Y-109130615D01*
X176576858Y-109035377D01*
X176529239Y-108987758D01*
X176434001Y-108940139D01*
X176243524Y-108940139D01*
X176148286Y-108987758D01*
X170672095Y-107340139D02*
X170672095Y-108340139D01*
X171053048Y-108340139D01*
X171148286Y-108292520D01*
X171195905Y-108244901D01*
X171243524Y-108149663D01*
X171243524Y-108006806D01*
X171195905Y-107911568D01*
X171148286Y-107863949D01*
X171053048Y-107816330D01*
X170672095Y-107816330D01*
X171814952Y-107340139D02*
X171719714Y-107387758D01*
X171672095Y-107435377D01*
X171624476Y-107530615D01*
X171624476Y-107816330D01*
X171672095Y-107911568D01*
X171719714Y-107959187D01*
X171814952Y-108006806D01*
X171957810Y-108006806D01*
X172053048Y-107959187D01*
X172100667Y-107911568D01*
X172148286Y-107816330D01*
X172148286Y-107530615D01*
X172100667Y-107435377D01*
X172053048Y-107387758D01*
X171957810Y-107340139D01*
X171814952Y-107340139D01*
X172481619Y-108006806D02*
X172672095Y-107340139D01*
X172862572Y-107816330D01*
X173053048Y-107340139D01*
X173243524Y-108006806D01*
X174005429Y-107387758D02*
X173910191Y-107340139D01*
X173719714Y-107340139D01*
X173624476Y-107387758D01*
X173576857Y-107482996D01*
X173576857Y-107863949D01*
X173624476Y-107959187D01*
X173719714Y-108006806D01*
X173910191Y-108006806D01*
X174005429Y-107959187D01*
X174053048Y-107863949D01*
X174053048Y-107768710D01*
X173576857Y-107673472D01*
X174481619Y-107340139D02*
X174481619Y-108006806D01*
X174481619Y-107816330D02*
X174529238Y-107911568D01*
X174576857Y-107959187D01*
X174672095Y-108006806D01*
X174767334Y-108006806D01*
X176195906Y-107863949D02*
X176338763Y-107816330D01*
X176386382Y-107768710D01*
X176434001Y-107673472D01*
X176434001Y-107530615D01*
X176386382Y-107435377D01*
X176338763Y-107387758D01*
X176243525Y-107340139D01*
X175862572Y-107340139D01*
X175862572Y-108340139D01*
X176195906Y-108340139D01*
X176291144Y-108292520D01*
X176338763Y-108244901D01*
X176386382Y-108149663D01*
X176386382Y-108054425D01*
X176338763Y-107959187D01*
X176291144Y-107911568D01*
X176195906Y-107863949D01*
X175862572Y-107863949D01*
X177005429Y-107340139D02*
X176910191Y-107387758D01*
X176862572Y-107435377D01*
X176814953Y-107530615D01*
X176814953Y-107816330D01*
X176862572Y-107911568D01*
X176910191Y-107959187D01*
X177005429Y-108006806D01*
X177148287Y-108006806D01*
X177243525Y-107959187D01*
X177291144Y-107911568D01*
X177338763Y-107816330D01*
X177338763Y-107530615D01*
X177291144Y-107435377D01*
X177243525Y-107387758D01*
X177148287Y-107340139D01*
X177005429Y-107340139D01*
X178195906Y-107340139D02*
X178195906Y-107863949D01*
X178148287Y-107959187D01*
X178053049Y-108006806D01*
X177862572Y-108006806D01*
X177767334Y-107959187D01*
X178195906Y-107387758D02*
X178100668Y-107340139D01*
X177862572Y-107340139D01*
X177767334Y-107387758D01*
X177719715Y-107482996D01*
X177719715Y-107578234D01*
X177767334Y-107673472D01*
X177862572Y-107721091D01*
X178100668Y-107721091D01*
X178195906Y-107768710D01*
X178672096Y-107340139D02*
X178672096Y-108006806D01*
X178672096Y-107816330D02*
X178719715Y-107911568D01*
X178767334Y-107959187D01*
X178862572Y-108006806D01*
X178957811Y-108006806D01*
X179719716Y-107340139D02*
X179719716Y-108340139D01*
X179719716Y-107387758D02*
X179624478Y-107340139D01*
X179434001Y-107340139D01*
X179338763Y-107387758D01*
X179291144Y-107435377D01*
X179243525Y-107530615D01*
X179243525Y-107816330D01*
X179291144Y-107911568D01*
X179338763Y-107959187D01*
X179434001Y-108006806D01*
X179624478Y-108006806D01*
X179719716Y-107959187D01*
X170576857Y-106406806D02*
X170814952Y-105740139D01*
X171053048Y-106406806D01*
X171957810Y-105740139D02*
X171386381Y-105740139D01*
X171672095Y-105740139D02*
X171672095Y-106740139D01*
X171576857Y-106597282D01*
X171481619Y-106502044D01*
X171386381Y-106454425D01*
X172386381Y-105835377D02*
X172434000Y-105787758D01*
X172386381Y-105740139D01*
X172338762Y-105787758D01*
X172386381Y-105835377D01*
X172386381Y-105740139D01*
X173053047Y-106740139D02*
X173148286Y-106740139D01*
X173243524Y-106692520D01*
X173291143Y-106644901D01*
X173338762Y-106549663D01*
X173386381Y-106359187D01*
X173386381Y-106121091D01*
X173338762Y-105930615D01*
X173291143Y-105835377D01*
X173243524Y-105787758D01*
X173148286Y-105740139D01*
X173053047Y-105740139D01*
X172957809Y-105787758D01*
X172910190Y-105835377D01*
X172862571Y-105930615D01*
X172814952Y-106121091D01*
X172814952Y-106359187D01*
X172862571Y-106549663D01*
X172910190Y-106644901D01*
X172957809Y-106692520D01*
X173053047Y-106740139D01*
X131695795Y-113756079D02*
X131695795Y-114756079D01*
X132029129Y-114041793D01*
X132362462Y-114756079D01*
X132362462Y-113756079D01*
X133267224Y-113756079D02*
X133267224Y-114279889D01*
X133219605Y-114375127D01*
X133124367Y-114422746D01*
X132933890Y-114422746D01*
X132838652Y-114375127D01*
X133267224Y-113803698D02*
X133171986Y-113756079D01*
X132933890Y-113756079D01*
X132838652Y-113803698D01*
X132791033Y-113898936D01*
X132791033Y-113994174D01*
X132838652Y-114089412D01*
X132933890Y-114137031D01*
X133171986Y-114137031D01*
X133267224Y-114184650D01*
X133648176Y-113756079D02*
X134171986Y-114422746D01*
X133648176Y-114422746D02*
X134171986Y-113756079D01*
X136124367Y-113756079D02*
X136076748Y-113756079D01*
X135981510Y-113803698D01*
X135838653Y-113946555D01*
X135600558Y-114232270D01*
X135505319Y-114375127D01*
X135457700Y-114517984D01*
X135457700Y-114613222D01*
X135505319Y-114708460D01*
X135600558Y-114756079D01*
X135648177Y-114756079D01*
X135743415Y-114708460D01*
X135791034Y-114613222D01*
X135791034Y-114565603D01*
X135743415Y-114470365D01*
X135695796Y-114422746D01*
X135410081Y-114232270D01*
X135362462Y-114184650D01*
X135314843Y-114089412D01*
X135314843Y-113946555D01*
X135362462Y-113851317D01*
X135410081Y-113803698D01*
X135505319Y-113756079D01*
X135648177Y-113756079D01*
X135743415Y-113803698D01*
X135791034Y-113851317D01*
X135933891Y-114041793D01*
X135981510Y-114184650D01*
X135981510Y-114279889D01*
X137314843Y-114279889D02*
X137648177Y-114279889D01*
X137791034Y-113756079D02*
X137314843Y-113756079D01*
X137314843Y-114756079D01*
X137791034Y-114756079D01*
X138362462Y-113756079D02*
X138267224Y-113803698D01*
X138219605Y-113898936D01*
X138219605Y-114756079D01*
X138743415Y-113756079D02*
X138743415Y-114422746D01*
X138743415Y-114327508D02*
X138791034Y-114375127D01*
X138886272Y-114422746D01*
X139029130Y-114422746D01*
X139124368Y-114375127D01*
X139171987Y-114279889D01*
X139171987Y-113756079D01*
X139171987Y-114279889D02*
X139219606Y-114375127D01*
X139314844Y-114422746D01*
X139457701Y-114422746D01*
X139552939Y-114375127D01*
X139600558Y-114279889D01*
X139600558Y-113756079D01*
X140505320Y-113756079D02*
X140505320Y-114279889D01*
X140457701Y-114375127D01*
X140362463Y-114422746D01*
X140171986Y-114422746D01*
X140076748Y-114375127D01*
X140505320Y-113803698D02*
X140410082Y-113756079D01*
X140171986Y-113756079D01*
X140076748Y-113803698D01*
X140029129Y-113898936D01*
X140029129Y-113994174D01*
X140076748Y-114089412D01*
X140171986Y-114137031D01*
X140410082Y-114137031D01*
X140505320Y-114184650D01*
X140981510Y-113756079D02*
X140981510Y-114422746D01*
X140981510Y-114232270D02*
X141029129Y-114327508D01*
X141076748Y-114375127D01*
X141171986Y-114422746D01*
X141267225Y-114422746D01*
X131695795Y-112156079D02*
X131695795Y-113156079D01*
X131933890Y-113156079D01*
X132076748Y-113108460D01*
X132171986Y-113013222D01*
X132219605Y-112917984D01*
X132267224Y-112727508D01*
X132267224Y-112584650D01*
X132219605Y-112394174D01*
X132171986Y-112298936D01*
X132076748Y-112203698D01*
X131933890Y-112156079D01*
X131695795Y-112156079D01*
X133076748Y-112203698D02*
X132981510Y-112156079D01*
X132791033Y-112156079D01*
X132695795Y-112203698D01*
X132648176Y-112298936D01*
X132648176Y-112679889D01*
X132695795Y-112775127D01*
X132791033Y-112822746D01*
X132981510Y-112822746D01*
X133076748Y-112775127D01*
X133124367Y-112679889D01*
X133124367Y-112584650D01*
X132648176Y-112489412D01*
X133981510Y-112203698D02*
X133886272Y-112156079D01*
X133695795Y-112156079D01*
X133600557Y-112203698D01*
X133552938Y-112251317D01*
X133505319Y-112346555D01*
X133505319Y-112632270D01*
X133552938Y-112727508D01*
X133600557Y-112775127D01*
X133695795Y-112822746D01*
X133886272Y-112822746D01*
X133981510Y-112775127D01*
X134791034Y-112203698D02*
X134695796Y-112156079D01*
X134505319Y-112156079D01*
X134410081Y-112203698D01*
X134362462Y-112298936D01*
X134362462Y-112679889D01*
X134410081Y-112775127D01*
X134505319Y-112822746D01*
X134695796Y-112822746D01*
X134791034Y-112775127D01*
X134838653Y-112679889D01*
X134838653Y-112584650D01*
X134362462Y-112489412D01*
X135267224Y-112156079D02*
X135267224Y-112822746D01*
X135267224Y-112727508D02*
X135314843Y-112775127D01*
X135410081Y-112822746D01*
X135552939Y-112822746D01*
X135648177Y-112775127D01*
X135695796Y-112679889D01*
X135695796Y-112156079D01*
X135695796Y-112679889D02*
X135743415Y-112775127D01*
X135838653Y-112822746D01*
X135981510Y-112822746D01*
X136076748Y-112775127D01*
X136124367Y-112679889D01*
X136124367Y-112156079D01*
X136600557Y-112156079D02*
X136600557Y-113156079D01*
X136600557Y-112775127D02*
X136695795Y-112822746D01*
X136886272Y-112822746D01*
X136981510Y-112775127D01*
X137029129Y-112727508D01*
X137076748Y-112632270D01*
X137076748Y-112346555D01*
X137029129Y-112251317D01*
X136981510Y-112203698D01*
X136886272Y-112156079D01*
X136695795Y-112156079D01*
X136600557Y-112203698D01*
X137886272Y-112203698D02*
X137791034Y-112156079D01*
X137600557Y-112156079D01*
X137505319Y-112203698D01*
X137457700Y-112298936D01*
X137457700Y-112679889D01*
X137505319Y-112775127D01*
X137600557Y-112822746D01*
X137791034Y-112822746D01*
X137886272Y-112775127D01*
X137933891Y-112679889D01*
X137933891Y-112584650D01*
X137457700Y-112489412D01*
X138362462Y-112156079D02*
X138362462Y-112822746D01*
X138362462Y-112632270D02*
X138410081Y-112727508D01*
X138457700Y-112775127D01*
X138552938Y-112822746D01*
X138648177Y-112822746D01*
X139695796Y-113060841D02*
X139743415Y-113108460D01*
X139838653Y-113156079D01*
X140076749Y-113156079D01*
X140171987Y-113108460D01*
X140219606Y-113060841D01*
X140267225Y-112965603D01*
X140267225Y-112870365D01*
X140219606Y-112727508D01*
X139648177Y-112156079D01*
X140267225Y-112156079D01*
X140886272Y-113156079D02*
X140981511Y-113156079D01*
X141076749Y-113108460D01*
X141124368Y-113060841D01*
X141171987Y-112965603D01*
X141219606Y-112775127D01*
X141219606Y-112537031D01*
X141171987Y-112346555D01*
X141124368Y-112251317D01*
X141076749Y-112203698D01*
X140981511Y-112156079D01*
X140886272Y-112156079D01*
X140791034Y-112203698D01*
X140743415Y-112251317D01*
X140695796Y-112346555D01*
X140648177Y-112537031D01*
X140648177Y-112775127D01*
X140695796Y-112965603D01*
X140743415Y-113060841D01*
X140791034Y-113108460D01*
X140886272Y-113156079D01*
X142171987Y-112156079D02*
X141600558Y-112156079D01*
X141886272Y-112156079D02*
X141886272Y-113156079D01*
X141791034Y-113013222D01*
X141695796Y-112917984D01*
X141600558Y-112870365D01*
X143029130Y-113156079D02*
X142838653Y-113156079D01*
X142743415Y-113108460D01*
X142695796Y-113060841D01*
X142600558Y-112917984D01*
X142552939Y-112727508D01*
X142552939Y-112346555D01*
X142600558Y-112251317D01*
X142648177Y-112203698D01*
X142743415Y-112156079D01*
X142933892Y-112156079D01*
X143029130Y-112203698D01*
X143076749Y-112251317D01*
X143124368Y-112346555D01*
X143124368Y-112584650D01*
X143076749Y-112679889D01*
X143029130Y-112727508D01*
X142933892Y-112775127D01*
X142743415Y-112775127D01*
X142648177Y-112727508D01*
X142600558Y-112679889D01*
X142552939Y-112584650D01*
D12*
G36*
X155167055Y-118397356D02*
X156383607Y-118113180D01*
X157600761Y-117615956D01*
X157612702Y-117610043D01*
X158174502Y-117319114D01*
X158612169Y-117053992D01*
X158999058Y-116761382D01*
X159408525Y-116387988D01*
X159717409Y-116080894D01*
X160647667Y-114993418D01*
X161375485Y-113821323D01*
X161898743Y-112568087D01*
X161940527Y-112435860D01*
X162160212Y-111368795D01*
X162203190Y-110225628D01*
X162080528Y-109046558D01*
X161803290Y-107871780D01*
X161382543Y-106741491D01*
X160829352Y-105695888D01*
X160154784Y-104775165D01*
X159702098Y-104304707D01*
X158896736Y-103666223D01*
X157944327Y-103094084D01*
X156916943Y-102626889D01*
X156032635Y-102339570D01*
X155537266Y-102244516D01*
X154907002Y-102171757D01*
X154218369Y-102125455D01*
X153547895Y-102109771D01*
X152972104Y-102128867D01*
X152704800Y-102158608D01*
X151322795Y-102477331D01*
X150074778Y-102969490D01*
X148963168Y-103633996D01*
X148358589Y-104118617D01*
X147661781Y-104848883D01*
X147019373Y-105730203D01*
X146476465Y-106692957D01*
X146097596Y-107608686D01*
X145961740Y-108027566D01*
X145867720Y-108374165D01*
X145808022Y-108706719D01*
X145775132Y-109083464D01*
X145761539Y-109562636D01*
X145759870Y-110152379D01*
X145924867Y-110152379D01*
X145955282Y-109382533D01*
X146021546Y-108658391D01*
X146121541Y-108042442D01*
X146220257Y-107681016D01*
X146746359Y-106471280D01*
X147405520Y-105427364D01*
X148214235Y-104527477D01*
X149189001Y-103749831D01*
X149204537Y-103739280D01*
X149675499Y-103434535D01*
X150148025Y-103152982D01*
X150551041Y-102935974D01*
X150716974Y-102859259D01*
X151216160Y-102686161D01*
X151843237Y-102516966D01*
X152505906Y-102372886D01*
X153111867Y-102275136D01*
X153367409Y-102250085D01*
X153975630Y-102247188D01*
X154692137Y-102300330D01*
X155414840Y-102398282D01*
X156041648Y-102529811D01*
X156128278Y-102553818D01*
X156947674Y-102849568D01*
X157790541Y-103256858D01*
X158606369Y-103743310D01*
X159344648Y-104276550D01*
X159954867Y-104824200D01*
X160300368Y-105228018D01*
X161011490Y-106368970D01*
X161538329Y-107574478D01*
X161876245Y-108818187D01*
X162020602Y-110073742D01*
X161966759Y-111314787D01*
X161710079Y-112514968D01*
X161627240Y-112767165D01*
X161092309Y-113968220D01*
X160375484Y-115061097D01*
X159497383Y-116025114D01*
X158478625Y-116839592D01*
X157339829Y-117483851D01*
X156640627Y-117768499D01*
X156170145Y-117923188D01*
X155752580Y-118027373D01*
X155313047Y-118093552D01*
X154776657Y-118134223D01*
X154336662Y-118153042D01*
X153726603Y-118169211D01*
X153264833Y-118162500D01*
X152879320Y-118125592D01*
X152498035Y-118051172D01*
X152048946Y-117931924D01*
X151987894Y-117914489D01*
X150888829Y-117525762D01*
X149823187Y-117010777D01*
X148857082Y-116405114D01*
X148191779Y-115871467D01*
X147659702Y-115290183D01*
X147143950Y-114550129D01*
X146679135Y-113712645D01*
X146299873Y-112839073D01*
X146069930Y-112111263D01*
X145980071Y-111579232D01*
X145932423Y-110905441D01*
X145924867Y-110152379D01*
X145759870Y-110152379D01*
X145759728Y-110202470D01*
X145759783Y-110227165D01*
X145765569Y-110892378D01*
X145783767Y-111392996D01*
X145820913Y-111785215D01*
X145883542Y-112125231D01*
X145978189Y-112469240D01*
X146044477Y-112675134D01*
X146570561Y-113933482D01*
X147265111Y-115049912D01*
X148125013Y-116020792D01*
X149147151Y-116842490D01*
X150094595Y-117397587D01*
X151414877Y-117968600D01*
X152693304Y-118325366D01*
X153940492Y-118468184D01*
X155167055Y-118397356D01*
X155167055Y-118397356D01*
G37*
X155167055Y-118397356D02*
X156383607Y-118113180D01*
X157600761Y-117615956D01*
X157612702Y-117610043D01*
X158174502Y-117319114D01*
X158612169Y-117053992D01*
X158999058Y-116761382D01*
X159408525Y-116387988D01*
X159717409Y-116080894D01*
X160647667Y-114993418D01*
X161375485Y-113821323D01*
X161898743Y-112568087D01*
X161940527Y-112435860D01*
X162160212Y-111368795D01*
X162203190Y-110225628D01*
X162080528Y-109046558D01*
X161803290Y-107871780D01*
X161382543Y-106741491D01*
X160829352Y-105695888D01*
X160154784Y-104775165D01*
X159702098Y-104304707D01*
X158896736Y-103666223D01*
X157944327Y-103094084D01*
X156916943Y-102626889D01*
X156032635Y-102339570D01*
X155537266Y-102244516D01*
X154907002Y-102171757D01*
X154218369Y-102125455D01*
X153547895Y-102109771D01*
X152972104Y-102128867D01*
X152704800Y-102158608D01*
X151322795Y-102477331D01*
X150074778Y-102969490D01*
X148963168Y-103633996D01*
X148358589Y-104118617D01*
X147661781Y-104848883D01*
X147019373Y-105730203D01*
X146476465Y-106692957D01*
X146097596Y-107608686D01*
X145961740Y-108027566D01*
X145867720Y-108374165D01*
X145808022Y-108706719D01*
X145775132Y-109083464D01*
X145761539Y-109562636D01*
X145759870Y-110152379D01*
X145924867Y-110152379D01*
X145955282Y-109382533D01*
X146021546Y-108658391D01*
X146121541Y-108042442D01*
X146220257Y-107681016D01*
X146746359Y-106471280D01*
X147405520Y-105427364D01*
X148214235Y-104527477D01*
X149189001Y-103749831D01*
X149204537Y-103739280D01*
X149675499Y-103434535D01*
X150148025Y-103152982D01*
X150551041Y-102935974D01*
X150716974Y-102859259D01*
X151216160Y-102686161D01*
X151843237Y-102516966D01*
X152505906Y-102372886D01*
X153111867Y-102275136D01*
X153367409Y-102250085D01*
X153975630Y-102247188D01*
X154692137Y-102300330D01*
X155414840Y-102398282D01*
X156041648Y-102529811D01*
X156128278Y-102553818D01*
X156947674Y-102849568D01*
X157790541Y-103256858D01*
X158606369Y-103743310D01*
X159344648Y-104276550D01*
X159954867Y-104824200D01*
X160300368Y-105228018D01*
X161011490Y-106368970D01*
X161538329Y-107574478D01*
X161876245Y-108818187D01*
X162020602Y-110073742D01*
X161966759Y-111314787D01*
X161710079Y-112514968D01*
X161627240Y-112767165D01*
X161092309Y-113968220D01*
X160375484Y-115061097D01*
X159497383Y-116025114D01*
X158478625Y-116839592D01*
X157339829Y-117483851D01*
X156640627Y-117768499D01*
X156170145Y-117923188D01*
X155752580Y-118027373D01*
X155313047Y-118093552D01*
X154776657Y-118134223D01*
X154336662Y-118153042D01*
X153726603Y-118169211D01*
X153264833Y-118162500D01*
X152879320Y-118125592D01*
X152498035Y-118051172D01*
X152048946Y-117931924D01*
X151987894Y-117914489D01*
X150888829Y-117525762D01*
X149823187Y-117010777D01*
X148857082Y-116405114D01*
X148191779Y-115871467D01*
X147659702Y-115290183D01*
X147143950Y-114550129D01*
X146679135Y-113712645D01*
X146299873Y-112839073D01*
X146069930Y-112111263D01*
X145980071Y-111579232D01*
X145932423Y-110905441D01*
X145924867Y-110152379D01*
X145759870Y-110152379D01*
X145759728Y-110202470D01*
X145759783Y-110227165D01*
X145765569Y-110892378D01*
X145783767Y-111392996D01*
X145820913Y-111785215D01*
X145883542Y-112125231D01*
X145978189Y-112469240D01*
X146044477Y-112675134D01*
X146570561Y-113933482D01*
X147265111Y-115049912D01*
X148125013Y-116020792D01*
X149147151Y-116842490D01*
X150094595Y-117397587D01*
X151414877Y-117968600D01*
X152693304Y-118325366D01*
X153940492Y-118468184D01*
X155167055Y-118397356D01*
G36*
X155047905Y-117808467D02*
X155799998Y-117722672D01*
X155967412Y-117689267D01*
X156946693Y-117367520D01*
X157913779Y-116856102D01*
X158835278Y-116185192D01*
X159677799Y-115384971D01*
X160407952Y-114485616D01*
X160992346Y-113517309D01*
X161264527Y-112901624D01*
X161537478Y-111916781D01*
X161661734Y-110834505D01*
X161643005Y-109706102D01*
X161487002Y-108582879D01*
X161199434Y-107516141D01*
X160786012Y-106557197D01*
X160506884Y-106094064D01*
X159812251Y-105184475D01*
X159071385Y-104450781D01*
X158230628Y-103848133D01*
X157236319Y-103331680D01*
X157162850Y-103299036D01*
X156364261Y-102984877D01*
X155605172Y-102775743D01*
X154807501Y-102656347D01*
X153893164Y-102611401D01*
X153643496Y-102609998D01*
X153080167Y-102622963D01*
X152619846Y-102671537D01*
X152164547Y-102772397D01*
X151616281Y-102942217D01*
X151539423Y-102968077D01*
X150488171Y-103383304D01*
X149588776Y-103876516D01*
X148775981Y-104485152D01*
X148558295Y-104678357D01*
X147840405Y-105476842D01*
X147240845Y-106426219D01*
X146772056Y-107483552D01*
X146446476Y-108605903D01*
X146276547Y-109750333D01*
X146275336Y-110490319D01*
X146418607Y-110490319D01*
X146431523Y-110115523D01*
X146488293Y-109637413D01*
X146520726Y-109415472D01*
X146818580Y-108066733D01*
X147284519Y-106857776D01*
X147915400Y-105792507D01*
X148708080Y-104874835D01*
X149659415Y-104108666D01*
X150766260Y-103497908D01*
X151519445Y-103202314D01*
X152040148Y-103033614D01*
X152457636Y-102926542D01*
X152856843Y-102867670D01*
X153322704Y-102843572D01*
X153809148Y-102840328D01*
X155023931Y-102843418D01*
X154480114Y-103010334D01*
X154084343Y-103106344D01*
X153807118Y-103102460D01*
X153674266Y-103057859D01*
X153405285Y-102977923D01*
X153097657Y-102943317D01*
X152826233Y-102954694D01*
X152665867Y-103012710D01*
X152649583Y-103048904D01*
X152744145Y-103131726D01*
X152927456Y-103159339D01*
X153153499Y-103220214D01*
X153332292Y-103435108D01*
X153392487Y-103551810D01*
X153505023Y-103867267D01*
X153476556Y-104093216D01*
X153284886Y-104253966D01*
X152907813Y-104373827D01*
X152585092Y-104435936D01*
X151579109Y-104708260D01*
X150686325Y-105168420D01*
X149903266Y-105818897D01*
X149226460Y-106662173D01*
X149029107Y-106977638D01*
X148473264Y-108101773D01*
X148135448Y-109213318D01*
X148077126Y-109743661D01*
X148232192Y-109743661D01*
X148273472Y-109525840D01*
X148383026Y-109164567D01*
X148539421Y-108718224D01*
X148721229Y-108245193D01*
X148907016Y-107803855D01*
X149068356Y-107465827D01*
X149668819Y-106518297D01*
X150378096Y-105760662D01*
X151205185Y-105185790D01*
X152159084Y-104786547D01*
X152594365Y-104670730D01*
X152800056Y-104623934D01*
X152870452Y-104607801D01*
X152903317Y-104673292D01*
X153303879Y-104673292D01*
X153550931Y-104410317D01*
X153706367Y-104209669D01*
X153742630Y-104009663D01*
X153683634Y-103718933D01*
X153619151Y-103452017D01*
X153629267Y-103355852D01*
X153726257Y-103389295D01*
X153773407Y-103418000D01*
X153972396Y-103483680D01*
X154205131Y-103405641D01*
X154279860Y-103362504D01*
X154497339Y-103233284D01*
X154611358Y-103170092D01*
X154613098Y-103169435D01*
X154582742Y-103248591D01*
X154470627Y-103460967D01*
X154392228Y-103600693D01*
X154243205Y-103884256D01*
X154202612Y-104071086D01*
X154260802Y-104251107D01*
X154312273Y-104346128D01*
X154484093Y-104650208D01*
X153303879Y-104673292D01*
X152903317Y-104673292D01*
X152912483Y-104691556D01*
X152925670Y-104859683D01*
X152906149Y-104973170D01*
X153258045Y-104973170D01*
X153312192Y-104926295D01*
X153577662Y-104827995D01*
X153820306Y-104848443D01*
X153917733Y-104924845D01*
X154141731Y-104924845D01*
X154143014Y-104922150D01*
X154274879Y-104882240D01*
X154543393Y-104883395D01*
X154665039Y-104895542D01*
X154947191Y-104921103D01*
X155046810Y-104895526D01*
X154998193Y-104809718D01*
X154996322Y-104807726D01*
X154878013Y-104641794D01*
X154858278Y-104578186D01*
X154951032Y-104550579D01*
X155200519Y-104602866D01*
X155563577Y-104720995D01*
X155997044Y-104890916D01*
X156457758Y-105098578D01*
X156459583Y-105099458D01*
X157208359Y-105565432D01*
X157918792Y-106205248D01*
X158546082Y-106971975D01*
X159035196Y-107797600D01*
X159340860Y-108471261D01*
X159540422Y-109016949D01*
X159629675Y-109418663D01*
X159604413Y-109660400D01*
X159540374Y-109719295D01*
X159425231Y-109675565D01*
X159305522Y-109443124D01*
X159209949Y-109146243D01*
X158800776Y-108097554D01*
X158197489Y-107148765D01*
X157660050Y-106541915D01*
X156879411Y-105862262D01*
X156102337Y-105393544D01*
X155311763Y-105126790D01*
X154842899Y-105061263D01*
X154477171Y-105023333D01*
X154226320Y-104974456D01*
X154141731Y-104924845D01*
X153917733Y-104924845D01*
X153919583Y-104926295D01*
X153871441Y-104999758D01*
X153641881Y-105033953D01*
X153567187Y-105035039D01*
X153312756Y-105020258D01*
X153258045Y-104973170D01*
X152906149Y-104973170D01*
X152898365Y-105018421D01*
X152782201Y-105124029D01*
X152525804Y-105210291D01*
X152318278Y-105259099D01*
X151554356Y-105492242D01*
X150910403Y-105842265D01*
X150332284Y-106345311D01*
X149874158Y-106891017D01*
X149632344Y-107270089D01*
X149380802Y-107760630D01*
X149144954Y-108300470D01*
X148950223Y-108827442D01*
X148894253Y-109024762D01*
X149198000Y-109024762D01*
X149208634Y-108906601D01*
X149386145Y-108135508D01*
X149767975Y-107391286D01*
X150362278Y-106658139D01*
X150377946Y-106641867D01*
X150934815Y-106125814D01*
X151489255Y-105757587D01*
X152113943Y-105498923D01*
X152881552Y-105311561D01*
X152917643Y-105304749D01*
X153298506Y-105255067D01*
X153760397Y-105225874D01*
X154245664Y-105216800D01*
X154696652Y-105227471D01*
X155055710Y-105257515D01*
X155265182Y-105306560D01*
X155285665Y-105320045D01*
X155292961Y-105423190D01*
X155478440Y-105423190D01*
X155580070Y-105384225D01*
X155811363Y-105463763D01*
X156193258Y-105666389D01*
X156370989Y-105769964D01*
X156823752Y-106077596D01*
X157290953Y-106456879D01*
X157583259Y-106735789D01*
X157820808Y-106991049D01*
X157960783Y-107149405D01*
X157977744Y-107181865D01*
X157967018Y-107173163D01*
X157814958Y-107116859D01*
X157633367Y-107232141D01*
X157599566Y-107265008D01*
X157382513Y-107405588D01*
X157211792Y-107418364D01*
X157092201Y-107415776D01*
X157106430Y-107520260D01*
X157135309Y-107668946D01*
X157046653Y-107642709D01*
X156851236Y-107446402D01*
X156793771Y-107379428D01*
X156541305Y-107153710D01*
X156184451Y-106919188D01*
X155974066Y-106809045D01*
X155662485Y-106656368D01*
X155524152Y-106557246D01*
X155529901Y-106476849D01*
X155628122Y-106395933D01*
X155772923Y-106223746D01*
X155784820Y-106094009D01*
X155797190Y-105927111D01*
X155918313Y-105842441D01*
X156056377Y-105896394D01*
X156071604Y-105917850D01*
X156172720Y-105991663D01*
X156231908Y-105931219D01*
X156220311Y-105803782D01*
X156058283Y-105722143D01*
X155815642Y-105715536D01*
X155749631Y-105729278D01*
X155554131Y-105701683D01*
X155485534Y-105576074D01*
X155478440Y-105423190D01*
X155292961Y-105423190D01*
X155294298Y-105442089D01*
X155262951Y-105694124D01*
X155253052Y-105749407D01*
X155147865Y-106050238D01*
X154991318Y-106144991D01*
X154901364Y-106174013D01*
X154905787Y-106178228D01*
X155357678Y-106178228D01*
X155370273Y-106086495D01*
X155483996Y-105981989D01*
X155602906Y-106040826D01*
X155631322Y-106147595D01*
X155542020Y-106240358D01*
X155469136Y-106251513D01*
X155357678Y-106178228D01*
X154905787Y-106178228D01*
X154998912Y-106266969D01*
X155079148Y-106318271D01*
X155219416Y-106419027D01*
X155193047Y-106438724D01*
X155179287Y-106434902D01*
X154450534Y-106299061D01*
X153694305Y-106332755D01*
X152899739Y-106523729D01*
X152377398Y-106708135D01*
X151980852Y-106905403D01*
X151864791Y-106989411D01*
X152728005Y-106989411D01*
X152850000Y-106880275D01*
X153138907Y-106770688D01*
X153184566Y-106756465D01*
X153542779Y-106648774D01*
X153745109Y-106601444D01*
X153846335Y-106608458D01*
X153901233Y-106663802D01*
X153909449Y-106676855D01*
X153851977Y-106762115D01*
X153814263Y-106780391D01*
X154264104Y-106780391D01*
X154279621Y-106669030D01*
X154459235Y-106620929D01*
X154675531Y-106644556D01*
X154936027Y-106707055D01*
X155086055Y-106755334D01*
X155088344Y-106756594D01*
X155118385Y-106879452D01*
X155103790Y-107126879D01*
X155101040Y-107146331D01*
X155058590Y-107378942D01*
X155000413Y-107417721D01*
X154881493Y-107287758D01*
X154870975Y-107274553D01*
X154626048Y-107042544D01*
X154441055Y-106921506D01*
X154264104Y-106780391D01*
X153814263Y-106780391D01*
X153638755Y-106865440D01*
X153523606Y-106903907D01*
X153231698Y-107022742D01*
X153043210Y-107157577D01*
X153018451Y-107196391D01*
X152905740Y-107344810D01*
X152788841Y-107284295D01*
X152728099Y-107135295D01*
X152728005Y-106989411D01*
X151864791Y-106989411D01*
X151618541Y-107167653D01*
X151350418Y-107404794D01*
X152060337Y-107404794D01*
X152104030Y-107292666D01*
X152324197Y-107145846D01*
X152530498Y-107209428D01*
X152644920Y-107383469D01*
X152732868Y-107666893D01*
X152807256Y-108012350D01*
X152809895Y-108028416D01*
X152817224Y-108049717D01*
X153233557Y-108049717D01*
X153267571Y-107670796D01*
X153434847Y-107333859D01*
X153707319Y-107099025D01*
X154007868Y-107024556D01*
X154212416Y-107098805D01*
X154467508Y-107283462D01*
X154535469Y-107347365D01*
X154768606Y-107647709D01*
X154853675Y-107984243D01*
X154858278Y-108126044D01*
X154839387Y-108426953D01*
X154744219Y-108596872D01*
X154515031Y-108724903D01*
X154504475Y-108729387D01*
X155102775Y-108729387D01*
X155127603Y-108335552D01*
X155184536Y-107729788D01*
X155238489Y-107315882D01*
X155306949Y-107065769D01*
X155407402Y-106951388D01*
X155557335Y-106944677D01*
X155774236Y-107017572D01*
X155913090Y-107075030D01*
X156298199Y-107235939D01*
X155826717Y-108145568D01*
X155543306Y-108666485D01*
X155335221Y-108983690D01*
X155237402Y-109064843D01*
X155631322Y-109064843D01*
X155677622Y-108945562D01*
X155800361Y-108681436D01*
X155975301Y-108324209D01*
X156020479Y-108234106D01*
X156221207Y-107848398D01*
X156360743Y-107629386D01*
X156470727Y-107543354D01*
X156582800Y-107556586D01*
X156633342Y-107581069D01*
X156851738Y-107773563D01*
X156920330Y-107879385D01*
X157262228Y-107879385D01*
X157318053Y-107895602D01*
X157386229Y-107953372D01*
X157576676Y-108082037D01*
X157694589Y-108090274D01*
X157677332Y-107978258D01*
X157566748Y-107868533D01*
X157440957Y-107726576D01*
X157491983Y-107642287D01*
X157605162Y-107639685D01*
X157619148Y-107687165D01*
X157685726Y-107760697D01*
X157724760Y-107745363D01*
X157784922Y-107601699D01*
X157768162Y-107517976D01*
X157774931Y-107378320D01*
X157828202Y-107355860D01*
X157928002Y-107448083D01*
X157950452Y-107573264D01*
X158003105Y-107731122D01*
X158118923Y-107726019D01*
X158227733Y-107643928D01*
X158160954Y-107499760D01*
X158146532Y-107481007D01*
X158060625Y-107360358D01*
X158128112Y-107396956D01*
X158186739Y-107442090D01*
X158321141Y-107625399D01*
X158489657Y-107967869D01*
X158669241Y-108415317D01*
X158836844Y-108913560D01*
X158889889Y-109095208D01*
X158913879Y-109247758D01*
X158839401Y-109320438D01*
X158616134Y-109342488D01*
X158462293Y-109343687D01*
X158139304Y-109324855D01*
X157969115Y-109250028D01*
X157889899Y-109106006D01*
X157793139Y-108881240D01*
X157623545Y-108553250D01*
X157483209Y-108305354D01*
X157315479Y-108009429D01*
X157262228Y-107879385D01*
X156920330Y-107879385D01*
X156981229Y-107973338D01*
X157036497Y-108148135D01*
X156998437Y-108306932D01*
X156839975Y-108513060D01*
X156677257Y-108684350D01*
X156316980Y-108993259D01*
X156010071Y-109118093D01*
X155940214Y-109122817D01*
X155717277Y-109104870D01*
X155631322Y-109064843D01*
X155237402Y-109064843D01*
X155196448Y-109098819D01*
X155120971Y-109013507D01*
X155102775Y-108729387D01*
X154504475Y-108729387D01*
X154453159Y-108751183D01*
X154025268Y-108848630D01*
X153671379Y-108741384D01*
X153368678Y-108422328D01*
X153360868Y-108410507D01*
X153233557Y-108049717D01*
X152817224Y-108049717D01*
X152928723Y-108373737D01*
X153128185Y-108663634D01*
X153137375Y-108672469D01*
X153473454Y-108874238D01*
X153896753Y-108980503D01*
X154309099Y-108974749D01*
X154520917Y-108905189D01*
X154697806Y-108828874D01*
X154740797Y-108890574D01*
X154728661Y-108975214D01*
X154680788Y-109077305D01*
X154555321Y-109140323D01*
X154307189Y-109174806D01*
X153891323Y-109191294D01*
X153796641Y-109193138D01*
X152903528Y-109209032D01*
X152438350Y-108329686D01*
X152213223Y-107885870D01*
X152091443Y-107590678D01*
X152060337Y-107404794D01*
X151350418Y-107404794D01*
X151347693Y-107407204D01*
X150785864Y-108023977D01*
X150672995Y-108203816D01*
X151260135Y-108203816D01*
X151282913Y-107974253D01*
X151433458Y-107738440D01*
X151642752Y-107590419D01*
X151720364Y-107576730D01*
X151832143Y-107669057D01*
X152004440Y-107914379D01*
X152205087Y-108265212D01*
X152262719Y-108377382D01*
X152664178Y-109178034D01*
X152354673Y-109215499D01*
X152124759Y-109200325D01*
X151908816Y-109066065D01*
X151685708Y-108828977D01*
X151461226Y-108540405D01*
X151299658Y-108289449D01*
X151260135Y-108203816D01*
X150672995Y-108203816D01*
X150379711Y-108671117D01*
X150201739Y-109025560D01*
X150164899Y-109080354D01*
X150663572Y-109080354D01*
X150692269Y-108851815D01*
X150776077Y-108673818D01*
X150887349Y-108508698D01*
X151007507Y-108485861D01*
X151191130Y-108613270D01*
X151345931Y-108756957D01*
X151544953Y-108968753D01*
X151650535Y-109122285D01*
X151655670Y-109143478D01*
X151556926Y-109197026D01*
X151307104Y-109229140D01*
X151158713Y-109233252D01*
X156503560Y-109233252D01*
X156801314Y-108842876D01*
X157042442Y-108577461D01*
X157227839Y-108512631D01*
X157389091Y-108646098D01*
X157474370Y-108794068D01*
X157559334Y-109030731D01*
X157498645Y-109165764D01*
X157265125Y-109224304D01*
X156999619Y-109233252D01*
X156503560Y-109233252D01*
X151158713Y-109233252D01*
X150813366Y-109199185D01*
X150663572Y-109080354D01*
X150164899Y-109080354D01*
X150068634Y-109223531D01*
X149929588Y-109307630D01*
X149733793Y-109320456D01*
X149612626Y-109314266D01*
X149331146Y-109286749D01*
X149212290Y-109209777D01*
X149198000Y-109024762D01*
X148894253Y-109024762D01*
X148822029Y-109279378D01*
X148784365Y-109556066D01*
X148707987Y-109717410D01*
X148508278Y-109757817D01*
X148300443Y-109752954D01*
X148232192Y-109743661D01*
X148077126Y-109743661D01*
X148018351Y-110278118D01*
X148252737Y-110278118D01*
X148287409Y-110116730D01*
X148444874Y-110010646D01*
X148602991Y-110092094D01*
X148610980Y-110104217D01*
X148590417Y-110246075D01*
X148516894Y-110330449D01*
X148349026Y-110379993D01*
X148252737Y-110278118D01*
X148018351Y-110278118D01*
X148015259Y-110306225D01*
X148022501Y-110385956D01*
X149034737Y-110385956D01*
X149059882Y-110106021D01*
X149067386Y-110063391D01*
X149133189Y-109810924D01*
X149252539Y-109701209D01*
X149501670Y-109675303D01*
X149569699Y-109674991D01*
X149841886Y-109686395D01*
X149990069Y-109714788D01*
X149999148Y-109725012D01*
X149947094Y-109899748D01*
X149826736Y-110153926D01*
X149691779Y-110382875D01*
X149614874Y-110473952D01*
X149616873Y-110535248D01*
X149757187Y-110556778D01*
X149927678Y-110519663D01*
X149943931Y-110448034D01*
X149930131Y-110263999D01*
X149953215Y-110212142D01*
X150066751Y-110187274D01*
X150228267Y-110348536D01*
X150401788Y-110530762D01*
X150488895Y-110534296D01*
X150476349Y-110388841D01*
X150350909Y-110124099D01*
X150337934Y-110102484D01*
X150201124Y-109860290D01*
X150180982Y-109737498D01*
X150272621Y-109669101D01*
X150304374Y-109656052D01*
X150462613Y-109636311D01*
X150810828Y-109619108D01*
X151318140Y-109604518D01*
X151953670Y-109592620D01*
X152686539Y-109583490D01*
X153485866Y-109577204D01*
X154320774Y-109573840D01*
X155160382Y-109573476D01*
X155973811Y-109576186D01*
X156730182Y-109582049D01*
X157398615Y-109591142D01*
X157948231Y-109603541D01*
X158348151Y-109619323D01*
X158547838Y-109635525D01*
X159065615Y-109706495D01*
X159036231Y-110159343D01*
X159399452Y-110159343D01*
X159426742Y-110006871D01*
X159456725Y-109972486D01*
X159594388Y-109950152D01*
X159706007Y-110062083D01*
X159717409Y-110123248D01*
X159627863Y-110215473D01*
X159551757Y-110227165D01*
X159399452Y-110159343D01*
X159036231Y-110159343D01*
X159032599Y-110215308D01*
X159004342Y-110524827D01*
X158940248Y-110671329D01*
X158791479Y-110712283D01*
X158613061Y-110709013D01*
X158420592Y-110705342D01*
X158032966Y-110701185D01*
X157475892Y-110696708D01*
X156775082Y-110692075D01*
X155956246Y-110687450D01*
X155045094Y-110682998D01*
X154067339Y-110678884D01*
X153675155Y-110677412D01*
X152565935Y-110670905D01*
X151579498Y-110660113D01*
X150732140Y-110645463D01*
X150040160Y-110627382D01*
X149519858Y-110606299D01*
X149187530Y-110582640D01*
X149059477Y-110556833D01*
X149059146Y-110556356D01*
X149034737Y-110385956D01*
X148022501Y-110385956D01*
X148061479Y-110815045D01*
X148233824Y-110815045D01*
X148323134Y-110694004D01*
X148516223Y-110618147D01*
X148685878Y-110629954D01*
X148734429Y-110746860D01*
X148749661Y-110810381D01*
X153334096Y-110810381D01*
X153450235Y-110806395D01*
X153568138Y-110939494D01*
X153619134Y-111119293D01*
X153631747Y-111304450D01*
X153576323Y-111288567D01*
X153481090Y-111172362D01*
X153337489Y-110941082D01*
X153334096Y-110810381D01*
X148749661Y-110810381D01*
X148801391Y-111026102D01*
X148823927Y-111146349D01*
X149006079Y-111146349D01*
X149106254Y-111006660D01*
X149386402Y-110932835D01*
X149707293Y-110927722D01*
X149911399Y-110969530D01*
X150054564Y-111104060D01*
X150061734Y-111119103D01*
X150668559Y-111119103D01*
X150805407Y-111132586D01*
X151127153Y-111243565D01*
X151548420Y-111416336D01*
X151915212Y-111580410D01*
X152239783Y-111737930D01*
X152486738Y-111869487D01*
X152620681Y-111955674D01*
X152606215Y-111977082D01*
X152539148Y-111959576D01*
X152259652Y-111862381D01*
X151890266Y-111720122D01*
X151491264Y-111557848D01*
X151122923Y-111400607D01*
X150845517Y-111273450D01*
X150722496Y-111204624D01*
X150668559Y-111119103D01*
X150061734Y-111119103D01*
X150189121Y-111386353D01*
X150220315Y-111467264D01*
X150292180Y-111663419D01*
X150663233Y-111663419D01*
X150694760Y-111593527D01*
X150706112Y-111581650D01*
X150840364Y-111578961D01*
X151127364Y-111642437D01*
X151513586Y-111759286D01*
X151660214Y-111809685D01*
X152150825Y-111969468D01*
X152480114Y-112039926D01*
X152685526Y-112028039D01*
X152729409Y-112009004D01*
X152795495Y-111941547D01*
X152743536Y-111855552D01*
X152547021Y-111730283D01*
X152179443Y-111545007D01*
X152068300Y-111491907D01*
X151567012Y-111243502D01*
X151263809Y-111066550D01*
X151150303Y-110954075D01*
X151218102Y-110899100D01*
X151345457Y-110890823D01*
X151560860Y-110947737D01*
X151892422Y-111096869D01*
X152272830Y-111307467D01*
X152318278Y-111335233D01*
X153036105Y-111778594D01*
X152552554Y-111334184D01*
X152295733Y-111086304D01*
X152194514Y-110949124D01*
X152232558Y-110894706D01*
X152292635Y-110889773D01*
X152495226Y-110968721D01*
X152750660Y-111168503D01*
X152865821Y-111287892D01*
X153098019Y-111525417D01*
X153241486Y-111624846D01*
X153272640Y-111584575D01*
X153167900Y-111402999D01*
X153092869Y-111303344D01*
X152913545Y-111048927D01*
X152884385Y-110920626D01*
X152974644Y-110889773D01*
X153096525Y-110975674D01*
X153252791Y-111184683D01*
X153266065Y-111206729D01*
X153455526Y-111416469D01*
X153651818Y-111485060D01*
X153796042Y-111416705D01*
X153829301Y-111215610D01*
X153819360Y-111167231D01*
X153802324Y-110941480D01*
X153838768Y-110840397D01*
X153903020Y-110876307D01*
X153951272Y-111073903D01*
X153954188Y-111100089D01*
X154003044Y-111337379D01*
X154073691Y-111441723D01*
X154076918Y-111441947D01*
X154124865Y-111349948D01*
X154112264Y-111165860D01*
X154114433Y-110948791D01*
X154190131Y-110889773D01*
X154278003Y-110984598D01*
X154285831Y-111187087D01*
X154240432Y-111322044D01*
X154419161Y-111322044D01*
X154470509Y-111099672D01*
X154483572Y-111064458D01*
X154589940Y-110921742D01*
X154705615Y-110894453D01*
X154747844Y-110979101D01*
X154687554Y-111128186D01*
X154585704Y-111282797D01*
X154462164Y-111392930D01*
X154419161Y-111322044D01*
X154240432Y-111322044D01*
X154210963Y-111409643D01*
X154010469Y-111539214D01*
X153864365Y-111583018D01*
X153835055Y-111594398D01*
X154624093Y-111594398D01*
X154644414Y-111491689D01*
X154766210Y-111269967D01*
X154949510Y-111027495D01*
X155126505Y-110897003D01*
X155164524Y-110889773D01*
X155256597Y-110919937D01*
X155196134Y-111035753D01*
X155098398Y-111145369D01*
X154902191Y-111380361D01*
X154872350Y-111479114D01*
X154997535Y-111436551D01*
X155266408Y-111247600D01*
X155288301Y-111230358D01*
X155543545Y-111055881D01*
X155785472Y-110932893D01*
X155971679Y-110873345D01*
X156059761Y-110889193D01*
X156007315Y-110992389D01*
X155958682Y-111041378D01*
X155768618Y-111189426D01*
X155508183Y-111356992D01*
X155229515Y-111515927D01*
X154984754Y-111638082D01*
X154826039Y-111695309D01*
X154800790Y-111666491D01*
X154830575Y-111561839D01*
X154718201Y-111582505D01*
X154624093Y-111594398D01*
X153835055Y-111594398D01*
X153438227Y-111748472D01*
X155238426Y-111748472D01*
X155279065Y-111656289D01*
X155465629Y-111501628D01*
X155744528Y-111316759D01*
X156062173Y-111133953D01*
X156364974Y-110985483D01*
X156599343Y-110903619D01*
X156652844Y-110896714D01*
X156873349Y-110908818D01*
X156956539Y-110944348D01*
X156864544Y-111018812D01*
X156626513Y-111151164D01*
X156299383Y-111314757D01*
X155940086Y-111482942D01*
X155605558Y-111629074D01*
X155352734Y-111726505D01*
X155238547Y-111748589D01*
X155238426Y-111748472D01*
X153438227Y-111748472D01*
X153431563Y-111751059D01*
X153184273Y-112004020D01*
X153110452Y-112305066D01*
X153321562Y-112305066D01*
X153407230Y-112095681D01*
X153615887Y-111946852D01*
X154037797Y-111792362D01*
X154408784Y-111830403D01*
X154528975Y-111884757D01*
X154661538Y-112007702D01*
X154672576Y-112055856D01*
X154858278Y-112055856D01*
X154932707Y-111859982D01*
X155143120Y-111828174D01*
X155296017Y-111879720D01*
X155523951Y-111879720D01*
X155587698Y-111835224D01*
X155808707Y-111720536D01*
X156143628Y-111557869D01*
X156251231Y-111507071D01*
X156633539Y-111316990D01*
X156935207Y-111147197D01*
X157101275Y-111029109D01*
X157113618Y-111014081D01*
X157256375Y-110924194D01*
X157472580Y-110892247D01*
X157662739Y-110921111D01*
X157729583Y-110996323D01*
X157644010Y-111130335D01*
X157536322Y-111205993D01*
X157359443Y-111280385D01*
X157047082Y-111394916D01*
X156658277Y-111529821D01*
X156252068Y-111665334D01*
X155887493Y-111781688D01*
X155623592Y-111859119D01*
X155523951Y-111879720D01*
X155296017Y-111879720D01*
X155320667Y-111888030D01*
X155508911Y-111935363D01*
X155763901Y-111914804D01*
X156139479Y-111818744D01*
X156405681Y-111734670D01*
X156902761Y-111576139D01*
X157226769Y-111486654D01*
X157412409Y-111460346D01*
X157494384Y-111491344D01*
X157508713Y-111548126D01*
X157472163Y-111610259D01*
X157343100Y-111677563D01*
X157092408Y-111759158D01*
X156690970Y-111864167D01*
X156109670Y-112001714D01*
X155928165Y-112043318D01*
X155436603Y-112150021D01*
X155121211Y-112200204D01*
X154944759Y-112194303D01*
X154870017Y-112132756D01*
X154858278Y-112055856D01*
X154672576Y-112055856D01*
X154712171Y-112228584D01*
X154708828Y-112448137D01*
X155054973Y-112448137D01*
X155169104Y-112369213D01*
X155501883Y-112262463D01*
X156053422Y-112127003D01*
X156074101Y-112122317D01*
X156634933Y-111997934D01*
X157011139Y-111924492D01*
X157232900Y-111901549D01*
X157330399Y-111928664D01*
X157333819Y-112005393D01*
X157287844Y-112104556D01*
X157191004Y-112223264D01*
X157022635Y-112293961D01*
X156729317Y-112330682D01*
X156372871Y-112344927D01*
X155576105Y-112364428D01*
X156349148Y-112435860D01*
X157122192Y-112507293D01*
X156023365Y-112526794D01*
X155482215Y-112526043D01*
X155159381Y-112500118D01*
X155054973Y-112448137D01*
X154708828Y-112448137D01*
X154708031Y-112500469D01*
X154668670Y-112738918D01*
X155023931Y-112738918D01*
X155031521Y-112676212D01*
X155247629Y-112681322D01*
X155355235Y-112696349D01*
X155772345Y-112742305D01*
X156216145Y-112765373D01*
X156272839Y-112765949D01*
X156570918Y-112789220D01*
X156685742Y-112852066D01*
X156679053Y-112879864D01*
X156539686Y-112928557D01*
X156253191Y-112940755D01*
X155889194Y-112922387D01*
X155517325Y-112879382D01*
X155207211Y-112817671D01*
X155028480Y-112743182D01*
X155023931Y-112738918D01*
X154668670Y-112738918D01*
X154642757Y-112895893D01*
X154549555Y-113024032D01*
X154858278Y-113024032D01*
X154945202Y-112918058D01*
X155106757Y-112924684D01*
X155364194Y-112969545D01*
X155728944Y-113023895D01*
X155902986Y-113047466D01*
X156212719Y-113097184D01*
X156329567Y-113147529D01*
X156281080Y-113212918D01*
X156252060Y-113230141D01*
X155983150Y-113296894D01*
X155814744Y-113284031D01*
X155511274Y-113209587D01*
X155300018Y-113156545D01*
X155185066Y-113141608D01*
X155275333Y-113207504D01*
X155410452Y-113277246D01*
X155646247Y-113401173D01*
X155699349Y-113465856D01*
X155587774Y-113504243D01*
X155539389Y-113513047D01*
X155268608Y-113475149D01*
X155016208Y-113315469D01*
X154868994Y-113096332D01*
X154858278Y-113024032D01*
X154549555Y-113024032D01*
X154481764Y-113117234D01*
X154191000Y-113202496D01*
X154074742Y-113207213D01*
X153744011Y-113106884D01*
X153447568Y-112796624D01*
X153367143Y-112667276D01*
X153336309Y-112565198D01*
X153433172Y-112600651D01*
X153530251Y-112643351D01*
X153461671Y-112552788D01*
X153450235Y-112540410D01*
X153321562Y-112305066D01*
X153110452Y-112305066D01*
X153093336Y-112374862D01*
X153091322Y-112456901D01*
X153075644Y-112719815D01*
X152992826Y-112881765D01*
X152789188Y-113011214D01*
X152585210Y-113102394D01*
X152251910Y-113242531D01*
X152073011Y-113304162D01*
X152000654Y-113297512D01*
X151986978Y-113232809D01*
X151986974Y-113230222D01*
X152078034Y-113130536D01*
X152290670Y-113020340D01*
X152440168Y-112953301D01*
X152422826Y-112928388D01*
X152217720Y-112940360D01*
X152042192Y-112958120D01*
X151712695Y-112979458D01*
X151582386Y-112949865D01*
X151600452Y-112898241D01*
X151765902Y-112825181D01*
X152072926Y-112764122D01*
X152318278Y-112738702D01*
X152592293Y-112717965D01*
X152688716Y-112701967D01*
X152595432Y-112687171D01*
X152300323Y-112670039D01*
X152042192Y-112658098D01*
X151158713Y-112618608D01*
X151876539Y-112551074D01*
X152594365Y-112483539D01*
X151791263Y-112389972D01*
X151390312Y-112329794D01*
X151080698Y-112258232D01*
X150923458Y-112189745D01*
X150918137Y-112183104D01*
X150963065Y-112119468D01*
X151213463Y-112121930D01*
X151334718Y-112136589D01*
X151907395Y-112212390D01*
X152267618Y-112252210D01*
X152421026Y-112254975D01*
X152373259Y-112219614D01*
X152129955Y-112145055D01*
X151780505Y-112051844D01*
X151254236Y-111911957D01*
X150912749Y-111809408D01*
X150725822Y-111730971D01*
X150663233Y-111663419D01*
X150292180Y-111663419D01*
X150331944Y-111771953D01*
X150362884Y-111911729D01*
X150311948Y-111927743D01*
X150208475Y-111877509D01*
X149918058Y-111814571D01*
X149696466Y-111937760D01*
X149582598Y-112214372D01*
X149578782Y-112406938D01*
X149635462Y-112681233D01*
X149731115Y-112840779D01*
X149749684Y-112850329D01*
X149836438Y-112817238D01*
X149829274Y-112611459D01*
X149819046Y-112556870D01*
X149801746Y-112292877D01*
X149902608Y-112162274D01*
X149935229Y-112147831D01*
X150126866Y-112124439D01*
X150212169Y-112194713D01*
X150136068Y-112308644D01*
X150122203Y-112317626D01*
X150040555Y-112423645D01*
X150097792Y-112483791D01*
X150292893Y-112504691D01*
X150425761Y-112363553D01*
X150440887Y-112271889D01*
X150509387Y-112275176D01*
X150692053Y-112414407D01*
X150954633Y-112661952D01*
X151065272Y-112775555D01*
X151508864Y-113187464D01*
X151779911Y-113390550D01*
X152465189Y-113390550D01*
X152505061Y-113338387D01*
X152704800Y-113230861D01*
X153031001Y-113110311D01*
X153231255Y-113110056D01*
X153279815Y-113218716D01*
X153150935Y-113424911D01*
X153148901Y-113427164D01*
X152936545Y-113594333D01*
X152770510Y-113648187D01*
X152690924Y-113611055D01*
X152786720Y-113489462D01*
X152870452Y-113417038D01*
X153032989Y-113271740D01*
X153024946Y-113237042D01*
X152925670Y-113266371D01*
X152609733Y-113367242D01*
X152465189Y-113390550D01*
X151779911Y-113390550D01*
X151984797Y-113544063D01*
X152241670Y-113694181D01*
X153152093Y-113694181D01*
X153256974Y-113540208D01*
X153470819Y-113351445D01*
X153594970Y-113362847D01*
X153598450Y-113380826D01*
X154568575Y-113380826D01*
X154584715Y-113315255D01*
X154701032Y-113247685D01*
X154793794Y-113329666D01*
X154790709Y-113477357D01*
X154804600Y-113654053D01*
X154849485Y-113700426D01*
X154920492Y-113691501D01*
X154900416Y-113601161D01*
X154905765Y-113458378D01*
X155017669Y-113440944D01*
X155141996Y-113552555D01*
X155126812Y-113697173D01*
X154981099Y-113828834D01*
X154834555Y-113869822D01*
X154715667Y-113781085D01*
X154610801Y-113582116D01*
X154568575Y-113380826D01*
X153598450Y-113380826D01*
X153636217Y-113575900D01*
X153635734Y-113623034D01*
X153633683Y-113650643D01*
X153753931Y-113650643D01*
X153832020Y-113466073D01*
X153974800Y-113429773D01*
X154139593Y-113484704D01*
X154188301Y-113685692D01*
X154187908Y-113733469D01*
X154186022Y-113761078D01*
X154416539Y-113761078D01*
X154456946Y-113670178D01*
X154490163Y-113687455D01*
X154503379Y-113818515D01*
X154490163Y-113834701D01*
X154424509Y-113819542D01*
X154416539Y-113761078D01*
X154186022Y-113761078D01*
X154174486Y-113929905D01*
X154135329Y-113922967D01*
X154085235Y-113816295D01*
X154010294Y-113696964D01*
X153982562Y-113733469D01*
X153922907Y-113864937D01*
X153821062Y-113840082D01*
X153755741Y-113687418D01*
X153753931Y-113650643D01*
X153633683Y-113650643D01*
X153621503Y-113814596D01*
X153582769Y-113802187D01*
X153544349Y-113713191D01*
X153453097Y-113579778D01*
X153379942Y-113630365D01*
X153229122Y-113751596D01*
X153178123Y-113761078D01*
X153152093Y-113694181D01*
X152241670Y-113694181D01*
X152305267Y-113731347D01*
X152634142Y-113878411D01*
X152934520Y-113968787D01*
X153279877Y-114015828D01*
X153743693Y-114032886D01*
X153972404Y-114034295D01*
X154503648Y-114026977D01*
X154890410Y-113993838D01*
X155208742Y-113921253D01*
X155534694Y-113795600D01*
X155683544Y-113727754D01*
X156064609Y-113537056D01*
X156391374Y-113351591D01*
X156567022Y-113231354D01*
X156716857Y-113108294D01*
X156717833Y-113126818D01*
X156580510Y-113291730D01*
X156454240Y-113470886D01*
X156487223Y-113538427D01*
X156525293Y-113541899D01*
X156619850Y-113562674D01*
X156519609Y-113645306D01*
X156517715Y-113646505D01*
X156346661Y-113688476D01*
X156293931Y-113650643D01*
X156163620Y-113609008D01*
X156096597Y-113636097D01*
X156081526Y-113739501D01*
X156213601Y-113864995D01*
X156514800Y-113864995D01*
X156599033Y-113764052D01*
X156625235Y-113761078D01*
X156722154Y-113850968D01*
X156735670Y-113933248D01*
X156682132Y-114047554D01*
X156625235Y-114037165D01*
X156519013Y-113895979D01*
X156514800Y-113864995D01*
X156213601Y-113864995D01*
X156265288Y-113914106D01*
X156418252Y-114020151D01*
X156690740Y-114182777D01*
X156880698Y-114266865D01*
X156928435Y-114267733D01*
X156939783Y-114139155D01*
X156914305Y-113862160D01*
X156875618Y-113605711D01*
X156822507Y-113250399D01*
X156830354Y-113031227D01*
X156917227Y-112867671D01*
X157078662Y-112700750D01*
X157287456Y-112445572D01*
X157516054Y-112084177D01*
X157727410Y-111686605D01*
X157884481Y-111322900D01*
X157950221Y-111063104D01*
X157950452Y-111052407D01*
X158031510Y-110935590D01*
X158292705Y-110892258D01*
X158364583Y-110891465D01*
X158681104Y-110904502D01*
X158873464Y-110963104D01*
X158949687Y-111101175D01*
X158917800Y-111352620D01*
X158785827Y-111751345D01*
X158651283Y-112102714D01*
X158435722Y-112624786D01*
X158237093Y-113010355D01*
X158007410Y-113334033D01*
X157698685Y-113670430D01*
X157545257Y-113822394D01*
X156864965Y-114389616D01*
X156112977Y-114851655D01*
X155351892Y-115174325D01*
X154838810Y-115300314D01*
X154028075Y-115330829D01*
X153151243Y-115196070D01*
X152259978Y-114917618D01*
X151405943Y-114517055D01*
X150640802Y-114015963D01*
X150016220Y-113435926D01*
X149834002Y-113209594D01*
X149611358Y-112846654D01*
X149388203Y-112385616D01*
X149193579Y-111898858D01*
X149056529Y-111458756D01*
X149006079Y-111146349D01*
X148823927Y-111146349D01*
X148873605Y-111411413D01*
X148885450Y-111483372D01*
X149129571Y-112364614D01*
X149554700Y-113207765D01*
X150120672Y-113936067D01*
X150337334Y-114110696D01*
X150682284Y-114335580D01*
X151101966Y-114581622D01*
X151542824Y-114819727D01*
X151951301Y-115020801D01*
X152273843Y-115155748D01*
X152441189Y-115196730D01*
X152453058Y-115253446D01*
X152341024Y-115369290D01*
X155623265Y-115369290D01*
X155736939Y-115281901D01*
X156014286Y-115146545D01*
X156185938Y-115068285D01*
X156941853Y-114652000D01*
X157626519Y-114136032D01*
X158178059Y-113569873D01*
X158349194Y-113337962D01*
X158647551Y-112818871D01*
X158933135Y-112198988D01*
X159170149Y-111565999D01*
X159322795Y-111007587D01*
X159340491Y-110909823D01*
X159422476Y-110632072D01*
X159538048Y-110467373D01*
X159647876Y-110441432D01*
X159712631Y-110579954D01*
X159717409Y-110663468D01*
X159666386Y-111123159D01*
X159526591Y-111704021D01*
X159317937Y-112334949D01*
X159105643Y-112848061D01*
X158568910Y-113760375D01*
X157864180Y-114535432D01*
X157010315Y-115153307D01*
X156828061Y-115253771D01*
X156427847Y-115456932D01*
X156164600Y-115563912D01*
X155983746Y-115588517D01*
X155830716Y-115544554D01*
X155779951Y-115518924D01*
X155646518Y-115438402D01*
X155623265Y-115369290D01*
X152341024Y-115369290D01*
X152317953Y-115393145D01*
X152278163Y-115425451D01*
X151987391Y-115654172D01*
X151462617Y-115397842D01*
X151091016Y-115163160D01*
X150636068Y-114797138D01*
X150145132Y-114346484D01*
X149665568Y-113857902D01*
X149244735Y-113378096D01*
X148929991Y-112953774D01*
X148851108Y-112822382D01*
X148676420Y-112442636D01*
X148503047Y-111965915D01*
X148355574Y-111472170D01*
X148258588Y-111041355D01*
X148233824Y-110815045D01*
X148061479Y-110815045D01*
X148112294Y-111374446D01*
X148426154Y-112411934D01*
X148956438Y-113412643D01*
X149504264Y-114145230D01*
X149861670Y-114601998D01*
X150054506Y-114954008D01*
X150089191Y-115236306D01*
X149972149Y-115483938D01*
X149783997Y-115671928D01*
X149579330Y-115855204D01*
X149528339Y-115969433D01*
X149614209Y-116085982D01*
X149673562Y-116140601D01*
X149835837Y-116248460D01*
X149888713Y-116203287D01*
X149960422Y-115996843D01*
X150132926Y-115745551D01*
X150342289Y-115526370D01*
X150524578Y-115416260D01*
X150544481Y-115413926D01*
X150628649Y-115379064D01*
X150538374Y-115263535D01*
X150468496Y-115202963D01*
X150260850Y-115009234D01*
X150221550Y-114928851D01*
X150328122Y-114963936D01*
X150558089Y-115116612D01*
X150648203Y-115185995D01*
X150959633Y-115413826D01*
X151246652Y-115593643D01*
X151338420Y-115640129D01*
X151514916Y-115721182D01*
X151492050Y-115732594D01*
X151351974Y-115707141D01*
X151154865Y-115716794D01*
X151147148Y-115736932D01*
X152539148Y-115736932D01*
X152572252Y-115576370D01*
X152714538Y-115552673D01*
X152834520Y-115578224D01*
X153030185Y-115613730D01*
X153048670Y-115561537D01*
X152999207Y-115494891D01*
X152938149Y-115386913D01*
X153045266Y-115373507D01*
X153145574Y-115390386D01*
X153353391Y-115463329D01*
X153422626Y-115540909D01*
X153382204Y-115579968D01*
X153816058Y-115579968D01*
X153905020Y-115546519D01*
X154188351Y-115540035D01*
X154195670Y-115540111D01*
X154485317Y-115547471D01*
X154575886Y-115569448D01*
X154489159Y-115618719D01*
X154393091Y-115655004D01*
X154043497Y-115702536D01*
X153896135Y-115649643D01*
X153816058Y-115579968D01*
X153382204Y-115579968D01*
X153332991Y-115627520D01*
X153256974Y-115638469D01*
X153108424Y-115700031D01*
X153135415Y-115860217D01*
X153246952Y-115999192D01*
X153340298Y-116204894D01*
X153308174Y-116307578D01*
X153292108Y-116327481D01*
X153470524Y-116327481D01*
X153579076Y-116309796D01*
X153722311Y-116330100D01*
X153724021Y-116367799D01*
X153576216Y-116394162D01*
X153512355Y-116376517D01*
X153470524Y-116327481D01*
X153292108Y-116327481D01*
X153227121Y-116407985D01*
X153159808Y-116370040D01*
X153074799Y-116162643D01*
X153031673Y-116034015D01*
X152914966Y-115791025D01*
X152787551Y-115665874D01*
X152697505Y-115695379D01*
X152716540Y-115794893D01*
X152716447Y-115942277D01*
X152661398Y-115969773D01*
X152563859Y-115876882D01*
X152539148Y-115736932D01*
X151147148Y-115736932D01*
X151103496Y-115850838D01*
X151191282Y-116010878D01*
X151296757Y-116033760D01*
X151460300Y-116078115D01*
X151490018Y-116135426D01*
X151397546Y-116207035D01*
X151224666Y-116211427D01*
X150945937Y-116261623D01*
X150794555Y-116484081D01*
X150773883Y-116649188D01*
X150862615Y-116793907D01*
X151069928Y-116930147D01*
X151303768Y-117013324D01*
X151472081Y-116998855D01*
X151480629Y-116991481D01*
X151544209Y-116845714D01*
X151420854Y-116770932D01*
X151308930Y-116771728D01*
X151098957Y-116733774D01*
X151020745Y-116651306D01*
X151047238Y-116552475D01*
X151247340Y-116534296D01*
X151325726Y-116540871D01*
X151650768Y-116505921D01*
X151840223Y-116349968D01*
X151859963Y-116112742D01*
X151802065Y-115986317D01*
X151735434Y-115860282D01*
X151784479Y-115832420D01*
X151989074Y-115894026D01*
X152078957Y-115925870D01*
X152394328Y-116022474D01*
X152647326Y-116073377D01*
X152677192Y-116075361D01*
X152847275Y-116138758D01*
X152864831Y-116265581D01*
X152748599Y-116379786D01*
X152594365Y-116411513D01*
X152367923Y-116458686D01*
X152340611Y-116576848D01*
X152517805Y-116730960D01*
X152543213Y-116744992D01*
X152771287Y-116804126D01*
X153048689Y-116724101D01*
X153115769Y-116691956D01*
X153401251Y-116592257D01*
X153565908Y-116621056D01*
X153621694Y-116778643D01*
X153519079Y-116896971D01*
X153318928Y-116910210D01*
X153302898Y-116905519D01*
X153133587Y-116913706D01*
X153092542Y-117041999D01*
X153186717Y-117225932D01*
X153260555Y-117297963D01*
X153417508Y-117377026D01*
X153637142Y-117360979D01*
X153871263Y-117292715D01*
X154189990Y-117210357D01*
X154377832Y-117229742D01*
X154441943Y-117276220D01*
X154639415Y-117377120D01*
X154898722Y-117399742D01*
X155153462Y-117357232D01*
X155337236Y-117262740D01*
X155383642Y-117129412D01*
X155366942Y-117093064D01*
X155218759Y-117032258D01*
X154974100Y-117088792D01*
X154618355Y-117140913D01*
X154424367Y-117078310D01*
X154135144Y-117016546D01*
X153982060Y-117070236D01*
X153713469Y-117162474D01*
X153567930Y-117177556D01*
X153455339Y-117158652D01*
X153540492Y-117102149D01*
X153615887Y-117070680D01*
X153784686Y-116954354D01*
X153855115Y-116740402D01*
X153864365Y-116532024D01*
X153838895Y-116236775D01*
X153775572Y-116046884D01*
X153753931Y-116024991D01*
X153647536Y-115873823D01*
X153643496Y-115840120D01*
X153720656Y-115809566D01*
X153909029Y-115897568D01*
X153919583Y-115904401D01*
X154135726Y-116021248D01*
X154305676Y-116002349D01*
X154471757Y-115904401D01*
X154666320Y-115787586D01*
X154732383Y-115796835D01*
X154678683Y-115957224D01*
X154569066Y-116183774D01*
X154530262Y-116288822D01*
X154685051Y-116288822D01*
X154717811Y-116177814D01*
X154847167Y-116115112D01*
X155032336Y-116014493D01*
X155079148Y-115923763D01*
X155169807Y-115711347D01*
X155372231Y-115554288D01*
X155487757Y-115528034D01*
X155614859Y-115616898D01*
X155631322Y-115693687D01*
X155568244Y-115840596D01*
X155514370Y-115859339D01*
X155448414Y-115791682D01*
X155465670Y-115748904D01*
X155458106Y-115647087D01*
X155419074Y-115638469D01*
X155298670Y-115731600D01*
X155231905Y-115948454D01*
X155234150Y-116195227D01*
X155301208Y-116357729D01*
X155370417Y-116494598D01*
X155320057Y-116521947D01*
X155158229Y-116440665D01*
X155129712Y-116403984D01*
X154978668Y-116330566D01*
X154905862Y-116343943D01*
X154730444Y-116332120D01*
X154685051Y-116288822D01*
X154530262Y-116288822D01*
X154456975Y-116487213D01*
X154481255Y-116733747D01*
X154511481Y-116808132D01*
X154647671Y-117007028D01*
X154767563Y-117074121D01*
X154846370Y-117041647D01*
X154769931Y-116941600D01*
X154654884Y-116751103D01*
X154713575Y-116624305D01*
X154903488Y-116579985D01*
X155182107Y-116636921D01*
X155320742Y-116698317D01*
X155562725Y-116806298D01*
X155709498Y-116799175D01*
X155829829Y-116702074D01*
X155928575Y-116571891D01*
X155861208Y-116485138D01*
X155705666Y-116418784D01*
X155482390Y-116276282D01*
X155415129Y-116115904D01*
X155509648Y-115996890D01*
X155661967Y-115969773D01*
X155959823Y-115907241D01*
X156131315Y-115822472D01*
X156403532Y-115667356D01*
X156563826Y-115596849D01*
X156709115Y-115555019D01*
X156685178Y-115622548D01*
X156605845Y-115716543D01*
X156492980Y-115932623D01*
X156508957Y-116117043D01*
X156639279Y-116190643D01*
X156713734Y-116102424D01*
X156712902Y-116001386D01*
X156774885Y-115822993D01*
X156889827Y-115769315D01*
X157037284Y-115773261D01*
X157021133Y-115911045D01*
X157012941Y-115930964D01*
X156932740Y-116277085D01*
X156982628Y-116554762D01*
X157135281Y-116720569D01*
X157363376Y-116731081D01*
X157481105Y-116674999D01*
X157645637Y-116496217D01*
X157651821Y-116314578D01*
X157532871Y-116217101D01*
X157424082Y-116248010D01*
X157422436Y-116304529D01*
X157364929Y-116455620D01*
X157298706Y-116495319D01*
X157197336Y-116489704D01*
X157213203Y-116329838D01*
X157225564Y-116288254D01*
X157316983Y-115906512D01*
X157292921Y-115675336D01*
X157144433Y-115551813D01*
X157066974Y-115527454D01*
X156899159Y-115477394D01*
X156888742Y-115422088D01*
X157051614Y-115321401D01*
X157174200Y-115256616D01*
X157443133Y-115080361D01*
X157795208Y-114803083D01*
X158158933Y-114481468D01*
X158195722Y-114446640D01*
X158489930Y-114177930D01*
X158712432Y-113997403D01*
X158826398Y-113934122D01*
X158833931Y-113943050D01*
X158763943Y-114105670D01*
X158701409Y-114180730D01*
X158626105Y-114289884D01*
X158707926Y-114313252D01*
X158791876Y-114380442D01*
X158774172Y-114431034D01*
X158793220Y-114579386D01*
X158905698Y-114703609D01*
X159042923Y-114820361D01*
X159002427Y-114857975D01*
X158916757Y-114861913D01*
X158752894Y-114818898D01*
X158723496Y-114767871D01*
X158634843Y-114653002D01*
X158437228Y-114612199D01*
X158233171Y-114655813D01*
X158161860Y-114711174D01*
X158102089Y-114831428D01*
X158232591Y-114865245D01*
X158254748Y-114865426D01*
X158498667Y-114907218D01*
X158819970Y-115010442D01*
X158887598Y-115037547D01*
X159155226Y-115135959D01*
X159322244Y-115172250D01*
X159342110Y-115167101D01*
X159326628Y-115050976D01*
X159244905Y-114788052D01*
X159117812Y-114443577D01*
X158850947Y-113762619D01*
X159235365Y-112972727D01*
X159647889Y-111971544D01*
X159870379Y-111026796D01*
X159906938Y-110089593D01*
X159761673Y-109111044D01*
X159607332Y-108542583D01*
X159347735Y-107904038D01*
X158961558Y-107205389D01*
X158497025Y-106521544D01*
X158002362Y-105927406D01*
X157783893Y-105710293D01*
X157266680Y-105315582D01*
X156612049Y-104935553D01*
X155901838Y-104611549D01*
X155217883Y-104384911D01*
X155108250Y-104358623D01*
X154767358Y-104261536D01*
X154525619Y-104153836D01*
X154452084Y-104086591D01*
X154464453Y-103844553D01*
X154630395Y-103589849D01*
X154898882Y-103393008D01*
X154977270Y-103360677D01*
X155203789Y-103246664D01*
X155301803Y-103130531D01*
X155243703Y-103056669D01*
X155171177Y-103048904D01*
X155086122Y-103014503D01*
X155097261Y-102993979D01*
X155257968Y-102966641D01*
X155571360Y-103009801D01*
X155986018Y-103109552D01*
X156450523Y-103251984D01*
X156913455Y-103423189D01*
X157267434Y-103581010D01*
X158387892Y-104251671D01*
X159349878Y-105073614D01*
X160145775Y-106037620D01*
X160767969Y-107134472D01*
X161207433Y-108349773D01*
X161337422Y-109039199D01*
X161403956Y-109906199D01*
X161411885Y-110282382D01*
X161406885Y-110895607D01*
X161373972Y-111373572D01*
X161301795Y-111801262D01*
X161178998Y-112263666D01*
X161122699Y-112447080D01*
X160679223Y-113540329D01*
X160059044Y-114537236D01*
X159245389Y-115462534D01*
X158799146Y-115872991D01*
X157795960Y-116620029D01*
X156750895Y-117153634D01*
X155645064Y-117479986D01*
X154459583Y-117605263D01*
X153588278Y-117577941D01*
X152282836Y-117393600D01*
X151112749Y-117055285D01*
X150041654Y-116547936D01*
X149033190Y-115856494D01*
X148645887Y-115530918D01*
X148152767Y-114991130D01*
X147677626Y-114276987D01*
X147243531Y-113434943D01*
X146873547Y-112511454D01*
X146590740Y-111552974D01*
X146525122Y-111259624D01*
X146449741Y-110844215D01*
X146418607Y-110490319D01*
X146275336Y-110490319D01*
X146274707Y-110873904D01*
X146453396Y-111933679D01*
X146454807Y-111938904D01*
X146778347Y-112913020D01*
X147202405Y-113851862D01*
X147697027Y-114699499D01*
X148232261Y-115399998D01*
X148406216Y-115582954D01*
X149064950Y-116141152D01*
X149863219Y-116673529D01*
X150720712Y-117133048D01*
X151557115Y-117472673D01*
X151719680Y-117523512D01*
X152442525Y-117682836D01*
X153290574Y-117785482D01*
X154185232Y-117828381D01*
X155047905Y-117808467D01*
X155047905Y-117808467D01*
G37*
X155047905Y-117808467D02*
X155799998Y-117722672D01*
X155967412Y-117689267D01*
X156946693Y-117367520D01*
X157913779Y-116856102D01*
X158835278Y-116185192D01*
X159677799Y-115384971D01*
X160407952Y-114485616D01*
X160992346Y-113517309D01*
X161264527Y-112901624D01*
X161537478Y-111916781D01*
X161661734Y-110834505D01*
X161643005Y-109706102D01*
X161487002Y-108582879D01*
X161199434Y-107516141D01*
X160786012Y-106557197D01*
X160506884Y-106094064D01*
X159812251Y-105184475D01*
X159071385Y-104450781D01*
X158230628Y-103848133D01*
X157236319Y-103331680D01*
X157162850Y-103299036D01*
X156364261Y-102984877D01*
X155605172Y-102775743D01*
X154807501Y-102656347D01*
X153893164Y-102611401D01*
X153643496Y-102609998D01*
X153080167Y-102622963D01*
X152619846Y-102671537D01*
X152164547Y-102772397D01*
X151616281Y-102942217D01*
X151539423Y-102968077D01*
X150488171Y-103383304D01*
X149588776Y-103876516D01*
X148775981Y-104485152D01*
X148558295Y-104678357D01*
X147840405Y-105476842D01*
X147240845Y-106426219D01*
X146772056Y-107483552D01*
X146446476Y-108605903D01*
X146276547Y-109750333D01*
X146275336Y-110490319D01*
X146418607Y-110490319D01*
X146431523Y-110115523D01*
X146488293Y-109637413D01*
X146520726Y-109415472D01*
X146818580Y-108066733D01*
X147284519Y-106857776D01*
X147915400Y-105792507D01*
X148708080Y-104874835D01*
X149659415Y-104108666D01*
X150766260Y-103497908D01*
X151519445Y-103202314D01*
X152040148Y-103033614D01*
X152457636Y-102926542D01*
X152856843Y-102867670D01*
X153322704Y-102843572D01*
X153809148Y-102840328D01*
X155023931Y-102843418D01*
X154480114Y-103010334D01*
X154084343Y-103106344D01*
X153807118Y-103102460D01*
X153674266Y-103057859D01*
X153405285Y-102977923D01*
X153097657Y-102943317D01*
X152826233Y-102954694D01*
X152665867Y-103012710D01*
X152649583Y-103048904D01*
X152744145Y-103131726D01*
X152927456Y-103159339D01*
X153153499Y-103220214D01*
X153332292Y-103435108D01*
X153392487Y-103551810D01*
X153505023Y-103867267D01*
X153476556Y-104093216D01*
X153284886Y-104253966D01*
X152907813Y-104373827D01*
X152585092Y-104435936D01*
X151579109Y-104708260D01*
X150686325Y-105168420D01*
X149903266Y-105818897D01*
X149226460Y-106662173D01*
X149029107Y-106977638D01*
X148473264Y-108101773D01*
X148135448Y-109213318D01*
X148077126Y-109743661D01*
X148232192Y-109743661D01*
X148273472Y-109525840D01*
X148383026Y-109164567D01*
X148539421Y-108718224D01*
X148721229Y-108245193D01*
X148907016Y-107803855D01*
X149068356Y-107465827D01*
X149668819Y-106518297D01*
X150378096Y-105760662D01*
X151205185Y-105185790D01*
X152159084Y-104786547D01*
X152594365Y-104670730D01*
X152800056Y-104623934D01*
X152870452Y-104607801D01*
X152903317Y-104673292D01*
X153303879Y-104673292D01*
X153550931Y-104410317D01*
X153706367Y-104209669D01*
X153742630Y-104009663D01*
X153683634Y-103718933D01*
X153619151Y-103452017D01*
X153629267Y-103355852D01*
X153726257Y-103389295D01*
X153773407Y-103418000D01*
X153972396Y-103483680D01*
X154205131Y-103405641D01*
X154279860Y-103362504D01*
X154497339Y-103233284D01*
X154611358Y-103170092D01*
X154613098Y-103169435D01*
X154582742Y-103248591D01*
X154470627Y-103460967D01*
X154392228Y-103600693D01*
X154243205Y-103884256D01*
X154202612Y-104071086D01*
X154260802Y-104251107D01*
X154312273Y-104346128D01*
X154484093Y-104650208D01*
X153303879Y-104673292D01*
X152903317Y-104673292D01*
X152912483Y-104691556D01*
X152925670Y-104859683D01*
X152906149Y-104973170D01*
X153258045Y-104973170D01*
X153312192Y-104926295D01*
X153577662Y-104827995D01*
X153820306Y-104848443D01*
X153917733Y-104924845D01*
X154141731Y-104924845D01*
X154143014Y-104922150D01*
X154274879Y-104882240D01*
X154543393Y-104883395D01*
X154665039Y-104895542D01*
X154947191Y-104921103D01*
X155046810Y-104895526D01*
X154998193Y-104809718D01*
X154996322Y-104807726D01*
X154878013Y-104641794D01*
X154858278Y-104578186D01*
X154951032Y-104550579D01*
X155200519Y-104602866D01*
X155563577Y-104720995D01*
X155997044Y-104890916D01*
X156457758Y-105098578D01*
X156459583Y-105099458D01*
X157208359Y-105565432D01*
X157918792Y-106205248D01*
X158546082Y-106971975D01*
X159035196Y-107797600D01*
X159340860Y-108471261D01*
X159540422Y-109016949D01*
X159629675Y-109418663D01*
X159604413Y-109660400D01*
X159540374Y-109719295D01*
X159425231Y-109675565D01*
X159305522Y-109443124D01*
X159209949Y-109146243D01*
X158800776Y-108097554D01*
X158197489Y-107148765D01*
X157660050Y-106541915D01*
X156879411Y-105862262D01*
X156102337Y-105393544D01*
X155311763Y-105126790D01*
X154842899Y-105061263D01*
X154477171Y-105023333D01*
X154226320Y-104974456D01*
X154141731Y-104924845D01*
X153917733Y-104924845D01*
X153919583Y-104926295D01*
X153871441Y-104999758D01*
X153641881Y-105033953D01*
X153567187Y-105035039D01*
X153312756Y-105020258D01*
X153258045Y-104973170D01*
X152906149Y-104973170D01*
X152898365Y-105018421D01*
X152782201Y-105124029D01*
X152525804Y-105210291D01*
X152318278Y-105259099D01*
X151554356Y-105492242D01*
X150910403Y-105842265D01*
X150332284Y-106345311D01*
X149874158Y-106891017D01*
X149632344Y-107270089D01*
X149380802Y-107760630D01*
X149144954Y-108300470D01*
X148950223Y-108827442D01*
X148894253Y-109024762D01*
X149198000Y-109024762D01*
X149208634Y-108906601D01*
X149386145Y-108135508D01*
X149767975Y-107391286D01*
X150362278Y-106658139D01*
X150377946Y-106641867D01*
X150934815Y-106125814D01*
X151489255Y-105757587D01*
X152113943Y-105498923D01*
X152881552Y-105311561D01*
X152917643Y-105304749D01*
X153298506Y-105255067D01*
X153760397Y-105225874D01*
X154245664Y-105216800D01*
X154696652Y-105227471D01*
X155055710Y-105257515D01*
X155265182Y-105306560D01*
X155285665Y-105320045D01*
X155292961Y-105423190D01*
X155478440Y-105423190D01*
X155580070Y-105384225D01*
X155811363Y-105463763D01*
X156193258Y-105666389D01*
X156370989Y-105769964D01*
X156823752Y-106077596D01*
X157290953Y-106456879D01*
X157583259Y-106735789D01*
X157820808Y-106991049D01*
X157960783Y-107149405D01*
X157977744Y-107181865D01*
X157967018Y-107173163D01*
X157814958Y-107116859D01*
X157633367Y-107232141D01*
X157599566Y-107265008D01*
X157382513Y-107405588D01*
X157211792Y-107418364D01*
X157092201Y-107415776D01*
X157106430Y-107520260D01*
X157135309Y-107668946D01*
X157046653Y-107642709D01*
X156851236Y-107446402D01*
X156793771Y-107379428D01*
X156541305Y-107153710D01*
X156184451Y-106919188D01*
X155974066Y-106809045D01*
X155662485Y-106656368D01*
X155524152Y-106557246D01*
X155529901Y-106476849D01*
X155628122Y-106395933D01*
X155772923Y-106223746D01*
X155784820Y-106094009D01*
X155797190Y-105927111D01*
X155918313Y-105842441D01*
X156056377Y-105896394D01*
X156071604Y-105917850D01*
X156172720Y-105991663D01*
X156231908Y-105931219D01*
X156220311Y-105803782D01*
X156058283Y-105722143D01*
X155815642Y-105715536D01*
X155749631Y-105729278D01*
X155554131Y-105701683D01*
X155485534Y-105576074D01*
X155478440Y-105423190D01*
X155292961Y-105423190D01*
X155294298Y-105442089D01*
X155262951Y-105694124D01*
X155253052Y-105749407D01*
X155147865Y-106050238D01*
X154991318Y-106144991D01*
X154901364Y-106174013D01*
X154905787Y-106178228D01*
X155357678Y-106178228D01*
X155370273Y-106086495D01*
X155483996Y-105981989D01*
X155602906Y-106040826D01*
X155631322Y-106147595D01*
X155542020Y-106240358D01*
X155469136Y-106251513D01*
X155357678Y-106178228D01*
X154905787Y-106178228D01*
X154998912Y-106266969D01*
X155079148Y-106318271D01*
X155219416Y-106419027D01*
X155193047Y-106438724D01*
X155179287Y-106434902D01*
X154450534Y-106299061D01*
X153694305Y-106332755D01*
X152899739Y-106523729D01*
X152377398Y-106708135D01*
X151980852Y-106905403D01*
X151864791Y-106989411D01*
X152728005Y-106989411D01*
X152850000Y-106880275D01*
X153138907Y-106770688D01*
X153184566Y-106756465D01*
X153542779Y-106648774D01*
X153745109Y-106601444D01*
X153846335Y-106608458D01*
X153901233Y-106663802D01*
X153909449Y-106676855D01*
X153851977Y-106762115D01*
X153814263Y-106780391D01*
X154264104Y-106780391D01*
X154279621Y-106669030D01*
X154459235Y-106620929D01*
X154675531Y-106644556D01*
X154936027Y-106707055D01*
X155086055Y-106755334D01*
X155088344Y-106756594D01*
X155118385Y-106879452D01*
X155103790Y-107126879D01*
X155101040Y-107146331D01*
X155058590Y-107378942D01*
X155000413Y-107417721D01*
X154881493Y-107287758D01*
X154870975Y-107274553D01*
X154626048Y-107042544D01*
X154441055Y-106921506D01*
X154264104Y-106780391D01*
X153814263Y-106780391D01*
X153638755Y-106865440D01*
X153523606Y-106903907D01*
X153231698Y-107022742D01*
X153043210Y-107157577D01*
X153018451Y-107196391D01*
X152905740Y-107344810D01*
X152788841Y-107284295D01*
X152728099Y-107135295D01*
X152728005Y-106989411D01*
X151864791Y-106989411D01*
X151618541Y-107167653D01*
X151350418Y-107404794D01*
X152060337Y-107404794D01*
X152104030Y-107292666D01*
X152324197Y-107145846D01*
X152530498Y-107209428D01*
X152644920Y-107383469D01*
X152732868Y-107666893D01*
X152807256Y-108012350D01*
X152809895Y-108028416D01*
X152817224Y-108049717D01*
X153233557Y-108049717D01*
X153267571Y-107670796D01*
X153434847Y-107333859D01*
X153707319Y-107099025D01*
X154007868Y-107024556D01*
X154212416Y-107098805D01*
X154467508Y-107283462D01*
X154535469Y-107347365D01*
X154768606Y-107647709D01*
X154853675Y-107984243D01*
X154858278Y-108126044D01*
X154839387Y-108426953D01*
X154744219Y-108596872D01*
X154515031Y-108724903D01*
X154504475Y-108729387D01*
X155102775Y-108729387D01*
X155127603Y-108335552D01*
X155184536Y-107729788D01*
X155238489Y-107315882D01*
X155306949Y-107065769D01*
X155407402Y-106951388D01*
X155557335Y-106944677D01*
X155774236Y-107017572D01*
X155913090Y-107075030D01*
X156298199Y-107235939D01*
X155826717Y-108145568D01*
X155543306Y-108666485D01*
X155335221Y-108983690D01*
X155237402Y-109064843D01*
X155631322Y-109064843D01*
X155677622Y-108945562D01*
X155800361Y-108681436D01*
X155975301Y-108324209D01*
X156020479Y-108234106D01*
X156221207Y-107848398D01*
X156360743Y-107629386D01*
X156470727Y-107543354D01*
X156582800Y-107556586D01*
X156633342Y-107581069D01*
X156851738Y-107773563D01*
X156920330Y-107879385D01*
X157262228Y-107879385D01*
X157318053Y-107895602D01*
X157386229Y-107953372D01*
X157576676Y-108082037D01*
X157694589Y-108090274D01*
X157677332Y-107978258D01*
X157566748Y-107868533D01*
X157440957Y-107726576D01*
X157491983Y-107642287D01*
X157605162Y-107639685D01*
X157619148Y-107687165D01*
X157685726Y-107760697D01*
X157724760Y-107745363D01*
X157784922Y-107601699D01*
X157768162Y-107517976D01*
X157774931Y-107378320D01*
X157828202Y-107355860D01*
X157928002Y-107448083D01*
X157950452Y-107573264D01*
X158003105Y-107731122D01*
X158118923Y-107726019D01*
X158227733Y-107643928D01*
X158160954Y-107499760D01*
X158146532Y-107481007D01*
X158060625Y-107360358D01*
X158128112Y-107396956D01*
X158186739Y-107442090D01*
X158321141Y-107625399D01*
X158489657Y-107967869D01*
X158669241Y-108415317D01*
X158836844Y-108913560D01*
X158889889Y-109095208D01*
X158913879Y-109247758D01*
X158839401Y-109320438D01*
X158616134Y-109342488D01*
X158462293Y-109343687D01*
X158139304Y-109324855D01*
X157969115Y-109250028D01*
X157889899Y-109106006D01*
X157793139Y-108881240D01*
X157623545Y-108553250D01*
X157483209Y-108305354D01*
X157315479Y-108009429D01*
X157262228Y-107879385D01*
X156920330Y-107879385D01*
X156981229Y-107973338D01*
X157036497Y-108148135D01*
X156998437Y-108306932D01*
X156839975Y-108513060D01*
X156677257Y-108684350D01*
X156316980Y-108993259D01*
X156010071Y-109118093D01*
X155940214Y-109122817D01*
X155717277Y-109104870D01*
X155631322Y-109064843D01*
X155237402Y-109064843D01*
X155196448Y-109098819D01*
X155120971Y-109013507D01*
X155102775Y-108729387D01*
X154504475Y-108729387D01*
X154453159Y-108751183D01*
X154025268Y-108848630D01*
X153671379Y-108741384D01*
X153368678Y-108422328D01*
X153360868Y-108410507D01*
X153233557Y-108049717D01*
X152817224Y-108049717D01*
X152928723Y-108373737D01*
X153128185Y-108663634D01*
X153137375Y-108672469D01*
X153473454Y-108874238D01*
X153896753Y-108980503D01*
X154309099Y-108974749D01*
X154520917Y-108905189D01*
X154697806Y-108828874D01*
X154740797Y-108890574D01*
X154728661Y-108975214D01*
X154680788Y-109077305D01*
X154555321Y-109140323D01*
X154307189Y-109174806D01*
X153891323Y-109191294D01*
X153796641Y-109193138D01*
X152903528Y-109209032D01*
X152438350Y-108329686D01*
X152213223Y-107885870D01*
X152091443Y-107590678D01*
X152060337Y-107404794D01*
X151350418Y-107404794D01*
X151347693Y-107407204D01*
X150785864Y-108023977D01*
X150672995Y-108203816D01*
X151260135Y-108203816D01*
X151282913Y-107974253D01*
X151433458Y-107738440D01*
X151642752Y-107590419D01*
X151720364Y-107576730D01*
X151832143Y-107669057D01*
X152004440Y-107914379D01*
X152205087Y-108265212D01*
X152262719Y-108377382D01*
X152664178Y-109178034D01*
X152354673Y-109215499D01*
X152124759Y-109200325D01*
X151908816Y-109066065D01*
X151685708Y-108828977D01*
X151461226Y-108540405D01*
X151299658Y-108289449D01*
X151260135Y-108203816D01*
X150672995Y-108203816D01*
X150379711Y-108671117D01*
X150201739Y-109025560D01*
X150164899Y-109080354D01*
X150663572Y-109080354D01*
X150692269Y-108851815D01*
X150776077Y-108673818D01*
X150887349Y-108508698D01*
X151007507Y-108485861D01*
X151191130Y-108613270D01*
X151345931Y-108756957D01*
X151544953Y-108968753D01*
X151650535Y-109122285D01*
X151655670Y-109143478D01*
X151556926Y-109197026D01*
X151307104Y-109229140D01*
X151158713Y-109233252D01*
X156503560Y-109233252D01*
X156801314Y-108842876D01*
X157042442Y-108577461D01*
X157227839Y-108512631D01*
X157389091Y-108646098D01*
X157474370Y-108794068D01*
X157559334Y-109030731D01*
X157498645Y-109165764D01*
X157265125Y-109224304D01*
X156999619Y-109233252D01*
X156503560Y-109233252D01*
X151158713Y-109233252D01*
X150813366Y-109199185D01*
X150663572Y-109080354D01*
X150164899Y-109080354D01*
X150068634Y-109223531D01*
X149929588Y-109307630D01*
X149733793Y-109320456D01*
X149612626Y-109314266D01*
X149331146Y-109286749D01*
X149212290Y-109209777D01*
X149198000Y-109024762D01*
X148894253Y-109024762D01*
X148822029Y-109279378D01*
X148784365Y-109556066D01*
X148707987Y-109717410D01*
X148508278Y-109757817D01*
X148300443Y-109752954D01*
X148232192Y-109743661D01*
X148077126Y-109743661D01*
X148018351Y-110278118D01*
X148252737Y-110278118D01*
X148287409Y-110116730D01*
X148444874Y-110010646D01*
X148602991Y-110092094D01*
X148610980Y-110104217D01*
X148590417Y-110246075D01*
X148516894Y-110330449D01*
X148349026Y-110379993D01*
X148252737Y-110278118D01*
X148018351Y-110278118D01*
X148015259Y-110306225D01*
X148022501Y-110385956D01*
X149034737Y-110385956D01*
X149059882Y-110106021D01*
X149067386Y-110063391D01*
X149133189Y-109810924D01*
X149252539Y-109701209D01*
X149501670Y-109675303D01*
X149569699Y-109674991D01*
X149841886Y-109686395D01*
X149990069Y-109714788D01*
X149999148Y-109725012D01*
X149947094Y-109899748D01*
X149826736Y-110153926D01*
X149691779Y-110382875D01*
X149614874Y-110473952D01*
X149616873Y-110535248D01*
X149757187Y-110556778D01*
X149927678Y-110519663D01*
X149943931Y-110448034D01*
X149930131Y-110263999D01*
X149953215Y-110212142D01*
X150066751Y-110187274D01*
X150228267Y-110348536D01*
X150401788Y-110530762D01*
X150488895Y-110534296D01*
X150476349Y-110388841D01*
X150350909Y-110124099D01*
X150337934Y-110102484D01*
X150201124Y-109860290D01*
X150180982Y-109737498D01*
X150272621Y-109669101D01*
X150304374Y-109656052D01*
X150462613Y-109636311D01*
X150810828Y-109619108D01*
X151318140Y-109604518D01*
X151953670Y-109592620D01*
X152686539Y-109583490D01*
X153485866Y-109577204D01*
X154320774Y-109573840D01*
X155160382Y-109573476D01*
X155973811Y-109576186D01*
X156730182Y-109582049D01*
X157398615Y-109591142D01*
X157948231Y-109603541D01*
X158348151Y-109619323D01*
X158547838Y-109635525D01*
X159065615Y-109706495D01*
X159036231Y-110159343D01*
X159399452Y-110159343D01*
X159426742Y-110006871D01*
X159456725Y-109972486D01*
X159594388Y-109950152D01*
X159706007Y-110062083D01*
X159717409Y-110123248D01*
X159627863Y-110215473D01*
X159551757Y-110227165D01*
X159399452Y-110159343D01*
X159036231Y-110159343D01*
X159032599Y-110215308D01*
X159004342Y-110524827D01*
X158940248Y-110671329D01*
X158791479Y-110712283D01*
X158613061Y-110709013D01*
X158420592Y-110705342D01*
X158032966Y-110701185D01*
X157475892Y-110696708D01*
X156775082Y-110692075D01*
X155956246Y-110687450D01*
X155045094Y-110682998D01*
X154067339Y-110678884D01*
X153675155Y-110677412D01*
X152565935Y-110670905D01*
X151579498Y-110660113D01*
X150732140Y-110645463D01*
X150040160Y-110627382D01*
X149519858Y-110606299D01*
X149187530Y-110582640D01*
X149059477Y-110556833D01*
X149059146Y-110556356D01*
X149034737Y-110385956D01*
X148022501Y-110385956D01*
X148061479Y-110815045D01*
X148233824Y-110815045D01*
X148323134Y-110694004D01*
X148516223Y-110618147D01*
X148685878Y-110629954D01*
X148734429Y-110746860D01*
X148749661Y-110810381D01*
X153334096Y-110810381D01*
X153450235Y-110806395D01*
X153568138Y-110939494D01*
X153619134Y-111119293D01*
X153631747Y-111304450D01*
X153576323Y-111288567D01*
X153481090Y-111172362D01*
X153337489Y-110941082D01*
X153334096Y-110810381D01*
X148749661Y-110810381D01*
X148801391Y-111026102D01*
X148823927Y-111146349D01*
X149006079Y-111146349D01*
X149106254Y-111006660D01*
X149386402Y-110932835D01*
X149707293Y-110927722D01*
X149911399Y-110969530D01*
X150054564Y-111104060D01*
X150061734Y-111119103D01*
X150668559Y-111119103D01*
X150805407Y-111132586D01*
X151127153Y-111243565D01*
X151548420Y-111416336D01*
X151915212Y-111580410D01*
X152239783Y-111737930D01*
X152486738Y-111869487D01*
X152620681Y-111955674D01*
X152606215Y-111977082D01*
X152539148Y-111959576D01*
X152259652Y-111862381D01*
X151890266Y-111720122D01*
X151491264Y-111557848D01*
X151122923Y-111400607D01*
X150845517Y-111273450D01*
X150722496Y-111204624D01*
X150668559Y-111119103D01*
X150061734Y-111119103D01*
X150189121Y-111386353D01*
X150220315Y-111467264D01*
X150292180Y-111663419D01*
X150663233Y-111663419D01*
X150694760Y-111593527D01*
X150706112Y-111581650D01*
X150840364Y-111578961D01*
X151127364Y-111642437D01*
X151513586Y-111759286D01*
X151660214Y-111809685D01*
X152150825Y-111969468D01*
X152480114Y-112039926D01*
X152685526Y-112028039D01*
X152729409Y-112009004D01*
X152795495Y-111941547D01*
X152743536Y-111855552D01*
X152547021Y-111730283D01*
X152179443Y-111545007D01*
X152068300Y-111491907D01*
X151567012Y-111243502D01*
X151263809Y-111066550D01*
X151150303Y-110954075D01*
X151218102Y-110899100D01*
X151345457Y-110890823D01*
X151560860Y-110947737D01*
X151892422Y-111096869D01*
X152272830Y-111307467D01*
X152318278Y-111335233D01*
X153036105Y-111778594D01*
X152552554Y-111334184D01*
X152295733Y-111086304D01*
X152194514Y-110949124D01*
X152232558Y-110894706D01*
X152292635Y-110889773D01*
X152495226Y-110968721D01*
X152750660Y-111168503D01*
X152865821Y-111287892D01*
X153098019Y-111525417D01*
X153241486Y-111624846D01*
X153272640Y-111584575D01*
X153167900Y-111402999D01*
X153092869Y-111303344D01*
X152913545Y-111048927D01*
X152884385Y-110920626D01*
X152974644Y-110889773D01*
X153096525Y-110975674D01*
X153252791Y-111184683D01*
X153266065Y-111206729D01*
X153455526Y-111416469D01*
X153651818Y-111485060D01*
X153796042Y-111416705D01*
X153829301Y-111215610D01*
X153819360Y-111167231D01*
X153802324Y-110941480D01*
X153838768Y-110840397D01*
X153903020Y-110876307D01*
X153951272Y-111073903D01*
X153954188Y-111100089D01*
X154003044Y-111337379D01*
X154073691Y-111441723D01*
X154076918Y-111441947D01*
X154124865Y-111349948D01*
X154112264Y-111165860D01*
X154114433Y-110948791D01*
X154190131Y-110889773D01*
X154278003Y-110984598D01*
X154285831Y-111187087D01*
X154240432Y-111322044D01*
X154419161Y-111322044D01*
X154470509Y-111099672D01*
X154483572Y-111064458D01*
X154589940Y-110921742D01*
X154705615Y-110894453D01*
X154747844Y-110979101D01*
X154687554Y-111128186D01*
X154585704Y-111282797D01*
X154462164Y-111392930D01*
X154419161Y-111322044D01*
X154240432Y-111322044D01*
X154210963Y-111409643D01*
X154010469Y-111539214D01*
X153864365Y-111583018D01*
X153835055Y-111594398D01*
X154624093Y-111594398D01*
X154644414Y-111491689D01*
X154766210Y-111269967D01*
X154949510Y-111027495D01*
X155126505Y-110897003D01*
X155164524Y-110889773D01*
X155256597Y-110919937D01*
X155196134Y-111035753D01*
X155098398Y-111145369D01*
X154902191Y-111380361D01*
X154872350Y-111479114D01*
X154997535Y-111436551D01*
X155266408Y-111247600D01*
X155288301Y-111230358D01*
X155543545Y-111055881D01*
X155785472Y-110932893D01*
X155971679Y-110873345D01*
X156059761Y-110889193D01*
X156007315Y-110992389D01*
X155958682Y-111041378D01*
X155768618Y-111189426D01*
X155508183Y-111356992D01*
X155229515Y-111515927D01*
X154984754Y-111638082D01*
X154826039Y-111695309D01*
X154800790Y-111666491D01*
X154830575Y-111561839D01*
X154718201Y-111582505D01*
X154624093Y-111594398D01*
X153835055Y-111594398D01*
X153438227Y-111748472D01*
X155238426Y-111748472D01*
X155279065Y-111656289D01*
X155465629Y-111501628D01*
X155744528Y-111316759D01*
X156062173Y-111133953D01*
X156364974Y-110985483D01*
X156599343Y-110903619D01*
X156652844Y-110896714D01*
X156873349Y-110908818D01*
X156956539Y-110944348D01*
X156864544Y-111018812D01*
X156626513Y-111151164D01*
X156299383Y-111314757D01*
X155940086Y-111482942D01*
X155605558Y-111629074D01*
X155352734Y-111726505D01*
X155238547Y-111748589D01*
X155238426Y-111748472D01*
X153438227Y-111748472D01*
X153431563Y-111751059D01*
X153184273Y-112004020D01*
X153110452Y-112305066D01*
X153321562Y-112305066D01*
X153407230Y-112095681D01*
X153615887Y-111946852D01*
X154037797Y-111792362D01*
X154408784Y-111830403D01*
X154528975Y-111884757D01*
X154661538Y-112007702D01*
X154672576Y-112055856D01*
X154858278Y-112055856D01*
X154932707Y-111859982D01*
X155143120Y-111828174D01*
X155296017Y-111879720D01*
X155523951Y-111879720D01*
X155587698Y-111835224D01*
X155808707Y-111720536D01*
X156143628Y-111557869D01*
X156251231Y-111507071D01*
X156633539Y-111316990D01*
X156935207Y-111147197D01*
X157101275Y-111029109D01*
X157113618Y-111014081D01*
X157256375Y-110924194D01*
X157472580Y-110892247D01*
X157662739Y-110921111D01*
X157729583Y-110996323D01*
X157644010Y-111130335D01*
X157536322Y-111205993D01*
X157359443Y-111280385D01*
X157047082Y-111394916D01*
X156658277Y-111529821D01*
X156252068Y-111665334D01*
X155887493Y-111781688D01*
X155623592Y-111859119D01*
X155523951Y-111879720D01*
X155296017Y-111879720D01*
X155320667Y-111888030D01*
X155508911Y-111935363D01*
X155763901Y-111914804D01*
X156139479Y-111818744D01*
X156405681Y-111734670D01*
X156902761Y-111576139D01*
X157226769Y-111486654D01*
X157412409Y-111460346D01*
X157494384Y-111491344D01*
X157508713Y-111548126D01*
X157472163Y-111610259D01*
X157343100Y-111677563D01*
X157092408Y-111759158D01*
X156690970Y-111864167D01*
X156109670Y-112001714D01*
X155928165Y-112043318D01*
X155436603Y-112150021D01*
X155121211Y-112200204D01*
X154944759Y-112194303D01*
X154870017Y-112132756D01*
X154858278Y-112055856D01*
X154672576Y-112055856D01*
X154712171Y-112228584D01*
X154708828Y-112448137D01*
X155054973Y-112448137D01*
X155169104Y-112369213D01*
X155501883Y-112262463D01*
X156053422Y-112127003D01*
X156074101Y-112122317D01*
X156634933Y-111997934D01*
X157011139Y-111924492D01*
X157232900Y-111901549D01*
X157330399Y-111928664D01*
X157333819Y-112005393D01*
X157287844Y-112104556D01*
X157191004Y-112223264D01*
X157022635Y-112293961D01*
X156729317Y-112330682D01*
X156372871Y-112344927D01*
X155576105Y-112364428D01*
X156349148Y-112435860D01*
X157122192Y-112507293D01*
X156023365Y-112526794D01*
X155482215Y-112526043D01*
X155159381Y-112500118D01*
X155054973Y-112448137D01*
X154708828Y-112448137D01*
X154708031Y-112500469D01*
X154668670Y-112738918D01*
X155023931Y-112738918D01*
X155031521Y-112676212D01*
X155247629Y-112681322D01*
X155355235Y-112696349D01*
X155772345Y-112742305D01*
X156216145Y-112765373D01*
X156272839Y-112765949D01*
X156570918Y-112789220D01*
X156685742Y-112852066D01*
X156679053Y-112879864D01*
X156539686Y-112928557D01*
X156253191Y-112940755D01*
X155889194Y-112922387D01*
X155517325Y-112879382D01*
X155207211Y-112817671D01*
X155028480Y-112743182D01*
X155023931Y-112738918D01*
X154668670Y-112738918D01*
X154642757Y-112895893D01*
X154549555Y-113024032D01*
X154858278Y-113024032D01*
X154945202Y-112918058D01*
X155106757Y-112924684D01*
X155364194Y-112969545D01*
X155728944Y-113023895D01*
X155902986Y-113047466D01*
X156212719Y-113097184D01*
X156329567Y-113147529D01*
X156281080Y-113212918D01*
X156252060Y-113230141D01*
X155983150Y-113296894D01*
X155814744Y-113284031D01*
X155511274Y-113209587D01*
X155300018Y-113156545D01*
X155185066Y-113141608D01*
X155275333Y-113207504D01*
X155410452Y-113277246D01*
X155646247Y-113401173D01*
X155699349Y-113465856D01*
X155587774Y-113504243D01*
X155539389Y-113513047D01*
X155268608Y-113475149D01*
X155016208Y-113315469D01*
X154868994Y-113096332D01*
X154858278Y-113024032D01*
X154549555Y-113024032D01*
X154481764Y-113117234D01*
X154191000Y-113202496D01*
X154074742Y-113207213D01*
X153744011Y-113106884D01*
X153447568Y-112796624D01*
X153367143Y-112667276D01*
X153336309Y-112565198D01*
X153433172Y-112600651D01*
X153530251Y-112643351D01*
X153461671Y-112552788D01*
X153450235Y-112540410D01*
X153321562Y-112305066D01*
X153110452Y-112305066D01*
X153093336Y-112374862D01*
X153091322Y-112456901D01*
X153075644Y-112719815D01*
X152992826Y-112881765D01*
X152789188Y-113011214D01*
X152585210Y-113102394D01*
X152251910Y-113242531D01*
X152073011Y-113304162D01*
X152000654Y-113297512D01*
X151986978Y-113232809D01*
X151986974Y-113230222D01*
X152078034Y-113130536D01*
X152290670Y-113020340D01*
X152440168Y-112953301D01*
X152422826Y-112928388D01*
X152217720Y-112940360D01*
X152042192Y-112958120D01*
X151712695Y-112979458D01*
X151582386Y-112949865D01*
X151600452Y-112898241D01*
X151765902Y-112825181D01*
X152072926Y-112764122D01*
X152318278Y-112738702D01*
X152592293Y-112717965D01*
X152688716Y-112701967D01*
X152595432Y-112687171D01*
X152300323Y-112670039D01*
X152042192Y-112658098D01*
X151158713Y-112618608D01*
X151876539Y-112551074D01*
X152594365Y-112483539D01*
X151791263Y-112389972D01*
X151390312Y-112329794D01*
X151080698Y-112258232D01*
X150923458Y-112189745D01*
X150918137Y-112183104D01*
X150963065Y-112119468D01*
X151213463Y-112121930D01*
X151334718Y-112136589D01*
X151907395Y-112212390D01*
X152267618Y-112252210D01*
X152421026Y-112254975D01*
X152373259Y-112219614D01*
X152129955Y-112145055D01*
X151780505Y-112051844D01*
X151254236Y-111911957D01*
X150912749Y-111809408D01*
X150725822Y-111730971D01*
X150663233Y-111663419D01*
X150292180Y-111663419D01*
X150331944Y-111771953D01*
X150362884Y-111911729D01*
X150311948Y-111927743D01*
X150208475Y-111877509D01*
X149918058Y-111814571D01*
X149696466Y-111937760D01*
X149582598Y-112214372D01*
X149578782Y-112406938D01*
X149635462Y-112681233D01*
X149731115Y-112840779D01*
X149749684Y-112850329D01*
X149836438Y-112817238D01*
X149829274Y-112611459D01*
X149819046Y-112556870D01*
X149801746Y-112292877D01*
X149902608Y-112162274D01*
X149935229Y-112147831D01*
X150126866Y-112124439D01*
X150212169Y-112194713D01*
X150136068Y-112308644D01*
X150122203Y-112317626D01*
X150040555Y-112423645D01*
X150097792Y-112483791D01*
X150292893Y-112504691D01*
X150425761Y-112363553D01*
X150440887Y-112271889D01*
X150509387Y-112275176D01*
X150692053Y-112414407D01*
X150954633Y-112661952D01*
X151065272Y-112775555D01*
X151508864Y-113187464D01*
X151779911Y-113390550D01*
X152465189Y-113390550D01*
X152505061Y-113338387D01*
X152704800Y-113230861D01*
X153031001Y-113110311D01*
X153231255Y-113110056D01*
X153279815Y-113218716D01*
X153150935Y-113424911D01*
X153148901Y-113427164D01*
X152936545Y-113594333D01*
X152770510Y-113648187D01*
X152690924Y-113611055D01*
X152786720Y-113489462D01*
X152870452Y-113417038D01*
X153032989Y-113271740D01*
X153024946Y-113237042D01*
X152925670Y-113266371D01*
X152609733Y-113367242D01*
X152465189Y-113390550D01*
X151779911Y-113390550D01*
X151984797Y-113544063D01*
X152241670Y-113694181D01*
X153152093Y-113694181D01*
X153256974Y-113540208D01*
X153470819Y-113351445D01*
X153594970Y-113362847D01*
X153598450Y-113380826D01*
X154568575Y-113380826D01*
X154584715Y-113315255D01*
X154701032Y-113247685D01*
X154793794Y-113329666D01*
X154790709Y-113477357D01*
X154804600Y-113654053D01*
X154849485Y-113700426D01*
X154920492Y-113691501D01*
X154900416Y-113601161D01*
X154905765Y-113458378D01*
X155017669Y-113440944D01*
X155141996Y-113552555D01*
X155126812Y-113697173D01*
X154981099Y-113828834D01*
X154834555Y-113869822D01*
X154715667Y-113781085D01*
X154610801Y-113582116D01*
X154568575Y-113380826D01*
X153598450Y-113380826D01*
X153636217Y-113575900D01*
X153635734Y-113623034D01*
X153633683Y-113650643D01*
X153753931Y-113650643D01*
X153832020Y-113466073D01*
X153974800Y-113429773D01*
X154139593Y-113484704D01*
X154188301Y-113685692D01*
X154187908Y-113733469D01*
X154186022Y-113761078D01*
X154416539Y-113761078D01*
X154456946Y-113670178D01*
X154490163Y-113687455D01*
X154503379Y-113818515D01*
X154490163Y-113834701D01*
X154424509Y-113819542D01*
X154416539Y-113761078D01*
X154186022Y-113761078D01*
X154174486Y-113929905D01*
X154135329Y-113922967D01*
X154085235Y-113816295D01*
X154010294Y-113696964D01*
X153982562Y-113733469D01*
X153922907Y-113864937D01*
X153821062Y-113840082D01*
X153755741Y-113687418D01*
X153753931Y-113650643D01*
X153633683Y-113650643D01*
X153621503Y-113814596D01*
X153582769Y-113802187D01*
X153544349Y-113713191D01*
X153453097Y-113579778D01*
X153379942Y-113630365D01*
X153229122Y-113751596D01*
X153178123Y-113761078D01*
X153152093Y-113694181D01*
X152241670Y-113694181D01*
X152305267Y-113731347D01*
X152634142Y-113878411D01*
X152934520Y-113968787D01*
X153279877Y-114015828D01*
X153743693Y-114032886D01*
X153972404Y-114034295D01*
X154503648Y-114026977D01*
X154890410Y-113993838D01*
X155208742Y-113921253D01*
X155534694Y-113795600D01*
X155683544Y-113727754D01*
X156064609Y-113537056D01*
X156391374Y-113351591D01*
X156567022Y-113231354D01*
X156716857Y-113108294D01*
X156717833Y-113126818D01*
X156580510Y-113291730D01*
X156454240Y-113470886D01*
X156487223Y-113538427D01*
X156525293Y-113541899D01*
X156619850Y-113562674D01*
X156519609Y-113645306D01*
X156517715Y-113646505D01*
X156346661Y-113688476D01*
X156293931Y-113650643D01*
X156163620Y-113609008D01*
X156096597Y-113636097D01*
X156081526Y-113739501D01*
X156213601Y-113864995D01*
X156514800Y-113864995D01*
X156599033Y-113764052D01*
X156625235Y-113761078D01*
X156722154Y-113850968D01*
X156735670Y-113933248D01*
X156682132Y-114047554D01*
X156625235Y-114037165D01*
X156519013Y-113895979D01*
X156514800Y-113864995D01*
X156213601Y-113864995D01*
X156265288Y-113914106D01*
X156418252Y-114020151D01*
X156690740Y-114182777D01*
X156880698Y-114266865D01*
X156928435Y-114267733D01*
X156939783Y-114139155D01*
X156914305Y-113862160D01*
X156875618Y-113605711D01*
X156822507Y-113250399D01*
X156830354Y-113031227D01*
X156917227Y-112867671D01*
X157078662Y-112700750D01*
X157287456Y-112445572D01*
X157516054Y-112084177D01*
X157727410Y-111686605D01*
X157884481Y-111322900D01*
X157950221Y-111063104D01*
X157950452Y-111052407D01*
X158031510Y-110935590D01*
X158292705Y-110892258D01*
X158364583Y-110891465D01*
X158681104Y-110904502D01*
X158873464Y-110963104D01*
X158949687Y-111101175D01*
X158917800Y-111352620D01*
X158785827Y-111751345D01*
X158651283Y-112102714D01*
X158435722Y-112624786D01*
X158237093Y-113010355D01*
X158007410Y-113334033D01*
X157698685Y-113670430D01*
X157545257Y-113822394D01*
X156864965Y-114389616D01*
X156112977Y-114851655D01*
X155351892Y-115174325D01*
X154838810Y-115300314D01*
X154028075Y-115330829D01*
X153151243Y-115196070D01*
X152259978Y-114917618D01*
X151405943Y-114517055D01*
X150640802Y-114015963D01*
X150016220Y-113435926D01*
X149834002Y-113209594D01*
X149611358Y-112846654D01*
X149388203Y-112385616D01*
X149193579Y-111898858D01*
X149056529Y-111458756D01*
X149006079Y-111146349D01*
X148823927Y-111146349D01*
X148873605Y-111411413D01*
X148885450Y-111483372D01*
X149129571Y-112364614D01*
X149554700Y-113207765D01*
X150120672Y-113936067D01*
X150337334Y-114110696D01*
X150682284Y-114335580D01*
X151101966Y-114581622D01*
X151542824Y-114819727D01*
X151951301Y-115020801D01*
X152273843Y-115155748D01*
X152441189Y-115196730D01*
X152453058Y-115253446D01*
X152341024Y-115369290D01*
X155623265Y-115369290D01*
X155736939Y-115281901D01*
X156014286Y-115146545D01*
X156185938Y-115068285D01*
X156941853Y-114652000D01*
X157626519Y-114136032D01*
X158178059Y-113569873D01*
X158349194Y-113337962D01*
X158647551Y-112818871D01*
X158933135Y-112198988D01*
X159170149Y-111565999D01*
X159322795Y-111007587D01*
X159340491Y-110909823D01*
X159422476Y-110632072D01*
X159538048Y-110467373D01*
X159647876Y-110441432D01*
X159712631Y-110579954D01*
X159717409Y-110663468D01*
X159666386Y-111123159D01*
X159526591Y-111704021D01*
X159317937Y-112334949D01*
X159105643Y-112848061D01*
X158568910Y-113760375D01*
X157864180Y-114535432D01*
X157010315Y-115153307D01*
X156828061Y-115253771D01*
X156427847Y-115456932D01*
X156164600Y-115563912D01*
X155983746Y-115588517D01*
X155830716Y-115544554D01*
X155779951Y-115518924D01*
X155646518Y-115438402D01*
X155623265Y-115369290D01*
X152341024Y-115369290D01*
X152317953Y-115393145D01*
X152278163Y-115425451D01*
X151987391Y-115654172D01*
X151462617Y-115397842D01*
X151091016Y-115163160D01*
X150636068Y-114797138D01*
X150145132Y-114346484D01*
X149665568Y-113857902D01*
X149244735Y-113378096D01*
X148929991Y-112953774D01*
X148851108Y-112822382D01*
X148676420Y-112442636D01*
X148503047Y-111965915D01*
X148355574Y-111472170D01*
X148258588Y-111041355D01*
X148233824Y-110815045D01*
X148061479Y-110815045D01*
X148112294Y-111374446D01*
X148426154Y-112411934D01*
X148956438Y-113412643D01*
X149504264Y-114145230D01*
X149861670Y-114601998D01*
X150054506Y-114954008D01*
X150089191Y-115236306D01*
X149972149Y-115483938D01*
X149783997Y-115671928D01*
X149579330Y-115855204D01*
X149528339Y-115969433D01*
X149614209Y-116085982D01*
X149673562Y-116140601D01*
X149835837Y-116248460D01*
X149888713Y-116203287D01*
X149960422Y-115996843D01*
X150132926Y-115745551D01*
X150342289Y-115526370D01*
X150524578Y-115416260D01*
X150544481Y-115413926D01*
X150628649Y-115379064D01*
X150538374Y-115263535D01*
X150468496Y-115202963D01*
X150260850Y-115009234D01*
X150221550Y-114928851D01*
X150328122Y-114963936D01*
X150558089Y-115116612D01*
X150648203Y-115185995D01*
X150959633Y-115413826D01*
X151246652Y-115593643D01*
X151338420Y-115640129D01*
X151514916Y-115721182D01*
X151492050Y-115732594D01*
X151351974Y-115707141D01*
X151154865Y-115716794D01*
X151147148Y-115736932D01*
X152539148Y-115736932D01*
X152572252Y-115576370D01*
X152714538Y-115552673D01*
X152834520Y-115578224D01*
X153030185Y-115613730D01*
X153048670Y-115561537D01*
X152999207Y-115494891D01*
X152938149Y-115386913D01*
X153045266Y-115373507D01*
X153145574Y-115390386D01*
X153353391Y-115463329D01*
X153422626Y-115540909D01*
X153382204Y-115579968D01*
X153816058Y-115579968D01*
X153905020Y-115546519D01*
X154188351Y-115540035D01*
X154195670Y-115540111D01*
X154485317Y-115547471D01*
X154575886Y-115569448D01*
X154489159Y-115618719D01*
X154393091Y-115655004D01*
X154043497Y-115702536D01*
X153896135Y-115649643D01*
X153816058Y-115579968D01*
X153382204Y-115579968D01*
X153332991Y-115627520D01*
X153256974Y-115638469D01*
X153108424Y-115700031D01*
X153135415Y-115860217D01*
X153246952Y-115999192D01*
X153340298Y-116204894D01*
X153308174Y-116307578D01*
X153292108Y-116327481D01*
X153470524Y-116327481D01*
X153579076Y-116309796D01*
X153722311Y-116330100D01*
X153724021Y-116367799D01*
X153576216Y-116394162D01*
X153512355Y-116376517D01*
X153470524Y-116327481D01*
X153292108Y-116327481D01*
X153227121Y-116407985D01*
X153159808Y-116370040D01*
X153074799Y-116162643D01*
X153031673Y-116034015D01*
X152914966Y-115791025D01*
X152787551Y-115665874D01*
X152697505Y-115695379D01*
X152716540Y-115794893D01*
X152716447Y-115942277D01*
X152661398Y-115969773D01*
X152563859Y-115876882D01*
X152539148Y-115736932D01*
X151147148Y-115736932D01*
X151103496Y-115850838D01*
X151191282Y-116010878D01*
X151296757Y-116033760D01*
X151460300Y-116078115D01*
X151490018Y-116135426D01*
X151397546Y-116207035D01*
X151224666Y-116211427D01*
X150945937Y-116261623D01*
X150794555Y-116484081D01*
X150773883Y-116649188D01*
X150862615Y-116793907D01*
X151069928Y-116930147D01*
X151303768Y-117013324D01*
X151472081Y-116998855D01*
X151480629Y-116991481D01*
X151544209Y-116845714D01*
X151420854Y-116770932D01*
X151308930Y-116771728D01*
X151098957Y-116733774D01*
X151020745Y-116651306D01*
X151047238Y-116552475D01*
X151247340Y-116534296D01*
X151325726Y-116540871D01*
X151650768Y-116505921D01*
X151840223Y-116349968D01*
X151859963Y-116112742D01*
X151802065Y-115986317D01*
X151735434Y-115860282D01*
X151784479Y-115832420D01*
X151989074Y-115894026D01*
X152078957Y-115925870D01*
X152394328Y-116022474D01*
X152647326Y-116073377D01*
X152677192Y-116075361D01*
X152847275Y-116138758D01*
X152864831Y-116265581D01*
X152748599Y-116379786D01*
X152594365Y-116411513D01*
X152367923Y-116458686D01*
X152340611Y-116576848D01*
X152517805Y-116730960D01*
X152543213Y-116744992D01*
X152771287Y-116804126D01*
X153048689Y-116724101D01*
X153115769Y-116691956D01*
X153401251Y-116592257D01*
X153565908Y-116621056D01*
X153621694Y-116778643D01*
X153519079Y-116896971D01*
X153318928Y-116910210D01*
X153302898Y-116905519D01*
X153133587Y-116913706D01*
X153092542Y-117041999D01*
X153186717Y-117225932D01*
X153260555Y-117297963D01*
X153417508Y-117377026D01*
X153637142Y-117360979D01*
X153871263Y-117292715D01*
X154189990Y-117210357D01*
X154377832Y-117229742D01*
X154441943Y-117276220D01*
X154639415Y-117377120D01*
X154898722Y-117399742D01*
X155153462Y-117357232D01*
X155337236Y-117262740D01*
X155383642Y-117129412D01*
X155366942Y-117093064D01*
X155218759Y-117032258D01*
X154974100Y-117088792D01*
X154618355Y-117140913D01*
X154424367Y-117078310D01*
X154135144Y-117016546D01*
X153982060Y-117070236D01*
X153713469Y-117162474D01*
X153567930Y-117177556D01*
X153455339Y-117158652D01*
X153540492Y-117102149D01*
X153615887Y-117070680D01*
X153784686Y-116954354D01*
X153855115Y-116740402D01*
X153864365Y-116532024D01*
X153838895Y-116236775D01*
X153775572Y-116046884D01*
X153753931Y-116024991D01*
X153647536Y-115873823D01*
X153643496Y-115840120D01*
X153720656Y-115809566D01*
X153909029Y-115897568D01*
X153919583Y-115904401D01*
X154135726Y-116021248D01*
X154305676Y-116002349D01*
X154471757Y-115904401D01*
X154666320Y-115787586D01*
X154732383Y-115796835D01*
X154678683Y-115957224D01*
X154569066Y-116183774D01*
X154530262Y-116288822D01*
X154685051Y-116288822D01*
X154717811Y-116177814D01*
X154847167Y-116115112D01*
X155032336Y-116014493D01*
X155079148Y-115923763D01*
X155169807Y-115711347D01*
X155372231Y-115554288D01*
X155487757Y-115528034D01*
X155614859Y-115616898D01*
X155631322Y-115693687D01*
X155568244Y-115840596D01*
X155514370Y-115859339D01*
X155448414Y-115791682D01*
X155465670Y-115748904D01*
X155458106Y-115647087D01*
X155419074Y-115638469D01*
X155298670Y-115731600D01*
X155231905Y-115948454D01*
X155234150Y-116195227D01*
X155301208Y-116357729D01*
X155370417Y-116494598D01*
X155320057Y-116521947D01*
X155158229Y-116440665D01*
X155129712Y-116403984D01*
X154978668Y-116330566D01*
X154905862Y-116343943D01*
X154730444Y-116332120D01*
X154685051Y-116288822D01*
X154530262Y-116288822D01*
X154456975Y-116487213D01*
X154481255Y-116733747D01*
X154511481Y-116808132D01*
X154647671Y-117007028D01*
X154767563Y-117074121D01*
X154846370Y-117041647D01*
X154769931Y-116941600D01*
X154654884Y-116751103D01*
X154713575Y-116624305D01*
X154903488Y-116579985D01*
X155182107Y-116636921D01*
X155320742Y-116698317D01*
X155562725Y-116806298D01*
X155709498Y-116799175D01*
X155829829Y-116702074D01*
X155928575Y-116571891D01*
X155861208Y-116485138D01*
X155705666Y-116418784D01*
X155482390Y-116276282D01*
X155415129Y-116115904D01*
X155509648Y-115996890D01*
X155661967Y-115969773D01*
X155959823Y-115907241D01*
X156131315Y-115822472D01*
X156403532Y-115667356D01*
X156563826Y-115596849D01*
X156709115Y-115555019D01*
X156685178Y-115622548D01*
X156605845Y-115716543D01*
X156492980Y-115932623D01*
X156508957Y-116117043D01*
X156639279Y-116190643D01*
X156713734Y-116102424D01*
X156712902Y-116001386D01*
X156774885Y-115822993D01*
X156889827Y-115769315D01*
X157037284Y-115773261D01*
X157021133Y-115911045D01*
X157012941Y-115930964D01*
X156932740Y-116277085D01*
X156982628Y-116554762D01*
X157135281Y-116720569D01*
X157363376Y-116731081D01*
X157481105Y-116674999D01*
X157645637Y-116496217D01*
X157651821Y-116314578D01*
X157532871Y-116217101D01*
X157424082Y-116248010D01*
X157422436Y-116304529D01*
X157364929Y-116455620D01*
X157298706Y-116495319D01*
X157197336Y-116489704D01*
X157213203Y-116329838D01*
X157225564Y-116288254D01*
X157316983Y-115906512D01*
X157292921Y-115675336D01*
X157144433Y-115551813D01*
X157066974Y-115527454D01*
X156899159Y-115477394D01*
X156888742Y-115422088D01*
X157051614Y-115321401D01*
X157174200Y-115256616D01*
X157443133Y-115080361D01*
X157795208Y-114803083D01*
X158158933Y-114481468D01*
X158195722Y-114446640D01*
X158489930Y-114177930D01*
X158712432Y-113997403D01*
X158826398Y-113934122D01*
X158833931Y-113943050D01*
X158763943Y-114105670D01*
X158701409Y-114180730D01*
X158626105Y-114289884D01*
X158707926Y-114313252D01*
X158791876Y-114380442D01*
X158774172Y-114431034D01*
X158793220Y-114579386D01*
X158905698Y-114703609D01*
X159042923Y-114820361D01*
X159002427Y-114857975D01*
X158916757Y-114861913D01*
X158752894Y-114818898D01*
X158723496Y-114767871D01*
X158634843Y-114653002D01*
X158437228Y-114612199D01*
X158233171Y-114655813D01*
X158161860Y-114711174D01*
X158102089Y-114831428D01*
X158232591Y-114865245D01*
X158254748Y-114865426D01*
X158498667Y-114907218D01*
X158819970Y-115010442D01*
X158887598Y-115037547D01*
X159155226Y-115135959D01*
X159322244Y-115172250D01*
X159342110Y-115167101D01*
X159326628Y-115050976D01*
X159244905Y-114788052D01*
X159117812Y-114443577D01*
X158850947Y-113762619D01*
X159235365Y-112972727D01*
X159647889Y-111971544D01*
X159870379Y-111026796D01*
X159906938Y-110089593D01*
X159761673Y-109111044D01*
X159607332Y-108542583D01*
X159347735Y-107904038D01*
X158961558Y-107205389D01*
X158497025Y-106521544D01*
X158002362Y-105927406D01*
X157783893Y-105710293D01*
X157266680Y-105315582D01*
X156612049Y-104935553D01*
X155901838Y-104611549D01*
X155217883Y-104384911D01*
X155108250Y-104358623D01*
X154767358Y-104261536D01*
X154525619Y-104153836D01*
X154452084Y-104086591D01*
X154464453Y-103844553D01*
X154630395Y-103589849D01*
X154898882Y-103393008D01*
X154977270Y-103360677D01*
X155203789Y-103246664D01*
X155301803Y-103130531D01*
X155243703Y-103056669D01*
X155171177Y-103048904D01*
X155086122Y-103014503D01*
X155097261Y-102993979D01*
X155257968Y-102966641D01*
X155571360Y-103009801D01*
X155986018Y-103109552D01*
X156450523Y-103251984D01*
X156913455Y-103423189D01*
X157267434Y-103581010D01*
X158387892Y-104251671D01*
X159349878Y-105073614D01*
X160145775Y-106037620D01*
X160767969Y-107134472D01*
X161207433Y-108349773D01*
X161337422Y-109039199D01*
X161403956Y-109906199D01*
X161411885Y-110282382D01*
X161406885Y-110895607D01*
X161373972Y-111373572D01*
X161301795Y-111801262D01*
X161178998Y-112263666D01*
X161122699Y-112447080D01*
X160679223Y-113540329D01*
X160059044Y-114537236D01*
X159245389Y-115462534D01*
X158799146Y-115872991D01*
X157795960Y-116620029D01*
X156750895Y-117153634D01*
X155645064Y-117479986D01*
X154459583Y-117605263D01*
X153588278Y-117577941D01*
X152282836Y-117393600D01*
X151112749Y-117055285D01*
X150041654Y-116547936D01*
X149033190Y-115856494D01*
X148645887Y-115530918D01*
X148152767Y-114991130D01*
X147677626Y-114276987D01*
X147243531Y-113434943D01*
X146873547Y-112511454D01*
X146590740Y-111552974D01*
X146525122Y-111259624D01*
X146449741Y-110844215D01*
X146418607Y-110490319D01*
X146275336Y-110490319D01*
X146274707Y-110873904D01*
X146453396Y-111933679D01*
X146454807Y-111938904D01*
X146778347Y-112913020D01*
X147202405Y-113851862D01*
X147697027Y-114699499D01*
X148232261Y-115399998D01*
X148406216Y-115582954D01*
X149064950Y-116141152D01*
X149863219Y-116673529D01*
X150720712Y-117133048D01*
X151557115Y-117472673D01*
X151719680Y-117523512D01*
X152442525Y-117682836D01*
X153290574Y-117785482D01*
X154185232Y-117828381D01*
X155047905Y-117808467D01*
G36*
X152146750Y-104336857D02*
X152268437Y-104204672D01*
X152304988Y-104005810D01*
X152271526Y-103674248D01*
X152179173Y-103322199D01*
X152043698Y-103157469D01*
X151879279Y-103195539D01*
X151854121Y-103218569D01*
X151848930Y-103350486D01*
X151909341Y-103605282D01*
X151936231Y-103687917D01*
X152016822Y-104008355D01*
X151982129Y-104207144D01*
X151953817Y-104247786D01*
X151843827Y-104318091D01*
X151704645Y-104239534D01*
X151568571Y-104093537D01*
X151398620Y-103823099D01*
X151358900Y-103592029D01*
X151360602Y-103584872D01*
X151369777Y-103411675D01*
X151251750Y-103408280D01*
X151103496Y-103492334D01*
X151005587Y-103612742D01*
X151060478Y-103683904D01*
X151190224Y-103832313D01*
X151346644Y-104086791D01*
X151367010Y-104125643D01*
X151587371Y-104407489D01*
X151851508Y-104473209D01*
X152146750Y-104336857D01*
X152146750Y-104336857D01*
G37*
X152146750Y-104336857D02*
X152268437Y-104204672D01*
X152304988Y-104005810D01*
X152271526Y-103674248D01*
X152179173Y-103322199D01*
X152043698Y-103157469D01*
X151879279Y-103195539D01*
X151854121Y-103218569D01*
X151848930Y-103350486D01*
X151909341Y-103605282D01*
X151936231Y-103687917D01*
X152016822Y-104008355D01*
X151982129Y-104207144D01*
X151953817Y-104247786D01*
X151843827Y-104318091D01*
X151704645Y-104239534D01*
X151568571Y-104093537D01*
X151398620Y-103823099D01*
X151358900Y-103592029D01*
X151360602Y-103584872D01*
X151369777Y-103411675D01*
X151251750Y-103408280D01*
X151103496Y-103492334D01*
X151005587Y-103612742D01*
X151060478Y-103683904D01*
X151190224Y-103832313D01*
X151346644Y-104086791D01*
X151367010Y-104125643D01*
X151587371Y-104407489D01*
X151851508Y-104473209D01*
X152146750Y-104336857D01*
G36*
X156719148Y-104636148D02*
X156720575Y-104414214D01*
X156792838Y-104145725D01*
X156903283Y-103918902D01*
X157019255Y-103821963D01*
X157020531Y-103821947D01*
X157161901Y-103768758D01*
X157177409Y-103728264D01*
X157084445Y-103633447D01*
X156861051Y-103516065D01*
X156590470Y-103409466D01*
X156355947Y-103346999D01*
X156245550Y-103354966D01*
X156186164Y-103503834D01*
X156317288Y-103592329D01*
X156413568Y-103601078D01*
X156581014Y-103653131D01*
X156593025Y-103739121D01*
X156469361Y-103848841D01*
X156415874Y-103848791D01*
X156336992Y-103911300D01*
X156358824Y-104097269D01*
X156352815Y-104316570D01*
X156222130Y-104381060D01*
X156016387Y-104271599D01*
X155984713Y-104241600D01*
X155877092Y-104174404D01*
X155852192Y-104284845D01*
X155946278Y-104442352D01*
X156118019Y-104527331D01*
X156403837Y-104608732D01*
X156564274Y-104663286D01*
X156702931Y-104677838D01*
X156719148Y-104636148D01*
X156719148Y-104636148D01*
G37*
X156719148Y-104636148D02*
X156720575Y-104414214D01*
X156792838Y-104145725D01*
X156903283Y-103918902D01*
X157019255Y-103821963D01*
X157020531Y-103821947D01*
X157161901Y-103768758D01*
X157177409Y-103728264D01*
X157084445Y-103633447D01*
X156861051Y-103516065D01*
X156590470Y-103409466D01*
X156355947Y-103346999D01*
X156245550Y-103354966D01*
X156186164Y-103503834D01*
X156317288Y-103592329D01*
X156413568Y-103601078D01*
X156581014Y-103653131D01*
X156593025Y-103739121D01*
X156469361Y-103848841D01*
X156415874Y-103848791D01*
X156336992Y-103911300D01*
X156358824Y-104097269D01*
X156352815Y-104316570D01*
X156222130Y-104381060D01*
X156016387Y-104271599D01*
X155984713Y-104241600D01*
X155877092Y-104174404D01*
X155852192Y-104284845D01*
X155946278Y-104442352D01*
X156118019Y-104527331D01*
X156403837Y-104608732D01*
X156564274Y-104663286D01*
X156702931Y-104677838D01*
X156719148Y-104636148D01*
G36*
X150591705Y-105063233D02*
X150647802Y-105029612D01*
X151020368Y-104802500D01*
X150787182Y-104585254D01*
X150585652Y-104323740D01*
X150485469Y-104094978D01*
X150403284Y-103884549D01*
X150277155Y-103843352D01*
X150065223Y-103970010D01*
X149935947Y-104076889D01*
X149744757Y-104266350D01*
X149731738Y-104318904D01*
X149999148Y-104318904D01*
X150058780Y-104171941D01*
X150109583Y-104153252D01*
X150207558Y-104242699D01*
X150220018Y-104318904D01*
X150160386Y-104465867D01*
X150109583Y-104484556D01*
X150011607Y-104395109D01*
X149999148Y-104318904D01*
X149731738Y-104318904D01*
X149706823Y-104419471D01*
X149781301Y-104601454D01*
X149843274Y-104722487D01*
X150133624Y-104722487D01*
X150166242Y-104612765D01*
X150280974Y-104612053D01*
X150474653Y-104717969D01*
X150527280Y-104798799D01*
X150494662Y-104908521D01*
X150379931Y-104909233D01*
X150186252Y-104803318D01*
X150133624Y-104722487D01*
X149843274Y-104722487D01*
X149915671Y-104863876D01*
X149996594Y-105030157D01*
X150118857Y-105189848D01*
X150301238Y-105200886D01*
X150591705Y-105063233D01*
X150591705Y-105063233D01*
G37*
X150591705Y-105063233D02*
X150647802Y-105029612D01*
X151020368Y-104802500D01*
X150787182Y-104585254D01*
X150585652Y-104323740D01*
X150485469Y-104094978D01*
X150403284Y-103884549D01*
X150277155Y-103843352D01*
X150065223Y-103970010D01*
X149935947Y-104076889D01*
X149744757Y-104266350D01*
X149731738Y-104318904D01*
X149999148Y-104318904D01*
X150058780Y-104171941D01*
X150109583Y-104153252D01*
X150207558Y-104242699D01*
X150220018Y-104318904D01*
X150160386Y-104465867D01*
X150109583Y-104484556D01*
X150011607Y-104395109D01*
X149999148Y-104318904D01*
X149731738Y-104318904D01*
X149706823Y-104419471D01*
X149781301Y-104601454D01*
X149843274Y-104722487D01*
X150133624Y-104722487D01*
X150166242Y-104612765D01*
X150280974Y-104612053D01*
X150474653Y-104717969D01*
X150527280Y-104798799D01*
X150494662Y-104908521D01*
X150379931Y-104909233D01*
X150186252Y-104803318D01*
X150133624Y-104722487D01*
X149843274Y-104722487D01*
X149915671Y-104863876D01*
X149996594Y-105030157D01*
X150118857Y-105189848D01*
X150301238Y-105200886D01*
X150591705Y-105063233D01*
G36*
X158223026Y-105466505D02*
X158227784Y-105330463D01*
X158254411Y-104956124D01*
X158307850Y-104622600D01*
X158330629Y-104356467D01*
X158238100Y-104268908D01*
X158023368Y-104358787D01*
X157784800Y-104536350D01*
X157533659Y-104713959D01*
X157334070Y-104807757D01*
X157306249Y-104811889D01*
X157178695Y-104857063D01*
X157206154Y-104948382D01*
X157840018Y-104948382D01*
X157900397Y-104815506D01*
X158025244Y-104680248D01*
X158130121Y-104630775D01*
X158138950Y-104636243D01*
X158137457Y-104755943D01*
X158106889Y-104855272D01*
X158000310Y-105001785D01*
X157884406Y-105033972D01*
X157840018Y-104948382D01*
X157206154Y-104948382D01*
X157206554Y-104949712D01*
X157345361Y-105043335D01*
X157550651Y-105091431D01*
X157574050Y-105091947D01*
X157816668Y-105132779D01*
X157895475Y-105273998D01*
X157896072Y-105293445D01*
X157978413Y-105512878D01*
X158061724Y-105587177D01*
X158177023Y-105607682D01*
X158223026Y-105466505D01*
X158223026Y-105466505D01*
G37*
X158223026Y-105466505D02*
X158227784Y-105330463D01*
X158254411Y-104956124D01*
X158307850Y-104622600D01*
X158330629Y-104356467D01*
X158238100Y-104268908D01*
X158023368Y-104358787D01*
X157784800Y-104536350D01*
X157533659Y-104713959D01*
X157334070Y-104807757D01*
X157306249Y-104811889D01*
X157178695Y-104857063D01*
X157206154Y-104948382D01*
X157840018Y-104948382D01*
X157900397Y-104815506D01*
X158025244Y-104680248D01*
X158130121Y-104630775D01*
X158138950Y-104636243D01*
X158137457Y-104755943D01*
X158106889Y-104855272D01*
X158000310Y-105001785D01*
X157884406Y-105033972D01*
X157840018Y-104948382D01*
X157206154Y-104948382D01*
X157206554Y-104949712D01*
X157345361Y-105043335D01*
X157550651Y-105091431D01*
X157574050Y-105091947D01*
X157816668Y-105132779D01*
X157895475Y-105273998D01*
X157896072Y-105293445D01*
X157978413Y-105512878D01*
X158061724Y-105587177D01*
X158177023Y-105607682D01*
X158223026Y-105466505D01*
G36*
X149458302Y-106031804D02*
X149667844Y-105809773D01*
X149815234Y-105592247D01*
X149835447Y-105499685D01*
X149731667Y-105478758D01*
X149687634Y-105478469D01*
X149511698Y-105552939D01*
X149486853Y-105667499D01*
X149415221Y-105846984D01*
X149327390Y-105892911D01*
X149209816Y-105871831D01*
X149188542Y-105705790D01*
X149202030Y-105592435D01*
X149187145Y-105286303D01*
X149075910Y-105038655D01*
X148904741Y-104927028D01*
X148889166Y-104926295D01*
X148747939Y-104996225D01*
X148626601Y-105099836D01*
X148465832Y-105332748D01*
X148515482Y-105500066D01*
X148550941Y-105525927D01*
X148650540Y-105485605D01*
X148709160Y-105355681D01*
X148789338Y-105181626D01*
X148869119Y-105190229D01*
X148925252Y-105344462D01*
X148934488Y-105607297D01*
X148924965Y-105699360D01*
X148898384Y-105981285D01*
X148941593Y-106107621D01*
X149085971Y-106140286D01*
X149148826Y-106141078D01*
X149458302Y-106031804D01*
X149458302Y-106031804D01*
G37*
X149458302Y-106031804D02*
X149667844Y-105809773D01*
X149815234Y-105592247D01*
X149835447Y-105499685D01*
X149731667Y-105478758D01*
X149687634Y-105478469D01*
X149511698Y-105552939D01*
X149486853Y-105667499D01*
X149415221Y-105846984D01*
X149327390Y-105892911D01*
X149209816Y-105871831D01*
X149188542Y-105705790D01*
X149202030Y-105592435D01*
X149187145Y-105286303D01*
X149075910Y-105038655D01*
X148904741Y-104927028D01*
X148889166Y-104926295D01*
X148747939Y-104996225D01*
X148626601Y-105099836D01*
X148465832Y-105332748D01*
X148515482Y-105500066D01*
X148550941Y-105525927D01*
X148650540Y-105485605D01*
X148709160Y-105355681D01*
X148789338Y-105181626D01*
X148869119Y-105190229D01*
X148925252Y-105344462D01*
X148934488Y-105607297D01*
X148924965Y-105699360D01*
X148898384Y-105981285D01*
X148941593Y-106107621D01*
X149085971Y-106140286D01*
X149148826Y-106141078D01*
X149458302Y-106031804D01*
G36*
X158845268Y-106147300D02*
X158986284Y-106023377D01*
X159230613Y-105822467D01*
X159426620Y-105709108D01*
X159468931Y-105699850D01*
X159595823Y-105636405D01*
X159557780Y-105486986D01*
X159460048Y-105383576D01*
X159322526Y-105342707D01*
X159140222Y-105452527D01*
X158997648Y-105590923D01*
X158765882Y-105798687D01*
X158575070Y-105912722D01*
X158537182Y-105920208D01*
X158403600Y-105981822D01*
X158445660Y-106137837D01*
X158516937Y-106221649D01*
X158647553Y-106261235D01*
X158845268Y-106147300D01*
X158845268Y-106147300D01*
G37*
X158845268Y-106147300D02*
X158986284Y-106023377D01*
X159230613Y-105822467D01*
X159426620Y-105709108D01*
X159468931Y-105699850D01*
X159595823Y-105636405D01*
X159557780Y-105486986D01*
X159460048Y-105383576D01*
X159322526Y-105342707D01*
X159140222Y-105452527D01*
X158997648Y-105590923D01*
X158765882Y-105798687D01*
X158575070Y-105912722D01*
X158537182Y-105920208D01*
X158403600Y-105981822D01*
X158445660Y-106137837D01*
X158516937Y-106221649D01*
X158647553Y-106261235D01*
X158845268Y-106147300D01*
G36*
X159605283Y-107835702D02*
X159694267Y-107712032D01*
X159920425Y-107533610D01*
X160106603Y-107415350D01*
X160405664Y-107203214D01*
X160520724Y-107038274D01*
X160449721Y-106941407D01*
X160190593Y-106933492D01*
X160153704Y-106938477D01*
X159945195Y-106958522D01*
X159902173Y-106894264D01*
X159994244Y-106691815D01*
X160003966Y-106673005D01*
X160096059Y-106461315D01*
X160067141Y-106383130D01*
X159894256Y-106432893D01*
X159607018Y-106576927D01*
X159342548Y-106695864D01*
X159162190Y-106737522D01*
X159137670Y-106731433D01*
X159069754Y-106762254D01*
X159059389Y-106901478D01*
X159111482Y-107043005D01*
X159122675Y-107055620D01*
X159251767Y-107050038D01*
X159467839Y-106941804D01*
X159470432Y-106940110D01*
X159660754Y-106821896D01*
X159699158Y-106838967D01*
X159619541Y-107001075D01*
X159548039Y-107175860D01*
X159627545Y-107239628D01*
X159796349Y-107248784D01*
X159995810Y-107261432D01*
X159996616Y-107308978D01*
X159903962Y-107368460D01*
X159668189Y-107437880D01*
X159545049Y-107423785D01*
X159408585Y-107438092D01*
X159387796Y-107497370D01*
X159424998Y-107654452D01*
X159503333Y-107805611D01*
X159578053Y-107881234D01*
X159605283Y-107835702D01*
X159605283Y-107835702D01*
G37*
X159605283Y-107835702D02*
X159694267Y-107712032D01*
X159920425Y-107533610D01*
X160106603Y-107415350D01*
X160405664Y-107203214D01*
X160520724Y-107038274D01*
X160449721Y-106941407D01*
X160190593Y-106933492D01*
X160153704Y-106938477D01*
X159945195Y-106958522D01*
X159902173Y-106894264D01*
X159994244Y-106691815D01*
X160003966Y-106673005D01*
X160096059Y-106461315D01*
X160067141Y-106383130D01*
X159894256Y-106432893D01*
X159607018Y-106576927D01*
X159342548Y-106695864D01*
X159162190Y-106737522D01*
X159137670Y-106731433D01*
X159069754Y-106762254D01*
X159059389Y-106901478D01*
X159111482Y-107043005D01*
X159122675Y-107055620D01*
X159251767Y-107050038D01*
X159467839Y-106941804D01*
X159470432Y-106940110D01*
X159660754Y-106821896D01*
X159699158Y-106838967D01*
X159619541Y-107001075D01*
X159548039Y-107175860D01*
X159627545Y-107239628D01*
X159796349Y-107248784D01*
X159995810Y-107261432D01*
X159996616Y-107308978D01*
X159903962Y-107368460D01*
X159668189Y-107437880D01*
X159545049Y-107423785D01*
X159408585Y-107438092D01*
X159387796Y-107497370D01*
X159424998Y-107654452D01*
X159503333Y-107805611D01*
X159578053Y-107881234D01*
X159605283Y-107835702D01*
G36*
X148371738Y-107759596D02*
X148435545Y-107674175D01*
X148549894Y-107452641D01*
X148531641Y-107376925D01*
X148460692Y-107406362D01*
X148329677Y-107404893D01*
X148270355Y-107258819D01*
X148298866Y-107089739D01*
X148432348Y-106941029D01*
X148601524Y-106931001D01*
X148696512Y-107037082D01*
X148762473Y-107040673D01*
X148865248Y-106879578D01*
X148868999Y-106871430D01*
X148954760Y-106673085D01*
X148975259Y-106604096D01*
X148860900Y-106620906D01*
X148587891Y-106643591D01*
X148259800Y-106664583D01*
X147902171Y-106700080D01*
X147652727Y-106753843D01*
X147569583Y-106808001D01*
X147631992Y-106947572D01*
X147681795Y-107024556D01*
X147956105Y-107024556D01*
X147981140Y-106930013D01*
X148060022Y-106914121D01*
X148211120Y-106971779D01*
X148232192Y-107024556D01*
X148152929Y-107131830D01*
X148128274Y-107134991D01*
X147978708Y-107054716D01*
X147956105Y-107024556D01*
X147681795Y-107024556D01*
X147792544Y-107195747D01*
X147938588Y-107395633D01*
X148153426Y-107665188D01*
X148283520Y-107778499D01*
X148371738Y-107759596D01*
X148371738Y-107759596D01*
G37*
X148371738Y-107759596D02*
X148435545Y-107674175D01*
X148549894Y-107452641D01*
X148531641Y-107376925D01*
X148460692Y-107406362D01*
X148329677Y-107404893D01*
X148270355Y-107258819D01*
X148298866Y-107089739D01*
X148432348Y-106941029D01*
X148601524Y-106931001D01*
X148696512Y-107037082D01*
X148762473Y-107040673D01*
X148865248Y-106879578D01*
X148868999Y-106871430D01*
X148954760Y-106673085D01*
X148975259Y-106604096D01*
X148860900Y-106620906D01*
X148587891Y-106643591D01*
X148259800Y-106664583D01*
X147902171Y-106700080D01*
X147652727Y-106753843D01*
X147569583Y-106808001D01*
X147631992Y-106947572D01*
X147681795Y-107024556D01*
X147956105Y-107024556D01*
X147981140Y-106930013D01*
X148060022Y-106914121D01*
X148211120Y-106971779D01*
X148232192Y-107024556D01*
X148152929Y-107131830D01*
X148128274Y-107134991D01*
X147978708Y-107054716D01*
X147956105Y-107024556D01*
X147681795Y-107024556D01*
X147792544Y-107195747D01*
X147938588Y-107395633D01*
X148153426Y-107665188D01*
X148283520Y-107778499D01*
X148371738Y-107759596D01*
G36*
X147811291Y-109291323D02*
X147945980Y-109107577D01*
X148053078Y-108836097D01*
X148147808Y-108535348D01*
X148162688Y-108397246D01*
X148098903Y-108378971D01*
X148065405Y-108390145D01*
X147865042Y-108394508D01*
X147564575Y-108329289D01*
X147473799Y-108299725D01*
X147150709Y-108212824D01*
X146961755Y-108238313D01*
X146919680Y-108270807D01*
X146800195Y-108465588D01*
X146827799Y-108609004D01*
X146986206Y-108635044D01*
X147008017Y-108628841D01*
X147278118Y-108603345D01*
X147504974Y-108633371D01*
X147731622Y-108771469D01*
X147785210Y-108980614D01*
X147654059Y-109185963D01*
X147597192Y-109224406D01*
X147474550Y-109310460D01*
X147553273Y-109337811D01*
X147642028Y-109340328D01*
X147811291Y-109291323D01*
X147811291Y-109291323D01*
G37*
X147811291Y-109291323D02*
X147945980Y-109107577D01*
X148053078Y-108836097D01*
X148147808Y-108535348D01*
X148162688Y-108397246D01*
X148098903Y-108378971D01*
X148065405Y-108390145D01*
X147865042Y-108394508D01*
X147564575Y-108329289D01*
X147473799Y-108299725D01*
X147150709Y-108212824D01*
X146961755Y-108238313D01*
X146919680Y-108270807D01*
X146800195Y-108465588D01*
X146827799Y-108609004D01*
X146986206Y-108635044D01*
X147008017Y-108628841D01*
X147278118Y-108603345D01*
X147504974Y-108633371D01*
X147731622Y-108771469D01*
X147785210Y-108980614D01*
X147654059Y-109185963D01*
X147597192Y-109224406D01*
X147474550Y-109310460D01*
X147553273Y-109337811D01*
X147642028Y-109340328D01*
X147811291Y-109291323D01*
G36*
X160196239Y-109137860D02*
X160410520Y-109044056D01*
X160727346Y-108988168D01*
X160790668Y-108984304D01*
X161220738Y-108967154D01*
X161108867Y-108548029D01*
X160991085Y-108249303D01*
X160833214Y-108133629D01*
X160781826Y-108128904D01*
X160636157Y-108144050D01*
X160659691Y-108227065D01*
X160749423Y-108330861D01*
X160910129Y-108549794D01*
X160888869Y-108660143D01*
X160766539Y-108681078D01*
X160619576Y-108621446D01*
X160600887Y-108570643D01*
X160516849Y-108463417D01*
X160490452Y-108460208D01*
X160390514Y-108548776D01*
X160380018Y-108614045D01*
X160302099Y-108772996D01*
X160138350Y-108846918D01*
X159993776Y-108791069D01*
X159987247Y-108781401D01*
X159961730Y-108590286D01*
X159983785Y-108500909D01*
X159984808Y-108375788D01*
X159930071Y-108370915D01*
X159822282Y-108465657D01*
X159819561Y-108490578D01*
X159827687Y-108660763D01*
X159829535Y-108763904D01*
X159887665Y-109027194D01*
X159931553Y-109115716D01*
X160048241Y-109215716D01*
X160196239Y-109137860D01*
X160196239Y-109137860D01*
G37*
X160196239Y-109137860D02*
X160410520Y-109044056D01*
X160727346Y-108988168D01*
X160790668Y-108984304D01*
X161220738Y-108967154D01*
X161108867Y-108548029D01*
X160991085Y-108249303D01*
X160833214Y-108133629D01*
X160781826Y-108128904D01*
X160636157Y-108144050D01*
X160659691Y-108227065D01*
X160749423Y-108330861D01*
X160910129Y-108549794D01*
X160888869Y-108660143D01*
X160766539Y-108681078D01*
X160619576Y-108621446D01*
X160600887Y-108570643D01*
X160516849Y-108463417D01*
X160490452Y-108460208D01*
X160390514Y-108548776D01*
X160380018Y-108614045D01*
X160302099Y-108772996D01*
X160138350Y-108846918D01*
X159993776Y-108791069D01*
X159987247Y-108781401D01*
X159961730Y-108590286D01*
X159983785Y-108500909D01*
X159984808Y-108375788D01*
X159930071Y-108370915D01*
X159822282Y-108465657D01*
X159819561Y-108490578D01*
X159827687Y-108660763D01*
X159829535Y-108763904D01*
X159887665Y-109027194D01*
X159931553Y-109115716D01*
X160048241Y-109215716D01*
X160196239Y-109137860D01*
G36*
X161259879Y-110836792D02*
X161312007Y-110691865D01*
X161297538Y-110421133D01*
X161227050Y-110105737D01*
X161133621Y-109868252D01*
X160947383Y-109715998D01*
X160664799Y-109682196D01*
X160375388Y-109765984D01*
X160231481Y-109876947D01*
X160094698Y-110137234D01*
X160086964Y-110181619D01*
X160264351Y-110181619D01*
X160289629Y-110059991D01*
X160462844Y-109981066D01*
X160763605Y-109970469D01*
X160979352Y-110058824D01*
X161042626Y-110184828D01*
X160940126Y-110301021D01*
X160656105Y-110337600D01*
X160395345Y-110290455D01*
X160264351Y-110181619D01*
X160086964Y-110181619D01*
X160048645Y-110401513D01*
X160059459Y-110591491D01*
X160129846Y-110681853D01*
X160316558Y-110701822D01*
X160600819Y-110685854D01*
X160976394Y-110684205D01*
X161143849Y-110745270D01*
X161153061Y-110775198D01*
X161218873Y-110852302D01*
X161259879Y-110836792D01*
X161259879Y-110836792D01*
G37*
X161259879Y-110836792D02*
X161312007Y-110691865D01*
X161297538Y-110421133D01*
X161227050Y-110105737D01*
X161133621Y-109868252D01*
X160947383Y-109715998D01*
X160664799Y-109682196D01*
X160375388Y-109765984D01*
X160231481Y-109876947D01*
X160094698Y-110137234D01*
X160086964Y-110181619D01*
X160264351Y-110181619D01*
X160289629Y-110059991D01*
X160462844Y-109981066D01*
X160763605Y-109970469D01*
X160979352Y-110058824D01*
X161042626Y-110184828D01*
X160940126Y-110301021D01*
X160656105Y-110337600D01*
X160395345Y-110290455D01*
X160264351Y-110181619D01*
X160086964Y-110181619D01*
X160048645Y-110401513D01*
X160059459Y-110591491D01*
X160129846Y-110681853D01*
X160316558Y-110701822D01*
X160600819Y-110685854D01*
X160976394Y-110684205D01*
X161143849Y-110745270D01*
X161153061Y-110775198D01*
X161218873Y-110852302D01*
X161259879Y-110836792D01*
G36*
X147880265Y-110444013D02*
X147900887Y-110227165D01*
X147859170Y-109976866D01*
X147756059Y-109894527D01*
X147624800Y-110006295D01*
X147464257Y-110090377D01*
X147191735Y-110113238D01*
X146906765Y-110077276D01*
X146708878Y-109984891D01*
X146708191Y-109984208D01*
X146615572Y-109937187D01*
X146578826Y-110068233D01*
X146575670Y-110190249D01*
X146585778Y-110399337D01*
X146656299Y-110484055D01*
X146847523Y-110476684D01*
X147045018Y-110441535D01*
X147371184Y-110407864D01*
X147588601Y-110436963D01*
X147619278Y-110456364D01*
X147787455Y-110553684D01*
X147880265Y-110444013D01*
X147880265Y-110444013D01*
G37*
X147880265Y-110444013D02*
X147900887Y-110227165D01*
X147859170Y-109976866D01*
X147756059Y-109894527D01*
X147624800Y-110006295D01*
X147464257Y-110090377D01*
X147191735Y-110113238D01*
X146906765Y-110077276D01*
X146708878Y-109984891D01*
X146708191Y-109984208D01*
X146615572Y-109937187D01*
X146578826Y-110068233D01*
X146575670Y-110190249D01*
X146585778Y-110399337D01*
X146656299Y-110484055D01*
X146847523Y-110476684D01*
X147045018Y-110441535D01*
X147371184Y-110407864D01*
X147588601Y-110436963D01*
X147619278Y-110456364D01*
X147787455Y-110553684D01*
X147880265Y-110444013D01*
G36*
X147323425Y-112308003D02*
X147284071Y-112250794D01*
X147210670Y-112206145D01*
X147054560Y-112046508D01*
X147028565Y-111876865D01*
X147137815Y-111777652D01*
X147183061Y-111773252D01*
X147330024Y-111832883D01*
X147348713Y-111883687D01*
X147432751Y-111990912D01*
X147459148Y-111994121D01*
X147544255Y-111911706D01*
X147541974Y-111862637D01*
X147607840Y-111732544D01*
X147707626Y-111688887D01*
X147857540Y-111731838D01*
X147902391Y-111897690D01*
X147834075Y-112110894D01*
X147762844Y-112203623D01*
X147693257Y-112306745D01*
X147809030Y-112311072D01*
X147845670Y-112304407D01*
X147982478Y-112244373D01*
X148038387Y-112093829D01*
X148035244Y-111790692D01*
X148033874Y-111769587D01*
X147991782Y-111446501D01*
X147924600Y-111216743D01*
X147895830Y-111171847D01*
X147802768Y-111137516D01*
X147790452Y-111193800D01*
X147694398Y-111302720D01*
X147462036Y-111406014D01*
X147177067Y-111478574D01*
X146923192Y-111495291D01*
X146842266Y-111478242D01*
X146726677Y-111487989D01*
X146730846Y-111567695D01*
X146789281Y-111785232D01*
X146844637Y-112021730D01*
X146952409Y-112256777D01*
X147157556Y-112322067D01*
X147323425Y-112308003D01*
X147323425Y-112308003D01*
G37*
X147323425Y-112308003D02*
X147284071Y-112250794D01*
X147210670Y-112206145D01*
X147054560Y-112046508D01*
X147028565Y-111876865D01*
X147137815Y-111777652D01*
X147183061Y-111773252D01*
X147330024Y-111832883D01*
X147348713Y-111883687D01*
X147432751Y-111990912D01*
X147459148Y-111994121D01*
X147544255Y-111911706D01*
X147541974Y-111862637D01*
X147607840Y-111732544D01*
X147707626Y-111688887D01*
X147857540Y-111731838D01*
X147902391Y-111897690D01*
X147834075Y-112110894D01*
X147762844Y-112203623D01*
X147693257Y-112306745D01*
X147809030Y-112311072D01*
X147845670Y-112304407D01*
X147982478Y-112244373D01*
X148038387Y-112093829D01*
X148035244Y-111790692D01*
X148033874Y-111769587D01*
X147991782Y-111446501D01*
X147924600Y-111216743D01*
X147895830Y-111171847D01*
X147802768Y-111137516D01*
X147790452Y-111193800D01*
X147694398Y-111302720D01*
X147462036Y-111406014D01*
X147177067Y-111478574D01*
X146923192Y-111495291D01*
X146842266Y-111478242D01*
X146726677Y-111487989D01*
X146730846Y-111567695D01*
X146789281Y-111785232D01*
X146844637Y-112021730D01*
X146952409Y-112256777D01*
X147157556Y-112322067D01*
X147323425Y-112308003D01*
G36*
X159866594Y-112449527D02*
X160061775Y-112360315D01*
X160379716Y-112279967D01*
X160529203Y-112255342D01*
X160830692Y-112199525D01*
X161015349Y-112137407D01*
X161042626Y-112109426D01*
X160968018Y-112008915D01*
X160780156Y-111814634D01*
X160532988Y-111577133D01*
X160280459Y-111346962D01*
X160076515Y-111174670D01*
X159976731Y-111110643D01*
X159947789Y-111205451D01*
X159938278Y-111386730D01*
X159984692Y-111590493D01*
X160076322Y-111635208D01*
X160174996Y-111698048D01*
X160177527Y-111828469D01*
X160144334Y-111935018D01*
X160269583Y-111935018D01*
X160307760Y-111825081D01*
X160457956Y-111866740D01*
X160490452Y-111883687D01*
X160663913Y-111996167D01*
X160711322Y-112053224D01*
X160618424Y-112094998D01*
X160490452Y-112104556D01*
X160309107Y-112033721D01*
X160269583Y-111935018D01*
X160144334Y-111935018D01*
X160112443Y-112037387D01*
X160023010Y-112169360D01*
X159952227Y-112176102D01*
X159936587Y-112099034D01*
X159917506Y-111997948D01*
X159837642Y-112089499D01*
X159827844Y-112104556D01*
X159727934Y-112321296D01*
X159725529Y-112466980D01*
X159814248Y-112484797D01*
X159866594Y-112449527D01*
X159866594Y-112449527D01*
G37*
X159866594Y-112449527D02*
X160061775Y-112360315D01*
X160379716Y-112279967D01*
X160529203Y-112255342D01*
X160830692Y-112199525D01*
X161015349Y-112137407D01*
X161042626Y-112109426D01*
X160968018Y-112008915D01*
X160780156Y-111814634D01*
X160532988Y-111577133D01*
X160280459Y-111346962D01*
X160076515Y-111174670D01*
X159976731Y-111110643D01*
X159947789Y-111205451D01*
X159938278Y-111386730D01*
X159984692Y-111590493D01*
X160076322Y-111635208D01*
X160174996Y-111698048D01*
X160177527Y-111828469D01*
X160144334Y-111935018D01*
X160269583Y-111935018D01*
X160307760Y-111825081D01*
X160457956Y-111866740D01*
X160490452Y-111883687D01*
X160663913Y-111996167D01*
X160711322Y-112053224D01*
X160618424Y-112094998D01*
X160490452Y-112104556D01*
X160309107Y-112033721D01*
X160269583Y-111935018D01*
X160144334Y-111935018D01*
X160112443Y-112037387D01*
X160023010Y-112169360D01*
X159952227Y-112176102D01*
X159936587Y-112099034D01*
X159917506Y-111997948D01*
X159837642Y-112089499D01*
X159827844Y-112104556D01*
X159727934Y-112321296D01*
X159725529Y-112466980D01*
X159814248Y-112484797D01*
X159866594Y-112449527D01*
G36*
X148065951Y-114314351D02*
X148240170Y-114104885D01*
X148511335Y-113884553D01*
X148570032Y-113846304D01*
X148950018Y-113610132D01*
X148473687Y-113512073D01*
X148186757Y-113440303D01*
X148082061Y-113366856D01*
X148122576Y-113263430D01*
X148132467Y-113251216D01*
X148312784Y-113140761D01*
X148415537Y-113145195D01*
X148538857Y-113128574D01*
X148549053Y-112980110D01*
X148444773Y-112758461D01*
X148425107Y-112730556D01*
X148313746Y-112610909D01*
X148233418Y-112672471D01*
X148176629Y-112792275D01*
X147993195Y-113001791D01*
X147706172Y-113149324D01*
X147447685Y-113262110D01*
X147407800Y-113380245D01*
X147584489Y-113498764D01*
X147886939Y-113592116D01*
X148168660Y-113675778D01*
X148263646Y-113755198D01*
X148215666Y-113843904D01*
X147987934Y-113966149D01*
X147881168Y-113981947D01*
X147752716Y-114009256D01*
X147758056Y-114132127D01*
X147813304Y-114264087D01*
X147911020Y-114456144D01*
X147980119Y-114458775D01*
X148065951Y-114314351D01*
X148065951Y-114314351D01*
G37*
X148065951Y-114314351D02*
X148240170Y-114104885D01*
X148511335Y-113884553D01*
X148570032Y-113846304D01*
X148950018Y-113610132D01*
X148473687Y-113512073D01*
X148186757Y-113440303D01*
X148082061Y-113366856D01*
X148122576Y-113263430D01*
X148132467Y-113251216D01*
X148312784Y-113140761D01*
X148415537Y-113145195D01*
X148538857Y-113128574D01*
X148549053Y-112980110D01*
X148444773Y-112758461D01*
X148425107Y-112730556D01*
X148313746Y-112610909D01*
X148233418Y-112672471D01*
X148176629Y-112792275D01*
X147993195Y-113001791D01*
X147706172Y-113149324D01*
X147447685Y-113262110D01*
X147407800Y-113380245D01*
X147584489Y-113498764D01*
X147886939Y-113592116D01*
X148168660Y-113675778D01*
X148263646Y-113755198D01*
X148215666Y-113843904D01*
X147987934Y-113966149D01*
X147881168Y-113981947D01*
X147752716Y-114009256D01*
X147758056Y-114132127D01*
X147813304Y-114264087D01*
X147911020Y-114456144D01*
X147980119Y-114458775D01*
X148065951Y-114314351D01*
G36*
X160217698Y-113910066D02*
X160452865Y-113733737D01*
X160572763Y-113511935D01*
X160562529Y-113378669D01*
X160449417Y-113221172D01*
X160349083Y-113262424D01*
X160316032Y-113457382D01*
X160241778Y-113666238D01*
X160040153Y-113744238D01*
X159771392Y-113677089D01*
X159665760Y-113611691D01*
X159522366Y-113465913D01*
X159530543Y-113289403D01*
X159581368Y-113165784D01*
X159641228Y-112945677D01*
X159581827Y-112877709D01*
X159435922Y-112991767D01*
X159416821Y-113015643D01*
X159255748Y-113270840D01*
X159255508Y-113472424D01*
X159395625Y-113692880D01*
X159698278Y-113934337D01*
X159929178Y-113981947D01*
X160217698Y-113910066D01*
X160217698Y-113910066D01*
G37*
X160217698Y-113910066D02*
X160452865Y-113733737D01*
X160572763Y-113511935D01*
X160562529Y-113378669D01*
X160449417Y-113221172D01*
X160349083Y-113262424D01*
X160316032Y-113457382D01*
X160241778Y-113666238D01*
X160040153Y-113744238D01*
X159771392Y-113677089D01*
X159665760Y-113611691D01*
X159522366Y-113465913D01*
X159530543Y-113289403D01*
X159581368Y-113165784D01*
X159641228Y-112945677D01*
X159581827Y-112877709D01*
X159435922Y-112991767D01*
X159416821Y-113015643D01*
X159255748Y-113270840D01*
X159255508Y-113472424D01*
X159395625Y-113692880D01*
X159698278Y-113934337D01*
X159929178Y-113981947D01*
X160217698Y-113910066D01*
G36*
X148987975Y-115343550D02*
X148966522Y-115231956D01*
X148833065Y-115196730D01*
X148717433Y-115145067D01*
X148726540Y-115090515D01*
X148874621Y-115040130D01*
X149042565Y-115079494D01*
X149346175Y-115112041D01*
X149561671Y-114990728D01*
X149662845Y-114773711D01*
X149623494Y-114519146D01*
X149417409Y-114285189D01*
X149404415Y-114276483D01*
X149193906Y-114173113D01*
X149073110Y-114171753D01*
X148997540Y-114344260D01*
X149090879Y-114456209D01*
X149226105Y-114455685D01*
X149404652Y-114461795D01*
X149446974Y-114590908D01*
X149407597Y-114716440D01*
X149250951Y-114744942D01*
X149067291Y-114722276D01*
X148711469Y-114725251D01*
X148514977Y-114862025D01*
X148495016Y-115115154D01*
X148543900Y-115253041D01*
X148699050Y-115450373D01*
X148836223Y-115458825D01*
X148987975Y-115343550D01*
X148987975Y-115343550D01*
G37*
X148987975Y-115343550D02*
X148966522Y-115231956D01*
X148833065Y-115196730D01*
X148717433Y-115145067D01*
X148726540Y-115090515D01*
X148874621Y-115040130D01*
X149042565Y-115079494D01*
X149346175Y-115112041D01*
X149561671Y-114990728D01*
X149662845Y-114773711D01*
X149623494Y-114519146D01*
X149417409Y-114285189D01*
X149404415Y-114276483D01*
X149193906Y-114173113D01*
X149073110Y-114171753D01*
X148997540Y-114344260D01*
X149090879Y-114456209D01*
X149226105Y-114455685D01*
X149404652Y-114461795D01*
X149446974Y-114590908D01*
X149407597Y-114716440D01*
X149250951Y-114744942D01*
X149067291Y-114722276D01*
X148711469Y-114725251D01*
X148514977Y-114862025D01*
X148495016Y-115115154D01*
X148543900Y-115253041D01*
X148699050Y-115450373D01*
X148836223Y-115458825D01*
X148987975Y-115343550D01*
G36*
X158161699Y-115810068D02*
X158275549Y-115639957D01*
X158220495Y-115452089D01*
X158111924Y-115376059D01*
X157932101Y-115402459D01*
X157876391Y-115482102D01*
X157877882Y-115682021D01*
X157995664Y-115817174D01*
X158161699Y-115810068D01*
X158161699Y-115810068D01*
G37*
X158161699Y-115810068D02*
X158275549Y-115639957D01*
X158220495Y-115452089D01*
X158111924Y-115376059D01*
X157932101Y-115402459D01*
X157876391Y-115482102D01*
X157877882Y-115682021D01*
X157995664Y-115817174D01*
X158161699Y-115810068D01*
G36*
X153889438Y-106057039D02*
X153886334Y-105798956D01*
X153871790Y-105564617D01*
X153944338Y-105489234D01*
X154043504Y-105498294D01*
X154209375Y-105619675D01*
X154246534Y-105840415D01*
X154283942Y-106066760D01*
X154432439Y-106138567D01*
X154467403Y-106139387D01*
X154602711Y-106110951D01*
X154564548Y-106056202D01*
X154461037Y-105896358D01*
X154398895Y-105643762D01*
X154326483Y-105393393D01*
X154148194Y-105290651D01*
X154081102Y-105280138D01*
X153839872Y-105283084D01*
X153722189Y-105326153D01*
X153653112Y-105497154D01*
X153641352Y-105749056D01*
X153679343Y-105990972D01*
X153759520Y-106132017D01*
X153790022Y-106141078D01*
X153889438Y-106057039D01*
X153889438Y-106057039D01*
G37*
X153889438Y-106057039D02*
X153886334Y-105798956D01*
X153871790Y-105564617D01*
X153944338Y-105489234D01*
X154043504Y-105498294D01*
X154209375Y-105619675D01*
X154246534Y-105840415D01*
X154283942Y-106066760D01*
X154432439Y-106138567D01*
X154467403Y-106139387D01*
X154602711Y-106110951D01*
X154564548Y-106056202D01*
X154461037Y-105896358D01*
X154398895Y-105643762D01*
X154326483Y-105393393D01*
X154148194Y-105290651D01*
X154081102Y-105280138D01*
X153839872Y-105283084D01*
X153722189Y-105326153D01*
X153653112Y-105497154D01*
X153641352Y-105749056D01*
X153679343Y-105990972D01*
X153759520Y-106132017D01*
X153790022Y-106141078D01*
X153889438Y-106057039D01*
G36*
X152771428Y-106393705D02*
X152997119Y-106282743D01*
X153091318Y-106144665D01*
X153091322Y-106143811D01*
X153027150Y-106038118D01*
X152913646Y-106062848D01*
X152866940Y-106168687D01*
X152811432Y-106199464D01*
X152696000Y-106085860D01*
X152584492Y-105841889D01*
X152578738Y-105671730D01*
X152600039Y-105533954D01*
X152522786Y-105502657D01*
X152290150Y-105554695D01*
X152162507Y-105611935D01*
X152185401Y-105725392D01*
X152262541Y-105842544D01*
X152403341Y-106103349D01*
X152411076Y-106267703D01*
X152286970Y-106298286D01*
X152247992Y-106285666D01*
X152116434Y-106277587D01*
X152121406Y-106371958D01*
X152251971Y-106457508D01*
X152495845Y-106458358D01*
X152771428Y-106393705D01*
X152771428Y-106393705D01*
G37*
X152771428Y-106393705D02*
X152997119Y-106282743D01*
X153091318Y-106144665D01*
X153091322Y-106143811D01*
X153027150Y-106038118D01*
X152913646Y-106062848D01*
X152866940Y-106168687D01*
X152811432Y-106199464D01*
X152696000Y-106085860D01*
X152584492Y-105841889D01*
X152578738Y-105671730D01*
X152600039Y-105533954D01*
X152522786Y-105502657D01*
X152290150Y-105554695D01*
X152162507Y-105611935D01*
X152185401Y-105725392D01*
X152262541Y-105842544D01*
X152403341Y-106103349D01*
X152411076Y-106267703D01*
X152286970Y-106298286D01*
X152247992Y-106285666D01*
X152116434Y-106277587D01*
X152121406Y-106371958D01*
X152251971Y-106457508D01*
X152495845Y-106458358D01*
X152771428Y-106393705D01*
G36*
X151512364Y-106924741D02*
X151516720Y-106667258D01*
X151511258Y-106417353D01*
X151497305Y-106084689D01*
X151483612Y-105864058D01*
X151475931Y-105809962D01*
X151407421Y-105882327D01*
X151355031Y-105947817D01*
X151225452Y-106170710D01*
X151174926Y-106290579D01*
X151051143Y-106433733D01*
X150950370Y-106437253D01*
X150746324Y-106453143D01*
X150678246Y-106500067D01*
X150665624Y-106576299D01*
X151103496Y-106576299D01*
X151187729Y-106475357D01*
X151213931Y-106472382D01*
X151310850Y-106562272D01*
X151324365Y-106644552D01*
X151270828Y-106758858D01*
X151213931Y-106748469D01*
X151107708Y-106607283D01*
X151103496Y-106576299D01*
X150665624Y-106576299D01*
X150660642Y-106606388D01*
X150826015Y-106733840D01*
X151008153Y-106822742D01*
X151287003Y-106944245D01*
X151466463Y-107016156D01*
X151495709Y-107024556D01*
X151512364Y-106924741D01*
X151512364Y-106924741D01*
G37*
X151512364Y-106924741D02*
X151516720Y-106667258D01*
X151511258Y-106417353D01*
X151497305Y-106084689D01*
X151483612Y-105864058D01*
X151475931Y-105809962D01*
X151407421Y-105882327D01*
X151355031Y-105947817D01*
X151225452Y-106170710D01*
X151174926Y-106290579D01*
X151051143Y-106433733D01*
X150950370Y-106437253D01*
X150746324Y-106453143D01*
X150678246Y-106500067D01*
X150665624Y-106576299D01*
X151103496Y-106576299D01*
X151187729Y-106475357D01*
X151213931Y-106472382D01*
X151310850Y-106562272D01*
X151324365Y-106644552D01*
X151270828Y-106758858D01*
X151213931Y-106748469D01*
X151107708Y-106607283D01*
X151103496Y-106576299D01*
X150665624Y-106576299D01*
X150660642Y-106606388D01*
X150826015Y-106733840D01*
X151008153Y-106822742D01*
X151287003Y-106944245D01*
X151466463Y-107016156D01*
X151495709Y-107024556D01*
X151512364Y-106924741D01*
G36*
X150426077Y-108193275D02*
X150478559Y-108053415D01*
X150466074Y-107843180D01*
X150447833Y-107640042D01*
X150535661Y-107598427D01*
X150646536Y-107627117D01*
X150829358Y-107648179D01*
X150882626Y-107601898D01*
X150787629Y-107482069D01*
X150496635Y-107307405D01*
X150175646Y-107151353D01*
X150127163Y-107212110D01*
X150140830Y-107426240D01*
X150148846Y-107469353D01*
X150189502Y-107707158D01*
X150158578Y-107760488D01*
X150031051Y-107660776D01*
X150010920Y-107642601D01*
X149824256Y-107530647D01*
X149732077Y-107562142D01*
X149770532Y-107684177D01*
X149953200Y-107841889D01*
X149997200Y-107869233D01*
X150219867Y-108024758D01*
X150328391Y-108147658D01*
X150330452Y-108159232D01*
X150397427Y-108206685D01*
X150426077Y-108193275D01*
X150426077Y-108193275D01*
G37*
X150426077Y-108193275D02*
X150478559Y-108053415D01*
X150466074Y-107843180D01*
X150447833Y-107640042D01*
X150535661Y-107598427D01*
X150646536Y-107627117D01*
X150829358Y-107648179D01*
X150882626Y-107601898D01*
X150787629Y-107482069D01*
X150496635Y-107307405D01*
X150175646Y-107151353D01*
X150127163Y-107212110D01*
X150140830Y-107426240D01*
X150148846Y-107469353D01*
X150189502Y-107707158D01*
X150158578Y-107760488D01*
X150031051Y-107660776D01*
X150010920Y-107642601D01*
X149824256Y-107530647D01*
X149732077Y-107562142D01*
X149770532Y-107684177D01*
X149953200Y-107841889D01*
X149997200Y-107869233D01*
X150219867Y-108024758D01*
X150328391Y-108147658D01*
X150330452Y-108159232D01*
X150397427Y-108206685D01*
X150426077Y-108193275D01*
G36*
X156951528Y-106835237D02*
X157223166Y-106711249D01*
X157314740Y-106609080D01*
X157269696Y-106505733D01*
X157133498Y-106417712D01*
X157066974Y-106472382D01*
X156960738Y-106489814D01*
X156817755Y-106390882D01*
X156717104Y-106247282D01*
X156716344Y-106154474D01*
X156673631Y-106066784D01*
X156654272Y-106058728D01*
X156590901Y-106136694D01*
X156543071Y-106371560D01*
X156530830Y-106518287D01*
X156527490Y-106582817D01*
X156625235Y-106582817D01*
X156709273Y-106475591D01*
X156735670Y-106472382D01*
X156842895Y-106556420D01*
X156846105Y-106582817D01*
X156762066Y-106690043D01*
X156735670Y-106693252D01*
X156628444Y-106609214D01*
X156625235Y-106582817D01*
X156527490Y-106582817D01*
X156505351Y-107010500D01*
X156951528Y-106835237D01*
X156951528Y-106835237D01*
G37*
X156951528Y-106835237D02*
X157223166Y-106711249D01*
X157314740Y-106609080D01*
X157269696Y-106505733D01*
X157133498Y-106417712D01*
X157066974Y-106472382D01*
X156960738Y-106489814D01*
X156817755Y-106390882D01*
X156717104Y-106247282D01*
X156716344Y-106154474D01*
X156673631Y-106066784D01*
X156654272Y-106058728D01*
X156590901Y-106136694D01*
X156543071Y-106371560D01*
X156530830Y-106518287D01*
X156527490Y-106582817D01*
X156625235Y-106582817D01*
X156709273Y-106475591D01*
X156735670Y-106472382D01*
X156842895Y-106556420D01*
X156846105Y-106582817D01*
X156762066Y-106690043D01*
X156735670Y-106693252D01*
X156628444Y-106609214D01*
X156625235Y-106582817D01*
X156527490Y-106582817D01*
X156505351Y-107010500D01*
X156951528Y-106835237D01*
G36*
X151563464Y-110521900D02*
X151655670Y-110436219D01*
X151576954Y-110358314D01*
X151508423Y-110370473D01*
X151396697Y-110336407D01*
X151361177Y-110107132D01*
X151361177Y-110106201D01*
X151387182Y-109852728D01*
X151480100Y-109801311D01*
X151647387Y-109923469D01*
X151754081Y-110001786D01*
X151746134Y-109903804D01*
X151743764Y-109895860D01*
X151604349Y-109769688D01*
X151324546Y-109698488D01*
X151312412Y-109697375D01*
X150931011Y-109664543D01*
X150973635Y-110111506D01*
X151016323Y-110397883D01*
X151104447Y-110525911D01*
X151288639Y-110558048D01*
X151335965Y-110558469D01*
X151563464Y-110521900D01*
X151563464Y-110521900D01*
G37*
X151563464Y-110521900D02*
X151655670Y-110436219D01*
X151576954Y-110358314D01*
X151508423Y-110370473D01*
X151396697Y-110336407D01*
X151361177Y-110107132D01*
X151361177Y-110106201D01*
X151387182Y-109852728D01*
X151480100Y-109801311D01*
X151647387Y-109923469D01*
X151754081Y-110001786D01*
X151746134Y-109903804D01*
X151743764Y-109895860D01*
X151604349Y-109769688D01*
X151324546Y-109698488D01*
X151312412Y-109697375D01*
X150931011Y-109664543D01*
X150973635Y-110111506D01*
X151016323Y-110397883D01*
X151104447Y-110525911D01*
X151288639Y-110558048D01*
X151335965Y-110558469D01*
X151563464Y-110521900D01*
G36*
X152566757Y-110537857D02*
X152821473Y-110482202D01*
X152923204Y-110346237D01*
X152937644Y-110227165D01*
X152958077Y-109933671D01*
X153001340Y-109821937D01*
X153092088Y-109852859D01*
X153146539Y-109895860D01*
X153281904Y-109972187D01*
X153312192Y-109905917D01*
X153222554Y-109754740D01*
X153012762Y-109696902D01*
X152771499Y-109753836D01*
X152745389Y-109768933D01*
X152578621Y-109833178D01*
X152539148Y-109786361D01*
X152449715Y-109687561D01*
X152373496Y-109674991D01*
X152259139Y-109746792D01*
X152211295Y-109985705D01*
X152207844Y-110123727D01*
X152213887Y-110291585D01*
X152547867Y-110291585D01*
X152568171Y-110148350D01*
X152605869Y-110146639D01*
X152632232Y-110294444D01*
X152614588Y-110358306D01*
X152565551Y-110400137D01*
X152547867Y-110291585D01*
X152213887Y-110291585D01*
X152218090Y-110408325D01*
X152282452Y-110530276D01*
X152451361Y-110547771D01*
X152566757Y-110537857D01*
X152566757Y-110537857D01*
G37*
X152566757Y-110537857D02*
X152821473Y-110482202D01*
X152923204Y-110346237D01*
X152937644Y-110227165D01*
X152958077Y-109933671D01*
X153001340Y-109821937D01*
X153092088Y-109852859D01*
X153146539Y-109895860D01*
X153281904Y-109972187D01*
X153312192Y-109905917D01*
X153222554Y-109754740D01*
X153012762Y-109696902D01*
X152771499Y-109753836D01*
X152745389Y-109768933D01*
X152578621Y-109833178D01*
X152539148Y-109786361D01*
X152449715Y-109687561D01*
X152373496Y-109674991D01*
X152259139Y-109746792D01*
X152211295Y-109985705D01*
X152207844Y-110123727D01*
X152213887Y-110291585D01*
X152547867Y-110291585D01*
X152568171Y-110148350D01*
X152605869Y-110146639D01*
X152632232Y-110294444D01*
X152614588Y-110358306D01*
X152565551Y-110400137D01*
X152547867Y-110291585D01*
X152213887Y-110291585D01*
X152218090Y-110408325D01*
X152282452Y-110530276D01*
X152451361Y-110547771D01*
X152566757Y-110537857D01*
G36*
X154064084Y-110521425D02*
X154127947Y-110371701D01*
X154140452Y-110116730D01*
X154121930Y-109827728D01*
X154047068Y-109700001D01*
X153919583Y-109674991D01*
X153775082Y-109712035D01*
X153711218Y-109861759D01*
X153698713Y-110116730D01*
X153717235Y-110405732D01*
X153792097Y-110533459D01*
X153919583Y-110558469D01*
X154064084Y-110521425D01*
X154064084Y-110521425D01*
G37*
X154064084Y-110521425D02*
X154127947Y-110371701D01*
X154140452Y-110116730D01*
X154121930Y-109827728D01*
X154047068Y-109700001D01*
X153919583Y-109674991D01*
X153775082Y-109712035D01*
X153711218Y-109861759D01*
X153698713Y-110116730D01*
X153717235Y-110405732D01*
X153792097Y-110533459D01*
X153919583Y-110558469D01*
X154064084Y-110521425D01*
G36*
X155355777Y-110534743D02*
X155509629Y-110475472D01*
X155520887Y-110451500D01*
X155438928Y-110393314D01*
X155341142Y-110413506D01*
X155226318Y-110424690D01*
X155191260Y-110303838D01*
X155208532Y-110078736D01*
X155219109Y-109802999D01*
X155152666Y-109688194D01*
X155079148Y-109674991D01*
X154964366Y-109724427D01*
X154935494Y-109907055D01*
X154949764Y-110078736D01*
X154965605Y-110339801D01*
X154916506Y-110431399D01*
X154817154Y-110413506D01*
X154666532Y-110404482D01*
X154637409Y-110451500D01*
X154735390Y-110518487D01*
X154980156Y-110555743D01*
X155079148Y-110558469D01*
X155355777Y-110534743D01*
X155355777Y-110534743D01*
G37*
X155355777Y-110534743D02*
X155509629Y-110475472D01*
X155520887Y-110451500D01*
X155438928Y-110393314D01*
X155341142Y-110413506D01*
X155226318Y-110424690D01*
X155191260Y-110303838D01*
X155208532Y-110078736D01*
X155219109Y-109802999D01*
X155152666Y-109688194D01*
X155079148Y-109674991D01*
X154964366Y-109724427D01*
X154935494Y-109907055D01*
X154949764Y-110078736D01*
X154965605Y-110339801D01*
X154916506Y-110431399D01*
X154817154Y-110413506D01*
X154666532Y-110404482D01*
X154637409Y-110451500D01*
X154735390Y-110518487D01*
X154980156Y-110555743D01*
X155079148Y-110558469D01*
X155355777Y-110534743D01*
G36*
X156487995Y-110470713D02*
X156644210Y-110248685D01*
X156722400Y-110116730D01*
X156970672Y-109674991D01*
X156736218Y-109674991D01*
X156579119Y-109716415D01*
X156570018Y-109785426D01*
X156536204Y-109872348D01*
X156410883Y-109895860D01*
X156227921Y-109850804D01*
X156183496Y-109785426D01*
X156093893Y-109687816D01*
X156015599Y-109674991D01*
X155926977Y-109705508D01*
X155939563Y-109828233D01*
X156059439Y-110089930D01*
X156073061Y-110116730D01*
X156104927Y-110171947D01*
X156293931Y-110171947D01*
X156351725Y-110024957D01*
X156400899Y-110006295D01*
X156461662Y-110087245D01*
X156444302Y-110171947D01*
X156365917Y-110317254D01*
X156337333Y-110337600D01*
X156298728Y-110247420D01*
X156293931Y-110171947D01*
X156104927Y-110171947D01*
X156226427Y-110382473D01*
X156351678Y-110539930D01*
X156386274Y-110558469D01*
X156487995Y-110470713D01*
X156487995Y-110470713D01*
G37*
X156487995Y-110470713D02*
X156644210Y-110248685D01*
X156722400Y-110116730D01*
X156970672Y-109674991D01*
X156736218Y-109674991D01*
X156579119Y-109716415D01*
X156570018Y-109785426D01*
X156536204Y-109872348D01*
X156410883Y-109895860D01*
X156227921Y-109850804D01*
X156183496Y-109785426D01*
X156093893Y-109687816D01*
X156015599Y-109674991D01*
X155926977Y-109705508D01*
X155939563Y-109828233D01*
X156059439Y-110089930D01*
X156073061Y-110116730D01*
X156104927Y-110171947D01*
X156293931Y-110171947D01*
X156351725Y-110024957D01*
X156400899Y-110006295D01*
X156461662Y-110087245D01*
X156444302Y-110171947D01*
X156365917Y-110317254D01*
X156337333Y-110337600D01*
X156298728Y-110247420D01*
X156293931Y-110171947D01*
X156104927Y-110171947D01*
X156226427Y-110382473D01*
X156351678Y-110539930D01*
X156386274Y-110558469D01*
X156487995Y-110470713D01*
G36*
X157881925Y-110521844D02*
X157950452Y-110451500D01*
X157869503Y-110390737D01*
X157784800Y-110408098D01*
X157640858Y-110421782D01*
X157639759Y-110330981D01*
X157770779Y-110189958D01*
X157836932Y-110144286D01*
X157992584Y-109968110D01*
X157957864Y-109799016D01*
X157758404Y-109690196D01*
X157610799Y-109674991D01*
X157392614Y-109700911D01*
X157348156Y-109800904D01*
X157366794Y-109862668D01*
X157442296Y-109968057D01*
X157482966Y-109917885D01*
X157593716Y-109809662D01*
X157750174Y-109792282D01*
X157839180Y-109875085D01*
X157840018Y-109888419D01*
X157748873Y-110000571D01*
X157619148Y-110061513D01*
X157429639Y-110198101D01*
X157398996Y-110379944D01*
X157518012Y-110524158D01*
X157674365Y-110558469D01*
X157881925Y-110521844D01*
X157881925Y-110521844D01*
G37*
X157881925Y-110521844D02*
X157950452Y-110451500D01*
X157869503Y-110390737D01*
X157784800Y-110408098D01*
X157640858Y-110421782D01*
X157639759Y-110330981D01*
X157770779Y-110189958D01*
X157836932Y-110144286D01*
X157992584Y-109968110D01*
X157957864Y-109799016D01*
X157758404Y-109690196D01*
X157610799Y-109674991D01*
X157392614Y-109700911D01*
X157348156Y-109800904D01*
X157366794Y-109862668D01*
X157442296Y-109968057D01*
X157482966Y-109917885D01*
X157593716Y-109809662D01*
X157750174Y-109792282D01*
X157839180Y-109875085D01*
X157840018Y-109888419D01*
X157748873Y-110000571D01*
X157619148Y-110061513D01*
X157429639Y-110198101D01*
X157398996Y-110379944D01*
X157518012Y-110524158D01*
X157674365Y-110558469D01*
X157881925Y-110521844D01*
G36*
X158113561Y-113036265D02*
X158155798Y-112971854D01*
X158260106Y-112756062D01*
X158274336Y-112625276D01*
X158205167Y-112626268D01*
X158119617Y-112718449D01*
X157998659Y-112864061D01*
X157958886Y-112833212D01*
X157953965Y-112727741D01*
X157892442Y-112579100D01*
X157784800Y-112586231D01*
X157642329Y-112569263D01*
X157619148Y-112487612D01*
X157708129Y-112345748D01*
X157791318Y-112325426D01*
X157905624Y-112271888D01*
X157895235Y-112214991D01*
X157776529Y-112113809D01*
X157625277Y-112185907D01*
X157432622Y-112413027D01*
X157204560Y-112721498D01*
X157617199Y-112947522D01*
X157879932Y-113082923D01*
X158021834Y-113111440D01*
X158113561Y-113036265D01*
X158113561Y-113036265D01*
G37*
X158113561Y-113036265D02*
X158155798Y-112971854D01*
X158260106Y-112756062D01*
X158274336Y-112625276D01*
X158205167Y-112626268D01*
X158119617Y-112718449D01*
X157998659Y-112864061D01*
X157958886Y-112833212D01*
X157953965Y-112727741D01*
X157892442Y-112579100D01*
X157784800Y-112586231D01*
X157642329Y-112569263D01*
X157619148Y-112487612D01*
X157708129Y-112345748D01*
X157791318Y-112325426D01*
X157905624Y-112271888D01*
X157895235Y-112214991D01*
X157776529Y-112113809D01*
X157625277Y-112185907D01*
X157432622Y-112413027D01*
X157204560Y-112721498D01*
X157617199Y-112947522D01*
X157879932Y-113082923D01*
X158021834Y-113111440D01*
X158113561Y-113036265D01*
G36*
X151112136Y-113887418D02*
X151181932Y-113761078D01*
X151281140Y-113570351D01*
X151399992Y-113569169D01*
X151465696Y-113678252D01*
X151557759Y-113758333D01*
X151598976Y-113738232D01*
X151647608Y-113577156D01*
X151547817Y-113410748D01*
X151354015Y-113321095D01*
X151321314Y-113319339D01*
X151163164Y-113281850D01*
X151150980Y-113221417D01*
X151132671Y-113077637D01*
X151071197Y-113007055D01*
X150937996Y-112976168D01*
X150780079Y-113121244D01*
X150713500Y-113215094D01*
X150542858Y-113431603D01*
X150409026Y-113537727D01*
X150396162Y-113539891D01*
X150385529Y-113607684D01*
X150447612Y-113693808D01*
X150675310Y-113693808D01*
X150702727Y-113541076D01*
X150735380Y-113503397D01*
X150897020Y-113433051D01*
X150989358Y-113547993D01*
X150993061Y-113595426D01*
X150904662Y-113741837D01*
X150827409Y-113761078D01*
X150675310Y-113693808D01*
X150447612Y-113693808D01*
X150496105Y-113761078D01*
X150723666Y-113929093D01*
X150910081Y-113981947D01*
X151112136Y-113887418D01*
X151112136Y-113887418D01*
G37*
X151112136Y-113887418D02*
X151181932Y-113761078D01*
X151281140Y-113570351D01*
X151399992Y-113569169D01*
X151465696Y-113678252D01*
X151557759Y-113758333D01*
X151598976Y-113738232D01*
X151647608Y-113577156D01*
X151547817Y-113410748D01*
X151354015Y-113321095D01*
X151321314Y-113319339D01*
X151163164Y-113281850D01*
X151150980Y-113221417D01*
X151132671Y-113077637D01*
X151071197Y-113007055D01*
X150937996Y-112976168D01*
X150780079Y-113121244D01*
X150713500Y-113215094D01*
X150542858Y-113431603D01*
X150409026Y-113537727D01*
X150396162Y-113539891D01*
X150385529Y-113607684D01*
X150447612Y-113693808D01*
X150675310Y-113693808D01*
X150702727Y-113541076D01*
X150735380Y-113503397D01*
X150897020Y-113433051D01*
X150989358Y-113547993D01*
X150993061Y-113595426D01*
X150904662Y-113741837D01*
X150827409Y-113761078D01*
X150675310Y-113693808D01*
X150447612Y-113693808D01*
X150496105Y-113761078D01*
X150723666Y-113929093D01*
X150910081Y-113981947D01*
X151112136Y-113887418D01*
G36*
X152610938Y-114865431D02*
X152820899Y-114727339D01*
X153039299Y-114531366D01*
X153203350Y-114334565D01*
X153250267Y-114193989D01*
X153246159Y-114185318D01*
X153097856Y-114100999D01*
X153023069Y-114092382D01*
X152913881Y-114147615D01*
X152925670Y-114202817D01*
X152922553Y-114299670D01*
X152755088Y-114294708D01*
X152603398Y-114246219D01*
X152451070Y-114108996D01*
X152428713Y-114025350D01*
X152371069Y-113886051D01*
X152328787Y-113871513D01*
X152280785Y-113968564D01*
X152277227Y-114213011D01*
X152290123Y-114340860D01*
X152333211Y-114547643D01*
X152428713Y-114547643D01*
X152483816Y-114353323D01*
X152606961Y-114322590D01*
X152697067Y-114411174D01*
X152675073Y-114551757D01*
X152593149Y-114645565D01*
X152467127Y-114715423D01*
X152429574Y-114599603D01*
X152428713Y-114547643D01*
X152333211Y-114547643D01*
X152354301Y-114648850D01*
X152441402Y-114856013D01*
X152472203Y-114888591D01*
X152610938Y-114865431D01*
X152610938Y-114865431D01*
G37*
X152610938Y-114865431D02*
X152820899Y-114727339D01*
X153039299Y-114531366D01*
X153203350Y-114334565D01*
X153250267Y-114193989D01*
X153246159Y-114185318D01*
X153097856Y-114100999D01*
X153023069Y-114092382D01*
X152913881Y-114147615D01*
X152925670Y-114202817D01*
X152922553Y-114299670D01*
X152755088Y-114294708D01*
X152603398Y-114246219D01*
X152451070Y-114108996D01*
X152428713Y-114025350D01*
X152371069Y-113886051D01*
X152328787Y-113871513D01*
X152280785Y-113968564D01*
X152277227Y-114213011D01*
X152290123Y-114340860D01*
X152333211Y-114547643D01*
X152428713Y-114547643D01*
X152483816Y-114353323D01*
X152606961Y-114322590D01*
X152697067Y-114411174D01*
X152675073Y-114551757D01*
X152593149Y-114645565D01*
X152467127Y-114715423D01*
X152429574Y-114599603D01*
X152428713Y-114547643D01*
X152333211Y-114547643D01*
X152354301Y-114648850D01*
X152441402Y-114856013D01*
X152472203Y-114888591D01*
X152610938Y-114865431D01*
G36*
X155675920Y-114909437D02*
X155787817Y-114837897D01*
X155754356Y-114713548D01*
X155684952Y-114608777D01*
X155557224Y-114352969D01*
X155520887Y-114178245D01*
X155483776Y-114018864D01*
X155337836Y-114012026D01*
X155220051Y-114054133D01*
X155151751Y-114144785D01*
X155233495Y-114334693D01*
X155259802Y-114375866D01*
X155367381Y-114624666D01*
X155370843Y-114809356D01*
X155367512Y-114951713D01*
X155526614Y-114958223D01*
X155675920Y-114909437D01*
X155675920Y-114909437D01*
G37*
X155675920Y-114909437D02*
X155787817Y-114837897D01*
X155754356Y-114713548D01*
X155684952Y-114608777D01*
X155557224Y-114352969D01*
X155520887Y-114178245D01*
X155483776Y-114018864D01*
X155337836Y-114012026D01*
X155220051Y-114054133D01*
X155151751Y-114144785D01*
X155233495Y-114334693D01*
X155259802Y-114375866D01*
X155367381Y-114624666D01*
X155370843Y-114809356D01*
X155367512Y-114951713D01*
X155526614Y-114958223D01*
X155675920Y-114909437D01*
G36*
X154448909Y-115183655D02*
X154594989Y-115125649D01*
X154636546Y-114994541D01*
X154637409Y-114954753D01*
X154626322Y-114787054D01*
X154561991Y-114819528D01*
X154488103Y-114916964D01*
X154375327Y-115046538D01*
X154312315Y-114994579D01*
X154267332Y-114836412D01*
X154236639Y-114554393D01*
X154262801Y-114377245D01*
X154254225Y-114236708D01*
X154103993Y-114202817D01*
X153959429Y-114230257D01*
X153915588Y-114353474D01*
X153943980Y-114607852D01*
X153973242Y-114868445D01*
X153933173Y-114961749D01*
X153826602Y-114942622D01*
X153671444Y-114945432D01*
X153643496Y-115034544D01*
X153712557Y-115142233D01*
X153943779Y-115190870D01*
X154140452Y-115196730D01*
X154448909Y-115183655D01*
X154448909Y-115183655D01*
G37*
X154448909Y-115183655D02*
X154594989Y-115125649D01*
X154636546Y-114994541D01*
X154637409Y-114954753D01*
X154626322Y-114787054D01*
X154561991Y-114819528D01*
X154488103Y-114916964D01*
X154375327Y-115046538D01*
X154312315Y-114994579D01*
X154267332Y-114836412D01*
X154236639Y-114554393D01*
X154262801Y-114377245D01*
X154254225Y-114236708D01*
X154103993Y-114202817D01*
X153959429Y-114230257D01*
X153915588Y-114353474D01*
X153943980Y-114607852D01*
X153973242Y-114868445D01*
X153933173Y-114961749D01*
X153826602Y-114942622D01*
X153671444Y-114945432D01*
X153643496Y-115034544D01*
X153712557Y-115142233D01*
X153943779Y-115190870D01*
X154140452Y-115196730D01*
X154448909Y-115183655D01*
G36*
X154068147Y-112791033D02*
X154232249Y-112704031D01*
X154342542Y-112720022D01*
X154499254Y-112719385D01*
X154526974Y-112640937D01*
X154431480Y-112525223D01*
X154250887Y-112491078D01*
X154035147Y-112542194D01*
X153976491Y-112711947D01*
X154000751Y-112849229D01*
X154068147Y-112791033D01*
X154068147Y-112791033D01*
G37*
X154068147Y-112791033D02*
X154232249Y-112704031D01*
X154342542Y-112720022D01*
X154499254Y-112719385D01*
X154526974Y-112640937D01*
X154431480Y-112525223D01*
X154250887Y-112491078D01*
X154035147Y-112542194D01*
X153976491Y-112711947D01*
X154000751Y-112849229D01*
X154068147Y-112791033D01*
G36*
X153741880Y-112788099D02*
X153753931Y-112711947D01*
X153730303Y-112564604D01*
X153710529Y-112546295D01*
X153639320Y-112632650D01*
X153603560Y-112711947D01*
X153601264Y-112854150D01*
X153646962Y-112877600D01*
X153741880Y-112788099D01*
X153741880Y-112788099D01*
G37*
X153741880Y-112788099D02*
X153753931Y-112711947D01*
X153730303Y-112564604D01*
X153710529Y-112546295D01*
X153639320Y-112632650D01*
X153603560Y-112711947D01*
X153601264Y-112854150D01*
X153646962Y-112877600D01*
X153741880Y-112788099D01*
D13*
X160278000Y-101028500D02*
X160828000Y-101478500D01*
X160828000Y-101478500D02*
X160828000Y-100578500D01*
X160828000Y-100578500D02*
X160278000Y-101028500D01*
X160278000Y-101578500D02*
X160278000Y-100478500D01*
X158728860Y-99278440D02*
X158728860Y-99628960D01*
X158728860Y-102778560D02*
X158728860Y-102428040D01*
X162778440Y-99278440D02*
X162778440Y-99628960D01*
X158277560Y-99278440D02*
X158277560Y-99628960D01*
X158277560Y-102778560D02*
X158277560Y-102428040D01*
X162778440Y-102778560D02*
X162778440Y-102428040D01*
X158277560Y-99278440D02*
X162778440Y-99278440D01*
X158277560Y-102778560D02*
X162778440Y-102778560D01*
X165100000Y-117098000D02*
X164650000Y-117648000D01*
X164650000Y-117648000D02*
X165550000Y-117648000D01*
X165550000Y-117648000D02*
X165100000Y-117098000D01*
X164550000Y-117098000D02*
X165650000Y-117098000D01*
X166850060Y-115548860D02*
X166499540Y-115548860D01*
X163349940Y-115548860D02*
X163700460Y-115548860D01*
X166850060Y-119598440D02*
X166499540Y-119598440D01*
X166850060Y-115097560D02*
X166499540Y-115097560D01*
X163349940Y-115097560D02*
X163700460Y-115097560D01*
X163349940Y-119598440D02*
X163700460Y-119598440D01*
X166850060Y-115097560D02*
X166850060Y-119598440D01*
X163349940Y-115097560D02*
X163349940Y-119598440D01*
X157738000Y-97078800D02*
X158288000Y-97528800D01*
X158288000Y-97528800D02*
X158288000Y-96628800D01*
X158288000Y-96628800D02*
X157738000Y-97078800D01*
X157738000Y-97628800D02*
X157738000Y-96528800D01*
X156188860Y-95328740D02*
X156188860Y-95679260D01*
X156188860Y-98828860D02*
X156188860Y-98478340D01*
X160238440Y-95328740D02*
X160238440Y-95679260D01*
X155737560Y-95328740D02*
X155737560Y-95679260D01*
X155737560Y-98828860D02*
X155737560Y-98478340D01*
X160238440Y-98828860D02*
X160238440Y-98478340D01*
X155737560Y-95328740D02*
X160238440Y-95328740D01*
X155737560Y-98828860D02*
X160238440Y-98828860D01*
X143641000Y-93853000D02*
X144191000Y-94303000D01*
X144191000Y-94303000D02*
X144191000Y-93403000D01*
X144191000Y-93403000D02*
X143641000Y-93853000D01*
X143641000Y-94403000D02*
X143641000Y-93303000D01*
X142091860Y-92102940D02*
X142091860Y-92453460D01*
X142091860Y-95603060D02*
X142091860Y-95252540D01*
X146141440Y-92102940D02*
X146141440Y-92453460D01*
X141640560Y-92102940D02*
X141640560Y-92453460D01*
X141640560Y-95603060D02*
X141640560Y-95252540D01*
X146141440Y-95603060D02*
X146141440Y-95252540D01*
X141640560Y-92102940D02*
X146141440Y-92102940D01*
X141640560Y-95603060D02*
X146141440Y-95603060D01*
X161099500Y-118364000D02*
X161480500Y-118364000D01*
X160083500Y-118364000D02*
X160464500Y-118364000D01*
X160464500Y-118364000D02*
X161099500Y-118745000D01*
X161099500Y-118745000D02*
X161099500Y-117983000D01*
X161099500Y-117983000D02*
X160464500Y-118364000D01*
X160464500Y-118872000D02*
X160464500Y-117856000D01*
X158982000Y-117464000D02*
X162522000Y-117464000D01*
X158982000Y-119264000D02*
X162522000Y-119264000D01*
X150431500Y-99060000D02*
X150812500Y-99060000D01*
X149415500Y-99060000D02*
X149796500Y-99060000D01*
X149796500Y-99060000D02*
X150431500Y-99441000D01*
X150431500Y-99441000D02*
X150431500Y-98679000D01*
X150431500Y-98679000D02*
X149796500Y-99060000D01*
X149796500Y-99568000D02*
X149796500Y-98552000D01*
X148314000Y-98160000D02*
X151854000Y-98160000D01*
X148314000Y-99960000D02*
X151854000Y-99960000D01*
X134874000Y-92773500D02*
X134874000Y-92392500D01*
X134874000Y-93789500D02*
X134874000Y-93408500D01*
X134874000Y-93408500D02*
X135255000Y-92773500D01*
X135255000Y-92773500D02*
X134493000Y-92773500D01*
X134493000Y-92773500D02*
X134874000Y-93408500D01*
X135382000Y-93408500D02*
X134366000Y-93408500D01*
X133974000Y-94891000D02*
X133974000Y-91351000D01*
X135774000Y-94891000D02*
X135774000Y-91351000D01*
X175006000Y-114558000D02*
X174556000Y-115108000D01*
X174556000Y-115108000D02*
X175456000Y-115108000D01*
X175456000Y-115108000D02*
X175006000Y-114558000D01*
X174456000Y-114558000D02*
X175556000Y-114558000D01*
X176756060Y-113008860D02*
X176405540Y-113008860D01*
X173255940Y-113008860D02*
X173606460Y-113008860D01*
X176756060Y-117058440D02*
X176405540Y-117058440D01*
X176756060Y-112557560D02*
X176405540Y-112557560D01*
X173255940Y-112557560D02*
X173606460Y-112557560D01*
X173255940Y-117058440D02*
X173606460Y-117058440D01*
X176756060Y-112557560D02*
X176756060Y-117058440D01*
X173255940Y-112557560D02*
X173255940Y-117058440D01*
X155855895Y-101468181D02*
X155855895Y-100468181D01*
X155617800Y-100468181D01*
X155474942Y-100515800D01*
X155379704Y-100611038D01*
X155332085Y-100706276D01*
X155284466Y-100896752D01*
X155284466Y-101039610D01*
X155332085Y-101230086D01*
X155379704Y-101325324D01*
X155474942Y-101420562D01*
X155617800Y-101468181D01*
X155855895Y-101468181D01*
X154427323Y-100801514D02*
X154427323Y-101468181D01*
X154665419Y-100420562D02*
X154903514Y-101134848D01*
X154284466Y-101134848D01*
X155836905Y-100045781D02*
X155836905Y-99045781D01*
X155265476Y-100045781D02*
X155694048Y-99474352D01*
X155265476Y-99045781D02*
X155836905Y-99617210D01*
X163816095Y-98345167D02*
X163339904Y-98345167D01*
X163911333Y-98630881D02*
X163578000Y-97630881D01*
X163244666Y-98630881D01*
X165526981Y-110164714D02*
X164526981Y-110164714D01*
X164526981Y-110402809D01*
X164574600Y-110545667D01*
X164669838Y-110640905D01*
X164765076Y-110688524D01*
X164955552Y-110736143D01*
X165098410Y-110736143D01*
X165288886Y-110688524D01*
X165384124Y-110640905D01*
X165479362Y-110545667D01*
X165526981Y-110402809D01*
X165526981Y-110164714D01*
X165526981Y-111688524D02*
X165526981Y-111117095D01*
X165526981Y-111402809D02*
X164526981Y-111402809D01*
X164669838Y-111307571D01*
X164765076Y-111212333D01*
X164812695Y-111117095D01*
X165526981Y-112640905D02*
X165526981Y-112069476D01*
X165526981Y-112355190D02*
X164526981Y-112355190D01*
X164669838Y-112259952D01*
X164765076Y-112164714D01*
X164812695Y-112069476D01*
X168452381Y-113836095D02*
X167452381Y-113836095D01*
X168452381Y-114407524D02*
X167880952Y-113978952D01*
X167452381Y-114407524D02*
X168023810Y-113836095D01*
X168116667Y-120159905D02*
X168116667Y-120636096D01*
X168402381Y-120064667D02*
X167402381Y-120398000D01*
X168402381Y-120731334D01*
X153334886Y-97556581D02*
X153334886Y-96556581D01*
X153096791Y-96556581D01*
X152953933Y-96604200D01*
X152858695Y-96699438D01*
X152811076Y-96794676D01*
X152763457Y-96985152D01*
X152763457Y-97128010D01*
X152811076Y-97318486D01*
X152858695Y-97413724D01*
X152953933Y-97508962D01*
X153096791Y-97556581D01*
X153334886Y-97556581D01*
X151811076Y-97556581D02*
X152382505Y-97556581D01*
X152096791Y-97556581D02*
X152096791Y-96556581D01*
X152192029Y-96699438D01*
X152287267Y-96794676D01*
X152382505Y-96842295D01*
X151192029Y-96556581D02*
X151096790Y-96556581D01*
X151001552Y-96604200D01*
X150953933Y-96651819D01*
X150906314Y-96747057D01*
X150858695Y-96937533D01*
X150858695Y-97175629D01*
X150906314Y-97366105D01*
X150953933Y-97461343D01*
X151001552Y-97508962D01*
X151096790Y-97556581D01*
X151192029Y-97556581D01*
X151287267Y-97508962D01*
X151334886Y-97461343D01*
X151382505Y-97366105D01*
X151430124Y-97175629D01*
X151430124Y-96937533D01*
X151382505Y-96747057D01*
X151334886Y-96651819D01*
X151287267Y-96604200D01*
X151192029Y-96556581D01*
X154999905Y-94631181D02*
X154999905Y-93631181D01*
X154428476Y-94631181D02*
X154857048Y-94059752D01*
X154428476Y-93631181D02*
X154999905Y-94202610D01*
X161276095Y-94395467D02*
X160799904Y-94395467D01*
X161371333Y-94681181D02*
X161038000Y-93681181D01*
X160704666Y-94681181D01*
X144629095Y-97155381D02*
X144629095Y-96155381D01*
X144391000Y-96155381D01*
X144248142Y-96203000D01*
X144152904Y-96298238D01*
X144105285Y-96393476D01*
X144057666Y-96583952D01*
X144057666Y-96726810D01*
X144105285Y-96917286D01*
X144152904Y-97012524D01*
X144248142Y-97107762D01*
X144391000Y-97155381D01*
X144629095Y-97155381D01*
X143581476Y-97155381D02*
X143391000Y-97155381D01*
X143295761Y-97107762D01*
X143248142Y-97060143D01*
X143152904Y-96917286D01*
X143105285Y-96726810D01*
X143105285Y-96345857D01*
X143152904Y-96250619D01*
X143200523Y-96203000D01*
X143295761Y-96155381D01*
X143486238Y-96155381D01*
X143581476Y-96203000D01*
X143629095Y-96250619D01*
X143676714Y-96345857D01*
X143676714Y-96583952D01*
X143629095Y-96679190D01*
X143581476Y-96726810D01*
X143486238Y-96774429D01*
X143295761Y-96774429D01*
X143200523Y-96726810D01*
X143152904Y-96679190D01*
X143105285Y-96583952D01*
X140902905Y-91405381D02*
X140902905Y-90405381D01*
X140331476Y-91405381D02*
X140760048Y-90833952D01*
X140331476Y-90405381D02*
X140902905Y-90976810D01*
X147179095Y-91169667D02*
X146702904Y-91169667D01*
X147274333Y-91455381D02*
X146941000Y-90455381D01*
X146607666Y-91455381D01*
D14*
X161292714Y-119031857D02*
X161292714Y-118881857D01*
X161256999Y-118881857D01*
X161235571Y-118889000D01*
X161221285Y-118903286D01*
X161214142Y-118917571D01*
X161206999Y-118946143D01*
X161206999Y-118967571D01*
X161214142Y-118996143D01*
X161221285Y-119010429D01*
X161235571Y-119024714D01*
X161256999Y-119031857D01*
X161292714Y-119031857D01*
X161121285Y-118946143D02*
X161135571Y-118939000D01*
X161142714Y-118931857D01*
X161149857Y-118917571D01*
X161149857Y-118910429D01*
X161142714Y-118896143D01*
X161135571Y-118889000D01*
X161121285Y-118881857D01*
X161092714Y-118881857D01*
X161078428Y-118889000D01*
X161071285Y-118896143D01*
X161064142Y-118910429D01*
X161064142Y-118917571D01*
X161071285Y-118931857D01*
X161078428Y-118939000D01*
X161092714Y-118946143D01*
X161121285Y-118946143D01*
X161135571Y-118953286D01*
X161142714Y-118960429D01*
X161149857Y-118974714D01*
X161149857Y-119003286D01*
X161142714Y-119017571D01*
X161135571Y-119024714D01*
X161121285Y-119031857D01*
X161092714Y-119031857D01*
X161078428Y-119024714D01*
X161071285Y-119017571D01*
X161064142Y-119003286D01*
X161064142Y-118974714D01*
X161071285Y-118960429D01*
X161078428Y-118953286D01*
X161092714Y-118946143D01*
X150624714Y-99727857D02*
X150624714Y-99577857D01*
X150588999Y-99577857D01*
X150567571Y-99585000D01*
X150553285Y-99599286D01*
X150546142Y-99613571D01*
X150538999Y-99642143D01*
X150538999Y-99663571D01*
X150546142Y-99692143D01*
X150553285Y-99706429D01*
X150567571Y-99720714D01*
X150588999Y-99727857D01*
X150624714Y-99727857D01*
X150488999Y-99577857D02*
X150388999Y-99577857D01*
X150453285Y-99727857D01*
X135541857Y-92580286D02*
X135391857Y-92580286D01*
X135391857Y-92616001D01*
X135399000Y-92637429D01*
X135413286Y-92651715D01*
X135427571Y-92658858D01*
X135456143Y-92666001D01*
X135477571Y-92666001D01*
X135506143Y-92658858D01*
X135520429Y-92651715D01*
X135534714Y-92637429D01*
X135541857Y-92616001D01*
X135541857Y-92580286D01*
X135391857Y-92794572D02*
X135391857Y-92766001D01*
X135399000Y-92751715D01*
X135406143Y-92744572D01*
X135427571Y-92730286D01*
X135456143Y-92723143D01*
X135513286Y-92723143D01*
X135527571Y-92730286D01*
X135534714Y-92737429D01*
X135541857Y-92751715D01*
X135541857Y-92780286D01*
X135534714Y-92794572D01*
X135527571Y-92801715D01*
X135513286Y-92808858D01*
X135477571Y-92808858D01*
X135463286Y-92801715D01*
X135456143Y-92794572D01*
X135449000Y-92780286D01*
X135449000Y-92751715D01*
X135456143Y-92737429D01*
X135463286Y-92730286D01*
X135477571Y-92723143D01*
D13*
X172588181Y-114095305D02*
X171588181Y-114095305D01*
X171588181Y-114333400D01*
X171635800Y-114476258D01*
X171731038Y-114571496D01*
X171826276Y-114619115D01*
X172016752Y-114666734D01*
X172159610Y-114666734D01*
X172350086Y-114619115D01*
X172445324Y-114571496D01*
X172540562Y-114476258D01*
X172588181Y-114333400D01*
X172588181Y-114095305D01*
X171683419Y-115047686D02*
X171635800Y-115095305D01*
X171588181Y-115190543D01*
X171588181Y-115428639D01*
X171635800Y-115523877D01*
X171683419Y-115571496D01*
X171778657Y-115619115D01*
X171873895Y-115619115D01*
X172016752Y-115571496D01*
X172588181Y-115000067D01*
X172588181Y-115619115D01*
X178358381Y-111296095D02*
X177358381Y-111296095D01*
X178358381Y-111867524D02*
X177786952Y-111438952D01*
X177358381Y-111867524D02*
X177929810Y-111296095D01*
X178022667Y-117619905D02*
X178022667Y-118096096D01*
X178308381Y-117524667D02*
X177308381Y-117858000D01*
X178308381Y-118191334D01*
M02*
