G04 #@! TF.FileFunction,Soldermask,Bot*
%FSLAX46Y46*%
G04 Gerber Fmt 4.6, Leading zero omitted, Abs format (unit mm)*
G04 Created by KiCad (PCBNEW 4.0.2+dfsg1-stable) date tis 27 dec 2016 17:18:50*
%MOMM*%
G01*
G04 APERTURE LIST*
%ADD10C,0.100000*%
%ADD11C,1.501140*%
%ADD12C,2.999740*%
%ADD13R,3.500120X1.800860*%
%ADD14O,2.000000X3.000000*%
%ADD15R,1.800860X3.500120*%
%ADD16R,1.300000X1.300000*%
%ADD17R,1.727200X2.032000*%
%ADD18O,1.727200X2.032000*%
%ADD19C,1.000000*%
%ADD20O,3.500000X2.500000*%
%ADD21O,2.500000X3.500000*%
%ADD22C,4.000000*%
G04 APERTURE END LIST*
D10*
D11*
X166875880Y-94106140D03*
X166875880Y-96646140D03*
X166875880Y-98678140D03*
X166875880Y-101218140D03*
D12*
X169542880Y-91058140D03*
X169542880Y-104774140D03*
D13*
X158028640Y-101028500D03*
X163027360Y-101028500D03*
D14*
X153000000Y-87500000D03*
X156000000Y-87500000D03*
X150000000Y-87500000D03*
X147000000Y-87500000D03*
X150000000Y-122500000D03*
X153000000Y-122500000D03*
X147000000Y-122500000D03*
X156000000Y-122500000D03*
D15*
X165100000Y-114848640D03*
X165100000Y-119847360D03*
D13*
X155488640Y-97078800D03*
X160487360Y-97078800D03*
X141391640Y-93853000D03*
X146390360Y-93853000D03*
D16*
X159382000Y-118364000D03*
X162182000Y-118364000D03*
X148714000Y-99060000D03*
X151514000Y-99060000D03*
X134874000Y-94491000D03*
X134874000Y-91691000D03*
D15*
X175006000Y-112308640D03*
X175006000Y-117307360D03*
D17*
X132500000Y-87500000D03*
D18*
X135040000Y-87500000D03*
X137580000Y-87500000D03*
X140120000Y-87500000D03*
D17*
X132500000Y-122500000D03*
D18*
X135040000Y-122500000D03*
X137580000Y-122500000D03*
X140120000Y-122500000D03*
D19*
X166750000Y-123000000D03*
X165500000Y-123000000D03*
X163000000Y-123000000D03*
X164250000Y-123000000D03*
D17*
X172500000Y-122500000D03*
D18*
X175040000Y-122500000D03*
X177580000Y-122500000D03*
D17*
X172500000Y-87500000D03*
D18*
X175040000Y-87500000D03*
X177580000Y-87500000D03*
D20*
X133230000Y-107840000D03*
X133230000Y-100440000D03*
X140630000Y-100840000D03*
D21*
X138430000Y-104140000D03*
D20*
X140630000Y-107440000D03*
D22*
X134330000Y-104140000D03*
M02*
