G04 #@! TF.FileFunction,Other,User*
%FSLAX46Y46*%
G04 Gerber Fmt 4.6, Leading zero omitted, Abs format (unit mm)*
G04 Created by KiCad (PCBNEW 4.0.2+dfsg1-stable) date tis  3 jan 2017 10:33:16*
%MOMM*%
G01*
G04 APERTURE LIST*
%ADD10C,0.100000*%
%ADD11C,0.050000*%
G04 APERTURE END LIST*
D10*
D11*
X176643600Y-105863000D02*
X176643600Y-102163000D01*
X178143600Y-105863000D02*
X178143600Y-102163000D01*
X176643600Y-105863000D02*
X178143600Y-105863000D01*
X176643600Y-102163000D02*
X178143600Y-102163000D01*
X147620600Y-110224000D02*
X143920600Y-110224000D01*
X147620600Y-108724000D02*
X143920600Y-108724000D01*
X147620600Y-110224000D02*
X147620600Y-108724000D01*
X143920600Y-110224000D02*
X143920600Y-108724000D01*
X142273600Y-114803500D02*
X142273600Y-119003500D01*
X146473600Y-114803500D02*
X146473600Y-119003500D01*
X142273600Y-114803500D02*
X146473600Y-114803500D01*
X142273600Y-119003500D02*
X146473600Y-119003500D01*
X154601600Y-104538200D02*
X154601600Y-100338200D01*
X150401600Y-104538200D02*
X150401600Y-100338200D01*
X154601600Y-104538200D02*
X150401600Y-104538200D01*
X154601600Y-100338200D02*
X150401600Y-100338200D01*
X130157600Y-90585000D02*
X144757600Y-90585000D01*
X144757600Y-107835000D02*
X130157600Y-107835000D01*
X130157600Y-90585000D02*
X130157600Y-107835000D01*
X144757600Y-90585000D02*
X144757600Y-107835000D01*
X146393600Y-96523000D02*
X144893600Y-96523000D01*
X144893600Y-96523000D02*
X144893600Y-93723000D01*
X144893600Y-93723000D02*
X146393600Y-93723000D01*
X146393600Y-93723000D02*
X146393600Y-96523000D01*
X179750000Y-113400000D02*
X178250000Y-113400000D01*
X178250000Y-113400000D02*
X178250000Y-110600000D01*
X178250000Y-110600000D02*
X179750000Y-110600000D01*
X179750000Y-110600000D02*
X179750000Y-113400000D01*
X163562600Y-88643000D02*
X165062600Y-88643000D01*
X165062600Y-88643000D02*
X165062600Y-91443000D01*
X165062600Y-91443000D02*
X163562600Y-91443000D01*
X163562600Y-91443000D02*
X163562600Y-88643000D01*
X152954600Y-118352000D02*
X149254600Y-118352000D01*
X152954600Y-116852000D02*
X149254600Y-116852000D01*
X152954600Y-118352000D02*
X152954600Y-116852000D01*
X149254600Y-118352000D02*
X149254600Y-116852000D01*
X158906600Y-91706000D02*
X162606600Y-91706000D01*
X158906600Y-93206000D02*
X162606600Y-93206000D01*
X158906600Y-91706000D02*
X158906600Y-93206000D01*
X162606600Y-91706000D02*
X162606600Y-93206000D01*
X132998600Y-110502000D02*
X136698600Y-110502000D01*
X132998600Y-112002000D02*
X136698600Y-112002000D01*
X132998600Y-110502000D02*
X132998600Y-112002000D01*
X136698600Y-110502000D02*
X136698600Y-112002000D01*
X172809600Y-114482000D02*
X172809600Y-118182000D01*
X171309600Y-114482000D02*
X171309600Y-118182000D01*
X172809600Y-114482000D02*
X171309600Y-114482000D01*
X172809600Y-118182000D02*
X171309600Y-118182000D01*
X157306400Y-95973200D02*
X161006400Y-95973200D01*
X157306400Y-97473200D02*
X161006400Y-97473200D01*
X157306400Y-95973200D02*
X157306400Y-97473200D01*
X161006400Y-95973200D02*
X161006400Y-97473200D01*
X176322600Y-105779000D02*
X172622600Y-105779000D01*
X176322600Y-104279000D02*
X172622600Y-104279000D01*
X176322600Y-105779000D02*
X176322600Y-104279000D01*
X172622600Y-105779000D02*
X172622600Y-104279000D01*
X157526600Y-109462000D02*
X153826600Y-109462000D01*
X157526600Y-107962000D02*
X153826600Y-107962000D01*
X157526600Y-109462000D02*
X157526600Y-107962000D01*
X153826600Y-109462000D02*
X153826600Y-107962000D01*
X153318600Y-91706000D02*
X157018600Y-91706000D01*
X153318600Y-93206000D02*
X157018600Y-93206000D01*
X153318600Y-91706000D02*
X153318600Y-93206000D01*
X157018600Y-91706000D02*
X157018600Y-93206000D01*
X165062600Y-95940000D02*
X165062600Y-99640000D01*
X163562600Y-95940000D02*
X163562600Y-99640000D01*
X165062600Y-95940000D02*
X163562600Y-95940000D01*
X165062600Y-99640000D02*
X163562600Y-99640000D01*
X153826600Y-111518000D02*
X157526600Y-111518000D01*
X153826600Y-113018000D02*
X157526600Y-113018000D01*
X153826600Y-111518000D02*
X153826600Y-113018000D01*
X157526600Y-111518000D02*
X157526600Y-113018000D01*
X153826600Y-113296000D02*
X157526600Y-113296000D01*
X153826600Y-114796000D02*
X157526600Y-114796000D01*
X153826600Y-113296000D02*
X153826600Y-114796000D01*
X157526600Y-113296000D02*
X157526600Y-114796000D01*
X153826600Y-115074000D02*
X157526600Y-115074000D01*
X153826600Y-116574000D02*
X157526600Y-116574000D01*
X153826600Y-115074000D02*
X153826600Y-116574000D01*
X157526600Y-115074000D02*
X157526600Y-116574000D01*
X166958400Y-86778400D02*
X170658400Y-86778400D01*
X166958400Y-88278400D02*
X170658400Y-88278400D01*
X166958400Y-86778400D02*
X166958400Y-88278400D01*
X170658400Y-86778400D02*
X170658400Y-88278400D01*
X146393600Y-103052000D02*
X146393600Y-106752000D01*
X144893600Y-103052000D02*
X144893600Y-106752000D01*
X146393600Y-103052000D02*
X144893600Y-103052000D01*
X146393600Y-106752000D02*
X144893600Y-106752000D01*
X148171600Y-103052000D02*
X148171600Y-106752000D01*
X146671600Y-103052000D02*
X146671600Y-106752000D01*
X148171600Y-103052000D02*
X146671600Y-103052000D01*
X148171600Y-106752000D02*
X146671600Y-106752000D01*
X176719800Y-110308000D02*
X176719800Y-106608000D01*
X178219800Y-110308000D02*
X178219800Y-106608000D01*
X176719800Y-110308000D02*
X178219800Y-110308000D01*
X176719800Y-106608000D02*
X178219800Y-106608000D01*
X150397600Y-98741800D02*
X154097600Y-98741800D01*
X150397600Y-100241800D02*
X154097600Y-100241800D01*
X150397600Y-98741800D02*
X150397600Y-100241800D01*
X154097600Y-98741800D02*
X154097600Y-100241800D01*
X173274600Y-113551400D02*
X169574600Y-113551400D01*
X173274600Y-112051400D02*
X169574600Y-112051400D01*
X173274600Y-113551400D02*
X173274600Y-112051400D01*
X169574600Y-113551400D02*
X169574600Y-112051400D01*
X173147600Y-108141200D02*
X169447600Y-108141200D01*
X173147600Y-106641200D02*
X169447600Y-106641200D01*
X173147600Y-108141200D02*
X173147600Y-106641200D01*
X169447600Y-108141200D02*
X169447600Y-106641200D01*
X154969600Y-102120000D02*
X158669600Y-102120000D01*
X154969600Y-103620000D02*
X158669600Y-103620000D01*
X154969600Y-102120000D02*
X154969600Y-103620000D01*
X158669600Y-102120000D02*
X158669600Y-103620000D01*
X138396100Y-115836000D02*
X142096100Y-115836000D01*
X138396100Y-117336000D02*
X142096100Y-117336000D01*
X138396100Y-115836000D02*
X138396100Y-117336000D01*
X142096100Y-115836000D02*
X142096100Y-117336000D01*
X165062600Y-91749000D02*
X165062600Y-95449000D01*
X163562600Y-91749000D02*
X163562600Y-95449000D01*
X165062600Y-91749000D02*
X163562600Y-91749000D01*
X165062600Y-95449000D02*
X163562600Y-95449000D01*
X167398000Y-111578000D02*
X167398000Y-107878000D01*
X168898000Y-111578000D02*
X168898000Y-107878000D01*
X167398000Y-111578000D02*
X168898000Y-111578000D01*
X167398000Y-107878000D02*
X168898000Y-107878000D01*
X166713600Y-107878000D02*
X166713600Y-111578000D01*
X165213600Y-107878000D02*
X165213600Y-111578000D01*
X166713600Y-107878000D02*
X165213600Y-107878000D01*
X166713600Y-111578000D02*
X165213600Y-111578000D01*
X165231200Y-112026000D02*
X168931200Y-112026000D01*
X165231200Y-113526000D02*
X168931200Y-113526000D01*
X165231200Y-112026000D02*
X165231200Y-113526000D01*
X168931200Y-112026000D02*
X168931200Y-113526000D01*
X178294600Y-110308000D02*
X178294600Y-106608000D01*
X179794600Y-110308000D02*
X179794600Y-106608000D01*
X178294600Y-110308000D02*
X179794600Y-110308000D01*
X178294600Y-106608000D02*
X179794600Y-106608000D01*
X144893600Y-93544000D02*
X144893600Y-89844000D01*
X146393600Y-93544000D02*
X146393600Y-89844000D01*
X144893600Y-93544000D02*
X146393600Y-93544000D01*
X144893600Y-89844000D02*
X146393600Y-89844000D01*
X136698600Y-113780000D02*
X132998600Y-113780000D01*
X136698600Y-112280000D02*
X132998600Y-112280000D01*
X136698600Y-113780000D02*
X136698600Y-112280000D01*
X132998600Y-113780000D02*
X132998600Y-112280000D01*
X138586600Y-108724000D02*
X142286600Y-108724000D01*
X138586600Y-110224000D02*
X142286600Y-110224000D01*
X138586600Y-108724000D02*
X138586600Y-110224000D01*
X142286600Y-108724000D02*
X142286600Y-110224000D01*
X133024000Y-114058000D02*
X136724000Y-114058000D01*
X133024000Y-115558000D02*
X136724000Y-115558000D01*
X133024000Y-114058000D02*
X133024000Y-115558000D01*
X136724000Y-114058000D02*
X136724000Y-115558000D01*
X142286600Y-112002000D02*
X138586600Y-112002000D01*
X142286600Y-110502000D02*
X138586600Y-110502000D01*
X142286600Y-112002000D02*
X142286600Y-110502000D01*
X138586600Y-112002000D02*
X138586600Y-110502000D01*
X147620600Y-113780000D02*
X143920600Y-113780000D01*
X147620600Y-112280000D02*
X143920600Y-112280000D01*
X147620600Y-113780000D02*
X147620600Y-112280000D01*
X143920600Y-113780000D02*
X143920600Y-112280000D01*
X152954600Y-111240000D02*
X149254600Y-111240000D01*
X152954600Y-109740000D02*
X149254600Y-109740000D01*
X152954600Y-111240000D02*
X152954600Y-109740000D01*
X149254600Y-111240000D02*
X149254600Y-109740000D01*
X133024000Y-115836000D02*
X136724000Y-115836000D01*
X133024000Y-117336000D02*
X136724000Y-117336000D01*
X133024000Y-115836000D02*
X133024000Y-117336000D01*
X136724000Y-115836000D02*
X136724000Y-117336000D01*
X136724000Y-119114000D02*
X133024000Y-119114000D01*
X136724000Y-117614000D02*
X133024000Y-117614000D01*
X136724000Y-119114000D02*
X136724000Y-117614000D01*
X133024000Y-119114000D02*
X133024000Y-117614000D01*
X143920600Y-110502000D02*
X147620600Y-110502000D01*
X143920600Y-112002000D02*
X147620600Y-112002000D01*
X143920600Y-110502000D02*
X143920600Y-112002000D01*
X147620600Y-110502000D02*
X147620600Y-112002000D01*
X149254600Y-107962000D02*
X152954600Y-107962000D01*
X149254600Y-109462000D02*
X152954600Y-109462000D01*
X149254600Y-107962000D02*
X149254600Y-109462000D01*
X152954600Y-107962000D02*
X152954600Y-109462000D01*
X152954600Y-116574000D02*
X149254600Y-116574000D01*
X152954600Y-115074000D02*
X149254600Y-115074000D01*
X152954600Y-116574000D02*
X152954600Y-115074000D01*
X149254600Y-116574000D02*
X149254600Y-115074000D01*
X152954600Y-114796000D02*
X149254600Y-114796000D01*
X152954600Y-113296000D02*
X149254600Y-113296000D01*
X152954600Y-114796000D02*
X152954600Y-113296000D01*
X149254600Y-114796000D02*
X149254600Y-113296000D01*
X152954600Y-113018000D02*
X149254600Y-113018000D01*
X152954600Y-111518000D02*
X149254600Y-111518000D01*
X152954600Y-113018000D02*
X152954600Y-111518000D01*
X149254600Y-113018000D02*
X149254600Y-111518000D01*
X163284600Y-95940000D02*
X163284600Y-99640000D01*
X161784600Y-95940000D02*
X161784600Y-99640000D01*
X163284600Y-95940000D02*
X161784600Y-95940000D01*
X163284600Y-99640000D02*
X161784600Y-99640000D01*
X153318600Y-89928000D02*
X157018600Y-89928000D01*
X153318600Y-91428000D02*
X157018600Y-91428000D01*
X153318600Y-89928000D02*
X153318600Y-91428000D01*
X157018600Y-89928000D02*
X157018600Y-91428000D01*
X157526600Y-111240000D02*
X153826600Y-111240000D01*
X157526600Y-109740000D02*
X153826600Y-109740000D01*
X157526600Y-111240000D02*
X157526600Y-109740000D01*
X153826600Y-111240000D02*
X153826600Y-109740000D01*
X159752600Y-103780200D02*
X159752600Y-100080200D01*
X161252600Y-103780200D02*
X161252600Y-100080200D01*
X159752600Y-103780200D02*
X161252600Y-103780200D01*
X159752600Y-100080200D02*
X161252600Y-100080200D01*
X153318600Y-93484000D02*
X157018600Y-93484000D01*
X153318600Y-94984000D02*
X157018600Y-94984000D01*
X153318600Y-93484000D02*
X153318600Y-94984000D01*
X157018600Y-93484000D02*
X157018600Y-94984000D01*
X162352600Y-118352000D02*
X158652600Y-118352000D01*
X162352600Y-116852000D02*
X158652600Y-116852000D01*
X162352600Y-118352000D02*
X162352600Y-116852000D01*
X158652600Y-118352000D02*
X158652600Y-116852000D01*
X162606600Y-94984000D02*
X158906600Y-94984000D01*
X162606600Y-93484000D02*
X158906600Y-93484000D01*
X162606600Y-94984000D02*
X162606600Y-93484000D01*
X158906600Y-94984000D02*
X158906600Y-93484000D01*
X168007600Y-118182000D02*
X168007600Y-114482000D01*
X169507600Y-118182000D02*
X169507600Y-114482000D01*
X168007600Y-118182000D02*
X169507600Y-118182000D01*
X168007600Y-114482000D02*
X169507600Y-114482000D01*
X136698600Y-110224000D02*
X132998600Y-110224000D01*
X136698600Y-108724000D02*
X132998600Y-108724000D01*
X136698600Y-110224000D02*
X136698600Y-108724000D01*
X132998600Y-110224000D02*
X132998600Y-108724000D01*
X162606600Y-91428000D02*
X158906600Y-91428000D01*
X162606600Y-89928000D02*
X158906600Y-89928000D01*
X162606600Y-91428000D02*
X162606600Y-89928000D01*
X158906600Y-91428000D02*
X158906600Y-89928000D01*
X157526600Y-118352000D02*
X153826600Y-118352000D01*
X157526600Y-116852000D02*
X153826600Y-116852000D01*
X157526600Y-118352000D02*
X157526600Y-116852000D01*
X153826600Y-118352000D02*
X153826600Y-116852000D01*
X130750000Y-89250000D02*
X141900000Y-89250000D01*
X130750000Y-85750000D02*
X141900000Y-85750000D01*
X130750000Y-89250000D02*
X130750000Y-85750000D01*
X141900000Y-89250000D02*
X141900000Y-85750000D01*
X130750000Y-124250000D02*
X141900000Y-124250000D01*
X130750000Y-120750000D02*
X141900000Y-120750000D01*
X130750000Y-124250000D02*
X130750000Y-120750000D01*
X141900000Y-124250000D02*
X141900000Y-120750000D01*
X170750000Y-124250000D02*
X179350000Y-124250000D01*
X170750000Y-120750000D02*
X179350000Y-120750000D01*
X170750000Y-124250000D02*
X170750000Y-120750000D01*
X179350000Y-124250000D02*
X179350000Y-120750000D01*
X170750000Y-89250000D02*
X179350000Y-89250000D01*
X170750000Y-85750000D02*
X179350000Y-85750000D01*
X170750000Y-89250000D02*
X170750000Y-85750000D01*
X179350000Y-89250000D02*
X179350000Y-85750000D01*
X171158600Y-114482000D02*
X171158600Y-118182000D01*
X169658600Y-114482000D02*
X169658600Y-118182000D01*
X171158600Y-114482000D02*
X169658600Y-114482000D01*
X171158600Y-118182000D02*
X169658600Y-118182000D01*
X152954600Y-107684000D02*
X149254600Y-107684000D01*
X152954600Y-106184000D02*
X149254600Y-106184000D01*
X152954600Y-107684000D02*
X152954600Y-106184000D01*
X149254600Y-107684000D02*
X149254600Y-106184000D01*
X172960600Y-118182000D02*
X172960600Y-114482000D01*
X174460600Y-118182000D02*
X174460600Y-114482000D01*
X172960600Y-118182000D02*
X174460600Y-118182000D01*
X172960600Y-114482000D02*
X174460600Y-114482000D01*
X157526600Y-107684000D02*
X153826600Y-107684000D01*
X157526600Y-106184000D02*
X153826600Y-106184000D01*
X157526600Y-107684000D02*
X157526600Y-106184000D01*
X153826600Y-107684000D02*
X153826600Y-106184000D01*
X158652600Y-118630000D02*
X162352600Y-118630000D01*
X158652600Y-120130000D02*
X162352600Y-120130000D01*
X158652600Y-118630000D02*
X158652600Y-120130000D01*
X162352600Y-118630000D02*
X162352600Y-120130000D01*
X142286600Y-113780000D02*
X138586600Y-113780000D01*
X142286600Y-112280000D02*
X138586600Y-112280000D01*
X142286600Y-113780000D02*
X142286600Y-112280000D01*
X138586600Y-113780000D02*
X138586600Y-112280000D01*
M02*
